<svg id="Layer_1" data-name="Layer 1" xmlns="http://www.w3.org/2000/svg" xmlns:xlink="http://www.w3.org/1999/xlink" viewBox="0 0 570 421"><defs><style>.cls-1,.cls-10,.cls-13,.cls-7{fill:#84c0cc;}.cls-2{fill:#f99f1b;}.cls-3{fill:none;}.cls-17,.cls-18,.cls-4{fill:#ece6e3;}.cls-5{fill:#17697a;}.cls-19,.cls-20,.cls-21,.cls-6{fill:#18697a;}.cls-7{opacity:0.23;}.cls-8{fill:#efb68f;}.cls-9{fill:#d1d3d4;}.cls-10{opacity:0.53;}.cls-11{fill:#bcbec0;}.cls-12{clip-path:url(#clip-path);}.cls-13{opacity:0.56;}.cls-14{fill:#93ced4;}.cls-15{fill:#aad7dd;}.cls-16{fill:#faa52d;}.cls-17{opacity:0.25;}.cls-18{opacity:0.71;}.cls-19,.cls-20,.cls-21{font-size:9.26px;font-family:OpenSans-Regular, Open Sans;}.cls-19{letter-spacing:0.2em;}.cls-20{letter-spacing:0.18em;}.cls-22{fill:#479fb5;}.cls-23{fill:#fdb83e;}.cls-24{fill:#faa31b;}.cls-25{clip-path:url(#clip-path-2);}.cls-26{fill:#f4901f;}.cls-27{fill:#e28725;}.cls-28{clip-path:url(#clip-path-3);}.cls-29{clip-path:url(#clip-path-4);}.cls-30{clip-path:url(#clip-path-5);}.cls-31{clip-path:url(#clip-path-6);}.cls-32{clip-path:url(#clip-path-7);}.cls-33{clip-path:url(#clip-path-8);}.cls-34{clip-path:url(#clip-path-9);}.cls-35{clip-path:url(#clip-path-10);}.cls-36{clip-path:url(#clip-path-11);}.cls-37{clip-path:url(#clip-path-12);}.cls-38{clip-path:url(#clip-path-13);}.cls-39{fill:#f4ccb1;}.cls-40{clip-path:url(#clip-path-14);}.cls-41{clip-path:url(#clip-path-15);}.cls-42{fill:#47494c;}.cls-43{clip-path:url(#clip-path-16);}.cls-44{clip-path:url(#clip-path-17);}.cls-45{fill:#fff;}</style><clipPath id="clip-path"><rect class="cls-1" x="165.72" y="222.29" width="189.97" height="124.32"/></clipPath><clipPath id="clip-path-2"><path class="cls-2" d="M122.32,388.09v8.39c0,2.91,15.52,5.26,34.68,5.26s34.67-2.35,34.67-5.26v-8.39Z"/></clipPath><clipPath id="clip-path-3"><path class="cls-3" d="M122.32,388.09v8.39c0,2.91,15.52,5.26,34.68,5.26s34.67-2.35,34.67-5.26v-8.39H122.32"/></clipPath><clipPath id="clip-path-4"><path class="cls-2" d="M127.23,378.3v8.38c0,2.91,15.52,5.27,34.67,5.27s34.68-2.36,34.68-5.27V378.3Z"/></clipPath><clipPath id="clip-path-5"><path class="cls-3" d="M127.23,378.3v8.38c0,2.91,15.52,5.27,34.67,5.27s34.68-2.36,34.68-5.27V378.3H127.23"/></clipPath><clipPath id="clip-path-6"><path class="cls-2" d="M123.15,368v8.39c0,2.91,15.53,5.26,34.68,5.26s34.68-2.35,34.68-5.26V368Z"/></clipPath><clipPath id="clip-path-7"><path class="cls-3" d="M123.15,368v8.39c0,2.91,15.53,5.26,34.68,5.26s34.68-2.35,34.68-5.26V368H123.15"/></clipPath><clipPath id="clip-path-8"><path class="cls-2" d="M126.28,358.41v8.39c0,2.91,15.53,5.27,34.68,5.27s34.68-2.36,34.68-5.27v-8.39Z"/></clipPath><clipPath id="clip-path-9"><path class="cls-3" d="M126.28,358.41v8.39c0,2.91,15.53,5.27,34.68,5.27s34.68-2.36,34.68-5.27v-8.39H126.28"/></clipPath><clipPath id="clip-path-10"><path class="cls-2" d="M131.19,348.62V357c0,2.9,15.52,5.26,34.68,5.26s34.67-2.36,34.67-5.26v-8.39Z"/></clipPath><clipPath id="clip-path-11"><path class="cls-3" d="M131.19,348.62V357c0,2.9,15.52,5.26,34.68,5.26s34.67-2.36,34.67-5.26v-8.39H131.19"/></clipPath><clipPath id="clip-path-12"><path class="cls-2" d="M127.11,338.36v8.39c0,2.91,15.53,5.27,34.68,5.27s34.68-2.36,34.68-5.27v-8.39Z"/></clipPath><clipPath id="clip-path-13"><path class="cls-3" d="M127.11,338.36v8.39c0,2.91,15.53,5.27,34.68,5.27s34.68-2.36,34.68-5.27v-8.39H127.11"/></clipPath><clipPath id="clip-path-14"><path class="cls-4" d="M439.43,275.54a54.64,54.64,0,0,0,10.22,1.68c5.45.54,11.07.91,14,2a3.13,3.13,0,0,1,2,1.49c1.27,3.48,6.89,8.87,6.89,8.87,36.05-1.49,40-15.2,40-15.2-34-25.09-65.3-33.06-65.3-33.06s-2.94-1.13-10.32,4.2c-4.93,3.57-4.28,4.93-4.28,4.93s-.05,15.78,6.76,25.11Z"/></clipPath><clipPath id="clip-path-15"><path class="cls-5" d="M46,246.45s-.6-3,6.27-12.18c1.48-2,6-9.45,6-9.45,1.79-.43,7.35,2.53,8.82,3.43l.47.29S70,238.87,64.9,237.7a4,4,0,0,0-.48-.09c-4.89-.76-9.62,4.09-11.76,7.18-1.4,2-5.72,1.74-6.65,1.66Z"/></clipPath><clipPath id="clip-path-16"><path class="cls-5" d="M82.3,226.38s-.61-3,6.27-12.18c1.48-2,6-9.45,6-9.45,1.79-.43,7.36,2.53,8.82,3.43l.47.29s2.38,10.33-2.68,9.16l-.47-.09c-4.9-.77-9.62,4.09-11.77,7.17-1.4,2-5.71,1.75-6.64,1.67Z"/></clipPath><clipPath id="clip-path-17"><path class="cls-6" d="M156.82,176.82c-1.32-5.77-16-23.78-23.47-19.61s-3.61,26.82,4.21,53.53l.36,1.21a332.42,332.42,0,0,0-34.52-3.44l-2,9.3c14.21,4,41.8,17.92,53.38,23.92,4.42,2,9.62,2,10.68-1.93,3.54-13.3-8.66-63-8.66-63Z"/></clipPath></defs><path class="cls-5" d="M438.07,215.4c-.14-.5,11.82,4.91,12.43,5.52,5.61,5.66,4,13,.8,13.11-2.06.05-1.66,3.15-1.66,3.15l-22.93-8.81s2.76-14.64,11.36-13Z"/><path class="cls-7" d="M533.07,410.06s58.3-78.82,23.1-223C547,149.43,518.36,103.3,446,111.55c-24.18,2.76-82.26,43.87-138.52-15.41C228.23,17.88,8.32,116.22,32.64,229.71c19.09,88.67-58.1,91.9-18.77,180.53l519.2-.18Z"/><path class="cls-5" d="M413.59,214.27c3.63-2.56,10.35-2.62,11.36-2.6,12.89.35,21,9.67,22.36,14.35,2.48,8.61,13.82,5,16.05,13.45,2.83,10.64-21,14.74-27.91,20.75-4.15,3.6,22.74,9.45,22.74,9.45S436.46,255,423.57,255.42c-15.14.49-19.24-34.63-10-41.15Z"/><path class="cls-8" d="M384.05,274.14s-1.65-6.25-3.31-7.57-7.11-4.43-7.74-3.9,3.93,5.69,3.95,6.33,1.37,5.91,3.2,6.45,3.9-1.31,3.9-1.31Z"/><path class="cls-8" d="M439.34,248.2c5.81-3.75,14.14,1.47,13.55,8.58a6.92,6.92,0,0,1-1.35,3.64c-4.6,6.2-36,19.08-39.34,19.75-6.09,1.22-33.16-.62-33.16-.62l-1.26-4.16s26.23-5.89,29.33-5.81c3.58.09,21.2-14.28,32.23-21.38Z"/><path class="cls-9" d="M435.14,248.6a7,7,0,0,1,11,6.6,6.49,6.49,0,0,1-1.31,3.13c-4.16,5.44-31.41,21.61-34.26,22.34-5.19,1.32-19.11.14-19.11.14l-1.94-8s14.89-4.56,17.49-4.65c3-.09,18.52-13.05,28.14-19.58Z"/><path class="cls-10" d="M27,328c6.44-7.75,19.37,2.5,19.37,2.5s2.38,20.71,5,22.55,1.22-18.13,1.22-18.13c5.7,2.29,16.29,16.64,16.29,16.64s-9.37,17.8-6.39,18.9S70,354.21,70,354.21c4.49,4.43,6.38,13.53,6.38,13.53,1.2,13.84-15.61,14.77-15.61,14.77A34.72,34.72,0,0,0,58,398h0a25.6,25.6,0,0,1,0,4.5l-1.44-.75c.07-.47.13-.93.16-1.39h0v0c0-.29,0-.7,0-1.2h0c0-1.15,0-2,0-2.56h0c0-3.55-.14-8.27-1-9.72a2.89,2.89,0,0,0,.63-.54l-.63.54c-5.06,4.31-17.79-1.2-23.95-6.28s-2.22-5.56,3-7S47.35,377.1,50.24,377s.16-3.16-4.58-5.18-9.28,1.63-17-1.48-6.5-20.78-6.5-20.78c4.31,4.34,14.83,6.14,16.05,4.46S25.82,345.44,24,343.78s-3.46-8.07,3-15.82Z"/><rect class="cls-11" x="248.95" y="358.23" width="23.59" height="33.28"/><rect class="cls-9" x="159.08" y="212.13" width="204.67" height="146.13" rx="17.52"/><rect class="cls-9" x="207.04" y="391.51" width="107.83" height="5.29"/><rect class="cls-1" x="165.72" y="222.29" width="189.97" height="124.32"/><g class="cls-12"><polygon class="cls-13" points="263.11 218.97 361.47 258.26 366.78 214.54 263.11 218.97"/><polygon class="cls-13" points="159.45 241.1 360.51 323.92 361.95 350.12 145.95 265.08 159.45 241.1"/><polygon class="cls-13" points="153.66 300.68 276.13 351.78 144.02 352.33 153.66 300.68"/></g><rect class="cls-6" x="269.32" y="243.71" width="5.42" height="85.19"/><polyline class="cls-14" points="355.69 346.61 165.72 346.61 165.72 222.3 355.69 222.3 355.69 346.61"/><polyline class="cls-15" points="165.72 335.17 165.72 301.4 267.53 222.29 310.84 222.3 165.72 335.17"/><polyline class="cls-15" points="198.37 346.61 177.26 346.61 328.36 222.29 349.51 222.3 198.37 346.61"/><polyline class="cls-15" points="231.94 346.61 220.41 346.61 355.69 235.44 355.69 244.97 231.94 346.61"/><path class="cls-16" d="M374.76,328.39H255.46A7.49,7.49,0,0,1,248,320.9V256.06a7.5,7.5,0,0,1,7.49-7.49h119.3a7.5,7.5,0,0,1,7.49,7.49V320.9a7.49,7.49,0,0,1-7.49,7.49Z"/><path class="cls-17" d="M248.1,254.68a7.87,7.87,0,0,0-.13,1.38V320.9a7.49,7.49,0,0,0,7.49,7.49h119.3a7.52,7.52,0,0,0,5.71-2.64L248.1,254.68Z"/><path class="cls-18" d="M265.17,308h-7.91a3.56,3.56,0,0,1-3.56-3.56v-7.92a3.55,3.55,0,0,1,3.56-3.55h7.91a3.55,3.55,0,0,1,3.56,3.55v7.92a3.56,3.56,0,0,1-3.56,3.56Z"/><text class="cls-19" transform="translate(277.53 317.96)">123 456 </text><text class="cls-20" transform="translate(329.21 317.96)">78</text><text class="cls-21" transform="translate(344.41 317.96)">9</text><text class="cls-20" transform="translate(352.81 262.86)">23</text><text class="cls-21" transform="translate(368 262.86)">8</text><polygon class="cls-22" points="371.8 302.85 275.27 302.85 275.27 297.42 371.8 297.42 371.8 302.85 371.8 302.85"/><rect class="cls-6" x="245.32" y="245.37" width="5.42" height="85.97"/><path class="cls-23" d="M55,344.84A33.49,33.49,0,1,1,88.5,378.32,33.48,33.48,0,0,1,55,344.84Z"/><path class="cls-24" d="M88.5,316.55a28.69,28.69,0,1,0,28.69,28.68A28.72,28.72,0,0,0,88.5,316.55Zm0,59.19a30.51,30.51,0,1,1,21.57-8.93,30.3,30.3,0,0,1-21.57,8.93Z"/><path class="cls-24" d="M92.7,354.09a5.12,5.12,0,0,0-.07-1.77,3.68,3.68,0,0,0-.75-1.47,7.12,7.12,0,0,0-1.5-1.33,20.3,20.3,0,0,0-2.32-1.3,47.86,47.86,0,0,1-4.29-2.35,15.19,15.19,0,0,1-3.2-2.61,8.79,8.79,0,0,1-1.9-3.18,9.35,9.35,0,0,1-.32-4.06,9.21,9.21,0,0,1,1.14-3.56,8.49,8.49,0,0,1,2.36-2.63,10.53,10.53,0,0,1,3.39-1.61,14.18,14.18,0,0,1,4.22-.49l.6-5,4,.48-.61,5.1a12.59,12.59,0,0,1,3.81,1.62,9.84,9.84,0,0,1,2.75,2.62,10,10,0,0,1,1.52,3.5,12.8,12.8,0,0,1,.16,4.32l-7.31-.87a6.12,6.12,0,0,0-.75-4.36,4.33,4.33,0,0,0-3.18-1.8,5.4,5.4,0,0,0-2,.09,3.68,3.68,0,0,0-1.46.7,3.5,3.5,0,0,0-.94,1.21,5.18,5.18,0,0,0-.44,1.6,4.69,4.69,0,0,0,.06,1.6,3.51,3.51,0,0,0,.72,1.41A7,7,0,0,0,88,341.24a23.65,23.65,0,0,0,2.41,1.4c1.57.8,3,1.6,4.25,2.41a15.06,15.06,0,0,1,3.18,2.63,8.91,8.91,0,0,1,1.9,3.19,10.19,10.19,0,0,1-.84,7.67,8.43,8.43,0,0,1-2.37,2.6,10.39,10.39,0,0,1-3.4,1.55,15.2,15.2,0,0,1-4.25.45l-.56,4.67-4-.47.55-4.66a16.58,16.58,0,0,1-4-1.4,10.56,10.56,0,0,1-3.23-2.44,9.68,9.68,0,0,1-2-3.64,11.94,11.94,0,0,1-.33-4.94l7.31.86A7.19,7.19,0,0,0,82.7,354a4.7,4.7,0,0,0,1,1.94,4.51,4.51,0,0,0,1.67,1.15,7.64,7.64,0,0,0,2,.51,6.47,6.47,0,0,0,2.13-.06,4.2,4.2,0,0,0,1.6-.67,3.39,3.39,0,0,0,1.06-1.17,4.26,4.26,0,0,0,.5-1.57Z"/><path class="cls-2" d="M122.32,388.09v8.39c0,2.91,15.52,5.26,34.68,5.26s34.67-2.35,34.67-5.26v-8.39Z"/><g class="cls-25"><path class="cls-26" d="M157.63,402.94H106.88a1.37,1.37,0,0,1-.94-.4,4.19,4.19,0,0,1-1.09-2.83.86.86,0,0,1,0-.16v-9.64c.06-1.88,1-3.39,2-3.39H151.4c.69,4.7,2.27,11.16,5.91,16l.32.4Z"/></g><path class="cls-2" d="M184.56,387.38c0,1.35-12.34,2.45-27.56,2.45s-27.57-1.1-27.57-2.45,12.34-2.44,27.57-2.44,27.56,1.09,27.56,2.44Z"/><path class="cls-27" d="M130.61,388.09c3.44-1,13.95-1.73,26.39-1.73s22.94.73,26.38,1.73c.77-.22,1.18-.46,1.18-.71,0-1.35-12.34-2.44-27.56-2.44s-27.57,1.09-27.57,2.44c0,.25.41.49,1.18.71Z"/><g class="cls-28"><polygon class="cls-26" points="189.27 384.61 189.27 403.84 190.91 403.84 190.91 384.61 189.27 384.61 189.27 384.61"/><polygon class="cls-26" points="185.02 403.84 186.66 403.84 186.66 384.61 185.02 384.61 185.02 403.84 185.02 403.84"/><polygon class="cls-26" points="180.16 403.84 181.8 403.84 181.8 384.61 180.16 384.61 180.16 403.84 180.16 403.84"/><polygon class="cls-26" points="174.09 403.84 175.74 403.84 175.74 384.61 174.09 384.61 174.09 403.84 174.09 403.84"/><polygon class="cls-26" points="167.43 403.84 169.07 403.84 169.07 384.61 167.43 384.61 167.43 403.84 167.43 403.84"/><polygon class="cls-26" points="160.16 403.84 161.8 403.84 161.8 384.61 160.16 384.61 160.16 403.84 160.16 403.84"/></g><path class="cls-23" d="M191.67,387.94c0,2.9-15.52,5.26-34.67,5.26s-34.68-2.36-34.68-5.26,15.52-5.27,34.68-5.27,34.67,2.36,34.67,5.27Z"/><path class="cls-2" d="M186.16,387.58c0,1.35-12.34,2.45-27.56,2.45S131,388.93,131,387.58s12.34-2.44,27.57-2.44,27.56,1.09,27.56,2.44Z"/><path class="cls-26" d="M132.22,388.29c3.43-1,13.94-1.73,26.38-1.73s22.94.73,26.38,1.73c.77-.22,1.18-.46,1.18-.71,0-1.35-12.34-2.44-27.56-2.44S131,386.23,131,387.58c0,.25.42.49,1.19.71Z"/><path class="cls-2" d="M127.23,378.3v8.38c0,2.91,15.52,5.27,34.67,5.27s34.68-2.36,34.68-5.27V378.3Z"/><g class="cls-29"><path class="cls-26" d="M162.53,393.15H111.79a1.38,1.38,0,0,1-.94-.41,4.19,4.19,0,0,1-1.09-2.83.81.81,0,0,1,0-.16v-9.64c0-1.88,1-3.39,2-3.39H156.3c.69,4.7,2.28,11.16,5.92,16l.31.41Z"/></g><path class="cls-2" d="M189.47,377.59c0,1.35-12.34,2.44-27.57,2.44s-27.57-1.09-27.57-2.44,12.35-2.45,27.57-2.45,27.57,1.1,27.57,2.45Z"/><path class="cls-27" d="M135.52,378.3c3.44-1,13.95-1.74,26.38-1.74s22.95.73,26.38,1.74c.77-.23,1.19-.47,1.19-.71,0-1.35-12.34-2.45-27.57-2.45s-27.57,1.1-27.57,2.45c0,.24.42.48,1.19.71Z"/><g class="cls-30"><polygon class="cls-26" points="194.18 374.81 194.18 394.04 195.82 394.04 195.82 374.81 194.18 374.81 194.18 374.81"/><polygon class="cls-26" points="189.92 394.04 191.57 394.04 191.57 374.81 189.92 374.81 189.92 394.04 189.92 394.04"/><polygon class="cls-26" points="185.06 394.04 186.71 394.04 186.71 374.81 185.06 374.81 185.06 394.04 185.06 394.04"/><polygon class="cls-26" points="179 394.04 180.64 394.04 180.64 374.81 179 374.81 179 394.04 179 394.04"/><polygon class="cls-26" points="172.33 394.04 173.97 394.04 173.97 374.81 172.33 374.81 172.33 394.04 172.33 394.04"/><polygon class="cls-26" points="165.06 394.04 166.71 394.04 166.71 374.81 165.06 374.81 165.06 394.04 165.06 394.04"/></g><path class="cls-23" d="M196.58,378.14c0,2.91-15.52,5.27-34.68,5.27s-34.67-2.36-34.67-5.27,15.52-5.27,34.67-5.27,34.68,2.36,34.68,5.27Z"/><path class="cls-2" d="M191.07,377.79c0,1.35-12.34,2.44-27.57,2.44s-27.56-1.09-27.56-2.44,12.34-2.45,27.56-2.45,27.57,1.1,27.57,2.45Z"/><path class="cls-26" d="M137.12,378.5c3.44-1,13.95-1.73,26.38-1.73s22.95.73,26.38,1.73c.77-.23,1.19-.47,1.19-.71,0-1.35-12.34-2.45-27.57-2.45s-27.56,1.1-27.56,2.45c0,.24.41.48,1.18.71Z"/><path class="cls-2" d="M123.15,368v8.39c0,2.91,15.53,5.26,34.68,5.26s34.68-2.35,34.68-5.26V368Z"/><g class="cls-31"><path class="cls-26" d="M158.46,382.89H107.72a1.37,1.37,0,0,1-.94-.4,4.24,4.24,0,0,1-1.1-2.83v-.16a1.09,1.09,0,0,1,0-.18V370a1.09,1.09,0,0,1,0-.18c0-1.88.95-3.4,2-3.4h44.51c.69,4.71,2.28,11.17,5.92,16l.31.4Z"/></g><path class="cls-2" d="M185.4,367.33c0,1.35-12.34,2.45-27.57,2.45s-27.57-1.1-27.57-2.45,12.35-2.44,27.57-2.44,27.57,1.09,27.57,2.44Z"/><path class="cls-27" d="M131.45,368c3.43-1,13.94-1.73,26.38-1.73s22.95.73,26.38,1.73c.77-.22,1.19-.46,1.19-.71,0-1.35-12.34-2.44-27.57-2.44s-27.57,1.09-27.57,2.44c0,.25.42.49,1.19.71Z"/><g class="cls-32"><polygon class="cls-26" points="190.11 364.56 190.11 383.79 191.75 383.79 191.75 364.56 190.11 364.56 190.11 364.56"/><polygon class="cls-26" points="185.85 383.79 187.49 383.79 187.49 364.56 185.85 364.56 185.85 383.79 185.85 383.79"/><polygon class="cls-26" points="180.99 383.79 182.63 383.79 182.63 364.56 180.99 364.56 180.99 383.79 180.99 383.79"/><polygon class="cls-26" points="174.93 383.79 176.57 383.79 176.57 364.56 174.93 364.56 174.93 383.79 174.93 383.79"/><polygon class="cls-26" points="168.26 383.79 169.9 383.79 169.9 364.56 168.26 364.56 168.26 383.79 168.26 383.79"/><polygon class="cls-26" points="160.99 383.79 162.63 383.79 162.63 364.56 160.99 364.56 160.99 383.79 160.99 383.79"/></g><path class="cls-23" d="M192.51,367.88c0,2.91-15.53,5.27-34.68,5.27s-34.68-2.36-34.68-5.27,15.53-5.26,34.68-5.26,34.68,2.36,34.68,5.26Z"/><path class="cls-2" d="M187,367.53c0,1.35-12.34,2.45-27.57,2.45s-27.57-1.1-27.57-2.45,12.35-2.44,27.57-2.44S187,366.18,187,367.53Z"/><path class="cls-26" d="M133.05,368.24c3.43-1,13.94-1.73,26.38-1.73s22.95.73,26.38,1.73c.77-.22,1.19-.46,1.19-.71,0-1.35-12.34-2.44-27.57-2.44s-27.57,1.09-27.57,2.44c0,.25.42.49,1.19.71Z"/><path class="cls-2" d="M126.28,358.41v8.39c0,2.91,15.53,5.27,34.68,5.27s34.68-2.36,34.68-5.27v-8.39Z"/><g class="cls-33"><path class="cls-26" d="M161.59,373.26H110.85a1.41,1.41,0,0,1-.95-.4,4.24,4.24,0,0,1-1.09-2.83s0-.11,0-.16v-9.64c.06-1.88,1-3.39,2-3.39h44.51c.69,4.7,2.27,11.16,5.92,16,.1.13.2.27.31.4Z"/></g><path class="cls-2" d="M188.53,357.7c0,1.35-12.35,2.45-27.57,2.45s-27.57-1.1-27.57-2.45,12.34-2.44,27.57-2.44,27.57,1.09,27.57,2.44Z"/><path class="cls-27" d="M134.58,358.41c3.43-1,13.94-1.73,26.38-1.73s22.94.73,26.38,1.73c.77-.22,1.19-.46,1.19-.71,0-1.35-12.35-2.44-27.57-2.44s-27.57,1.09-27.57,2.44c0,.25.42.49,1.19.71Z"/><g class="cls-34"><polygon class="cls-26" points="193.24 354.93 193.24 374.16 194.88 374.16 194.88 354.93 193.24 354.93 193.24 354.93"/><polygon class="cls-26" points="188.98 374.16 190.62 374.16 190.62 354.93 188.98 354.93 188.98 374.16 188.98 374.16"/><polygon class="cls-26" points="184.12 374.16 185.76 374.16 185.76 354.93 184.12 354.93 184.12 374.16 184.12 374.16"/><polygon class="cls-26" points="178.06 374.16 179.7 374.16 179.7 354.93 178.06 354.93 178.06 374.16 178.06 374.16"/><polygon class="cls-26" points="171.39 374.16 173.03 374.16 173.03 354.93 171.39 354.93 171.39 374.16 171.39 374.16"/><polygon class="cls-26" points="164.12 374.16 165.76 374.16 165.76 354.93 164.12 354.93 164.12 374.16 164.12 374.16"/></g><path class="cls-23" d="M195.64,358.26c0,2.9-15.53,5.26-34.68,5.26s-34.68-2.36-34.68-5.26S141.81,353,161,353s34.68,2.36,34.68,5.27Z"/><path class="cls-2" d="M190.13,357.9c0,1.35-12.35,2.45-27.57,2.45S135,359.25,135,357.9s12.34-2.44,27.57-2.44,27.57,1.09,27.57,2.44Z"/><path class="cls-26" d="M136.18,358.61c3.43-1,13.94-1.73,26.38-1.73s22.95.73,26.38,1.73c.77-.22,1.19-.46,1.19-.71,0-1.35-12.35-2.44-27.57-2.44S135,356.55,135,357.9c0,.25.42.49,1.19.71Z"/><path class="cls-2" d="M131.19,348.62V357c0,2.9,15.52,5.26,34.68,5.26s34.67-2.36,34.67-5.26v-8.39Z"/><g class="cls-35"><path class="cls-26" d="M166.5,363.47H115.75a1.38,1.38,0,0,1-.94-.41,4.24,4.24,0,0,1-1.09-2.83.76.76,0,0,1,0-.15v-9.65c.06-1.88,1-3.39,2-3.39h44.52c.69,4.71,2.27,11.16,5.92,16l.31.41Z"/></g><path class="cls-2" d="M193.43,347.91c0,1.35-12.34,2.44-27.56,2.44s-27.57-1.09-27.57-2.44,12.34-2.45,27.57-2.45,27.56,1.1,27.56,2.45Z"/><path class="cls-27" d="M139.49,348.62c3.43-1,13.94-1.74,26.38-1.74s22.94.73,26.38,1.74c.77-.23,1.18-.47,1.18-.71,0-1.35-12.34-2.45-27.56-2.45s-27.57,1.1-27.57,2.45c0,.24.42.48,1.19.71Z"/><g class="cls-36"><polygon class="cls-26" points="198.14 345.13 198.14 364.36 199.79 364.36 199.79 345.13 198.14 345.13 198.14 345.13"/><polygon class="cls-26" points="193.89 364.36 195.53 364.36 195.53 345.13 193.89 345.13 193.89 364.36 193.89 364.36"/><polygon class="cls-26" points="189.03 364.36 190.67 364.36 190.67 345.13 189.03 345.13 189.03 364.36 189.03 364.36"/><polygon class="cls-26" points="182.96 364.36 184.6 364.36 184.6 345.13 182.96 345.13 182.96 364.36 182.96 364.36"/><polygon class="cls-26" points="176.3 364.36 177.94 364.36 177.94 345.13 176.3 345.13 176.3 364.36 176.3 364.36"/><polygon class="cls-26" points="169.03 364.36 170.67 364.36 170.67 345.13 169.03 345.13 169.03 364.36 169.03 364.36"/></g><path class="cls-23" d="M200.54,348.46c0,2.91-15.52,5.27-34.67,5.27s-34.68-2.36-34.68-5.27,15.52-5.26,34.68-5.26,34.67,2.35,34.67,5.26Z"/><path class="cls-2" d="M195,348.11c0,1.35-12.35,2.44-27.57,2.44s-27.57-1.09-27.57-2.44,12.34-2.45,27.57-2.45,27.57,1.1,27.57,2.45Z"/><path class="cls-26" d="M141.09,348.82c3.43-1,13.94-1.73,26.38-1.73s22.94.73,26.38,1.73c.77-.23,1.19-.47,1.19-.71,0-1.35-12.35-2.45-27.57-2.45s-27.57,1.1-27.57,2.45c0,.24.42.48,1.19.71Z"/><path class="cls-2" d="M127.11,338.36v8.39c0,2.91,15.53,5.27,34.68,5.27s34.68-2.36,34.68-5.27v-8.39Z"/><g class="cls-37"><path class="cls-26" d="M162.42,353.21H111.68a1.37,1.37,0,0,1-.94-.4,4.24,4.24,0,0,1-1.1-2.83v-.16c0-.06,0-.12,0-.18v-9.28c0-.06,0-.12,0-.18,0-1.88,1-3.39,2-3.39h44.51c.69,4.7,2.28,11.16,5.92,16,.11.13.21.27.31.4Z"/></g><path class="cls-2" d="M189.36,337.65c0,1.35-12.34,2.45-27.57,2.45s-27.57-1.1-27.57-2.45,12.35-2.44,27.57-2.44,27.57,1.09,27.57,2.44Z"/><path class="cls-27" d="M135.41,338.36c3.44-1,14-1.73,26.38-1.73s23,.73,26.38,1.73c.77-.22,1.19-.46,1.19-.71,0-1.35-12.34-2.44-27.57-2.44s-27.57,1.09-27.57,2.44c0,.25.42.49,1.19.71Z"/><g class="cls-38"><polygon class="cls-26" points="194.07 334.88 194.07 354.11 195.71 354.11 195.71 334.88 194.07 334.88 194.07 334.88"/><polygon class="cls-26" points="189.81 354.11 191.46 354.11 191.46 334.88 189.81 334.88 189.81 354.11 189.81 354.11"/><polygon class="cls-26" points="184.95 354.11 186.6 354.11 186.6 334.88 184.95 334.88 184.95 354.11 184.95 354.11"/><polygon class="cls-26" points="178.89 354.11 180.53 354.11 180.53 334.88 178.89 334.88 178.89 354.11 178.89 354.11"/><polygon class="cls-26" points="172.22 354.11 173.87 354.11 173.87 334.88 172.22 334.88 172.22 354.11 172.22 354.11"/><polygon class="cls-26" points="164.96 354.11 166.6 354.11 166.6 334.88 164.96 334.88 164.96 354.11 164.96 354.11"/></g><path class="cls-23" d="M196.47,338.21c0,2.9-15.52,5.26-34.68,5.26s-34.68-2.36-34.68-5.26,15.53-5.27,34.68-5.27,34.68,2.36,34.68,5.27Z"/><path class="cls-2" d="M191,337.85c0,1.35-12.34,2.45-27.57,2.45s-27.56-1.1-27.56-2.45,12.34-2.44,27.56-2.44S191,336.5,191,337.85Z"/><path class="cls-26" d="M137,338.56c3.44-1,14-1.73,26.38-1.73s23,.73,26.38,1.73c.77-.22,1.19-.46,1.19-.71,0-1.35-12.34-2.44-27.57-2.44s-27.56,1.09-27.56,2.44c0,.25.41.49,1.18.71Z"/><path class="cls-23" d="M76.86,368.76a33.49,33.49,0,1,1,33.48,33.48,33.48,33.48,0,0,1-33.48-33.48Z"/><path class="cls-24" d="M110.34,340.46A28.69,28.69,0,1,0,139,369.15a28.72,28.72,0,0,0-28.69-28.69Zm0,59.2a30.52,30.52,0,1,1,21.57-8.94,30.31,30.31,0,0,1-21.57,8.94Z"/><path class="cls-24" d="M114.54,378a4.9,4.9,0,0,0-.07-1.77,3.81,3.81,0,0,0-.75-1.47,6.61,6.61,0,0,0-1.5-1.32,18.16,18.16,0,0,0-2.32-1.3,47.58,47.58,0,0,1-4.28-2.36,15,15,0,0,1-3.21-2.6,9.08,9.08,0,0,1-1.89-3.18,10.07,10.07,0,0,1,.81-7.63,8.36,8.36,0,0,1,2.37-2.62,10.7,10.7,0,0,1,3.38-1.62,14.22,14.22,0,0,1,4.23-.48l.59-5,4,.48-.6,5.1a12.81,12.81,0,0,1,3.81,1.62,9.55,9.55,0,0,1,4.26,6.12,12.79,12.79,0,0,1,.17,4.32l-7.31-.87a6.19,6.19,0,0,0-.76-4.37,4.27,4.27,0,0,0-3.18-1.79,5.64,5.64,0,0,0-2,.08,3.76,3.76,0,0,0-1.46.71,3.47,3.47,0,0,0-.93,1.21,5.05,5.05,0,0,0-.45,1.59,4.5,4.5,0,0,0,.07,1.61,3.48,3.48,0,0,0,.71,1.41,7.54,7.54,0,0,0,1.51,1.32,24,24,0,0,0,2.42,1.39q2.34,1.21,4.24,2.41a15.44,15.44,0,0,1,3.19,2.63,8.63,8.63,0,0,1,2.22,7.23,9.35,9.35,0,0,1-1.16,3.63,8.35,8.35,0,0,1-2.38,2.6,10.1,10.1,0,0,1-3.4,1.55,15.16,15.16,0,0,1-4.25.45l-.55,4.68-4-.48.55-4.65a16.87,16.87,0,0,1-4-1.4,10.89,10.89,0,0,1-3.24-2.44,9.73,9.73,0,0,1-2-3.64,11.81,11.81,0,0,1-.34-4.95l7.31.87a7.39,7.39,0,0,0,.14,2.84,4.54,4.54,0,0,0,2.71,3.09,8.59,8.59,0,0,0,2,.51,6.69,6.69,0,0,0,2.12-.06,4.47,4.47,0,0,0,1.6-.67,3.42,3.42,0,0,0,1.07-1.17,4.3,4.3,0,0,0,.49-1.58Z"/><path class="cls-23" d="M130.63,305.16a33.49,33.49,0,1,1,33.49,33.48,33.48,33.48,0,0,1-33.49-33.48Z"/><path class="cls-24" d="M164.12,276.86a28.69,28.69,0,1,0,28.69,28.69,28.73,28.73,0,0,0-28.69-28.69Zm0,59.2a30.52,30.52,0,1,1,21.57-8.94,30.27,30.27,0,0,1-21.57,8.94Z"/><path class="cls-24" d="M168.32,314.41a5.12,5.12,0,0,0-.07-1.77,3.78,3.78,0,0,0-.75-1.48,7.67,7.67,0,0,0-1.5-1.32,20.3,20.3,0,0,0-2.32-1.3,46.52,46.52,0,0,1-4.29-2.35,15.5,15.5,0,0,1-3.2-2.61,8.79,8.79,0,0,1-1.9-3.18,10.1,10.1,0,0,1,.82-7.62,8.49,8.49,0,0,1,2.36-2.63,10.53,10.53,0,0,1,3.39-1.61,13.86,13.86,0,0,1,4.22-.49l.6-5,4,.48-.61,5.1a12.59,12.59,0,0,1,3.81,1.62,9.61,9.61,0,0,1,4.27,6.12,12.8,12.8,0,0,1,.16,4.32l-7.31-.87a6.26,6.26,0,0,0-.75-4.37,4.32,4.32,0,0,0-3.19-1.79,5.6,5.6,0,0,0-2,.08,3.83,3.83,0,0,0-1.46.71,3.5,3.5,0,0,0-.94,1.21,4.92,4.92,0,0,0-.44,1.6,4.69,4.69,0,0,0,.06,1.6,3.39,3.39,0,0,0,.72,1.41,7,7,0,0,0,1.51,1.32A25.68,25.68,0,0,0,166,303q2.36,1.2,4.24,2.4a15.49,15.49,0,0,1,3.19,2.63,9,9,0,0,1,1.9,3.2,10.19,10.19,0,0,1-.84,7.67,8.54,8.54,0,0,1-2.37,2.6,10.39,10.39,0,0,1-3.4,1.55,16,16,0,0,1-4.25.45l-.56,4.67-4-.48.55-4.65a17,17,0,0,1-3.95-1.4,10.89,10.89,0,0,1-3.24-2.44,9.87,9.87,0,0,1-2-3.64,11.82,11.82,0,0,1-.33-4.95l7.31.87a7.19,7.19,0,0,0,.14,2.84,4.6,4.6,0,0,0,1,1.93,4.53,4.53,0,0,0,1.67,1.16,7.64,7.64,0,0,0,2,.51,6.69,6.69,0,0,0,2.12-.06,4.18,4.18,0,0,0,1.61-.67,3.39,3.39,0,0,0,1.06-1.17,4.26,4.26,0,0,0,.5-1.57Z"/><path class="cls-22" d="M450.33,392.13l5-.66a52.38,52.38,0,0,0,19.16-34.55,35.81,35.81,0,0,0,.12-6.95,1.16,1.16,0,0,1,.17-.77h0c.53-.74,1.86-2.6,3.66-5.25s4.81-7.56,8.15-13.1c6-10,13-21.92,15.42-25.72,7.65-12.11,4-20.26,4-20.26s-21.35-1.92-27.2-6.57l-2.11,2.95S472,299.86,472.23,300l-.7,1.93c-3.65,10.25-7.85,23.05-10.14,33.48-1.28,5.87-2,11-1.6,14.47a22.94,22.94,0,0,1-.38,5.3c-2.06,13.36-9.08,37-9.08,37Z"/><path class="cls-5" d="M439.92,397.84h20.7a9.5,9.5,0,0,0-.59-5c-1-2.08-2.51-2.15-.19-5.42-1.31,1.23-5.54,1.74-8.53,1.37-.37.54-2.37,4.17-3.59,5s-7.38.57-7.8,4.13Z"/><path class="cls-39" d="M460,392.8c-1-2.09-2.51-2.15-.19-5.43-1.32,1.23-5.54,1.74-8.54,1.38-.36.54-2.36,4.16-3.59,5S461.11,395,460,392.8Z"/><path class="cls-5" d="M471.53,301.88c1.81,9.07,6.08,24.16,15,29,6-10,13-21.92,15.42-25.72,7.65-12.11,4-20.26,4-20.26s-21.35-1.92-27.2-6.57l-2.11,2.95S472,299.86,472.23,300l-.7,1.93Z"/><path class="cls-9" d="M433.57,250.56a20.08,20.08,0,0,0-4.26,6.08s4.67,12.19,15.58,13.72c0,0-8.63-19.8-11.32-19.8Z"/><path class="cls-22" d="M486.05,286.26l-.07-3.52c7.71.88,26.59-8.38,26.59-8.38s7,4.66,9.18,18.82c1.19,7.9,3.75,35.08,4.32,44.15.2,3.12.19,5.34.2,6.23h0a1.2,1.2,0,0,0,.33.72,40,40,0,0,1,4.18,5.83c11.77,19.91,5.61,47,5.61,47l-2.73-.63s-9.95-28.05-16.45-40.18a25.19,25.19,0,0,0-3-4.58c-2.45-2.7-5-7.29-7.57-12.81-4.8-10.44-9.47-24.21-12.79-34.87-.24,0-7.85-17.75-7.85-17.75Z"/><path class="cls-39" d="M440.91,262.76c12.61-2.63,4.56-18.74,3.83-18.45-1.75-.33-5.59-3.12-9-8.56l-.46.36-7.75,6.18s1.79,2.4,3.3,4.75c1.17,1.84,2.17,3.66,2,4.28-.63.44,4.72,12.15,8.08,11.44Z"/><path class="cls-8" d="M427.51,242.29s1.79,2.4,3.3,4.75c4.81-2.7,4.82-8.12,4.45-10.93l-7.75,6.18Z"/><path class="cls-39" d="M427.3,245.38s11.69-5.91,7.52-12.48-5.45-11.75-13.09-8.25-7.49,6.76-6.69,9.26,9.11,12.84,12.26,11.47Z"/><path class="cls-5" d="M519.93,397.84h20.7a9.45,9.45,0,0,0-.58-5c-1-2.08-2.66-3-2.27-5.56a7.88,7.88,0,0,1-6.45,2.25c-.37.54-2.37,3.43-3.59,4.23s-7.39.57-7.81,4.13Z"/><path class="cls-39" d="M540.05,392.79c-1-2.08-2.66-3-2.27-5.56a7.88,7.88,0,0,1-6.45,2.25c-.37.54-2.37,3.43-3.59,4.23S541.13,395,540.05,392.79Z"/><path class="cls-4" d="M439.43,275.54a54.64,54.64,0,0,0,10.22,1.68c5.45.54,11.07.91,14,2a3.13,3.13,0,0,1,2,1.49c1.27,3.48,6.89,8.87,6.89,8.87,36.05-1.49,40-15.2,40-15.2-34-25.09-65.3-33.06-65.3-33.06s-2.94-1.13-10.32,4.2c-4.93,3.57-4.28,4.93-4.28,4.93s-.05,15.78,6.76,25.11Z"/><g class="cls-40"><polyline class="cls-9" points="450.32 274.24 445.33 277.3 450.32 279.06 449.65 277.22 450.32 274.24"/></g><path class="cls-9" d="M449.65,277.22c5.45.54,11.07.91,14,2a48.7,48.7,0,0,0-7.28-28.64s-5.53,20.48-6.73,26.66Z"/><path class="cls-5" d="M412.93,225.93s11.56,6.46,18.57,6.08,9.27-2.77,9.27-2.77a26.44,26.44,0,0,1-7.94-7.07,5.09,5.09,0,0,0-4.46-2c-5,.34-14.36,1.53-15.44,5.77Z"/><path class="cls-5" d="M419.15,224.28s-2.86,3.49-3.54,5.85-.05,7.44,1.13,9.35c0,0-6.95-8.57-4.76-13.55,2.32-5.28,7.17-1.65,7.17-1.65Z"/><path class="cls-39" d="M453.32,250.46s9.18,10.17,4.51,16.82S420.46,288.41,417,289.21c-6.39,1.46-35,.3-35,.3l-1.44-4.35s27.46-7,30.73-7c5.12,0,36.75-28.83,42-27.74Z"/><path class="cls-4" d="M454.24,270.58c-.15.11-11.77-5.82-15.17-14,0,0,10.25-13.62,16.7-6.39s8.77,13.13,6.1,16.38-7.63,4.05-7.63,4.05Z"/><path class="cls-4" d="M457.86,269.43s-34.65,22.86-41.73,21.13l-20.62.65-1.86-10.63,19.89-3.18,27.74-20.28S449.71,253.22,457.86,269.43Z"/><path class="cls-39" d="M384.5,288.62s-.81-6.32-2.3-7.83-6.56-5.28-7.26-4.84,3.18,6.07,3.12,6.69.57,6,2.34,6.73,4.1-.75,4.1-.75Z"/><path class="cls-39" d="M156.78,41c1.17,2.7,2.11,6.25,1.32,8.12a7.21,7.21,0,0,0-.66,3.66l-1.92.47-2.3.56s-.12-.19-.31-.53-.43-.81-.67-1.36a2,2,0,0,0-1.09-1.49A4.2,4.2,0,0,1,149,47.6c-.19-1.14-1.36-3.28-1-3.5.81-.55,2,2.77,2.72,2.92a.72.72,0,0,0,.89-.41v0c1.12-2.71-.94-9.55.69-9.93.61-.14,4.05,3.13,4.55,4.29Z"/><path class="cls-39" d="M128.43,257.85s-35-13.71-56.33-19.25c-2.64-.68-5.07-1.24-7.2-1.64L67.14,229s2.09,0,5.49,0c13.28,0,46.55.68,52.49,6.34,7.46,7.11,3.31,22.52,3.31,22.52Z"/><path class="cls-39" d="M33.07,95.54c2,2.17,4.87,4.46,6.9,4.49a7.2,7.2,0,0,1,3.61.88l1.21-1.57,1.44-1.88s-.13-.19-.36-.49S44,95.29,44,94.21a4.22,4.22,0,0,0-1.66-3.14c-1-.63-2.44-2.56-2.78-2.35-.82.52,1.72,3,1.57,3.67a.71.71,0,0,1-.73.64h0C37.42,93,32,88.31,31,89.65c-.38.5,1.23,5,2.08,5.89Z"/><path class="cls-5" d="M46,246.45s-.6-3,6.27-12.18c1.48-2,6-9.45,6-9.45,1.79-.43,7.35,2.53,8.82,3.43l.47.29S70,238.87,64.9,237.7a4,4,0,0,0-.48-.09c-4.89-.76-9.62,4.09-11.76,7.18-1.4,2-5.72,1.74-6.65,1.66Z"/><g class="cls-41"><polygon class="cls-42" points="48.47 235.64 47.61 238.57 68.08 234.52 70.37 224.78 58.99 222.83 48.47 235.64"/><path class="cls-4" d="M60.09,225s-6.2,10.42-7.68,12.24c0,0-4.45,8.33-4.8,10.38l-5.81-.45,13.91-27.38L60.09,225h0"/></g><path class="cls-5" d="M82.3,226.38s-.61-3,6.27-12.18c1.48-2,6-9.45,6-9.45,1.79-.43,7.36,2.53,8.82,3.43l.47.29s2.38,10.33-2.68,9.16l-.47-.09c-4.9-.77-9.62,4.09-11.77,7.17-1.4,2-5.71,1.75-6.64,1.67Z"/><g class="cls-43"><path class="cls-4" d="M96.26,204.91S89.94,214,88.8,216c0,0-6,9.59-5.71,11.3l-2.51-.12s11.07-21.45,13.92-23.84l1.76,1.53"/><path class="cls-42" d="M102.12,214.55s-10-.42-13.32,1.49l7.46-11.13,4.75.29,3.41,1.89-2.3,7.46h0"/></g><path class="cls-6" d="M156.82,176.82c-1.32-5.77-16-23.78-23.47-19.61s-3.61,26.82,4.21,53.53l.36,1.21a332.42,332.42,0,0,0-34.52-3.44l-2,9.3c14.21,4,41.8,17.92,53.38,23.92,4.42,2,9.62,2,10.68-1.93,3.54-13.3-8.66-63-8.66-63Z"/><g class="cls-44"><path class="cls-39" d="M113.05,206.92s-5.78,11.32-1.78,17.86l-9.85-7v-16Z"/></g><path class="cls-22" d="M119,179.76c-7.47,2.29-5.6,12.91-4.48,42.05.13,3.29.39,6.48.75,9.51-10.94-2.6-27.76-3-35.9-3a18.44,18.44,0,0,0,1.44,16.45c18.46,6.53,46.83,17.55,46.83,17.55v0c1.89.58,3.67-.54,5.09-3.74C138.37,245.76,148,160.7,148,160.7c.09-6.2-21.56,16.77-29,19.06Z"/><path class="cls-39" d="M106.19,116s3.28-8.33-3.1-20.2l9.08,2,6.17,1.37a58.72,58.72,0,0,1,2.35,6c.35,1,1.66,5.15,2,6.43,2.17.09-1,3.37-5.41,4a65.2,65.2,0,0,1-11.13.35Z"/><path class="cls-8" d="M118.34,99.18a58.72,58.72,0,0,1,2.35,6c-5.3,1.58-14.75-3.58-14.75-3.58a17.47,17.47,0,0,1,6.23-3.81l6.17,1.37Z"/><path class="cls-39" d="M122.42,96.08s-10.52,11.63-17.67,5-13.32-9.65-6.9-17.36,10.47-6.59,13.39-5S125,92.88,122.42,96.08Z"/><path class="cls-45" d="M115.84,93.65,119.75,90s1.58,2.43.47,3.49-4.38.18-4.38.18Z"/><path class="cls-16" d="M163.89,72.55c-1.58-9.76-6.32-20.48-6.32-20.48l-5.18-.24s.58,13.22.45,22.47a19.57,19.57,0,0,1-2.53,9.16c-1.6,2.15-25.25,24.91-26,25.63l0,0h0c-2.51.42-2.23,4.56-4.82,5.25-4.31,1.16-11.47-1-15.3.47h0s-30.7,0-35.37-2.2S45.87,97,45.87,97l-3.38,3.93s14.72,21.42,24.63,25.76c5.4,2.35,18,7.31,27.71,9.41,3.83.83,6,4,7.89,7.36,14.48,25.6,4.7,54.42,4.7,54.42s5.73,1.27,16.6-1.75a105.07,105.07,0,0,0,24.45-10.28c6.1-4.62,8.12-6.07,9.08-6.78,2-1.51,4.19-1.71,4.34-3.66.38-5-9.44-26.28-16.9-45.3-1.29-3.29-4.27-9.16-2.4-12.15,6-9.64,22.6-27,22.71-30.09a123.19,123.19,0,0,0-1.41-15.29Z"/><path class="cls-5" d="M114.45,75.57A17.22,17.22,0,0,0,113.12,71s-.72,2.85-6.14,2.46S93,74,90.11,80c-.18.38-.34.77-.49,1.17a13.18,13.18,0,0,1-.64-3.3,9.81,9.81,0,0,0,0,5.77h0a2.7,2.7,0,0,0,0,.28c-1.2,1-2.2,4-2.2,4a3.73,3.73,0,0,1,2-1.73c0,4.62,1.93,9.15,5.35,10.5,5,2,5,.46,10,3.68,0,0,1.35-1.61.43-2.7s-4.4-2.66-2.46-4.23,2.66.19,3.38-.89-2.86-4.23,1.74-7.19,7.67-7.09,7.26-9.75Z"/></svg>