<svg id="Layer_1" data-name="Layer 1" xmlns="http://www.w3.org/2000/svg" xmlns:xlink="http://www.w3.org/1999/xlink" viewBox="0 0 570 421"><defs><style>.cls-1{fill:#f99f1b;}.cls-16,.cls-17,.cls-2{fill:none;}.cls-3{fill:#17697a;}.cls-14,.cls-21,.cls-4,.cls-5{fill:#479fb5;}.cls-4{opacity:0.15;}.cls-6{fill:#fff;}.cls-10,.cls-15,.cls-7{fill:#83c0cc;}.cls-7{opacity:0.71;}.cls-19,.cls-8{fill:#b7dae1;}.cls-9{fill:#bcbec0;opacity:0.5;}.cls-11{fill:#f4f3f2;}.cls-12{fill:#ece6e3;}.cls-13,.cls-73{fill:#d1d3d4;}.cls-13{stroke:#5e6264;stroke-width:0.1px;opacity:0.2;}.cls-13,.cls-14,.cls-15,.cls-16,.cls-17,.cls-18,.cls-19{stroke-miterlimit:10;}.cls-14,.cls-16,.cls-18,.cls-19{stroke:#83c0cc;}.cls-14,.cls-15,.cls-16,.cls-17,.cls-18,.cls-19{stroke-width:7.37px;}.cls-15,.cls-17{stroke:#e18226;}.cls-18,.cls-20,.cls-23{fill:#e18226;}.cls-20{opacity:0.16;}.cls-21{opacity:0.31;}.cls-22{fill:#54a4b7;}.cls-24{clip-path:url(#clip-path);}.cls-25{fill:#f4901f;}.cls-26{fill:#e28725;}.cls-27{clip-path:url(#clip-path-2);}.cls-28{fill:#fdb83e;}.cls-29{clip-path:url(#clip-path-3);}.cls-30{clip-path:url(#clip-path-4);}.cls-31{clip-path:url(#clip-path-5);}.cls-32{clip-path:url(#clip-path-6);}.cls-33{fill:#faa52d;}.cls-34{fill:#f4ccb1;}.cls-35{fill:#efb68f;}.cls-36{clip-path:url(#clip-path-7);}.cls-37{fill:#47494c;}.cls-38{clip-path:url(#clip-path-8);}.cls-39{fill:#faa31b;}.cls-40{clip-path:url(#clip-path-9);}.cls-41{clip-path:url(#clip-path-10);}.cls-42{clip-path:url(#clip-path-11);}.cls-43{clip-path:url(#clip-path-12);}.cls-44{clip-path:url(#clip-path-13);}.cls-45{clip-path:url(#clip-path-14);}.cls-46{clip-path:url(#clip-path-15);}.cls-47{clip-path:url(#clip-path-16);}.cls-48{clip-path:url(#clip-path-17);}.cls-49{clip-path:url(#clip-path-18);}.cls-50{clip-path:url(#clip-path-19);}.cls-51{clip-path:url(#clip-path-20);}.cls-52{clip-path:url(#clip-path-21);}.cls-53{clip-path:url(#clip-path-22);}.cls-54{clip-path:url(#clip-path-23);}.cls-55{clip-path:url(#clip-path-24);}.cls-56{clip-path:url(#clip-path-25);}.cls-57{clip-path:url(#clip-path-26);}.cls-58{fill:#84c0cc;opacity:0.53;}.cls-59{clip-path:url(#clip-path-27);}.cls-60{clip-path:url(#clip-path-28);}.cls-61{clip-path:url(#clip-path-29);}.cls-62{clip-path:url(#clip-path-30);}.cls-63{clip-path:url(#clip-path-31);}.cls-64{clip-path:url(#clip-path-32);}.cls-65{clip-path:url(#clip-path-33);}.cls-66{clip-path:url(#clip-path-34);}.cls-67{clip-path:url(#clip-path-35);}.cls-68{clip-path:url(#clip-path-36);}.cls-69{clip-path:url(#clip-path-37);}.cls-70{clip-path:url(#clip-path-38);}.cls-71{fill:#ee985e;}.cls-72{fill:#fab17d;}.cls-74{fill:#1b4789;}.cls-75{fill:#f89747;}.cls-76{fill:#ec7d29;}</style><clipPath id="clip-path"><path class="cls-1" d="M161.55,385.6v7.82c0,2.72,14.48,4.91,32.34,4.91s32.34-2.19,32.34-4.91V385.6Z"/></clipPath><clipPath id="clip-path-2"><path class="cls-2" d="M161.55,385.6v7.82c0,2.72,14.48,4.91,32.34,4.91s32.34-2.19,32.34-4.91V385.6H161.55"/></clipPath><clipPath id="clip-path-3"><path class="cls-1" d="M166.13,376.47v7.82c0,2.71,14.47,4.91,32.33,4.91s32.34-2.2,32.34-4.91v-7.82Z"/></clipPath><clipPath id="clip-path-4"><path class="cls-2" d="M166.13,376.47v7.82c0,2.71,14.47,4.91,32.33,4.91s32.34-2.2,32.34-4.91v-7.82H166.13"/></clipPath><clipPath id="clip-path-5"><path class="cls-1" d="M162.33,366.9v7.83c0,2.71,14.48,4.91,32.34,4.91s32.33-2.2,32.33-4.91V366.9Z"/></clipPath><clipPath id="clip-path-6"><path class="cls-2" d="M162.33,366.9v7.83c0,2.71,14.48,4.91,32.34,4.91s32.33-2.2,32.33-4.91V366.9H162.33"/></clipPath><clipPath id="clip-path-7"><path class="cls-3" d="M144.41,398.56h-8.77c-1.84,0-3.88-1.79-4.39-5.08s-4.29-5.07-5.11-7.75,3.37-6.47,3.37-6.47l.7-.87.73-.92,6.95,1.6s.17,1.6.28,3.65a43.32,43.32,0,0,1,0,4.7c-.19,3.58,1,7.44,4.31,8.13s1.91,3,1.91,3Z"/></clipPath><clipPath id="clip-path-8"><path class="cls-3" d="M205.48,398.56H182.23a2.24,2.24,0,0,1-.5-.14c-1.55-.76-1.06-6.54-.88-8.33,0-.33.07-.52.07-.52s8.17-6.36,9.3-1.5c0,.16.08.3.12.45h0c1.42,4.55,7.76,6.63,11.43,7.2,2.8.45,3.53,2,3.71,2.83Z"/></clipPath><clipPath id="clip-path-9"><path class="cls-1" d="M63.93,386v7.83c0,2.71,14.48,4.91,32.34,4.91s32.34-2.2,32.34-4.91V386Z"/></clipPath><clipPath id="clip-path-10"><path class="cls-2" d="M63.93,386v7.83c0,2.71,14.48,4.91,32.34,4.91s32.34-2.2,32.34-4.91V386H63.93"/></clipPath><clipPath id="clip-path-11"><path class="cls-1" d="M68.51,376.91v7.82c0,2.71,14.48,4.91,32.34,4.91s32.33-2.2,32.33-4.91v-7.82Z"/></clipPath><clipPath id="clip-path-12"><path class="cls-2" d="M68.51,376.91v7.82c0,2.71,14.48,4.91,32.34,4.91s32.33-2.2,32.33-4.91v-7.82H68.51"/></clipPath><clipPath id="clip-path-13"><path class="cls-1" d="M64.71,367.35v7.82c0,2.71,14.48,4.91,32.34,4.91s32.34-2.2,32.34-4.91v-7.82Z"/></clipPath><clipPath id="clip-path-14"><path class="cls-2" d="M64.71,367.35v7.82c0,2.71,14.48,4.91,32.34,4.91s32.34-2.2,32.34-4.91v-7.82H64.71"/></clipPath><clipPath id="clip-path-15"><path class="cls-1" d="M65.91,358.15V366c0,2.71,14.48,4.91,32.34,4.91s32.34-2.2,32.34-4.91v-7.82Z"/></clipPath><clipPath id="clip-path-16"><path class="cls-2" d="M65.91,358.15V366c0,2.71,14.48,4.91,32.34,4.91s32.34-2.2,32.34-4.91v-7.82H65.91"/></clipPath><clipPath id="clip-path-17"><path class="cls-1" d="M70.49,349v7.82c0,2.71,14.48,4.91,32.34,4.91s32.34-2.2,32.34-4.91V349Z"/></clipPath><clipPath id="clip-path-18"><path class="cls-2" d="M70.49,349v7.82c0,2.71,14.48,4.91,32.34,4.91s32.34-2.2,32.34-4.91V349H70.49"/></clipPath><clipPath id="clip-path-19"><path class="cls-1" d="M66.69,339.45v7.82c0,2.71,14.48,4.91,32.34,4.91s32.34-2.2,32.34-4.91v-7.82Z"/></clipPath><clipPath id="clip-path-20"><path class="cls-2" d="M66.69,339.45v7.82c0,2.71,14.48,4.91,32.34,4.91s32.34-2.2,32.34-4.91v-7.82H66.69"/></clipPath><clipPath id="clip-path-21"><path class="cls-1" d="M63.53,329.88v7.82c0,2.71,14.48,4.91,32.34,4.91s32.34-2.2,32.34-4.91v-7.82Z"/></clipPath><clipPath id="clip-path-22"><path class="cls-2" d="M63.53,329.88v7.82c0,2.71,14.48,4.91,32.34,4.91s32.34-2.2,32.34-4.91v-7.82H63.53"/></clipPath><clipPath id="clip-path-23"><path class="cls-1" d="M68.11,320.75v7.82c0,2.71,14.48,4.91,32.34,4.91s32.34-2.2,32.34-4.91v-7.82Z"/></clipPath><clipPath id="clip-path-24"><path class="cls-2" d="M68.11,320.75v7.82c0,2.71,14.48,4.91,32.34,4.91s32.34-2.2,32.34-4.91v-7.82H68.11"/></clipPath><clipPath id="clip-path-25"><path class="cls-1" d="M64.31,311.18V319c0,2.71,14.48,4.91,32.34,4.91S129,321.72,129,319v-7.83Z"/></clipPath><clipPath id="clip-path-26"><path class="cls-2" d="M64.31,311.18V319c0,2.71,14.48,4.91,32.34,4.91S129,321.72,129,319v-7.83H64.31"/></clipPath><clipPath id="clip-path-27"><path class="cls-1" d="M449.78,353.73v8.93c0,3.1,16.53,5.61,36.93,5.61s36.94-2.51,36.94-5.61v-8.93Z"/></clipPath><clipPath id="clip-path-28"><path class="cls-2" d="M449.78,353.73v8.93c0,3.1,16.53,5.61,36.93,5.61s36.94-2.51,36.94-5.61v-8.93H449.78"/></clipPath><clipPath id="clip-path-29"><path class="cls-1" d="M455,343.29v8.94c0,3.1,16.54,5.61,36.94,5.61s36.94-2.51,36.94-5.61v-8.94Z"/></clipPath><clipPath id="clip-path-30"><path class="cls-2" d="M455,343.29v8.94c0,3.1,16.54,5.61,36.94,5.61s36.94-2.51,36.94-5.61v-8.94H455"/></clipPath><clipPath id="clip-path-31"><path class="cls-1" d="M450.67,332.37v8.94c0,3.09,16.53,5.6,36.93,5.6s36.94-2.51,36.94-5.6v-8.94Z"/></clipPath><clipPath id="clip-path-32"><path class="cls-2" d="M450.67,332.37v8.94c0,3.09,16.53,5.6,36.93,5.6s36.94-2.51,36.94-5.6v-8.94H450.67"/></clipPath><clipPath id="clip-path-33"><path class="cls-1" d="M446.85,321.47v8.94c0,3.1,16.54,5.61,36.94,5.61s36.94-2.51,36.94-5.61v-8.94Z"/></clipPath><clipPath id="clip-path-34"><path class="cls-2" d="M446.85,321.47v8.94c0,3.1,16.54,5.61,36.94,5.61s36.94-2.51,36.94-5.61v-8.94H446.85"/></clipPath><clipPath id="clip-path-35"><path class="cls-1" d="M452.08,311V320c0,3.09,16.54,5.6,36.94,5.6S526,323.07,526,320V311Z"/></clipPath><clipPath id="clip-path-36"><path class="cls-2" d="M452.08,311V320c0,3.09,16.54,5.6,36.94,5.6S526,323.07,526,320V311H452.08"/></clipPath><clipPath id="clip-path-37"><path class="cls-1" d="M447.74,300.12v8.93c0,3.1,16.54,5.61,36.94,5.61s36.94-2.51,36.94-5.61v-8.93Z"/></clipPath><clipPath id="clip-path-38"><path class="cls-2" d="M447.74,300.12v8.93c0,3.1,16.54,5.61,36.94,5.61s36.94-2.51,36.94-5.61v-8.93H447.74"/></clipPath></defs><path class="cls-4" d="M35.11,411.68s-53.48-33.83-12.86-82.26S58,264,21.06,214.16s-1.1-86.27,54-81.41,81.25-34,119.81-52.23,85.87-19.06,136.58,14.76,137.48-16,180.18,10.75,2.5,64.25-4.51,87.93,4.82,52.51,40.27,82.22c56.93,47.7,5.55,135,5.55,135l-517.82.51Z"/><path class="cls-3" d="M323.38,228.92l18.34,27.13c0-.63.06-1.39.1-2.27.12-2.56.27-6.07.46-10.06.42-9.18,1-20.93,1.5-29.58l-.87-.16-9.41-1.74-2.63-5.69-6.95-.9s-1.12,3.13-.67,17.18c0,1.85,0,3.89.13,6.09Z"/><path class="cls-5" d="M327.34,209l0-2.94c5.86.78,20.25-6.88,20.25-6.88s6.1,4.11,6.88,15.76c.37,5.69,2.82,29.74,3.07,36.92.08,2.6.11,4.45.11,5.2h0a1.07,1.07,0,0,0,.25.61,33.89,33.89,0,0,1,3.15,4.89c8.84,16.69,4,39.26,4,39.26l-2.07-.54s-7.42-23.48-12.31-33.64a21.3,21.3,0,0,0-2.21-3.84c-1.85-2.27-3.78-6.12-5.69-10.74a280.82,280.82,0,0,1-9.55-29.19c-.18,0-5.87-14.87-5.87-14.87Z"/><path class="cls-6" d="M236.4,238.39a1.09,1.09,0,1,1-1.09-1,1.07,1.07,0,0,1,1.09,1Z"/><path class="cls-6" d="M241,238.38a1.09,1.09,0,1,1-1.09-1,1.07,1.07,0,0,1,1.09,1Z"/><path class="cls-6" d="M245.64,238.38a1.1,1.1,0,1,1-1.1-1,1.06,1.06,0,0,1,1.1,1Z"/><path class="cls-7" d="M106.12,179.64a16.86,16.86,0,0,1,4.82,1.6,14.36,14.36,0,0,1,3.47,2.49,11,11,0,0,1,2.13,2.94,8.72,8.72,0,0,1,.84,2.89,1.22,1.22,0,0,1-.42,1.09,1.6,1.6,0,0,1-1.09.42H112a2.35,2.35,0,0,1-1.43-.36,3.81,3.81,0,0,1-.87-1,7.23,7.23,0,0,0-2.55-2.44,9.94,9.94,0,0,0-5.07-1,12.44,12.44,0,0,0-2.77.31,8.24,8.24,0,0,0-2.3.9,4.72,4.72,0,0,0-1.54,1.43,3.69,3.69,0,0,0,.06,4,4.77,4.77,0,0,0,2,1.4,21.12,21.12,0,0,0,3.53,1.09c1.43.34,3.18.73,5.23,1.18a32.43,32.43,0,0,1,5.69,1.71,13,13,0,0,1,3.81,2.35,8,8,0,0,1,2.13,3.16,12.32,12.32,0,0,1,.64,4.09,10,10,0,0,1-.84,4.09,10.5,10.5,0,0,1-2.44,3.42,13.33,13.33,0,0,1-3.89,2.52,19.38,19.38,0,0,1-5.21,1.4v3.81a1.54,1.54,0,0,1-1.51,1.51h-4.54a1.54,1.54,0,0,1-1.51-1.51V219.3A20,20,0,0,1,93.83,218,15.51,15.51,0,0,1,90,215.72a11.21,11.21,0,0,1-2.66-3.11,8.78,8.78,0,0,1-1.12-3.9,1.23,1.23,0,0,1,.42-1.09,1.6,1.6,0,0,1,1.09-.42h3.92a2.56,2.56,0,0,1,1.46.34,2.44,2.44,0,0,1,.84,1,10.9,10.9,0,0,0,1,1.45,5.14,5.14,0,0,0,1.52,1.29,9,9,0,0,0,2.38.92,14.21,14.21,0,0,0,3.55.37,21.4,21.4,0,0,0,3.25-.25,9.66,9.66,0,0,0,2.75-.84,5.93,5.93,0,0,0,1.9-1.46,3.23,3.23,0,0,0,.73-2.16,2.69,2.69,0,0,0-.79-2,6.34,6.34,0,0,0-2.38-1.35,32.42,32.42,0,0,0-4-1.06q-2.34-.51-5.43-1.29a28.77,28.77,0,0,1-4.9-1.6A11.46,11.46,0,0,1,90,198.3a8.54,8.54,0,0,1-2-3.17,12.73,12.73,0,0,1-.67-4.34,9.6,9.6,0,0,1,.84-4,11.24,11.24,0,0,1,2.33-3.34A12.69,12.69,0,0,1,94,181a18.4,18.4,0,0,1,4.54-1.43v-3.81a1.54,1.54,0,0,1,1.51-1.51h4.54a1.54,1.54,0,0,1,1.51,1.51v3.92Z"/><path class="cls-7" d="M76,229.26a10.16,10.16,0,0,1,2.94,1,8.47,8.47,0,0,1,2.12,1.52,6.27,6.27,0,0,1,1.3,1.79,5,5,0,0,1,.51,1.76.75.75,0,0,1-.25.67,1,1,0,0,1-.67.25H79.56a1.39,1.39,0,0,1-.87-.22,2.23,2.23,0,0,1-.53-.6,4.38,4.38,0,0,0-1.56-1.48,6,6,0,0,0-3.09-.63,7.68,7.68,0,0,0-1.69.18,4.93,4.93,0,0,0-1.4.55,2.93,2.93,0,0,0-.94.87,2.27,2.27,0,0,0,0,2.44,2.87,2.87,0,0,0,1.22.86,12.38,12.38,0,0,0,2.15.66c.88.21,1.94.45,3.19.72a19.81,19.81,0,0,1,3.47,1,7.76,7.76,0,0,1,2.33,1.43A4.83,4.83,0,0,1,83.16,244a7.17,7.17,0,0,1,.4,2.5A6,6,0,0,1,83,249a6.35,6.35,0,0,1-1.48,2.08,8.08,8.08,0,0,1-2.38,1.54,11.74,11.74,0,0,1-3.18.86v2.32a.92.92,0,0,1-.92.92H72.31a.94.94,0,0,1-.92-.92v-2.32a12.34,12.34,0,0,1-2.89-.81,9.16,9.16,0,0,1-2.35-1.38,6.68,6.68,0,0,1-1.63-1.9,5.3,5.3,0,0,1-.68-2.37.76.76,0,0,1,.26-.67,1,1,0,0,1,.66-.26h2.39a1.56,1.56,0,0,1,.89.21,1.54,1.54,0,0,1,.52.62,5.55,5.55,0,0,0,.58.88,3,3,0,0,0,.92.79,5.29,5.29,0,0,0,1.45.56,8.79,8.79,0,0,0,2.17.23,12.7,12.7,0,0,0,2-.16,5.72,5.72,0,0,0,1.68-.51,3.65,3.65,0,0,0,1.16-.89,1.94,1.94,0,0,0,.44-1.31,1.67,1.67,0,0,0-.47-1.23,3.9,3.9,0,0,0-1.46-.83,20.81,20.81,0,0,0-2.41-.64c-.95-.21-2.06-.47-3.31-.79a17.82,17.82,0,0,1-3-1,7.16,7.16,0,0,1-2.12-1.39,5.19,5.19,0,0,1-1.25-1.93,7.73,7.73,0,0,1-.41-2.65A5.77,5.77,0,0,1,65,233.6a6.86,6.86,0,0,1,1.41-2,7.7,7.7,0,0,1,2.17-1.5,11.51,11.51,0,0,1,2.77-.88v-2.32a.94.94,0,0,1,.92-.92h2.77a.92.92,0,0,1,.92.92v2.39Z"/><path class="cls-8" d="M443.07,115.13a7.81,7.81,0,1,1,7.81-7.81,7.8,7.8,0,0,1-7.81,7.81Zm19.13-11.26h-3.74a1.55,1.55,0,0,1-1.48-1.06,14.23,14.23,0,0,0-.88-2.13,1.55,1.55,0,0,1,.29-1.8L459,96.24A1.57,1.57,0,0,0,459,94l-2.66-2.66a1.58,1.58,0,0,0-2.22,0L451.52,94a1.55,1.55,0,0,1-1.8.3,14.39,14.39,0,0,0-2.14-.89,1.54,1.54,0,0,1-1.06-1.47V88.2A1.56,1.56,0,0,0,445,86.63H441.2a1.57,1.57,0,0,0-1.57,1.57v3.74a1.54,1.54,0,0,1-1.06,1.47,14.39,14.39,0,0,0-2.14.89,1.55,1.55,0,0,1-1.8-.3L432,91.36a1.58,1.58,0,0,0-2.22,0L427.12,94a1.56,1.56,0,0,0,0,2.22l2.64,2.64a1.55,1.55,0,0,1,.29,1.8,14.23,14.23,0,0,0-.88,2.13,1.55,1.55,0,0,1-1.48,1.06H424a1.56,1.56,0,0,0-1.56,1.57v3.76a1.56,1.56,0,0,0,1.56,1.57h3.74a1.55,1.55,0,0,1,1.48,1.06,14.23,14.23,0,0,0,.88,2.13,1.55,1.55,0,0,1-.29,1.8l-2.64,2.64a1.56,1.56,0,0,0,0,2.22l2.65,2.66a1.58,1.58,0,0,0,2.22,0l2.64-2.64a1.55,1.55,0,0,1,1.8-.3,14.39,14.39,0,0,0,2.14.89,1.55,1.55,0,0,1,1.06,1.48v3.73A1.57,1.57,0,0,0,441.2,128H445a1.56,1.56,0,0,0,1.56-1.57v-3.73a1.55,1.55,0,0,1,1.06-1.48,14.39,14.39,0,0,0,2.14-.89,1.55,1.55,0,0,1,1.8.3l2.64,2.64a1.58,1.58,0,0,0,2.22,0l2.66-2.66a1.57,1.57,0,0,0,0-2.22l-2.64-2.64a1.55,1.55,0,0,1-.29-1.8,14.23,14.23,0,0,0,.88-2.13,1.55,1.55,0,0,1,1.48-1.06h3.74a1.56,1.56,0,0,0,1.56-1.57v-3.76a1.56,1.56,0,0,0-1.56-1.57Z"/><path class="cls-8" d="M489.4,56.09a5.33,5.33,0,1,1,5.33-5.33,5.32,5.32,0,0,1-5.33,5.33Zm13-7.68h-2.55a1.08,1.08,0,0,1-1-.72,9.33,9.33,0,0,0-.6-1.46,1.05,1.05,0,0,1,.2-1.22l1.8-1.8a1.07,1.07,0,0,0,0-1.52l-1.81-1.81a1.06,1.06,0,0,0-1.51,0l-1.8,1.8a1.07,1.07,0,0,1-1.23.21,9.26,9.26,0,0,0-1.45-.61,1.05,1.05,0,0,1-.73-1V37.73a1.06,1.06,0,0,0-1.06-1.07h-2.57a1.06,1.06,0,0,0-1.07,1.07v2.54a1.06,1.06,0,0,1-.72,1,9.37,9.37,0,0,0-1.46.61,1.05,1.05,0,0,1-1.22-.21l-1.8-1.8a1.07,1.07,0,0,0-1.52,0l-1.81,1.81a1.07,1.07,0,0,0,0,1.52l1.8,1.8a1,1,0,0,1,.2,1.22,11.76,11.76,0,0,0-.6,1.46,1.06,1.06,0,0,1-1,.72h-2.54a1.06,1.06,0,0,0-1.07,1.07V52a1.06,1.06,0,0,0,1.07,1.07h2.54a1.05,1.05,0,0,1,1,.73,11.62,11.62,0,0,0,.6,1.45,1,1,0,0,1-.2,1.23l-1.8,1.8a1.06,1.06,0,0,0,0,1.51l1.81,1.82a1.09,1.09,0,0,0,1.52,0l1.8-1.81a1.05,1.05,0,0,1,1.22-.2,10.45,10.45,0,0,0,1.46.61,1.05,1.05,0,0,1,.72,1V63.8a1.07,1.07,0,0,0,1.07,1.07h2.57a1.06,1.06,0,0,0,1.06-1.07V61.25a1.05,1.05,0,0,1,.73-1,10.32,10.32,0,0,0,1.45-.61,1.07,1.07,0,0,1,1.23.2l1.8,1.81a1.08,1.08,0,0,0,1.51,0l1.81-1.82a1.06,1.06,0,0,0,0-1.51l-1.8-1.8a1.07,1.07,0,0,1-.2-1.23,10.32,10.32,0,0,0,.61-1.45,1.05,1.05,0,0,1,1-.73h2.55A1.06,1.06,0,0,0,503.51,52V49.48a1.07,1.07,0,0,0-1.07-1.07Z"/><rect class="cls-8" x="218.98" y="229.07" width="189.01" height="134.95" rx="12.9"/><path class="cls-9" d="M396.08,355.16H234.79a2.8,2.8,0,0,1-2.81-2.78V245.74a2.79,2.79,0,0,1,2.81-2.78H396.08a2.79,2.79,0,0,1,2.81,2.78V352.38a2.8,2.8,0,0,1-2.81,2.78"/><rect class="cls-10" x="301.98" y="364" width="21.79" height="30.73"/><rect class="cls-8" x="263.27" y="394.73" width="99.58" height="4.89"/><path class="cls-11" d="M394,352.56H232.72a2.79,2.79,0,0,1-2.8-2.79V243.14a2.79,2.79,0,0,1,2.8-2.79H394a2.8,2.8,0,0,1,2.81,2.79V349.77a2.8,2.8,0,0,1-2.81,2.79"/><path class="cls-9" d="M386.27,345.11h-145a2.29,2.29,0,0,1-2.29-2.28V256.38a2.29,2.29,0,0,1,2.29-2.28h145a2.29,2.29,0,0,1,2.3,2.28v86.45a2.29,2.29,0,0,1-2.3,2.28"/><path class="cls-10" d="M392.79,239.74,233.92,240c-2.21,0-4,1.42-4,3.17v3l166.9-.27v-3c0-1.75-1.81-3.16-4-3.16"/><path class="cls-12" d="M383.87,341.86H240.59a2.25,2.25,0,0,1-2.26-2.25V254.19a2.26,2.26,0,0,1,2.26-2.25H383.87a2.26,2.26,0,0,1,2.26,2.25v85.42a2.25,2.25,0,0,1-2.26,2.25"/><line class="cls-13" x1="246.23" y1="288.85" x2="382.58" y2="288.85"/><path class="cls-14" d="M275.05,270.82v18m6.65-24.46v24.46"/><path class="cls-15" d="M315.49,265.9v22.91m6.64-19.31v19.31"/><line class="cls-16" x1="249.98" y1="279.94" x2="249.98" y2="288.85"/><line class="cls-15" x1="349.13" y1="279.9" x2="349.13" y2="288.81"/><line class="cls-15" x1="355.33" y1="285.93" x2="355.33" y2="288.81"/><line class="cls-16" x1="256.22" y1="274.99" x2="256.22" y2="288.81"/><line class="cls-16" x1="361.73" y1="281.9" x2="361.73" y2="288.81"/><line class="cls-16" x1="375.84" y1="278.82" x2="375.84" y2="288.81"/><line class="cls-15" x1="368.01" y1="288.81" x2="368.01" y2="297.7"/><line class="cls-17" x1="262.38" y1="288.88" x2="262.38" y2="300.34"/><line class="cls-17" x1="268.61" y1="288.88" x2="268.61" y2="297.7"/><line class="cls-18" x1="329.12" y1="288.9" x2="329.12" y2="300.34"/><line class="cls-18" x1="335.35" y1="288.9" x2="335.35" y2="297.7"/><line class="cls-19" x1="301.98" y1="288.9" x2="301.98" y2="297.7"/><line class="cls-19" x1="308.75" y1="288.9" x2="308.75" y2="297.7"/><line class="cls-16" x1="288.27" y1="279.9" x2="288.27" y2="288.81"/><line class="cls-16" x1="295.32" y1="274.99" x2="295.32" y2="300.34"/><path class="cls-20" d="M242,276.59s31.17,58.3,49.74,31c0,0,27-43.63,46.69.15,0,0,10.6,24.62,44.19-13.73v40.87H242Z"/><path class="cls-21" d="M242,285.68s11.33,34.62,27.77,17.21c0,0,14.82-22.46,28.43,3.3,0,0,5.71,10.19,13.73-7.77,0,0,8.6-18.86,17.53,5.91,0,0,5.34,12.21,13.35-4.4,0,0,10.36-23.15,22.78,3.26,0,0,5.26,12.41,17-12.85v44.55H242Z"/><path class="cls-22" d="M382.58,264.72c-2.92,3.65-6.33,7.77-9.9,11.8A139.33,139.33,0,0,1,359.33,290a40.26,40.26,0,0,1-5.92,4.27,9.87,9.87,0,0,1-4.52,1.53,7.4,7.4,0,0,1-4-1.37c-2.42-1.56-4.92-4.43-7.39-7.83-3.72-5.11-7.4-11.44-11.09-16.51a37.44,37.44,0,0,0-5.61-6.4,12.94,12.94,0,0,0-2.92-2,7.28,7.28,0,0,0-3.11-.74,6.33,6.33,0,0,0-2.49.55,15.83,15.83,0,0,0-4.62,3.37A83.59,83.59,0,0,0,299,275.63c-4.5,6.34-9.3,13.6-14.19,19.24a41.25,41.25,0,0,1-7.34,6.92,12.69,12.69,0,0,1-7.08,2.63,14.92,14.92,0,0,1-9.91-4C256.26,296.72,253,291,250.2,286c-1.39-2.51-2.65-4.84-3.88-6.68a16.14,16.14,0,0,0-1.84-2.37,5.49,5.49,0,0,0-2-1.42l-.58,1.25a5.37,5.37,0,0,1,2,1.67,49.59,49.59,0,0,1,4.28,6.91c2.36,4.27,5.09,9.31,8.63,13.33a23.18,23.18,0,0,0,6,5,15.35,15.35,0,0,0,7.63,2,13.08,13.08,0,0,0,6.54-2c3.72-2.17,7.31-5.86,10.82-10.18,5.27-6.47,10.33-14.38,15-20.63a57.34,57.34,0,0,1,6.6-7.75,14.59,14.59,0,0,1,2.92-2.18,5.29,5.29,0,0,1,2.48-.74,6.7,6.7,0,0,1,3.74,1.36c2.31,1.57,4.73,4.43,7.15,7.84C329.3,276.64,333,283,336.77,288a36.32,36.32,0,0,0,5.79,6.4,13.73,13.73,0,0,0,3.07,1.95,8,8,0,0,0,3.26.74,11.92,11.92,0,0,0,5.71-2c3.61-2.12,7.76-5.75,12-10,5.57-5.61,11.3-12.32,16-18.09Z"/><polygon class="cls-23" points="379.98 227.32 375.83 221.83 371.69 227.32 367.54 232.81 371.48 232.81 371.48 242.06 371.48 244.23 371.48 245.53 371.48 249.76 371.48 252.06 380.18 252.06 380.18 249.74 380.18 245.52 380.18 244.23 380.18 242.06 380.18 232.81 384.12 232.81 379.98 227.32"/><rect class="cls-23" x="371.48" y="249.76" width="8.7" height="9.46"/><path class="cls-1" d="M161.55,385.6v7.82c0,2.72,14.48,4.91,32.34,4.91s32.34-2.19,32.34-4.91V385.6Z"/><g class="cls-24"><path class="cls-25" d="M194.48,399.45H147.16a1.3,1.3,0,0,1-.88-.38,3.91,3.91,0,0,1-1-2.63.76.76,0,0,1,0-.15v-9c.05-1.75.89-3.16,1.91-3.16h41.51c.64,4.39,2.12,10.41,5.52,14.94.09.13.19.25.29.38Z"/></g><path class="cls-1" d="M219.6,384.94c0,1.26-11.51,2.28-25.71,2.28s-25.71-1-25.71-2.28,11.51-2.28,25.71-2.28,25.71,1,25.71,2.28Z"/><path class="cls-26" d="M169.29,385.6c3.2-.93,13-1.61,24.6-1.61s21.4.68,24.6,1.61c.72-.21,1.11-.43,1.11-.66,0-1.26-11.51-2.28-25.71-2.28s-25.71,1-25.71,2.28c0,.23.39.45,1.11.66Z"/><g class="cls-27"><polygon class="cls-25" points="223.99 382.35 223.99 400.28 225.52 400.28 225.52 382.35 223.99 382.35 223.99 382.35"/><polygon class="cls-25" points="220.02 400.28 221.55 400.28 221.55 382.35 220.02 382.35 220.02 400.28 220.02 400.28"/><polygon class="cls-25" points="215.49 400.28 217.02 400.28 217.02 382.35 215.49 382.35 215.49 400.28 215.49 400.28"/><polygon class="cls-25" points="209.83 400.28 211.36 400.28 211.36 382.35 209.83 382.35 209.83 400.28 209.83 400.28"/><polygon class="cls-25" points="203.61 400.28 205.14 400.28 205.14 382.35 203.61 382.35 203.61 400.28 203.61 400.28"/><polygon class="cls-25" points="196.84 400.28 198.37 400.28 198.37 382.35 196.84 382.35 196.84 400.28 196.84 400.28"/></g><path class="cls-28" d="M226.23,385.46c0,2.71-14.48,4.91-32.34,4.91s-32.34-2.2-32.34-4.91,14.48-4.91,32.34-4.91,32.34,2.19,32.34,4.91Z"/><path class="cls-1" d="M221.09,385.13c0,1.25-11.51,2.27-25.71,2.27s-25.71-1-25.71-2.27,11.51-2.28,25.71-2.28,25.71,1,25.71,2.28Z"/><path class="cls-25" d="M170.78,385.79c3.2-.94,13-1.62,24.6-1.62s21.4.68,24.6,1.62c.72-.21,1.11-.43,1.11-.66,0-1.26-11.51-2.28-25.71-2.28s-25.71,1-25.71,2.28c0,.23.39.45,1.11.66Z"/><path class="cls-1" d="M166.13,376.47v7.82c0,2.71,14.47,4.91,32.33,4.91s32.34-2.2,32.34-4.91v-7.82Z"/><g class="cls-29"><path class="cls-25" d="M199.05,390.31H151.73a1.33,1.33,0,0,1-.88-.37,4,4,0,0,1-1-2.64.76.76,0,0,1,0-.15v-9c0-1.75.89-3.16,1.9-3.16h41.51c.65,4.38,2.13,10.4,5.52,14.94l.29.37Z"/></g><path class="cls-1" d="M224.17,375.8c0,1.26-11.51,2.28-25.71,2.28s-25.7-1-25.7-2.28,11.51-2.27,25.7-2.27,25.71,1,25.71,2.27Z"/><path class="cls-26" d="M173.86,376.47c3.21-.94,13-1.62,24.6-1.62s21.4.68,24.6,1.62c.72-.21,1.11-.43,1.11-.67,0-1.25-11.51-2.27-25.71-2.27s-25.7,1-25.7,2.27c0,.24.39.46,1.1.67Z"/><g class="cls-30"><polygon class="cls-25" points="228.56 373.22 228.56 391.15 230.09 391.15 230.09 373.22 228.56 373.22 228.56 373.22"/><polygon class="cls-25" points="224.59 391.15 226.13 391.15 226.13 373.22 224.59 373.22 224.59 391.15 224.59 391.15"/><polygon class="cls-25" points="220.06 391.15 221.59 391.15 221.59 373.22 220.06 373.22 220.06 391.15 220.06 391.15"/><polygon class="cls-25" points="214.41 391.15 215.94 391.15 215.94 373.22 214.41 373.22 214.41 391.15 214.41 391.15"/><polygon class="cls-25" points="208.19 391.15 209.72 391.15 209.72 373.22 208.19 373.22 208.19 391.15 208.19 391.15"/><polygon class="cls-25" points="201.41 391.15 202.94 391.15 202.94 373.22 201.41 373.22 201.41 391.15 201.41 391.15"/></g><path class="cls-28" d="M230.8,376.32c0,2.71-14.48,4.91-32.34,4.91s-32.33-2.2-32.33-4.91,14.47-4.91,32.33-4.91,32.34,2.2,32.34,4.91Z"/><path class="cls-1" d="M225.67,376c0,1.26-11.51,2.28-25.71,2.28s-25.71-1-25.71-2.28,11.51-2.28,25.71-2.28,25.71,1,25.71,2.28Z"/><path class="cls-25" d="M175.36,376.65c3.2-.93,13-1.61,24.6-1.61s21.4.68,24.6,1.61c.72-.2,1.11-.43,1.11-.66,0-1.26-11.51-2.28-25.71-2.28s-25.71,1-25.71,2.28c0,.23.39.46,1.11.66Z"/><path class="cls-1" d="M162.33,366.9v7.83c0,2.71,14.48,4.91,32.34,4.91s32.33-2.2,32.33-4.91V366.9Z"/><g class="cls-31"><path class="cls-25" d="M195.25,380.75H147.94a1.26,1.26,0,0,1-.88-.38,3.91,3.91,0,0,1-1-2.63.76.76,0,0,1,0-.15v-9c.05-1.76.89-3.17,1.91-3.17h41.5c.65,4.39,2.13,10.41,5.52,14.94l.29.38Z"/></g><path class="cls-1" d="M220.37,366.24c0,1.26-11.51,2.28-25.7,2.28s-25.71-1-25.71-2.28S180.47,364,194.67,364s25.7,1,25.7,2.28Z"/><path class="cls-26" d="M170.07,366.9c3.2-.93,13-1.61,24.6-1.61s21.39.68,24.6,1.61c.71-.21,1.1-.43,1.1-.66,0-1.26-11.51-2.28-25.7-2.28S169,365,169,366.24c0,.23.39.45,1.11.66Z"/><g class="cls-32"><polygon class="cls-25" points="224.77 363.66 224.77 381.59 226.3 381.59 226.3 363.66 224.77 363.66 224.77 363.66"/><polygon class="cls-25" points="220.8 381.59 222.33 381.59 222.33 363.66 220.8 363.66 220.8 381.59 220.8 381.59"/><polygon class="cls-25" points="216.26 381.59 217.8 381.59 217.8 363.66 216.26 363.66 216.26 381.59 216.26 381.59"/><polygon class="cls-25" points="210.61 381.59 212.14 381.59 212.14 363.66 210.61 363.66 210.61 381.59 210.61 381.59"/><polygon class="cls-25" points="204.39 381.59 205.92 381.59 205.92 363.66 204.39 363.66 204.39 381.59 204.39 381.59"/><polygon class="cls-25" points="197.62 381.59 199.15 381.59 199.15 363.66 197.62 363.66 197.62 381.59 197.62 381.59"/></g><path class="cls-28" d="M227,366.76c0,2.71-14.47,4.91-32.33,4.91s-32.34-2.2-32.34-4.91,14.48-4.91,32.34-4.91,32.33,2.2,32.33,4.91Z"/><path class="cls-1" d="M221.87,366.43c0,1.26-11.51,2.28-25.71,2.28s-25.71-1-25.71-2.28,11.51-2.28,25.71-2.28,25.71,1,25.71,2.28Z"/><path class="cls-25" d="M171.56,367.09c3.2-.93,13-1.61,24.6-1.61s21.4.68,24.6,1.61c.72-.21,1.11-.43,1.11-.66,0-1.26-11.51-2.28-25.71-2.28s-25.71,1-25.71,2.28c0,.23.39.45,1.11.66Z"/><path class="cls-12" d="M141.88,398.56l-.28.71s-.17.21-1,.22l-6.57.05a5.84,5.84,0,0,1-3.39-1.09,7.17,7.17,0,0,1-1.05-3.62,5.07,5.07,0,0,0-1.13-2.8,33.92,33.92,0,0,1-3.35-4.08l1.16-3.15,7.39,10.88,8.24,2.88"/><path class="cls-12" d="M224.91,399.64s.13.89-.35,1.12-15.68,0-15.68,0-1.32-.22-1.07-1.93h0l17.1.81h0"/><path class="cls-33" d="M178.37,211.32a4.05,4.05,0,0,0,1.54,2.27,6.38,6.38,0,0,0,3.2,1.26c3.18.33,8.1,1,13.3,1.64,8.34,1.07,17.42,2.18,21.26,2.09a24.28,24.28,0,0,0,6.78-.65l.21-.05,0,0c.58-.4.62-1.5.47-2.6s-.5-2.42-.53-2.73c-.32-3.26-3.59-4.4-5.19-4.76a6.17,6.17,0,0,0-.86-.16l-.59-.17c-7.8-2.18-16.65-2.85-22.35-3.74a22.68,22.68,0,0,0-8.26.19,19.15,19.15,0,0,0-5.13,1.85c-2.48,1.35-4.45,3.21-3.89,5.59"/><path class="cls-23" d="M212,218.53c-2,0-4.75-.18-7.92-.43s-6.53-.56-10-.9c-.21-4.64-1-8.15-2.74-10.51.51.51,1.07,1.1,1.66,1.77,4.32,4.95,11.8,8.16,20,8.25h.5a9.83,9.83,0,0,0,5.3,1.35,13.83,13.83,0,0,0,1.43-.05h0l.83-.2a32.28,32.28,0,0,1-7.87.71H212m9.06-.72.28-.08,0,0-.24.05"/><path class="cls-34" d="M163.54,191.29s8.19,6.52,16.11,1.73c0,0,1-4.66.41-7.86-.07-.38-.14-.77-.2-1.13-.64-3.59-.91-5.63-.91-5.63h0c-.42-.09-14.05-2.84-14-2.42,2.09,9.66-1.44,15.31-1.44,15.31Z"/><path class="cls-35" d="M166.69,178.06c1.65,2,6.67,5.52,13.17,6-.64-3.59-.91-5.63-.91-5.63h0c-.37,0-12.73-.92-12.25-.34Z"/><path class="cls-34" d="M181.53,177.54s-13.61,5.86-17.23-2.45-7.81-13.14.73-17.23,11.62-1.62,13.52.86,6.43,17.08,3,18.82Z"/><path class="cls-3" d="M144.41,398.56h-8.77c-1.84,0-3.88-1.79-4.39-5.08s-4.29-5.07-5.11-7.75,3.37-6.47,3.37-6.47l.7-.87.73-.92,6.95,1.6s.17,1.6.28,3.65a43.32,43.32,0,0,1,0,4.7c-.19,3.58,1,7.44,4.31,8.13s1.91,3,1.91,3Z"/><g class="cls-36"><path class="cls-37" d="M135.06,377.47a20.1,20.1,0,0,0-2.14,11.43s1.46,2.32,4.08,9.44-.1,4.94-.1,4.94l-18.37-3.58.78-23Z"/></g><path class="cls-3" d="M205.48,398.56H182.23a2.24,2.24,0,0,1-.5-.14c-1.55-.76-1.06-6.54-.88-8.33,0-.33.07-.52.07-.52s8.17-6.36,9.3-1.5c0,.16.08.3.12.45h0c1.42,4.55,7.76,6.63,11.43,7.2,2.8.45,3.53,2,3.71,2.83Z"/><g class="cls-38"><path class="cls-37" d="M185,387.58s2.52,9.08,8.84,13.81l-19.34,1.13L174,387.1l11,.48"/></g><path class="cls-5" d="M200.79,268.08s-1.24,15.07-2.69,33.19c-2,24.62-4.37,54.86-4.61,60.59-.41,9.95-2,25.86-2,25.86s-3.89,3.78-11.66,2.18a254.31,254.31,0,0,1-8.9-46.74L170.8,342c-1.84-24.47-4.7-76-4.7-76l34.69,2.09Z"/><path class="cls-3" d="M196.17,267.07s.8,9.41-3.67,27.06c-3.28,12.95-21.61,49-21.61,49L170.8,342c-1.84-24.47-4.7-76-4.7-76l30.07,1.08Z"/><path class="cls-5" d="M196.17,267.07S172.74,324.46,158,350.12s-19.32,32.82-19.32,32.82-8.43-3.28-9.2-5.52c0,0,5.63-49.53,15.49-61.61,5.56-6.82,12.1-27.29,12.41-34.45s2-21.34,2-21.34l36.77,7.05Z"/><path class="cls-33" d="M200.79,268.08c-3.27.19-41.72-3.23-41.72-5.11,0-6.54-1-17.06-2.79-29.91q-.48-3.6-.75-7.12a104.54,104.54,0,0,1,0-17.33c.87-9.89,5.19-17.86,9.59-21.58.58-.47,2.71,1.1,6.28,2.51,3.31,1.31,5.92.37,8.89-.43l3.8,3.25a35,35,0,0,1,8.19,11.16S201.08,266,200.79,266Z"/><path class="cls-3" d="M181.61,157.46a16.66,16.66,0,0,0,.93-4.15s-1.74,2-5.63-.3-10.67-4.81-15.34-1.08c-.29.24-.58.49-.86.76a12.64,12.64,0,0,1,.92-2.89,9.76,9.76,0,0,0-2.45,4.64h0l-.15.21c-1.3.34-3.34,2.41-3.34,2.41a3.28,3.28,0,0,1,2.25-.65c-2,3.72-2.45,8.1-.47,10.46,2.9,3.45,3.51,2.22,5.9,6.69,0,0,1.69-.8,1.46-2s-2.15-3.78,0-4.32,1.9,1.15,2.9.54-.34-4.48,4.35-5.15,8.74-2.86,9.56-5.15Z"/><path class="cls-23" d="M199.32,254.34c-30.38-14.76-37.81-37.49-37.81-37.49s24.92,10,31.05,12.59c.2,1.34.42,2.63.66,3.85.65,3.31,3.78,7.31,4.56,9.81.38,2.73.43,3.42.75,5.41.43,2.69.49,4.39.79,5.83Z"/><path class="cls-33" d="M187.74,196.3s8.46,4.9,11,7.82l-7.89-.72Z"/><path class="cls-23" d="M217.15,225.31c0-14.78,10.32-26.76,23.06-26.76s23.06,12,23.06,26.76S253,252.06,240.21,252.06s-23.06-12-23.06-26.75Z"/><path class="cls-28" d="M215.14,225.31c0-14.78,10.32-26.76,23.06-26.76s23.06,12,23.06,26.76-10.33,26.75-23.06,26.75-23.06-12-23.06-26.75Z"/><path class="cls-39" d="M238.2,202.7c-10.9,0-19.76,10.28-19.76,22.92s8.86,22.92,19.76,22.92S258,238.26,258,225.62s-8.87-22.92-19.76-22.92Zm0,47.3a19.56,19.56,0,0,1-14.86-7.14,27.23,27.23,0,0,1,0-34.47,19,19,0,0,1,29.72,0,27.23,27.23,0,0,1,0,34.47A19.56,19.56,0,0,1,238.2,250Z"/><path class="cls-39" d="M241.09,232.7a4.69,4.69,0,0,0-.05-1.42,3.21,3.21,0,0,0-.51-1.17,5.18,5.18,0,0,0-1-1.06,12.93,12.93,0,0,0-1.59-1,30.38,30.38,0,0,1-3-1.88,11.26,11.26,0,0,1-2.2-2.08,7.49,7.49,0,0,1-1.31-2.54,8.51,8.51,0,0,1-.22-3.25,8.25,8.25,0,0,1,.78-2.84,6.45,6.45,0,0,1,1.63-2.1A6.88,6.88,0,0,1,236,212a8.55,8.55,0,0,1,2.91-.39l.41-4,2.79.38-.41,4.08a8.33,8.33,0,0,1,2.62,1.29,7.55,7.55,0,0,1,1.89,2.09,8.75,8.75,0,0,1,1.05,2.8,11.86,11.86,0,0,1,.11,3.45l-5-.69a5.64,5.64,0,0,0-.52-3.49,2.91,2.91,0,0,0-2.2-1.43,3.23,3.23,0,0,0-1.37.06,2.51,2.51,0,0,0-1,.57,2.65,2.65,0,0,0-.64,1,4.55,4.55,0,0,0-.31,1.27,4.14,4.14,0,0,0,0,1.28,2.89,2.89,0,0,0,.49,1.13,5.13,5.13,0,0,0,1,1.05,16.29,16.29,0,0,0,1.66,1.12c1.08.64,2.05,1.28,2.92,1.92a11,11,0,0,1,2.2,2.1,7.61,7.61,0,0,1,1.3,2.55,8.41,8.41,0,0,1,.23,3.23,8.13,8.13,0,0,1-.8,2.9,6.42,6.42,0,0,1-4,3.32,9.14,9.14,0,0,1-2.92.36l-.39,3.73-2.77-.38.38-3.72a10.52,10.52,0,0,1-2.72-1.11,7.71,7.71,0,0,1-2.23-2,8.25,8.25,0,0,1-1.4-2.9,11.14,11.14,0,0,1-.23-4l5,.69a6.88,6.88,0,0,0,.09,2.27,3.93,3.93,0,0,0,.72,1.54,3.07,3.07,0,0,0,1.15.92,4.48,4.48,0,0,0,1.38.41,3.9,3.9,0,0,0,1.46,0,2.88,2.88,0,0,0,1.11-.54,2.62,2.62,0,0,0,.73-.94,3.78,3.78,0,0,0,.34-1.25Z"/><path class="cls-34" d="M238.32,239.07c1.3-.82,4.23-2.61,4.37-2.18a1.89,1.89,0,0,1-.44,1.35c1.75-.57,3.52-.91,7.64,0a3.12,3.12,0,0,1,2,1.39,1.32,1.32,0,0,1-.56,2.07c-2.17,1.2-1.52.46-4.54,2.21s-6.65,2.1-8.75.71l-2.87-.58-.17-4.64s1.65-.13,3.33-.34Z"/><path class="cls-33" d="M237.53,241.67c.3-2.68-1.11-3.18-1.11-3.18s-27.84-6-30.19-6.82-21.92-22.22-21.92-22.22-7.47-8.86-13.95-7.21c-5.62,1.43-8,5.57-8.86,9.56a11.72,11.72,0,0,0,5.17,12.37c9.34,6.07,28.05,18,32.51,19.5,9.93,3.24,37,1.63,37,1.63a8.35,8.35,0,0,0,1.34-3.63Z"/><path class="cls-1" d="M63.93,386v7.83c0,2.71,14.48,4.91,32.34,4.91s32.34-2.2,32.34-4.91V386Z"/><g class="cls-40"><path class="cls-25" d="M96.86,399.89H49.54a1.26,1.26,0,0,1-.88-.38,3.91,3.91,0,0,1-1-2.63c0-.05,0-.1,0-.15v-9c0-1.76.89-3.17,1.91-3.17H91.05c.64,4.39,2.12,10.41,5.52,14.94.09.13.19.26.29.38Z"/></g><path class="cls-1" d="M122,385.38c0,1.26-11.51,2.28-25.71,2.28s-25.71-1-25.71-2.28,11.51-2.28,25.71-2.28,25.71,1,25.71,2.28Z"/><path class="cls-26" d="M71.67,386c3.2-.93,13-1.61,24.6-1.61s21.4.68,24.6,1.61c.72-.21,1.11-.43,1.11-.66,0-1.26-11.51-2.28-25.71-2.28s-25.71,1-25.71,2.28c0,.23.39.45,1.11.66Z"/><g class="cls-41"><polygon class="cls-25" points="126.37 382.8 126.37 400.73 127.9 400.73 127.9 382.8 126.37 382.8 126.37 382.8"/><polygon class="cls-25" points="122.4 400.73 123.93 400.73 123.93 382.8 122.4 382.8 122.4 400.73 122.4 400.73"/><polygon class="cls-25" points="117.87 400.73 119.4 400.73 119.4 382.8 117.87 382.8 117.87 400.73 117.87 400.73"/><polygon class="cls-25" points="112.21 400.73 113.74 400.73 113.74 382.8 112.21 382.8 112.21 400.73 112.21 400.73"/><polygon class="cls-25" points="105.99 400.73 107.53 400.73 107.53 382.8 105.99 382.8 105.99 400.73 105.99 400.73"/><polygon class="cls-25" points="99.22 400.73 100.75 400.73 100.75 382.8 99.22 382.8 99.22 400.73 99.22 400.73"/></g><path class="cls-28" d="M128.61,385.9c0,2.71-14.48,4.91-32.34,4.91s-32.34-2.2-32.34-4.91S78.41,381,96.27,381s32.34,2.2,32.34,4.91Z"/><path class="cls-1" d="M123.47,385.57c0,1.26-11.51,2.28-25.71,2.28s-25.71-1-25.71-2.28,11.51-2.28,25.71-2.28,25.71,1,25.71,2.28Z"/><path class="cls-25" d="M73.16,386.23c3.2-.93,13-1.61,24.6-1.61s21.4.68,24.6,1.61c.72-.21,1.11-.43,1.11-.66,0-1.26-11.51-2.28-25.71-2.28s-25.71,1-25.71,2.28c0,.23.39.45,1.11.66Z"/><path class="cls-1" d="M68.51,376.91v7.82c0,2.71,14.48,4.91,32.34,4.91s32.33-2.2,32.33-4.91v-7.82Z"/><g class="cls-42"><path class="cls-25" d="M101.43,390.76H54.11a1.3,1.3,0,0,1-.87-.38,3.92,3.92,0,0,1-1-2.64.71.71,0,0,1,0-.14v-9c0-1.75.89-3.16,1.9-3.16H95.62c.65,4.39,2.13,10.41,5.52,14.94.1.13.2.25.29.38Z"/></g><path class="cls-1" d="M126.55,376.25c0,1.26-11.51,2.28-25.7,2.28s-25.71-1-25.71-2.28S86.65,374,100.85,374s25.7,1,25.7,2.28Z"/><path class="cls-26" d="M76.24,376.91c3.21-.93,13-1.62,24.61-1.62s21.39.69,24.6,1.62c.71-.21,1.1-.43,1.1-.66,0-1.26-11.51-2.28-25.7-2.28s-25.71,1-25.71,2.28c0,.23.39.45,1.1.66Z"/><g class="cls-43"><polygon class="cls-25" points="130.94 373.66 130.94 391.59 132.48 391.59 132.48 373.66 130.94 373.66 130.94 373.66"/><polygon class="cls-25" points="126.97 391.59 128.51 391.59 128.51 373.66 126.97 373.66 126.97 391.59 126.97 391.59"/><polygon class="cls-25" points="122.44 391.59 123.97 391.59 123.97 373.66 122.44 373.66 122.44 391.59 122.44 391.59"/><polygon class="cls-25" points="116.79 391.59 118.32 391.59 118.32 373.66 116.79 373.66 116.79 391.59 116.79 391.59"/><polygon class="cls-25" points="110.57 391.59 112.1 391.59 112.1 373.66 110.57 373.66 110.57 391.59 110.57 391.59"/><polygon class="cls-25" points="103.79 391.59 105.33 391.59 105.33 373.66 103.79 373.66 103.79 391.59 103.79 391.59"/></g><path class="cls-28" d="M133.18,376.76c0,2.72-14.47,4.91-32.33,4.91s-32.34-2.19-32.34-4.91,14.48-4.91,32.34-4.91,32.33,2.2,32.33,4.91Z"/><path class="cls-1" d="M128.05,376.44c0,1.25-11.51,2.27-25.71,2.27s-25.71-1-25.71-2.27,11.51-2.28,25.71-2.28,25.71,1,25.71,2.28Z"/><path class="cls-25" d="M77.74,377.1c3.2-.94,13-1.62,24.6-1.62s21.4.68,24.6,1.62c.72-.21,1.11-.43,1.11-.66,0-1.26-11.51-2.28-25.71-2.28s-25.71,1-25.71,2.28c0,.23.39.45,1.11.66Z"/><path class="cls-1" d="M64.71,367.35v7.82c0,2.71,14.48,4.91,32.34,4.91s32.34-2.2,32.34-4.91v-7.82Z"/><g class="cls-44"><path class="cls-25" d="M97.64,381.19H50.32a1.29,1.29,0,0,1-.88-.37,3.92,3.92,0,0,1-1-2.64.76.76,0,0,1,0-.15v-9c.05-1.75.89-3.16,1.91-3.16H91.83c.64,4.38,2.12,10.4,5.52,14.94.09.13.19.25.29.37Z"/></g><path class="cls-1" d="M122.76,366.68c0,1.26-11.51,2.28-25.71,2.28s-25.71-1-25.71-2.28,11.51-2.27,25.71-2.27,25.71,1,25.71,2.27Z"/><path class="cls-26" d="M72.45,367.35c3.2-.94,13-1.62,24.6-1.62s21.4.68,24.6,1.62c.72-.21,1.11-.43,1.11-.67,0-1.25-11.51-2.27-25.71-2.27s-25.71,1-25.71,2.27c0,.24.39.46,1.11.67Z"/><g class="cls-45"><polygon class="cls-25" points="127.15 364.1 127.15 382.03 128.68 382.03 128.68 364.1 127.15 364.1 127.15 364.1"/><polygon class="cls-25" points="123.18 382.03 124.71 382.03 124.71 364.1 123.18 364.1 123.18 382.03 123.18 382.03"/><polygon class="cls-25" points="118.64 382.03 120.18 382.03 120.18 364.1 118.64 364.1 118.64 382.03 118.64 382.03"/><polygon class="cls-25" points="112.99 382.03 114.52 382.03 114.52 364.1 112.99 364.1 112.99 382.03 112.99 382.03"/><polygon class="cls-25" points="106.77 382.03 108.3 382.03 108.3 364.1 106.77 364.1 106.77 382.03 106.77 382.03"/><polygon class="cls-25" points="100 382.03 101.53 382.03 101.53 364.1 100 364.1 100 382.03 100 382.03"/></g><path class="cls-28" d="M129.39,367.2c0,2.71-14.48,4.91-32.34,4.91s-32.34-2.2-32.34-4.91,14.48-4.91,32.34-4.91,32.34,2.2,32.34,4.91Z"/><path class="cls-1" d="M124.25,366.87c0,1.26-11.51,2.28-25.71,2.28s-25.71-1-25.71-2.28,11.51-2.28,25.71-2.28,25.71,1,25.71,2.28Z"/><path class="cls-25" d="M73.94,367.53c3.2-.93,13-1.61,24.6-1.61s21.4.68,24.6,1.61c.72-.2,1.11-.43,1.11-.66,0-1.26-11.51-2.28-25.71-2.28s-25.71,1-25.71,2.28c0,.23.39.46,1.11.66Z"/><path class="cls-1" d="M65.91,358.15V366c0,2.71,14.48,4.91,32.34,4.91s32.34-2.2,32.34-4.91v-7.82Z"/><g class="cls-46"><path class="cls-25" d="M98.84,372H51.52a1.26,1.26,0,0,1-.88-.38,3.89,3.89,0,0,1-1-2.63.76.76,0,0,0,0-.15v-9c.06-1.76.89-3.17,1.91-3.17H93c.64,4.39,2.12,10.41,5.52,14.94.09.13.19.26.29.38Z"/></g><path class="cls-1" d="M124,357.48c0,1.26-11.51,2.28-25.71,2.28s-25.71-1-25.71-2.28,11.51-2.28,25.71-2.28,25.71,1,25.71,2.28Z"/><path class="cls-26" d="M73.65,358.15c3.2-.94,13-1.62,24.6-1.62s21.4.68,24.6,1.62c.72-.21,1.11-.44,1.11-.67,0-1.26-11.51-2.28-25.71-2.28s-25.71,1-25.71,2.28c0,.23.39.46,1.11.67Z"/><g class="cls-47"><polygon class="cls-25" points="128.35 354.9 128.35 372.83 129.88 372.83 129.88 354.9 128.35 354.9 128.35 354.9"/><polygon class="cls-25" points="124.38 372.83 125.91 372.83 125.91 354.9 124.38 354.9 124.38 372.83 124.38 372.83"/><polygon class="cls-25" points="119.85 372.83 121.38 372.83 121.38 354.9 119.85 354.9 119.85 372.83 119.85 372.83"/><polygon class="cls-25" points="114.19 372.83 115.72 372.83 115.72 354.9 114.19 354.9 114.19 372.83 114.19 372.83"/><polygon class="cls-25" points="107.98 372.83 109.51 372.83 109.51 354.9 107.98 354.9 107.98 372.83 107.98 372.83"/><polygon class="cls-25" points="101.2 372.83 102.73 372.83 102.73 354.9 101.2 354.9 101.2 372.83 101.2 372.83"/></g><path class="cls-28" d="M130.59,358c0,2.71-14.48,4.91-32.34,4.91s-32.34-2.2-32.34-4.91,14.48-4.91,32.34-4.91,32.34,2.2,32.34,4.91Z"/><path class="cls-1" d="M125.45,357.67c0,1.26-11.51,2.28-25.71,2.28S74,358.93,74,357.67s11.51-2.28,25.71-2.28,25.71,1,25.71,2.28Z"/><path class="cls-25" d="M75.14,358.33c3.2-.93,13-1.61,24.6-1.61s21.4.68,24.6,1.61c.72-.21,1.11-.43,1.11-.66,0-1.26-11.51-2.28-25.71-2.28S74,356.41,74,357.67c0,.23.39.45,1.11.66Z"/><path class="cls-1" d="M70.49,349v7.82c0,2.71,14.48,4.91,32.34,4.91s32.34-2.2,32.34-4.91V349Z"/><g class="cls-48"><path class="cls-25" d="M103.42,362.86H56.1a1.3,1.3,0,0,1-.88-.38,3.92,3.92,0,0,1-1-2.64.66.66,0,0,1,0-.14v-9c.05-1.75.89-3.16,1.91-3.16H97.6c.65,4.39,2.13,10.41,5.52,14.94l.3.38Z"/></g><path class="cls-1" d="M128.54,348.35c0,1.26-11.51,2.28-25.71,2.28s-25.71-1-25.71-2.28,11.51-2.28,25.71-2.28,25.71,1,25.71,2.28Z"/><path class="cls-26" d="M78.23,349c3.2-.93,13-1.61,24.6-1.61s21.4.68,24.6,1.61c.72-.21,1.11-.43,1.11-.66,0-1.26-11.51-2.28-25.71-2.28s-25.71,1-25.71,2.28c0,.23.39.45,1.11.66Z"/><g class="cls-49"><polygon class="cls-25" points="132.93 345.76 132.93 363.69 134.46 363.69 134.46 345.76 132.93 345.76 132.93 345.76"/><polygon class="cls-25" points="128.96 363.69 130.49 363.69 130.49 345.76 128.96 345.76 128.96 363.69 128.96 363.69"/><polygon class="cls-25" points="124.42 363.69 125.96 363.69 125.96 345.76 124.42 345.76 124.42 363.69 124.42 363.69"/><polygon class="cls-25" points="118.77 363.69 120.3 363.69 120.3 345.76 118.77 345.76 118.77 363.69 118.77 363.69"/><polygon class="cls-25" points="112.55 363.69 114.08 363.69 114.08 345.76 112.55 345.76 112.55 363.69 112.55 363.69"/><polygon class="cls-25" points="105.78 363.69 107.31 363.69 107.31 345.76 105.78 345.76 105.78 363.69 105.78 363.69"/></g><path class="cls-28" d="M135.17,348.86c0,2.72-14.48,4.91-32.34,4.91s-32.34-2.19-32.34-4.91S85,344,102.83,344s32.34,2.2,32.34,4.91Z"/><path class="cls-1" d="M130,348.54c0,1.25-11.51,2.27-25.71,2.27s-25.71-1-25.71-2.27,11.51-2.28,25.71-2.28,25.71,1,25.71,2.28Z"/><path class="cls-25" d="M79.72,349.2c3.2-.94,13-1.62,24.6-1.62s21.4.68,24.6,1.62c.72-.21,1.11-.43,1.11-.66,0-1.26-11.51-2.28-25.71-2.28s-25.71,1-25.71,2.28c0,.23.39.45,1.11.66Z"/><path class="cls-1" d="M66.69,339.45v7.82c0,2.71,14.48,4.91,32.34,4.91s32.34-2.2,32.34-4.91v-7.82Z"/><g class="cls-50"><path class="cls-25" d="M99.62,353.29H52.3a1.29,1.29,0,0,1-.88-.37,3.92,3.92,0,0,1-1-2.64s0-.1,0-.15v-9c0-1.75.89-3.16,1.91-3.16H93.81c.64,4.38,2.12,10.41,5.52,14.94.09.13.19.25.29.37Z"/></g><path class="cls-1" d="M124.74,338.79c0,1.25-11.51,2.27-25.71,2.27s-25.71-1-25.71-2.27,11.51-2.28,25.71-2.28,25.71,1,25.71,2.28Z"/><path class="cls-26" d="M74.43,339.45c3.2-.94,13-1.62,24.6-1.62s21.4.68,24.6,1.62c.72-.21,1.11-.43,1.11-.66,0-1.26-11.51-2.28-25.71-2.28s-25.71,1-25.71,2.28c0,.23.39.45,1.11.66Z"/><g class="cls-51"><polygon class="cls-25" points="129.13 336.2 129.13 354.13 130.66 354.13 130.66 336.2 129.13 336.2 129.13 336.2"/><polygon class="cls-25" points="125.16 354.13 126.69 354.13 126.69 336.2 125.16 336.2 125.16 354.13 125.16 354.13"/><polygon class="cls-25" points="120.63 354.13 122.16 354.13 122.16 336.2 120.63 336.2 120.63 354.13 120.63 354.13"/><polygon class="cls-25" points="114.97 354.13 116.5 354.13 116.5 336.2 114.97 336.2 114.97 354.13 114.97 354.13"/><polygon class="cls-25" points="108.76 354.13 110.29 354.13 110.29 336.2 108.76 336.2 108.76 354.13 108.76 354.13"/><polygon class="cls-25" points="101.98 354.13 103.51 354.13 103.51 336.2 101.98 336.2 101.98 354.13 101.98 354.13"/></g><path class="cls-28" d="M131.37,339.3c0,2.71-14.48,4.91-32.34,4.91S66.69,342,66.69,339.3s14.48-4.91,32.34-4.91,32.34,2.2,32.34,4.91Z"/><path class="cls-1" d="M126.23,339c0,1.26-11.51,2.28-25.71,2.28s-25.71-1-25.71-2.28,11.51-2.28,25.71-2.28,25.71,1,25.71,2.28Z"/><path class="cls-25" d="M75.92,339.64c3.2-.94,13-1.62,24.6-1.62s21.4.68,24.6,1.62c.72-.21,1.11-.44,1.11-.67,0-1.26-11.51-2.28-25.71-2.28s-25.71,1-25.71,2.28c0,.23.39.46,1.11.67Z"/><path class="cls-1" d="M63.53,329.88v7.82c0,2.71,14.48,4.91,32.34,4.91s32.34-2.2,32.34-4.91v-7.82Z"/><g class="cls-52"><path class="cls-25" d="M96.46,343.73H49.14a1.32,1.32,0,0,1-.88-.38,4,4,0,0,1-1-2.64v-.14a1,1,0,0,1,0-.17v-8.65a1.09,1.09,0,0,1,0-.18c0-1.75.89-3.16,1.9-3.16H90.65c.64,4.39,2.12,10.41,5.52,14.94l.29.38Z"/></g><path class="cls-1" d="M121.58,329.22c0,1.26-11.51,2.28-25.71,2.28s-25.71-1-25.71-2.28,11.51-2.28,25.71-2.28,25.71,1,25.71,2.28Z"/><path class="cls-26" d="M71.27,329.88c3.2-.93,13-1.61,24.6-1.61s21.4.68,24.6,1.61c.72-.21,1.11-.43,1.11-.66,0-1.26-11.51-2.28-25.71-2.28s-25.71,1-25.71,2.28c0,.23.39.45,1.11.66Z"/><g class="cls-53"><polygon class="cls-25" points="125.97 326.63 125.97 344.56 127.5 344.56 127.5 326.63 125.97 326.63 125.97 326.63"/><polygon class="cls-25" points="122 344.56 123.53 344.56 123.53 326.63 122 326.63 122 344.56 122 344.56"/><polygon class="cls-25" points="117.47 344.56 119 344.56 119 326.63 117.47 326.63 117.47 344.56 117.47 344.56"/><polygon class="cls-25" points="111.81 344.56 113.35 344.56 113.35 326.63 111.81 326.63 111.81 344.56 111.81 344.56"/><polygon class="cls-25" points="105.6 344.56 107.13 344.56 107.13 326.63 105.6 326.63 105.6 344.56 105.6 344.56"/><polygon class="cls-25" points="98.82 344.56 100.35 344.56 100.35 326.63 98.82 326.63 98.82 344.56 98.82 344.56"/></g><path class="cls-28" d="M128.21,329.73c0,2.72-14.48,4.91-32.34,4.91s-32.34-2.19-32.34-4.91,14.48-4.9,32.34-4.9,32.34,2.19,32.34,4.9Z"/><path class="cls-1" d="M123.07,329.41c0,1.25-11.51,2.27-25.71,2.27s-25.7-1-25.7-2.27,11.51-2.28,25.7-2.28,25.71,1,25.71,2.28Z"/><path class="cls-25" d="M72.76,330.07c3.21-.94,13-1.62,24.6-1.62s21.4.68,24.6,1.62c.72-.21,1.11-.43,1.11-.66,0-1.26-11.51-2.28-25.71-2.28s-25.7,1-25.7,2.28c0,.23.39.45,1.1.66Z"/><path class="cls-1" d="M68.11,320.75v7.82c0,2.71,14.48,4.91,32.34,4.91s32.34-2.2,32.34-4.91v-7.82Z"/><g class="cls-54"><path class="cls-25" d="M101,334.59H53.72a1.29,1.29,0,0,1-.88-.37,3.94,3.94,0,0,1-1-2.64c0-.05,0-.1,0-.15v-9c0-1.75.89-3.16,1.91-3.16H95.23c.64,4.38,2.12,10.4,5.52,14.94.09.13.19.25.29.37Z"/></g><path class="cls-1" d="M126.16,320.08c0,1.26-11.51,2.28-25.71,2.28s-25.71-1-25.71-2.28,11.51-2.27,25.71-2.27,25.71,1,25.71,2.27Z"/><path class="cls-26" d="M75.85,320.75c3.2-.94,13-1.62,24.6-1.62s21.4.68,24.6,1.62c.72-.21,1.11-.43,1.11-.67,0-1.25-11.51-2.27-25.71-2.27s-25.71,1-25.71,2.27c0,.24.39.46,1.11.67Z"/><g class="cls-55"><polygon class="cls-25" points="130.55 317.5 130.55 335.43 132.08 335.43 132.08 317.5 130.55 317.5 130.55 317.5"/><polygon class="cls-25" points="126.58 335.43 128.11 335.43 128.11 317.5 126.58 317.5 126.58 335.43 126.58 335.43"/><polygon class="cls-25" points="122.05 335.43 123.58 335.43 123.58 317.5 122.05 317.5 122.05 335.43 122.05 335.43"/><polygon class="cls-25" points="116.39 335.43 117.92 335.43 117.92 317.5 116.39 317.5 116.39 335.43 116.39 335.43"/><polygon class="cls-25" points="110.17 335.43 111.71 335.43 111.71 317.5 110.17 317.5 110.17 335.43 110.17 335.43"/><polygon class="cls-25" points="103.4 335.43 104.93 335.43 104.93 317.5 103.4 317.5 103.4 335.43 103.4 335.43"/></g><path class="cls-28" d="M132.79,320.6c0,2.71-14.48,4.91-32.34,4.91s-32.34-2.2-32.34-4.91,14.48-4.91,32.34-4.91,32.34,2.2,32.34,4.91Z"/><path class="cls-1" d="M127.65,320.27c0,1.26-11.51,2.28-25.71,2.28s-25.71-1-25.71-2.28S87.74,318,101.94,318s25.71,1,25.71,2.28Z"/><path class="cls-25" d="M77.34,320.93c3.2-.93,13-1.61,24.6-1.61s21.4.68,24.6,1.61c.72-.21,1.11-.43,1.11-.66,0-1.26-11.51-2.28-25.71-2.28s-25.71,1-25.71,2.28c0,.23.39.45,1.11.66Z"/><path class="cls-1" d="M64.31,311.18V319c0,2.71,14.48,4.91,32.34,4.91S129,321.72,129,319v-7.83Z"/><g class="cls-56"><path class="cls-25" d="M97.24,325H49.92a1.26,1.26,0,0,1-.88-.38A3.91,3.91,0,0,1,48,322a.76.76,0,0,0,0-.15v-9c.06-1.75.89-3.16,1.91-3.16H91.43c.64,4.39,2.12,10.41,5.52,14.94.09.13.19.26.29.38Z"/></g><path class="cls-1" d="M122.36,310.52c0,1.26-11.51,2.28-25.71,2.28s-25.71-1-25.71-2.28,11.51-2.28,25.71-2.28,25.71,1,25.71,2.28Z"/><path class="cls-26" d="M72.05,311.18c3.2-.93,13-1.61,24.6-1.61s21.4.68,24.6,1.61c.72-.21,1.11-.43,1.11-.66,0-1.26-11.51-2.28-25.71-2.28s-25.71,1-25.71,2.28c0,.23.39.45,1.11.66Z"/><g class="cls-57"><polygon class="cls-25" points="126.75 307.94 126.75 325.87 128.28 325.87 128.28 307.94 126.75 307.94 126.75 307.94"/><polygon class="cls-25" points="122.78 325.87 124.31 325.87 124.31 307.94 122.78 307.94 122.78 325.87 122.78 325.87"/><polygon class="cls-25" points="118.25 325.87 119.78 325.87 119.78 307.94 118.25 307.94 118.25 325.87 118.25 325.87"/><polygon class="cls-25" points="112.59 325.87 114.13 325.87 114.13 307.94 112.59 307.94 112.59 325.87 112.59 325.87"/><polygon class="cls-25" points="106.38 325.87 107.91 325.87 107.91 307.94 106.38 307.94 106.38 325.87 106.38 325.87"/><polygon class="cls-25" points="99.6 325.87 101.13 325.87 101.13 307.94 99.6 307.94 99.6 325.87 99.6 325.87"/></g><path class="cls-28" d="M129,311c0,2.71-14.48,4.91-32.34,4.91s-32.34-2.2-32.34-4.91,14.48-4.91,32.34-4.91S129,308.33,129,311Z"/><path class="cls-1" d="M123.85,310.71c0,1.26-11.51,2.28-25.71,2.28s-25.7-1-25.7-2.28,11.51-2.28,25.7-2.28,25.71,1,25.71,2.28Z"/><path class="cls-25" d="M73.54,311.37c3.21-.93,13-1.61,24.6-1.61s21.4.68,24.6,1.61c.72-.21,1.11-.43,1.11-.66,0-1.26-11.51-2.28-25.71-2.28s-25.7,1-25.7,2.28c0,.23.39.45,1.1.66Z"/><path class="cls-25" d="M16.93,376.32A27.68,27.68,0,1,1,44.61,404a27.68,27.68,0,0,1-27.68-27.68Z"/><path class="cls-28" d="M14.51,376.32A27.69,27.69,0,1,1,42.19,404a27.68,27.68,0,0,1-27.68-27.68Z"/><path class="cls-39" d="M42.19,352.93a23.72,23.72,0,1,0,23.72,23.72,23.74,23.74,0,0,0-23.72-23.72Zm0,48.94A25.23,25.23,0,1,1,60,394.48a25,25,0,0,1-17.84,7.39Z"/><path class="cls-39" d="M45.67,384a4.41,4.41,0,0,0-.06-1.47,3,3,0,0,0-.62-1.21,5.67,5.67,0,0,0-1.24-1.1,16.14,16.14,0,0,0-1.92-1.07,38,38,0,0,1-3.54-1.95A12.41,12.41,0,0,1,35.64,375a7.32,7.32,0,0,1-1.57-2.63A7.62,7.62,0,0,1,33.8,369a7.54,7.54,0,0,1,1-2.95,6.86,6.86,0,0,1,2-2.17,8.64,8.64,0,0,1,2.8-1.33,11.43,11.43,0,0,1,3.49-.4l.5-4.16,3.34.4-.5,4.21A10.66,10.66,0,0,1,49.48,364,7.92,7.92,0,0,1,53,369a10.51,10.51,0,0,1,.13,3.57l-6-.72a5.16,5.16,0,0,0-.62-3.61,3.58,3.58,0,0,0-2.64-1.48,4.66,4.66,0,0,0-1.65.07,3.07,3.07,0,0,0-1.2.59,2.76,2.76,0,0,0-.78,1,4.22,4.22,0,0,0-.31,2.64,2.85,2.85,0,0,0,.59,1.16,5.79,5.79,0,0,0,1.25,1.1,19.32,19.32,0,0,0,2,1.15c1.29.66,2.46,1.33,3.5,2a12.38,12.38,0,0,1,2.64,2.18,7.43,7.43,0,0,1,1.56,2.63,7.73,7.73,0,0,1,.28,3.35,7.63,7.63,0,0,1-1,3,6.94,6.94,0,0,1-2,2.15A8.52,8.52,0,0,1,46,391.08a12.66,12.66,0,0,1-3.51.37L42,395.31l-3.33-.39.46-3.85a14.44,14.44,0,0,1-3.27-1.15,9.06,9.06,0,0,1-2.67-2,8,8,0,0,1-1.68-3,9.66,9.66,0,0,1-.28-4.09l6,.72a5.86,5.86,0,0,0,.12,2.34,3.79,3.79,0,0,0,.86,1.6,3.9,3.9,0,0,0,1.38,1,6.63,6.63,0,0,0,1.66.42,5.29,5.29,0,0,0,1.75,0,3.55,3.55,0,0,0,1.33-.55,2.92,2.92,0,0,0,.88-1,3.67,3.67,0,0,0,.41-1.3Z"/><path class="cls-58" d="M562.47,304.1c-2.6-8.06-15.75-4.69-15.75-4.69s-8.22,14.87-10.83,15.37,4.64-14.14,4.64-14.14c-5.12-.2-17.72,7.07-17.72,7.07s1.76,16.66-.88,16.48-.84-14.84-.84-14.84c-4.84,1.84-9.1,8.08-9.1,8.08-5.2,10.07,6.55,19.09,6.55,19.09a89.86,89.86,0,0,0-5.65,36c-4.17,1.51-7.86,4.1-11.49,6.66,2.31-10.62,3.26-23.24-4.51-30.83-4.45-4.36-11-6-17.22-5.83-12.84.41-24.62,8-32.79,17.94s-15.42,27.08-20,39.1H555a14.18,14.18,0,0,0-20.78-12.46c-.49-5.47-2.73-11.19-7.45-14-3.43-2.05-7.69-2.23-11.6-1.28-.19-3.1-.49-10.24.36-15.46,2.91-17.77,6.61-17.47,6.62-17.46,4.54,3.14,14.08,5.12,20.41,3.37s3.43-3.46-.19-6.3-10.8-1.59-13-2.65.85-2.45,5.14-2.37,6.67,4.38,13.6,4.65,11.43-13.53,11.43-13.53c-4.67,1.82-13.37-.39-13.79-2.07s12.23-2.28,14.17-2.92S565.07,312.15,562.47,304.1Z"/><path class="cls-1" d="M449.78,353.73v8.93c0,3.1,16.53,5.61,36.93,5.61s36.94-2.51,36.94-5.61v-8.93Z"/><g class="cls-59"><path class="cls-25" d="M487.39,369.54H433.34a1.48,1.48,0,0,1-1-.43,4.47,4.47,0,0,1-1.16-3,.91.91,0,0,1,0-.17V355.66c.06-2,1-3.61,2.18-3.61h47.41c.74,5,2.43,11.89,6.3,17.06.11.15.22.29.34.43Z"/></g><path class="cls-1" d="M516.08,353c0,1.44-13.15,2.6-29.37,2.6s-29.36-1.16-29.36-2.6,13.15-2.6,29.36-2.6,29.37,1.16,29.37,2.6Z"/><path class="cls-26" d="M458.62,353.73c3.65-1.07,14.85-1.85,28.09-1.85s24.45.78,28.1,1.85c.82-.24,1.27-.49,1.27-.76,0-1.44-13.15-2.6-29.37-2.6s-29.36,1.16-29.36,2.6c0,.27.45.52,1.27.76Z"/><g class="cls-60"><polygon class="cls-25" points="521.1 350.02 521.1 370.5 522.84 370.5 522.84 350.02 521.1 350.02 521.1 350.02"/><polygon class="cls-25" points="516.56 370.5 518.31 370.5 518.31 350.02 516.56 350.02 516.56 370.5 516.56 370.5"/><polygon class="cls-25" points="511.38 370.5 513.13 370.5 513.13 350.02 511.38 350.02 511.38 370.5 511.38 370.5"/><polygon class="cls-25" points="504.93 370.5 506.68 370.5 506.68 350.02 504.93 350.02 504.93 370.5 504.93 370.5"/><polygon class="cls-25" points="497.82 370.5 499.57 370.5 499.57 350.02 497.82 350.02 497.82 370.5 497.82 370.5"/><polygon class="cls-25" points="490.08 370.5 491.83 370.5 491.83 350.02 490.08 350.02 490.08 370.5 490.08 370.5"/></g><path class="cls-28" d="M523.65,353.56c0,3.1-16.53,5.61-36.94,5.61s-36.93-2.51-36.93-5.61S466.31,348,486.71,348s36.94,2.51,36.94,5.61Z"/><path class="cls-1" d="M517.78,353.19c0,1.43-13.14,2.6-29.36,2.6s-29.37-1.17-29.37-2.6,13.15-2.61,29.37-2.61,29.36,1.17,29.36,2.61Z"/><path class="cls-25" d="M460.32,353.94c3.66-1.07,14.85-1.84,28.1-1.84s24.44.77,28.1,1.84c.82-.24,1.26-.49,1.26-.75,0-1.44-13.14-2.61-29.36-2.61s-29.37,1.17-29.37,2.61c0,.26.45.51,1.27.75Z"/><path class="cls-1" d="M455,343.29v8.94c0,3.1,16.54,5.61,36.94,5.61s36.94-2.51,36.94-5.61v-8.94Z"/><g class="cls-61"><path class="cls-25" d="M492.62,359.11H438.57a1.46,1.46,0,0,1-1-.43,4.47,4.47,0,0,1-1.16-3,1,1,0,0,1,0-.17V345.23c.06-2,1-3.62,2.18-3.62H486c.73,5,2.42,11.89,6.3,17.07.11.15.22.29.34.43Z"/></g><path class="cls-1" d="M521.31,342.54c0,1.44-13.15,2.6-29.37,2.6s-29.36-1.16-29.36-2.6,13.15-2.6,29.36-2.6,29.37,1.16,29.37,2.6Z"/><path class="cls-26" d="M463.84,343.29c3.66-1.06,14.86-1.84,28.1-1.84s24.44.78,28.1,1.84c.82-.23,1.27-.49,1.27-.75,0-1.44-13.15-2.6-29.37-2.6s-29.36,1.16-29.36,2.6c0,.26.44.52,1.26.75Z"/><g class="cls-62"><polygon class="cls-25" points="526.32 339.58 526.32 360.06 528.07 360.06 528.07 339.58 526.32 339.58 526.32 339.58"/><polygon class="cls-25" points="521.79 360.06 523.54 360.06 523.54 339.58 521.79 339.58 521.79 360.06 521.79 360.06"/><polygon class="cls-25" points="516.61 360.06 518.36 360.06 518.36 339.58 516.61 339.58 516.61 360.06 516.61 360.06"/><polygon class="cls-25" points="510.15 360.06 511.9 360.06 511.9 339.58 510.15 339.58 510.15 360.06 510.15 360.06"/><polygon class="cls-25" points="503.05 360.06 504.8 360.06 504.8 339.58 503.05 339.58 503.05 360.06 503.05 360.06"/><polygon class="cls-25" points="495.31 360.06 497.06 360.06 497.06 339.58 495.31 339.58 495.31 360.06 495.31 360.06"/></g><path class="cls-28" d="M528.88,343.13c0,3.1-16.54,5.61-36.94,5.61S455,346.23,455,343.13s16.54-5.61,36.94-5.61,36.94,2.51,36.94,5.61Z"/><path class="cls-1" d="M523,342.75c0,1.44-13.14,2.6-29.36,2.6s-29.37-1.16-29.37-2.6,13.15-2.6,29.37-2.6,29.36,1.16,29.36,2.6Z"/><path class="cls-25" d="M465.55,343.51c3.66-1.07,14.85-1.85,28.1-1.85s24.44.78,28.1,1.85c.82-.24,1.26-.49,1.26-.76,0-1.44-13.14-2.6-29.36-2.6s-29.37,1.16-29.37,2.6c0,.27.45.52,1.27.76Z"/><path class="cls-1" d="M450.67,332.37v8.94c0,3.09,16.53,5.6,36.93,5.6s36.94-2.51,36.94-5.6v-8.94Z"/><g class="cls-63"><path class="cls-25" d="M488.28,348.19h-54a1.53,1.53,0,0,1-1-.43,4.49,4.49,0,0,1-1.16-3,1,1,0,0,1,0-.17V334.3c.06-2,1-3.61,2.18-3.61h47.41c.74,5,2.43,11.89,6.3,17.07.11.14.22.29.34.43Z"/></g><path class="cls-1" d="M517,331.61c0,1.44-13.15,2.61-29.37,2.61s-29.36-1.17-29.36-2.61,13.15-2.6,29.36-2.6,29.37,1.17,29.37,2.6Z"/><path class="cls-26" d="M459.51,332.37c3.65-1.07,14.85-1.84,28.09-1.84s24.45.77,28.1,1.84c.82-.24,1.27-.49,1.27-.76,0-1.43-13.15-2.6-29.37-2.6s-29.36,1.17-29.36,2.6c0,.27.45.52,1.27.76Z"/><g class="cls-64"><polygon class="cls-25" points="521.99 328.66 521.99 349.14 523.74 349.14 523.74 328.66 521.99 328.66 521.99 328.66"/><polygon class="cls-25" points="517.45 349.14 519.2 349.14 519.2 328.66 517.45 328.66 517.45 349.14 517.45 349.14"/><polygon class="cls-25" points="512.27 349.14 514.02 349.14 514.02 328.66 512.27 328.66 512.27 349.14 512.27 349.14"/><polygon class="cls-25" points="505.82 349.14 507.56 349.14 507.56 328.66 505.82 328.66 505.82 349.14 505.82 349.14"/><polygon class="cls-25" points="498.71 349.14 500.46 349.14 500.46 328.66 498.71 328.66 498.71 349.14 498.71 349.14"/><polygon class="cls-25" points="490.97 349.14 492.72 349.14 492.72 328.66 490.97 328.66 490.97 349.14 490.97 349.14"/></g><path class="cls-28" d="M524.54,332.2c0,3.1-16.53,5.61-36.94,5.61s-36.93-2.51-36.93-5.61,16.53-5.6,36.93-5.6,36.94,2.51,36.94,5.6Z"/><path class="cls-1" d="M518.67,331.83c0,1.44-13.14,2.6-29.36,2.6s-29.37-1.16-29.37-2.6,13.15-2.6,29.37-2.6,29.36,1.16,29.36,2.6Z"/><path class="cls-25" d="M461.21,332.59c3.66-1.07,14.85-1.85,28.1-1.85s24.44.78,28.1,1.85c.82-.24,1.26-.5,1.26-.76,0-1.44-13.14-2.6-29.36-2.6s-29.37,1.16-29.37,2.6c0,.26.45.52,1.27.76Z"/><path class="cls-1" d="M446.85,321.47v8.94c0,3.1,16.54,5.61,36.94,5.61s36.94-2.51,36.94-5.61v-8.94Z"/><g class="cls-65"><path class="cls-25" d="M484.46,337.29h-54a1.46,1.46,0,0,1-1-.43,4.47,4.47,0,0,1-1.17-3c0-.06,0-.11,0-.17V323.41c.06-2,1-3.62,2.18-3.62h47.41c.74,5,2.43,11.89,6.31,17.07l.33.43Z"/></g><path class="cls-1" d="M513.15,320.72c0,1.44-13.14,2.6-29.36,2.6s-29.37-1.16-29.37-2.6,13.15-2.6,29.37-2.6,29.36,1.16,29.36,2.6Z"/><path class="cls-26" d="M455.69,321.47c3.66-1.06,14.85-1.84,28.1-1.84s24.44.78,28.1,1.84c.82-.23,1.26-.49,1.26-.75,0-1.44-13.14-2.6-29.36-2.6s-29.37,1.16-29.37,2.6c0,.26.45.52,1.27.75Z"/><g class="cls-66"><polygon class="cls-25" points="518.17 317.76 518.17 338.25 519.92 338.25 519.92 317.76 518.17 317.76 518.17 317.76"/><polygon class="cls-25" points="513.63 338.25 515.38 338.25 515.38 317.76 513.63 317.76 513.63 338.25 513.63 338.25"/><polygon class="cls-25" points="508.46 338.25 510.21 338.25 510.21 317.76 508.46 317.76 508.46 338.25 508.46 338.25"/><polygon class="cls-25" points="502 338.25 503.75 338.25 503.75 317.76 502 317.76 502 338.25 502 338.25"/><polygon class="cls-25" points="494.9 338.25 496.65 338.25 496.65 317.76 494.9 317.76 494.9 338.25 494.9 338.25"/><polygon class="cls-25" points="487.15 338.25 488.9 338.25 488.9 317.76 487.15 317.76 487.15 338.25 487.15 338.25"/></g><path class="cls-28" d="M520.73,321.31c0,3.1-16.54,5.61-36.94,5.61s-36.94-2.51-36.94-5.61,16.54-5.61,36.94-5.61,36.94,2.51,36.94,5.61Z"/><path class="cls-1" d="M514.86,320.93c0,1.44-13.15,2.6-29.37,2.6s-29.36-1.16-29.36-2.6,13.14-2.6,29.36-2.6,29.37,1.16,29.37,2.6Z"/><path class="cls-25" d="M457.39,321.69c3.66-1.07,14.86-1.85,28.1-1.85s24.44.78,28.1,1.85c.82-.24,1.27-.49,1.27-.76,0-1.44-13.15-2.6-29.37-2.6s-29.36,1.16-29.36,2.6c0,.27.44.52,1.26.76Z"/><path class="cls-1" d="M452.08,311V320c0,3.09,16.54,5.6,36.94,5.6S526,323.07,526,320V311Z"/><g class="cls-67"><path class="cls-25" d="M489.69,326.86H435.64a1.53,1.53,0,0,1-1-.43,4.54,4.54,0,0,1-1.16-3c0-.06,0-.12,0-.17V313c.06-2,1-3.61,2.18-3.61h47.41c.74,5,2.43,11.89,6.31,17.07l.33.43Z"/></g><path class="cls-1" d="M518.38,310.28c0,1.44-13.15,2.61-29.36,2.61s-29.37-1.17-29.37-2.61,13.15-2.6,29.37-2.6,29.36,1.17,29.36,2.6Z"/><path class="cls-26" d="M460.92,311c3.65-1.07,14.85-1.84,28.1-1.84s24.44.77,28.1,1.84c.82-.24,1.26-.49,1.26-.76,0-1.43-13.15-2.6-29.36-2.6s-29.37,1.17-29.37,2.6c0,.27.45.52,1.27.76Z"/><g class="cls-68"><polygon class="cls-25" points="523.4 307.33 523.4 327.81 525.14 327.81 525.14 307.33 523.4 307.33 523.4 307.33"/><polygon class="cls-25" points="518.86 327.81 520.61 327.81 520.61 307.33 518.86 307.33 518.86 327.81 518.86 327.81"/><polygon class="cls-25" points="513.68 327.81 515.43 327.81 515.43 307.33 513.68 307.33 513.68 327.81 513.68 327.81"/><polygon class="cls-25" points="507.23 327.81 508.98 327.81 508.98 307.33 507.23 307.33 507.23 327.81 507.23 327.81"/><polygon class="cls-25" points="500.13 327.81 501.87 327.81 501.87 307.33 500.13 307.33 500.13 327.81 500.13 327.81"/><polygon class="cls-25" points="492.38 327.81 494.13 327.81 494.13 307.33 492.38 307.33 492.38 327.81 492.38 327.81"/></g><path class="cls-28" d="M526,310.87c0,3.1-16.53,5.61-36.93,5.61s-36.94-2.51-36.94-5.61,16.54-5.6,36.94-5.6,36.93,2.51,36.93,5.6Z"/><path class="cls-1" d="M520.09,310.5c0,1.44-13.15,2.6-29.37,2.6s-29.36-1.16-29.36-2.6,13.14-2.61,29.36-2.61,29.37,1.17,29.37,2.61Z"/><path class="cls-25" d="M462.62,311.26c3.66-1.07,14.85-1.85,28.1-1.85s24.44.78,28.1,1.85c.82-.24,1.27-.5,1.27-.76,0-1.44-13.15-2.61-29.37-2.61s-29.36,1.17-29.36,2.61c0,.26.44.52,1.26.76Z"/><path class="cls-1" d="M447.74,300.12v8.93c0,3.1,16.54,5.61,36.94,5.61s36.94-2.51,36.94-5.61v-8.93Z"/><g class="cls-69"><path class="cls-25" d="M485.35,315.93H431.3a1.46,1.46,0,0,1-1-.43,4.47,4.47,0,0,1-1.17-3c0-.05,0-.11,0-.17V302.05c.06-2,1-3.61,2.18-3.61h47.41c.74,5,2.43,11.89,6.31,17.06l.33.43Z"/></g><path class="cls-1" d="M514,299.36c0,1.44-13.14,2.6-29.36,2.6s-29.37-1.16-29.37-2.6,13.15-2.6,29.37-2.6,29.36,1.16,29.36,2.6Z"/><path class="cls-26" d="M456.58,300.12c3.66-1.07,14.85-1.85,28.1-1.85s24.44.78,28.1,1.85c.82-.24,1.26-.49,1.26-.76,0-1.44-13.14-2.6-29.36-2.6s-29.37,1.16-29.37,2.6c0,.27.45.52,1.27.76Z"/><g class="cls-70"><polygon class="cls-25" points="519.06 296.41 519.06 316.89 520.81 316.89 520.81 296.41 519.06 296.41 519.06 296.41"/><polygon class="cls-25" points="514.52 316.89 516.27 316.89 516.27 296.41 514.52 296.41 514.52 316.89 514.52 316.89"/><polygon class="cls-25" points="509.35 316.89 511.1 316.89 511.1 296.41 509.35 296.41 509.35 316.89 509.35 316.89"/><polygon class="cls-25" points="502.89 316.89 504.64 316.89 504.64 296.41 502.89 296.41 502.89 316.89 502.89 316.89"/><polygon class="cls-25" points="495.79 316.89 497.54 316.89 497.54 296.41 495.79 296.41 495.79 316.89 495.79 316.89"/><polygon class="cls-25" points="488.05 316.89 489.8 316.89 489.8 296.41 488.05 296.41 488.05 316.89 488.05 316.89"/></g><path class="cls-28" d="M521.62,300c0,3.1-16.54,5.61-36.94,5.61s-36.94-2.51-36.94-5.61,16.54-5.61,36.94-5.61,36.94,2.51,36.94,5.61Z"/><path class="cls-1" d="M515.75,299.58c0,1.43-13.15,2.6-29.37,2.6S457,301,457,299.58,470.16,297,486.38,297s29.37,1.17,29.37,2.61Z"/><path class="cls-25" d="M458.28,300.33c3.66-1.07,14.86-1.84,28.1-1.84s24.44.77,28.1,1.84c.82-.24,1.27-.49,1.27-.75,0-1.44-13.15-2.61-29.37-2.61S457,298.14,457,299.58c0,.26.44.51,1.26.75Z"/><path class="cls-23" d="M545.57,368.59c0-19.2-13.31-34.77-29.73-34.77s-29.74,15.57-29.74,34.77,13.32,34.76,29.74,34.76,29.73-15.56,29.73-34.76Z"/><path class="cls-28" d="M548.17,368.59c0-19.2-13.31-34.77-29.74-34.77s-29.73,15.57-29.73,34.77,13.31,34.76,29.73,34.76,29.74-15.56,29.74-34.76Z"/><path class="cls-39" d="M493,369c0,16.42,11.43,29.78,25.47,29.78s25.48-13.36,25.48-29.78-11.43-29.79-25.48-29.79S493,352.57,493,369Zm6.32,22.39a35.55,35.55,0,0,1,0-44.79c5.11-6,11.92-9.28,19.15-9.28s14,3.3,19.16,9.28a35.55,35.55,0,0,1,0,44.79c-5.12,6-11.92,9.28-19.16,9.28s-14-3.29-19.15-9.28Z"/><path class="cls-39" d="M515.14,379.82a3.38,3.38,0,0,0,1,1.22,3.51,3.51,0,0,0,1.42.7,5.33,5.33,0,0,0,1.89.06,6.31,6.31,0,0,0,1.78-.54,4,4,0,0,0,1.48-1.19,5.2,5.2,0,0,0,.93-2,9.25,9.25,0,0,0,.12-2.95l6.49-.9a14.15,14.15,0,0,1-.3,5.14,10.74,10.74,0,0,1-1.8,3.77,10,10,0,0,1-2.88,2.54,14.17,14.17,0,0,1-3.51,1.46l.5,4.83-3.58.49-.49-4.85a11.72,11.72,0,0,1-3.77-.47,8.52,8.52,0,0,1-3-1.61,8.21,8.21,0,0,1-2.11-2.7,10.72,10.72,0,0,1-1-3.77,10.9,10.9,0,0,1,.29-4.19,9.73,9.73,0,0,1,1.68-3.32A14.17,14.17,0,0,1,513,368.8q1.68-1.24,3.77-2.5a21.15,21.15,0,0,0,2.14-1.45,6.6,6.6,0,0,0,1.34-1.37,3.78,3.78,0,0,0,.64-1.46,5.73,5.73,0,0,0,.06-1.67,6,6,0,0,0-.4-1.65,3.6,3.6,0,0,0-.83-1.26,3.08,3.08,0,0,0-1.3-.73,3.94,3.94,0,0,0-1.77-.09,3.74,3.74,0,0,0-2.83,1.86,7.43,7.43,0,0,0-.67,4.53l-6.49.91a15.74,15.74,0,0,1,.15-4.49,11.21,11.21,0,0,1,1.35-3.64,9.57,9.57,0,0,1,2.44-2.71A10.2,10.2,0,0,1,514,351.4l-.54-5.3,3.6-.5.53,5.23a10.55,10.55,0,0,1,3.75.5,9.12,9.12,0,0,1,3,1.67,8.49,8.49,0,0,1,2.09,2.73,10.56,10.56,0,0,1,1,3.7,11.23,11.23,0,0,1-.29,4.22,9.91,9.91,0,0,1-1.68,3.3,14.5,14.5,0,0,1-2.85,2.71,40.63,40.63,0,0,1-3.81,2.44,16,16,0,0,0-2.06,1.35,6.81,6.81,0,0,0-1.33,1.37,4.14,4.14,0,0,0-.66,1.53,6.13,6.13,0,0,0-.07,1.84,4.89,4.89,0,0,0,.44,1.63Z"/><path class="cls-23" d="M418.37,363.15c6.72-16.07,23.22-24.47,36.86-18.76s19.26,23.34,12.55,39.41-23.22,24.47-36.86,18.76-19.26-23.35-12.55-39.41Z"/><path class="cls-28" d="M416.22,362.25c6.71-16.07,23.22-24.47,36.86-18.76s19.26,23.34,12.54,39.41-23.22,24.46-36.86,18.76-19.26-23.35-12.54-39.41Z"/><path class="cls-39" d="M451.19,348c-11.67-4.87-25.83,2.34-31.58,16.08s-.92,28.89,10.75,33.77,25.84-2.33,31.58-16.08.92-28.89-10.75-33.77ZM429.7,399.42A22.55,22.55,0,0,1,417,385a32.45,32.45,0,0,1,15.67-37.49,21.88,21.88,0,0,1,31.82,13.31,32.45,32.45,0,0,1-15.66,37.48,22.56,22.56,0,0,1-19.16,1.11Z"/><path class="cls-39" d="M440.66,381.9a5.38,5.38,0,0,0,.59-1.56,3.67,3.67,0,0,0,0-1.51,6.38,6.38,0,0,0-.62-1.61,14.51,14.51,0,0,0-1.24-1.84,36.41,36.41,0,0,1-2.31-3.37,13.12,13.12,0,0,1-1.42-3.25,9,9,0,0,1-.24-3.35,10,10,0,0,1,1.24-3.63,9.78,9.78,0,0,1,2.13-2.74,7.5,7.5,0,0,1,2.7-1.55,7.89,7.89,0,0,1,3.08-.36,9.55,9.55,0,0,1,3.29.88l2.27-4.18,2.81,1.66-2.3,4.24a9.4,9.4,0,0,1,2.23,2.59,8.71,8.71,0,0,1,1.07,3.11,10.06,10.06,0,0,1-.15,3.52,14,14,0,0,1-1.45,3.8l-5.07-3a6.75,6.75,0,0,0,1-4,3.36,3.36,0,0,0-1.7-2.54,3.67,3.67,0,0,0-1.51-.55,2.82,2.82,0,0,0-1.33.17,3.18,3.18,0,0,0-1.13.76,5.44,5.44,0,0,0-.91,1.25,5,5,0,0,0-.53,1.41,3.55,3.55,0,0,0,0,1.45,6.21,6.21,0,0,0,.63,1.61,18.78,18.78,0,0,0,1.28,2c.86,1.18,1.61,2.31,2.25,3.4a12.85,12.85,0,0,1,1.4,3.27,8.77,8.77,0,0,1,.23,3.35,10.09,10.09,0,0,1-1.22,3.61,10,10,0,0,1-2.17,2.8,7.59,7.59,0,0,1-2.7,1.52,7.48,7.48,0,0,1-3.07.3,10.24,10.24,0,0,1-3.3-.92l-2.11,3.89-2.79-1.65,2.1-3.87a12.38,12.38,0,0,1-2.41-2.44,8.69,8.69,0,0,1-1.5-3.12,9.44,9.44,0,0,1-.18-3.78,13.07,13.07,0,0,1,1.55-4.41l5.08,3a7.88,7.88,0,0,0-.93,2.51,4.72,4.72,0,0,0,.06,2,3.74,3.74,0,0,0,.82,1.52,5.45,5.45,0,0,0,1.29,1.06,4.44,4.44,0,0,0,1.59.61,3.35,3.35,0,0,0,1.42-.09,3,3,0,0,0,1.21-.69,4.31,4.31,0,0,0,.94-1.22Z"/><path class="cls-3" d="M459.25,170.86c3.66-1.9,9.62-.92,10.51-.74,11.35,2.33,16.94,12.56,17.33,17.27.7,8.67,11.36,7,11.89,15.42.66,10.68-21.12,10.94-28.29,15.64-4.3,2.83,18.5,12.62,18.5,12.62S472.48,213.59,461,212c-13.49-1.87-11.06-36.31-1.74-41.14Z"/><path class="cls-71" d="M466.51,199.27s.23,3.27.24,6.36c5.83-.16,8.91-5.48,10.17-8.43l-10.41,2.07Z"/><path class="cls-72" d="M464.56,202.19s13.79.23,13.8-8.36,1.8-14.35-7-14.86-10.52,2.77-11.22,5.63.84,17.31,4.43,17.59Z"/><path class="cls-34" d="M465.66,210.78c-.05,0,4.45,2.51,7.9,1.67,3.26-.79,5.48-4.92,5.43-4.93-1.36-.31-1.7-2.2-1.44-10.27l-.63.11-10.44,1.77s.14,3.27.07,6.35c-.07,2.59-.29,5-.89,5.3Z"/><path class="cls-35" d="M466.48,199.13s.14,3.27.07,6.35c5.82,0,9-5.22,10.37-8.12l-10.44,1.77Z"/><path class="cls-34" d="M464.46,202s13.75.61,14-8,2.19-14.26-6.58-15-10.57,2.47-11.34,5.31.36,17.28,3.93,17.66Z"/><path class="cls-34" d="M462.67,349.16a2.12,2.12,0,0,1,.37,2.24h0c-.54,1.5-2.32,3.16-4.4,4.83-.26.21-.5.4-.7.59l-.16.14-.12.11c-1.93,1.78-1.21,2.19-4.68,5.8-4,4.12-6.69,4.2-7.46,3.82s.68-2.5,2.16-5c.07-.12.13-.24.21-.36.2-.32.39-.66.58-1,1.74-3,1.29-4.35.88-8.74-.33-3.58-5.56-20-5.56-20l7.59-1.31s2.28,13.05,4.8,15.06c1.35,1.08,2.86,1.09,4.15,1.89a2,2,0,0,1,.27.17,10.05,10.05,0,0,1,2.08,1.66Z"/><path class="cls-3" d="M462.67,349.16a2.12,2.12,0,0,1,.37,2.24h0c-.66,1.5-2.4,3.15-4.4,4.81-.26.22-.5.42-.7.61l-.16.14-.12.11c-1.93,1.78-1.21,2.19-4.68,5.8-4,4.12-6.69,4.2-7.46,3.82s.68-2.5,2.16-5a17,17,0,0,0,7.05-5.2c2.39-3,4-7,5.6-9.21a2,2,0,0,1,.27.17,10.05,10.05,0,0,1,2.08,1.66Z"/><path class="cls-3" d="M429.38,297.87l15.69,42.23a14.35,14.35,0,0,0,4.72-.44,20.27,20.27,0,0,0,4.57-2.22s-3.89-40.54-11-49-13.95,9.4-13.95,9.4Z"/><path class="cls-5" d="M491.44,280.79s-44.74-10.14-55.14-12c-7.55-1.35-10.81,27.26-10.81,27.26,3.25-6.81,14.05-5.21,17.3-4.56s41.84,15.9,50.6,6.81,6.46-20.88,6.46-20.88l-8.41,3.37Z"/><path class="cls-12" d="M502,283.77c-.75,2.14-3,2.69-6.09,2.32-5.83-.7-14.49-4.76-20.73-7.57-9.51-4.28-13.84-.26-16.87-3s3.47-8.78-2.16-36.89c-1.9-9.54,10.18-30,10.18-30s1,5.92,12.6-1.2c.41-.25,5,6.74,9.35,15.36,4.83,9.5,9.45,21,8.09,26.9-2.59,11.28,7.79,27.82,5.63,34Z"/><path class="cls-34" d="M413.86,229.74s-1.06-4.46-2.92-4.93-7.71-2.34-8.27-1.55a6,6,0,0,0,.5,5.26c1.11,1.31,8.8,4.35,8.8,4.35l1.89-3.13Z"/><path class="cls-12" d="M466.38,208.67l-11.52,27.8s-1.12,1.43-2.84,3.43c-4,4.72-11.37,12.65-15.34,13-1.95.15-5.72-2-9.8-5a212.79,212.79,0,0,1-16.62-13.72c-.05-3.94,3.79-6.56,3.79-6.56s18.91,10.67,20.89,11.12c4.3,1,12-19.32,17.13-25.69,3.72-4.6,14.31-4.37,14.31-4.37Z"/><path class="cls-73" d="M502,283.77c-.75,2.14-3,2.69-6.09,2.32-4-1.82-21.46-8.83-21.27-13.57.29-7,3.35-7.26,1.19-15.93-1.74-7,14.37-19.91,16.94-22.73,4.83,9.51,5,10,3.6,15.87-2.59,11.28,7.79,27.82,5.63,34Z"/><path class="cls-34" d="M473.09,254.66s-2.92-2.27-5.67-1.73-4.11,2.44-4,3.3,1.56,3.3,3.67,3.51,8.11-1.3,8.11-1.3l-2.11-3.78Z"/><path class="cls-12" d="M479,207.47s11.25.69,15.14,6.12c5.48,7.64,15,38.84,12.4,46l-34.21-.14s-.83-3.87.33-5.75,19.89-4.9,20.76-5.77S482.56,231,482.56,228.44s-3.61-21-3.61-21Z"/><polygon class="cls-74" points="470.16 267.44 428.75 267.44 421.29 241.41 462.63 241.41 470.16 267.44 470.16 267.44"/><path class="cls-3" d="M459.32,179.3s8.56,7.71,14.38,8.33,8-1.33,8-1.33a23.64,23.64,0,0,1-5.49-7.78,4.13,4.13,0,0,0-3.37-2.53c-4.16-.37-12-.54-13.54,3.31Z"/><path class="cls-3" d="M464.67,178.61a22,22,0,0,0-3.76,5c-.87,2.07-1.13,7-.44,9,0,0-4.46-9.06-1.93-13.47,2.67-4.67,6.13-.56,6.13-.56Z"/><polygon class="cls-75" points="470.78 268.33 428.85 268.33 421.29 241.41 463.15 241.41 470.78 268.33 470.78 268.33"/><polygon class="cls-76" points="428.99 267.28 483.8 267.28 483.8 268.33 428.99 268.33 428.99 267.28 428.99 267.28"/><path class="cls-28" d="M442.16,254.43a1.24,1.24,0,0,1,1.2-1.71,2.43,2.43,0,0,1,2.16,1.71,1.25,1.25,0,0,1-1.2,1.72,2.42,2.42,0,0,1-2.16-1.72Z"/><path class="cls-34" d="M438.65,355.77a2.08,2.08,0,0,1-.43,2.22h0c-1,1.21-3.29,2.14-5.81,3-.33.11-.62.21-.87.31l-.2.07-.15.06c-2.44,1-1.9,1.63-6.42,3.8-5.15,2.47-7.73,1.58-8.33,1s1.51-2.11,3.76-3.89l.33-.26.89-.72c2.66-2.16,2.74-3.62,3.89-7.88.95-3.46,1.8-20.65,1.8-20.65l7.57,1.44s-2.44,13-.79,15.79c.88,1.48,2.29,2,3.22,3.22.07.08.13.17.19.25a9.68,9.68,0,0,1,1.36,2.3Z"/><path class="cls-3" d="M438.65,355.77a2.08,2.08,0,0,1-.43,2.22h0c-1.15,1.17-3.36,2.11-5.82,3-.32.11-.6.21-.86.32l-.2.07-.15.06c-2.44,1-1.9,1.63-6.42,3.8-5.15,2.47-7.73,1.58-8.33,1s1.51-2.11,3.76-3.89a17,17,0,0,0,8.44-2.4c3.3-2,6.16-5.11,8.47-6.66.07.08.13.17.19.25a9.68,9.68,0,0,1,1.36,2.3Z"/><path class="cls-5" d="M425.49,296.05l-.13,45.05a14.51,14.51,0,0,0,4.57,1.25,20.51,20.51,0,0,0,5.06-.48s10.59-39.33,6.86-49.73-16.36,3.91-16.36,3.91Z"/><path class="cls-5" d="M436.3,268.79c-15-1.51-10.81,27.26-10.81,27.26,5-2,14.05-5.21,17.3-4.56"/><path class="cls-35" d="M285.46,204.6l.78,2.79.52-.09c1-.21,3.51-.67,6.3-1.34,4.21-1,9.18-2.38,11-3.88,2.83-2.27,7.13-8.66,9.67-14.83a2.82,2.82,0,0,0,.18-.45c1.32-3.26,2.12-6.44,1.91-8.87a12.41,12.41,0,0,0-.9-3.79,9.81,9.81,0,0,0-2.18-3.24,1.64,1.64,0,0,0-.38-.36,8.2,8.2,0,0,0-2.47-1.61c-.59-.16-1.17.2-1.71,1v0a11.34,11.34,0,0,0-1.31,2.6s0,.05,0,.08c-.09.22-.18.47-.29.75a.67.67,0,0,0-.07.18c-.19.57-.37,1.16-.56,1.78-2.07,6.65-3.91,16.56-6.1,19.73-1,1.36-5.68,4.4-9.45,6.7-2.72,1.63-4.94,2.87-4.94,2.87Z"/><path class="cls-3" d="M298.06,139.81s-.25-5.34,7.72-5c2.1.1,3.06-3.67,6.59-2.83,7.61,1.82,7.57-1.87,10.33,3,1.15,2,7.06,3.78,5.83,7.69s1.94,6,.31,9.17c-.85,1.63-.08,4.24-5,5-2.43.36-5.66,5.26-8.3,6.41s-11,1.06-11.15-2.64c-.13-2.89-3.52-2.21-6-5.23-2.2-2.64,1-3.78-1.37-8.2-1.72-3.24,1.51-4.5,1-7.33Z"/><path class="cls-34" d="M312,175.24a17.93,17.93,0,0,0,6.72.69c9.8-.73,10.91-9.54,10.58-15.26a8.19,8.19,0,0,0-3.4,0c-.68.13-1.39.29-2,.44-1.28-.47-3.81-3.21-5.69-8.11l-.4.25-6.6,4.21s1,2.19,1.88,4.3c.65,1.66,1.17,3.27,1,3.77l-.83.48h0a48.09,48.09,0,0,0-1.26,9.21Z"/><path class="cls-33" d="M310.38,181.94c.1.18.2.36.32.55,3.15,5,10.55,26.39,10.55,26.39-.14,4,29.61-4.61,29.22-8.22.58-3.95-5.07-9.46-8.21-12.18a8.15,8.15,0,0,1-1.08-1.12,8.63,8.63,0,0,1-1.71-3.47,125.13,125.13,0,0,1-2-12.75h0l-1.68-.91a13.06,13.06,0,0,1-2.07-1.31,2.84,2.84,0,0,1-1.13-1.65,10.29,10.29,0,0,1-.16-1.49v-.72a20,20,0,0,1,.81-4.89c-2.75-.72-7.32.51-7.32.51s0,.26.1.68c.24,1.69.78,6,.35,6.95-.55,1.11-12.41,7.21-13.25,5.9s.12-7.93.16-8.18h0a19.6,19.6,0,0,0-5.27,3.74c2.72,1.3-.21,7.28,2.4,12.18Z"/><path class="cls-33" d="M308,169.76s-1.84,4.43-2.05,5.53c0,0,3.05-.51,4.59,1.69,0,0-.59-6.91-2.54-7.22Z"/><path class="cls-23" d="M328.47,200.44c6-.84,10.25-7.71,12.71-13.08a8.63,8.63,0,0,1-1.71-3.47,125.13,125.13,0,0,1-2-12.75h0l-1.68-.91a13.06,13.06,0,0,1-2.07-1.31c-3.84,8.92-13.33,32.65-5.22,31.52Z"/><path class="cls-34" d="M306.4,207l1.06,2.54,2.61-.84.75-.26c1.28-.43,2.8-1,4.46-1.58h0c2.84-1.08,6-2.35,8.65-3.64a25.27,25.27,0,0,0,4.51-2.75,3.84,3.84,0,0,0,.3-.28c2.48-2.34,5-8.62,6.7-15.23.24-.91.46-1.82.68-2.71a64.28,64.28,0,0,0,1.52-9.25,25.72,25.72,0,0,0,.09-4.32,11,11,0,0,0-.13-1.2c-.93-6.79-4.42-7.29-4.42-7.29l-.24,0c-.6,0-1.16.46-1.69,1.31a21.21,21.21,0,0,0-1.94,4.76c-.95,3.19-1.85,7.29-2.66,11.35-.45,2.22-.88,4.45-1.33,6.5-.24,1.25-.5,2.43-.74,3.51a31.62,31.62,0,0,1-1.38,4.82,11.29,11.29,0,0,1-2.54,3,103.44,103.44,0,0,1-8.54,7c-1.21.92-2.07,1.95-3,2.64-1.54,1.13-2.72,2-2.72,2Z"/><path class="cls-25" d="M306.66,203.73a4.94,4.94,0,0,0-.67-1h0a5,5,0,0,0-.65-.65l-1-1-.26.19c-5-2.45-15.3.14-25.73,6.95-12.6,8.23-20.7,19.56-18.36,25.59l-.36.26,1.4,1.4.21.2,0,0h0a5.44,5.44,0,0,0,1.21.84h0c4.93,2.58,15.35,0,25.89-6.87,12.85-8.39,21-20,18.23-25.92Z"/><path class="cls-28" d="M276.88,206.67c12.84-8.38,25.5-10.37,28.28-4.44s-5.38,17.53-18.22,25.92-25.51,10.37-28.28,4.44,5.38-17.53,18.22-25.92Z"/><path class="cls-39" d="M296.19,201.92c-4.66,0-11.5,2.54-18.08,6.85a49.58,49.58,0,0,0-12.79,11.71c-2.86,3.94-3.93,7.44-2.93,9.61a4,4,0,0,0,2.71,2.12,8.93,8.93,0,0,0,2.53.32c4.66,0,11.5-2.54,18.08-6.85A49.74,49.74,0,0,0,298.5,214c2.86-3.94,3.92-7.44,2.93-9.61a4,4,0,0,0-2.71-2.12,8.93,8.93,0,0,0-2.53-.32Zm-28.53,31.56a10.33,10.33,0,0,1-2.83-.36,4.88,4.88,0,0,1-3.3-2.64c-1.15-2.52-.08-6.27,3-10.55a50.84,50.84,0,0,1,13-12h0c8.26-5.4,16.65-8,21.39-6.65a4.88,4.88,0,0,1,3.3,2.64c1.16,2.52.09,6.27-3,10.55a50.34,50.34,0,0,1-13,11.95c-6.79,4.45-13.69,7-18.56,7Z"/><path class="cls-39" d="M276.73,220.47a7,7,0,0,0,1.06-.58,4.91,4.91,0,0,0,.86-.72,6.75,6.75,0,0,0,.74-1,12.66,12.66,0,0,0,.71-1.25c.41-.82.84-1.59,1.27-2.3a13.67,13.67,0,0,1,1.46-2,12.32,12.32,0,0,1,1.84-1.67,12.67,12.67,0,0,1,2.43-1.37,9,9,0,0,1,2.16-.68,3.71,3.71,0,0,1,1.65.06,2,2,0,0,1,1.07.74,2.58,2.58,0,0,1,.43,1.4l3-1.33-.16,1.63-3.07,1.35a6.73,6.73,0,0,1-.85,1.89,9.48,9.48,0,0,1-1.48,1.81,13.18,13.18,0,0,1-2,1.64,16.27,16.27,0,0,1-2.59,1.39l.29-2.94a8.76,8.76,0,0,0,2.59-1.62,2.91,2.91,0,0,0,1-1.72,1.16,1.16,0,0,0-.11-.71.76.76,0,0,0-.47-.32,2,2,0,0,0-.76,0,5.78,5.78,0,0,0-1,.33,6.24,6.24,0,0,0-1,.52,4.12,4.12,0,0,0-.82.7,6.4,6.4,0,0,0-.75,1,14.5,14.5,0,0,0-.75,1.31c-.44.82-.87,1.59-1.31,2.3a14.52,14.52,0,0,1-1.47,2,11.83,11.83,0,0,1-1.85,1.67,12.56,12.56,0,0,1-2.41,1.37,8.86,8.86,0,0,1-2.21.69,3.46,3.46,0,0,1-1.63-.07,1.82,1.82,0,0,1-1-.77,2.83,2.83,0,0,1-.41-1.41l-2.81,1.23.15-1.62,2.81-1.23a8,8,0,0,1,.71-1.88,9.54,9.54,0,0,1,1.36-1.94,12.66,12.66,0,0,1,2.11-1.86,16.65,16.65,0,0,1,3-1.65l-.28,3a9.84,9.84,0,0,0-1.7.92,6.18,6.18,0,0,0-1.12,1,3.53,3.53,0,0,0-.64,1,3.2,3.2,0,0,0-.24.89,1.35,1.35,0,0,0,.1.76.77.77,0,0,0,.45.38,1.49,1.49,0,0,0,.74,0,4.12,4.12,0,0,0,1-.3Z"/><path class="cls-34" d="M308.29,208.88s-2,4.22-3,5.12-2.5,2.57-3.12,2.3,1.67-4.3,1.54-5-.28-1.27-.28-1.27-1.62,1.25-2.66.81c0,0,.7-.48,1.26-.93s.89-1.81,2.23-2.1a9.92,9.92,0,0,0,3-1.45l1.06,2.54Z"/><path class="cls-35" d="M311.14,157.53s1.17,2.36,2.1,4.65c4.26-1.88,4.93-6.75,5-9.32l-7.07,4.67Z"/><path class="cls-34" d="M310.68,160s9.53-3.54,7.23-9.44-2.61-10.33-8.79-8.32-6.48,4.72-6.19,6.88,5.22,11.65,7.75,10.88Z"/><path class="cls-3" d="M305.06,145.07s2-1.2,3.06-.39.73,1.56,2.45,1.48,2.26-.28,2.45.87,2.22,1.39,2.57,2.24a1.63,1.63,0,0,0,2,.89c.72-.16-3.29-11.42-6.14-11s-5.26,1.82-5.85,2.7-.49,3.26-.49,3.26Z"/><path class="cls-3" d="M305.06,145.07s-2.16.54-2.15,1.85.6,1.43.3,2.33a2.94,2.94,0,0,0,.42,2.07s-6.64-6.24-2.4-8.17,4.41-1,3.83,1.92Z"/><polygon class="cls-10" points="363.61 262.76 363.61 253.52 363.61 248.19 354.91 248.19 354.91 253.52 354.91 254.93 354.91 262.76 350.97 262.76 355.11 268.25 359.26 273.74 363.4 268.25 367.54 262.76 363.61 262.76"/></svg>