<svg id="Layer_1" data-name="Layer 1" xmlns="http://www.w3.org/2000/svg" xmlns:xlink="http://www.w3.org/1999/xlink" viewBox="0 0 570 421"><defs><style>.cls-1{fill:#f99f1b;}.cls-2{fill:none;}.cls-3{fill:#f6ba40;}.cls-4{fill:#c3e1e6;fill-rule:evenodd;opacity:0.55;}.cls-5{fill:#3e94a8;}.cls-6{fill:#fff;}.cls-7{opacity:0.63;}.cls-8{fill:#83c0cc;}.cls-9{fill:#17697a;}.cls-10{clip-path:url(#clip-path);}.cls-11{fill:#f4901f;}.cls-12{fill:#e28725;}.cls-13{clip-path:url(#clip-path-2);}.cls-14{fill:#fdb83e;}.cls-15{clip-path:url(#clip-path-3);}.cls-16{clip-path:url(#clip-path-4);}.cls-17{clip-path:url(#clip-path-5);}.cls-18{clip-path:url(#clip-path-6);}.cls-19{clip-path:url(#clip-path-7);}.cls-20{clip-path:url(#clip-path-8);}.cls-21{clip-path:url(#clip-path-9);}.cls-22{clip-path:url(#clip-path-10);}.cls-23{clip-path:url(#clip-path-11);}.cls-24{clip-path:url(#clip-path-12);}.cls-25{fill:#84c0cc;opacity:0.53;}.cls-26{fill:#479fb5;}.cls-27{fill:#ece6e3;}.cls-28{fill:#d78c2f;}.cls-29{clip-path:url(#clip-path-13);}.cls-30{fill:#5e6264;}.cls-31{fill:#faa52d;}.cls-32{clip-path:url(#clip-path-14);}.cls-33{clip-path:url(#clip-path-15);}.cls-34{clip-path:url(#clip-path-16);}.cls-35{clip-path:url(#clip-path-17);}.cls-36{clip-path:url(#clip-path-18);}.cls-37{clip-path:url(#clip-path-19);}.cls-38{clip-path:url(#clip-path-20);}.cls-39{clip-path:url(#clip-path-21);}.cls-40{clip-path:url(#clip-path-22);}.cls-41{clip-path:url(#clip-path-23);}.cls-42{clip-path:url(#clip-path-24);}.cls-43{clip-path:url(#clip-path-25);}.cls-44{clip-path:url(#clip-path-26);}.cls-45{clip-path:url(#clip-path-27);}.cls-46{clip-path:url(#clip-path-28);}.cls-47{clip-path:url(#clip-path-29);}.cls-48{clip-path:url(#clip-path-30);}.cls-49{clip-path:url(#clip-path-31);}.cls-50{fill:#f4ccb1;}.cls-51{fill:#efb68f;}.cls-52{fill:#d1d3d4;}.cls-53{fill:#ec7d29;}.cls-54{fill:#47494c;}</style><clipPath id="clip-path"><path class="cls-1" d="M62,392.69v6.8c0,2.36,12.6,4.27,28.13,4.27s28.13-1.91,28.13-4.27v-6.8Z"/></clipPath><clipPath id="clip-path-2"><path class="cls-2" d="M62,392.69v6.8c0,2.36,12.6,4.27,28.13,4.27s28.13-1.91,28.13-4.27v-6.8H62"/></clipPath><clipPath id="clip-path-3"><path class="cls-1" d="M66,384.75v6.8c0,2.36,12.59,4.27,28.12,4.27s28.13-1.91,28.13-4.27v-6.8Z"/></clipPath><clipPath id="clip-path-4"><path class="cls-2" d="M66,384.75v6.8c0,2.36,12.59,4.27,28.12,4.27s28.13-1.91,28.13-4.27v-6.8H66"/></clipPath><clipPath id="clip-path-5"><path class="cls-1" d="M62.66,376.43v6.8c0,2.36,12.59,4.27,28.13,4.27s28.13-1.91,28.13-4.27v-6.8Z"/></clipPath><clipPath id="clip-path-6"><path class="cls-2" d="M62.66,376.43v6.8c0,2.36,12.59,4.27,28.13,4.27s28.13-1.91,28.13-4.27v-6.8H62.66"/></clipPath><clipPath id="clip-path-7"><path class="cls-1" d="M65.2,368.62v6.8c0,2.36,12.59,4.27,28.13,4.27s28.12-1.91,28.12-4.27v-6.8Z"/></clipPath><clipPath id="clip-path-8"><path class="cls-2" d="M65.2,368.62v6.8c0,2.36,12.59,4.27,28.13,4.27s28.12-1.91,28.12-4.27v-6.8H65.2"/></clipPath><clipPath id="clip-path-9"><path class="cls-1" d="M69.18,360.67v6.81c0,2.36,12.59,4.27,28.13,4.27s28.12-1.91,28.12-4.27v-6.81Z"/></clipPath><clipPath id="clip-path-10"><path class="cls-2" d="M69.18,360.67v6.81c0,2.36,12.59,4.27,28.13,4.27s28.12-1.91,28.12-4.27v-6.81H69.18"/></clipPath><clipPath id="clip-path-11"><path class="cls-1" d="M65.88,352.36v6.8c0,2.36,12.59,4.27,28.12,4.27s28.13-1.91,28.13-4.27v-6.8Z"/></clipPath><clipPath id="clip-path-12"><path class="cls-2" d="M65.88,352.36v6.8c0,2.36,12.59,4.27,28.12,4.27s28.13-1.91,28.13-4.27v-6.8H65.88"/></clipPath><clipPath id="clip-path-13"><circle class="cls-3" cx="291.85" cy="270.68" r="126.01"/></clipPath><clipPath id="clip-path-14"><path class="cls-1" d="M416,388.92v8.9c0,3.09,16.47,5.59,36.79,5.59s36.78-2.5,36.78-5.59v-8.9Z"/></clipPath><clipPath id="clip-path-15"><path class="cls-2" d="M416,388.92v8.9c0,3.09,16.47,5.59,36.79,5.59s36.78-2.5,36.78-5.59v-8.9H416"/></clipPath><clipPath id="clip-path-16"><path class="cls-1" d="M421.18,378.53v8.9c0,3.08,16.47,5.59,36.78,5.59s36.79-2.51,36.79-5.59v-8.9Z"/></clipPath><clipPath id="clip-path-17"><path class="cls-2" d="M421.18,378.53v8.9c0,3.08,16.47,5.59,36.78,5.59s36.79-2.51,36.79-5.59v-8.9H421.18"/></clipPath><clipPath id="clip-path-18"><path class="cls-1" d="M416.86,367.65v8.9c0,3.09,16.47,5.59,36.78,5.59s36.79-2.5,36.79-5.59v-8.9Z"/></clipPath><clipPath id="clip-path-19"><path class="cls-2" d="M416.86,367.65v8.9c0,3.09,16.47,5.59,36.78,5.59s36.79-2.5,36.79-5.59v-8.9H416.86"/></clipPath><clipPath id="clip-path-20"><path class="cls-1" d="M412.94,356.45v8.9c0,3.08,16.47,5.58,36.78,5.58s36.79-2.5,36.79-5.58v-8.9Z"/></clipPath><clipPath id="clip-path-21"><path class="cls-2" d="M412.94,356.45v8.9c0,3.08,16.47,5.58,36.78,5.58s36.79-2.5,36.79-5.58v-8.9H412.94"/></clipPath><clipPath id="clip-path-22"><path class="cls-1" d="M418.14,346.06V355c0,3.08,16.47,5.58,36.79,5.58s36.79-2.5,36.79-5.58v-8.9Z"/></clipPath><clipPath id="clip-path-23"><path class="cls-2" d="M418.14,346.06V355c0,3.08,16.47,5.58,36.79,5.58s36.79-2.5,36.79-5.58v-8.9H418.14"/></clipPath><clipPath id="clip-path-24"><path class="cls-1" d="M413.82,335.18v8.9c0,3.08,16.47,5.58,36.79,5.58s36.79-2.5,36.79-5.58v-8.9Z"/></clipPath><clipPath id="clip-path-25"><path class="cls-2" d="M413.82,335.18v8.9c0,3.08,16.47,5.58,36.79,5.58s36.79-2.5,36.79-5.58v-8.9H413.82"/></clipPath><clipPath id="clip-path-26"><path class="cls-1" d="M417.14,325v8.9c0,3.08,16.47,5.58,36.79,5.58s36.78-2.5,36.78-5.58V325Z"/></clipPath><clipPath id="clip-path-27"><path class="cls-2" d="M417.14,325v8.9c0,3.08,16.47,5.58,36.79,5.58s36.78-2.5,36.78-5.58V325H417.14"/></clipPath><clipPath id="clip-path-28"><path class="cls-1" d="M422.35,314.58v8.9c0,3.08,16.47,5.58,36.78,5.58s36.79-2.5,36.79-5.58v-8.9Z"/></clipPath><clipPath id="clip-path-29"><path class="cls-2" d="M422.35,314.58v8.9c0,3.08,16.47,5.58,36.78,5.58s36.79-2.5,36.79-5.58v-8.9H422.35"/></clipPath><clipPath id="clip-path-30"><path class="cls-1" d="M418,303.7v8.9c0,3.08,16.47,5.58,36.78,5.58s36.79-2.5,36.79-5.58v-8.9Z"/></clipPath><clipPath id="clip-path-31"><path class="cls-2" d="M418,303.7v8.9c0,3.08,16.47,5.58,36.78,5.58s36.79-2.5,36.79-5.58v-8.9H418"/></clipPath></defs><path class="cls-4" d="M522.89,85.55c-4.45,0-8.07-4.2-8.07-9.39s3.62-9.39,8.07-9.39S531,71,531,76.16s-3.61,9.39-8.07,9.39ZM133.36,310.66H91.79c-23.2,0-42.18,22.09-42.18,49.09h0c0,27,19,49.09,42.18,49.09H501.7c37.56,0,68.3-35.77,68.3-79.49h0c0-43.72-30.74-79.49-68.3-79.49h0c-15.89,0-28.88-15.12-28.88-33.61h0c0-18.48,13-33.61,28.88-33.61h34.76c16.51,0,30-15.72,30-34.94h0c0-19.22-13.51-34.94-30-34.94h-44c-6.43,0-11.69-6.12-11.69-13.61h0c0-7.48,5.26-13.6,11.69-13.6h7.75c4.44,0,8.07-4.22,8.07-9.39h0c0-5.16-3.63-9.39-8.07-9.39H449.41c-10.71,0-11.9,14.72-39,14.72H332.54C326.75,81.49,322,87,322,93.74h0c0,6.74,4.74,12.25,10.53,12.25h10.11c8.39,0,15.25,8,15.25,17.76h0c0,9.76-6.86,17.75-15.25,17.75H327.43c-41.08,0-46.89,12.49-54.08,37.34s-44.57,26.86-44.57,26.86H127.65c-12.64,0-1.6,17.45-1.6,32.17l8,7.9c0,14.71-19,13.43-6.35,13.43h5.71c12.16,0,22.11,11.58,22.11,25.73h0c0,14.15-9.95,25.73-22.11,25.73Z"/><path class="cls-5" d="M177.25,167.38H77.2c-12.51,0-22.74,14.29-22.74,31.76h0c0,17.47,10.23,31.76,22.74,31.76h5.65c12,0,21.87,13.74,21.87,30.55S94.88,292,82.85,292H41.73C18.78,292,0,318.22,0,350.27s18.78,58.28,41.73,58.28H280.35l6.36-243.41Z"/><path class="cls-6" d="M468.59,105.37c-.23-2.54-2.69-4.61-5.91-5.1v0a8.83,8.83,0,0,0-1.37-.11,9,9,0,0,0-2.22.29,7.27,7.27,0,0,0-.8.22c-1.57-3-5.32-5.13-9.71-5.13-5.31,0-9.7,3.12-10.38,7.16a7.87,7.87,0,0,0-3.52-.83c-3.9,0-7.06,2.79-7.06,6.23a5.46,5.46,0,0,0,.29,1.76h45.84C473.28,107.69,471.26,106,468.59,105.37Z"/><circle class="cls-3" cx="471.64" cy="117.31" r="10.89"/><path class="cls-6" d="M510,122.45c-.2-2.18-2.31-4-5.07-4.38v0a7.72,7.72,0,0,0-1.18-.09,7.85,7.85,0,0,0-1.9.24,7,7,0,0,0-.69.19c-1.35-2.58-4.56-4.4-8.33-4.4-4.56,0-8.32,2.68-8.91,6.15a6.65,6.65,0,0,0-3-.72c-3.35,0-6.06,2.4-6.06,5.35a4.67,4.67,0,0,0,.25,1.5h39.32A5.53,5.53,0,0,0,510,122.45Z"/><g class="cls-7"><path class="cls-8" d="M64.15,358.31s16.12-8.42,10.95-23.24c0,0-4.46-9.26-10.11-12.21,0,0,.55,21.2-2.67,21.3s.77-23.78.77-23.78-14.45-11.26-20.67-11.29c0,0,7.14,21.53,4,20.64s-11.39-22.81-11.39-22.81-15.56-5.68-19.6,5.74-.63,17.83,1.65,18.86,17.53,2.7,16.83,5.1-11.48,5-16.93,2.1c0,0,3.89,20.13,12.32,20.19s11.79-6,17-5.82,8.74,2.34,5.95,3.73-11.34-.85-16,3-8.4,6.11-.93,9,21.45,3.44,25.14-3.55l3.69-7Z"/><path class="cls-9" d="M22.32,317.25s39.43,21.86,41.83,41.06a47.23,47.23,0,0,0,1.71,18.37l-.46,3.67s-2.78-13-4.94-15c0,0,11.32-15-38.14-48.06Z"/></g><path class="cls-1" d="M62,392.69v6.8c0,2.36,12.6,4.27,28.13,4.27s28.13-1.91,28.13-4.27v-6.8Z"/><g class="cls-10"><path class="cls-11" d="M90.62,404.73H49.47a1.13,1.13,0,0,1-.77-.32,3.51,3.51,0,0,1-.89-2.3v-7.95c0-1.52.77-2.75,1.66-2.75h36.1c.56,3.82,1.85,9,4.8,13l.25.32Z"/></g><path class="cls-1" d="M112.47,392.11c0,1.1-10,2-22.36,2s-22.36-.89-22.36-2,10-2,22.36-2,22.36.89,22.36,2Z"/><path class="cls-12" d="M68.71,392.69c2.79-.81,11.31-1.41,21.4-1.41s18.61.6,21.4,1.41c.62-.18,1-.38,1-.58,0-1.09-10-2-22.36-2s-22.36.89-22.36,2c0,.2.34.4,1,.58Z"/><g class="cls-13"><polygon class="cls-11" points="116.29 389.87 116.29 405.46 117.62 405.46 117.62 389.87 116.29 389.87 116.29 389.87"/><polygon class="cls-11" points="112.84 405.46 114.17 405.46 114.17 389.87 112.84 389.87 112.84 405.46 112.84 405.46"/><polygon class="cls-11" points="108.9 405.46 110.23 405.46 110.23 389.87 108.9 389.87 108.9 405.46 108.9 405.46"/><polygon class="cls-11" points="103.98 405.46 105.31 405.46 105.31 389.87 103.98 389.87 103.98 405.46 103.98 405.46"/><polygon class="cls-11" points="98.57 405.46 99.9 405.46 99.9 389.87 98.57 389.87 98.57 405.46 98.57 405.46"/><polygon class="cls-11" points="92.68 405.46 94.01 405.46 94.01 389.87 92.68 389.87 92.68 405.46 92.68 405.46"/></g><path class="cls-14" d="M118.24,392.56c0,2.36-12.59,4.27-28.13,4.27S62,394.92,62,392.56s12.6-4.27,28.13-4.27,28.13,1.91,28.13,4.27Z"/><path class="cls-1" d="M113.77,392.28c0,1.09-10,2-22.36,2s-22.36-.89-22.36-2,10-2,22.36-2,22.36.89,22.36,2Z"/><path class="cls-11" d="M70,392.85c2.79-.81,11.31-1.4,21.4-1.4s18.61.59,21.4,1.4c.62-.18,1-.37,1-.57,0-1.1-10-2-22.36-2s-22.36.89-22.36,2c0,.2.34.39,1,.57Z"/><path class="cls-1" d="M66,384.75v6.8c0,2.36,12.59,4.27,28.12,4.27s28.13-1.91,28.13-4.27v-6.8Z"/><g class="cls-15"><path class="cls-11" d="M94.6,396.79H53.45a1.14,1.14,0,0,1-.77-.33,3.4,3.4,0,0,1-.88-2.29.57.57,0,0,1,0-.13v-7.82c.05-1.53.77-2.75,1.66-2.75h36.1c.56,3.81,1.85,9,4.8,13l.25.33Z"/></g><path class="cls-1" d="M116.45,384.17c0,1.09-10,2-22.36,2s-22.36-.89-22.36-2,10-2,22.36-2,22.36.88,22.36,2Z"/><path class="cls-12" d="M72.7,384.75c2.78-.82,11.31-1.41,21.39-1.41s18.61.59,21.4,1.41c.62-.19,1-.38,1-.58,0-1.1-10-2-22.36-2s-22.36.88-22.36,2c0,.2.34.39,1,.58Z"/><g class="cls-16"><polygon class="cls-11" points="120.27 381.92 120.27 397.51 121.6 397.51 121.6 381.92 120.27 381.92 120.27 381.92"/><polygon class="cls-11" points="116.82 397.51 118.15 397.51 118.15 381.92 116.82 381.92 116.82 397.51 116.82 397.51"/><polygon class="cls-11" points="112.88 397.51 114.21 397.51 114.21 381.92 112.88 381.92 112.88 397.51 112.88 397.51"/><polygon class="cls-11" points="107.96 397.51 109.29 397.51 109.29 381.92 107.96 381.92 107.96 397.51 107.96 397.51"/><polygon class="cls-11" points="102.55 397.51 103.88 397.51 103.88 381.92 102.55 381.92 102.55 397.51 102.55 397.51"/><polygon class="cls-11" points="96.66 397.51 97.99 397.51 97.99 381.92 96.66 381.92 96.66 397.51 96.66 397.51"/></g><path class="cls-14" d="M122.22,384.62c0,2.36-12.59,4.27-28.13,4.27S66,387,66,384.62s12.59-4.27,28.12-4.27,28.13,1.91,28.13,4.27Z"/><path class="cls-1" d="M117.75,384.33c0,1.1-10,2-22.36,2s-22.36-.88-22.36-2,10-2,22.36-2,22.36.89,22.36,2Z"/><path class="cls-11" d="M74,384.91c2.79-.81,11.31-1.41,21.4-1.41s18.61.6,21.4,1.41c.62-.18,1-.38,1-.58,0-1.09-10-2-22.36-2s-22.36.89-22.36,2c0,.2.34.4,1,.58Z"/><path class="cls-1" d="M62.66,376.43v6.8c0,2.36,12.59,4.27,28.13,4.27s28.13-1.91,28.13-4.27v-6.8Z"/><g class="cls-17"><path class="cls-11" d="M91.3,388.47H50.14a1.13,1.13,0,0,1-.76-.33,3.41,3.41,0,0,1-.89-2.29v-.13c0-.05,0-.1,0-.15v-7.52c0-.05,0-.1,0-.15,0-1.53.77-2.75,1.65-2.75H86.25c.56,3.81,1.84,9.05,4.8,13,.08.12.17.22.25.33Z"/></g><path class="cls-1" d="M113.15,375.85c0,1.1-10,2-22.36,2s-22.36-.88-22.36-2,10-2,22.36-2,22.36.89,22.36,2Z"/><path class="cls-12" d="M69.39,376.43c2.79-.82,11.31-1.41,21.4-1.41s18.61.59,21.4,1.41c.62-.18,1-.38,1-.58,0-1.09-10-2-22.36-2s-22.36.89-22.36,2c0,.2.34.4,1,.58Z"/><g class="cls-18"><polygon class="cls-11" points="116.97 373.6 116.97 389.2 118.3 389.2 118.3 373.6 116.97 373.6 116.97 373.6"/><polygon class="cls-11" points="113.52 389.2 114.85 389.2 114.85 373.6 113.52 373.6 113.52 389.2 113.52 389.2"/><polygon class="cls-11" points="109.57 389.2 110.91 389.2 110.91 373.6 109.57 373.6 109.57 389.2 109.57 389.2"/><polygon class="cls-11" points="104.66 389.2 105.99 389.2 105.99 373.6 104.66 373.6 104.66 389.2 104.66 389.2"/><polygon class="cls-11" points="99.25 389.2 100.58 389.2 100.58 373.6 99.25 373.6 99.25 389.2 99.25 389.2"/><polygon class="cls-11" points="93.35 389.2 94.69 389.2 94.69 373.6 93.35 373.6 93.35 389.2 93.35 389.2"/></g><path class="cls-14" d="M118.92,376.3c0,2.36-12.6,4.27-28.13,4.27s-28.13-1.91-28.13-4.27S75.25,372,90.79,372s28.13,1.91,28.13,4.27Z"/><path class="cls-1" d="M114.45,376c0,1.1-10,2-22.36,2s-22.36-.89-22.36-2,10-2,22.36-2,22.36.89,22.36,2Z"/><path class="cls-11" d="M70.69,376.59c2.79-.81,11.31-1.4,21.4-1.4s18.61.59,21.39,1.4c.63-.18,1-.38,1-.58,0-1.09-10-2-22.36-2s-22.36.89-22.36,2c0,.2.34.4,1,.58Z"/><path class="cls-1" d="M65.2,368.62v6.8c0,2.36,12.59,4.27,28.13,4.27s28.12-1.91,28.12-4.27v-6.8Z"/><g class="cls-19"><path class="cls-11" d="M93.84,380.66H52.68a1.1,1.1,0,0,1-.76-.33A3.36,3.36,0,0,1,51,378s0-.09,0-.13v-7.82c0-1.53.78-2.75,1.66-2.75h36.1c.56,3.82,1.85,9.05,4.8,13l.26.33Z"/></g><path class="cls-1" d="M115.69,368c0,1.1-10,2-22.36,2S71,369.14,71,368s10-2,22.37-2,22.36.89,22.36,2Z"/><path class="cls-12" d="M71.93,368.62c2.78-.82,11.31-1.41,21.4-1.41s18.61.59,21.39,1.41c.63-.18,1-.38,1-.58,0-1.09-10-2-22.36-2S71,367,71,368c0,.2.34.4,1,.58Z"/><g class="cls-20"><polygon class="cls-11" points="119.5 365.79 119.5 381.39 120.84 381.39 120.84 365.79 119.5 365.79 119.5 365.79"/><polygon class="cls-11" points="116.05 381.39 117.38 381.39 117.38 365.79 116.05 365.79 116.05 381.39 116.05 381.39"/><polygon class="cls-11" points="112.11 381.39 113.44 381.39 113.44 365.79 112.11 365.79 112.11 381.39 112.11 381.39"/><polygon class="cls-11" points="107.19 381.39 108.52 381.39 108.52 365.79 107.19 365.79 107.19 381.39 107.19 381.39"/><polygon class="cls-11" points="101.78 381.39 103.12 381.39 103.12 365.79 101.78 365.79 101.78 381.39 101.78 381.39"/><polygon class="cls-11" points="95.89 381.39 97.22 381.39 97.22 365.79 95.89 365.79 95.89 381.39 95.89 381.39"/></g><path class="cls-14" d="M121.45,368.49c0,2.36-12.59,4.27-28.12,4.27s-28.13-1.91-28.13-4.27,12.59-4.27,28.13-4.27,28.12,1.91,28.12,4.27Z"/><path class="cls-1" d="M117,368.2c0,1.1-10,2-22.36,2s-22.36-.89-22.36-2,10-2,22.36-2,22.36.89,22.36,2Z"/><path class="cls-11" d="M73.23,368.78c2.78-.81,11.31-1.4,21.39-1.4s18.62.59,21.4,1.4c.62-.18,1-.38,1-.58,0-1.09-10-2-22.36-2s-22.36.89-22.36,2c0,.2.34.4,1,.58Z"/><path class="cls-1" d="M69.18,360.67v6.81c0,2.36,12.59,4.27,28.13,4.27s28.12-1.91,28.12-4.27v-6.81Z"/><g class="cls-21"><path class="cls-11" d="M97.82,372.72H56.66a1.13,1.13,0,0,1-.76-.33A3.4,3.4,0,0,1,55,370.1c0-.05,0-.09,0-.13v-7.83c0-1.52.78-2.75,1.66-2.75h36.1c.56,3.82,1.85,9.06,4.81,13l.25.33Z"/></g><path class="cls-1" d="M119.67,360.1c0,1.09-10,2-22.36,2S75,361.19,75,360.1s10-2,22.36-2,22.36.89,22.36,2Z"/><path class="cls-12" d="M75.91,360.67c2.78-.81,11.31-1.4,21.4-1.4s18.61.59,21.39,1.4c.63-.18,1-.37,1-.57,0-1.1-10-2-22.36-2S75,359,75,360.1c0,.2.33.39,1,.57Z"/><g class="cls-22"><polygon class="cls-11" points="123.49 357.85 123.49 373.44 124.82 373.44 124.82 357.85 123.49 357.85 123.49 357.85"/><polygon class="cls-11" points="120.03 373.44 121.36 373.44 121.36 357.85 120.03 357.85 120.03 373.44 120.03 373.44"/><polygon class="cls-11" points="116.09 373.44 117.42 373.44 117.42 357.85 116.09 357.85 116.09 373.44 116.09 373.44"/><polygon class="cls-11" points="111.17 373.44 112.5 373.44 112.5 357.85 111.17 357.85 111.17 373.44 111.17 373.44"/><polygon class="cls-11" points="105.77 373.44 107.1 373.44 107.1 357.85 105.77 357.85 105.77 373.44 105.77 373.44"/><polygon class="cls-11" points="99.87 373.44 101.2 373.44 101.2 357.85 99.87 357.85 99.87 373.44 99.87 373.44"/></g><path class="cls-14" d="M125.43,360.55c0,2.36-12.59,4.27-28.12,4.27s-28.13-1.91-28.13-4.27,12.59-4.27,28.13-4.27,28.12,1.91,28.12,4.27Z"/><path class="cls-1" d="M121,360.26c0,1.09-10,2-22.36,2s-22.36-.89-22.36-2,10-2,22.36-2,22.36.88,22.36,2Z"/><path class="cls-11" d="M77.21,360.84c2.78-.82,11.31-1.41,21.39-1.41s18.62.59,21.4,1.41c.63-.19,1-.38,1-.58,0-1.1-10-2-22.36-2s-22.36.88-22.36,2c0,.2.34.39,1,.58Z"/><path class="cls-1" d="M65.88,352.36v6.8c0,2.36,12.59,4.27,28.12,4.27s28.13-1.91,28.13-4.27v-6.8Z"/><g class="cls-23"><path class="cls-11" d="M94.51,364.4H53.36a1.14,1.14,0,0,1-.77-.33,3.4,3.4,0,0,1-.88-2.29.57.57,0,0,1,0-.13v-7.82c0-1.53.77-2.75,1.66-2.75h36.1c.56,3.81,1.85,9.05,4.8,13l.25.33Z"/></g><path class="cls-1" d="M116.36,351.78c0,1.09-10,2-22.36,2s-22.36-.89-22.36-2,10-2,22.36-2,22.36.88,22.36,2Z"/><path class="cls-12" d="M72.61,352.36C75.39,351.54,83.92,351,94,351s18.61.59,21.4,1.41c.62-.19,1-.38,1-.58,0-1.09-10-2-22.36-2s-22.36.89-22.36,2c0,.2.34.39,1,.58Z"/><g class="cls-24"><polygon class="cls-11" points="120.18 349.53 120.18 365.13 121.51 365.13 121.51 349.53 120.18 349.53 120.18 349.53"/><polygon class="cls-11" points="116.73 365.13 118.06 365.13 118.06 349.53 116.73 349.53 116.73 365.13 116.73 365.13"/><polygon class="cls-11" points="112.79 365.13 114.12 365.13 114.12 349.53 112.79 349.53 112.79 365.13 112.79 365.13"/><polygon class="cls-11" points="107.87 365.13 109.2 365.13 109.2 349.53 107.87 349.53 107.87 365.13 107.87 365.13"/><polygon class="cls-11" points="102.46 365.13 103.79 365.13 103.79 349.53 102.46 349.53 102.46 365.13 102.46 365.13"/><polygon class="cls-11" points="96.57 365.13 97.9 365.13 97.9 349.53 96.57 349.53 96.57 365.13 96.57 365.13"/></g><path class="cls-14" d="M122.13,352.23c0,2.36-12.59,4.27-28.13,4.27s-28.12-1.91-28.12-4.27S78.47,348,94,348s28.13,1.91,28.13,4.27Z"/><path class="cls-1" d="M117.66,351.94c0,1.1-10,2-22.36,2s-22.36-.88-22.36-2,10-2,22.36-2,22.36.89,22.36,2Z"/><path class="cls-11" d="M73.9,352.52c2.79-.81,11.31-1.41,21.4-1.41s18.61.6,21.4,1.41c.62-.18,1-.38,1-.58,0-1.09-10-2-22.36-2s-22.36.89-22.36,2c0,.2.34.4,1,.58Z"/><path class="cls-25" d="M526.89,394.4s21-18.55,18-22.67-9.09,1.18-9.09,1.18,14.33-19.16,4.76-22.28-14.74,17.6-14.74,17.6-.52-8.23-6.42-5.45,2,20.88,2,20.88l5.55,10.74Z"/><path class="cls-8" d="M526.08,383.44s7.28-20.91,12.38-26.61c0,0-11.86,12.9-12.38,26.61Z"/><path class="cls-8" d="M521,366.11s1.66,8.16,5.74,13.35c0,0,9.67-1.92,14.33-4.64,0,0-9.59,6.5-14.45,5.83,0,0-6.2-7.53-5.62-14.54Z"/><path class="cls-8" d="M530.2,371.26s5.91-3.71,7.85-7.48c0,0-4.84,5-7.89,6,0,0-.61-6.22.42-8.18,0,0-2.55,5.83-.38,9.63Z"/><path class="cls-26" d="M521.14,385.66a9.73,9.73,0,0,0-18.56,1.6,7.3,7.3,0,0,0-.94-.06,6.61,6.61,0,0,0-6.62,6.61c0,.11,0,.21,0,.31a6.1,6.1,0,0,0,.24,1.49h31.25a7.39,7.39,0,0,0,.58-2.83,7.23,7.23,0,0,0-6-7.12Z"/><circle class="cls-27" cx="56.97" cy="207.91" r="0.49"/><circle class="cls-27" cx="91.11" cy="217.42" r="0.55"/><circle class="cls-27" cx="74.37" cy="186.37" r="0.49"/><path class="cls-27" d="M97.7,191.35a11.37,11.37,0,0,1,8.49-11l-.66,0a11.35,11.35,0,0,0,0,22.69,11.13,11.13,0,0,0,2.85-.36A11.34,11.34,0,0,1,97.7,191.35Z"/><circle class="cls-27" cx="97.06" cy="168.95" r="0.44"/><circle class="cls-27" cx="115.26" cy="183.4" r="0.44"/><circle class="cls-27" cx="136.5" cy="165.83" r="0.38"/><circle class="cls-27" cx="119.65" cy="145.03" r="0.59"/><circle class="cls-27" cx="175.26" cy="171.19" r="0.59"/><circle class="cls-27" cx="144.18" cy="155.31" r="0.46"/><path class="cls-9" d="M133.14,224.17c-.18-1.84-2.14-3.34-4.69-3.69v0a7.88,7.88,0,0,0-1.09-.07,7.78,7.78,0,0,0-1.76.2c-.22,0-.43.1-.64.16-1.25-2.18-4.23-3.72-7.71-3.72-4.23,0-7.71,2.26-8.25,5.19a6.72,6.72,0,0,0-2.8-.6c-3.1,0-5.61,2-5.61,4.52a3.62,3.62,0,0,0,.23,1.27h36.42C136.87,225.86,135.26,224.61,133.14,224.17Z"/><circle class="cls-28" cx="292.88" cy="270.68" r="139.43"/><circle class="cls-3" cx="291.85" cy="270.68" r="126.01"/><g class="cls-29"><ellipse class="cls-3" cx="278.49" cy="274.73" rx="129.99" ry="126.39"/></g><path class="cls-28" d="M327.12,206.75S267,177.64,248.21,226.1c0,0-9.17,31.88,20.65,44.58,0,0,44.2,16.25,42.77,39.7,0,0-8.57,40.38-62,9.69l-6,16.51s26.81,17.44,51.89,9.89c0,0,30-6.72,36.5-32a45.81,45.81,0,0,0-2.64-23.89,38.26,38.26,0,0,0-14.11-17.35s-6.31-3.75-13.74-7.49c-11.65-5.88-26.75-13.26-29.87-17.74,0,0-14.27-14.89,2.45-29.37,0,0,13.58-14.8,47,2.33Z"/><polygon class="cls-30" points="336.71 198.36 298.62 268.05 292.58 332.28 285.24 267.84 336.71 198.36"/><path class="cls-28" d="M221.87,196.37a3.72,3.72,0,0,0-5.26,5.25l12.77,12.77a3.72,3.72,0,0,0,5.25-5.26l-12.76-12.76M356.39,330.89a3.72,3.72,0,0,0-5.26,5.25L363.9,348.9a3.71,3.71,0,0,0,5.25-5.25l-12.76-12.76m7.51-134.52-12.77,12.76a3.72,3.72,0,0,0,5.26,5.26l12.76-12.77a3.71,3.71,0,0,0-5.25-5.25M229.38,330.89l-12.77,12.76a3.72,3.72,0,0,0,5.26,5.25l12.76-12.76a3.71,3.71,0,0,0-5.25-5.25m167.65-62H379a3.72,3.72,0,1,0,0,7.43h18a3.72,3.72,0,0,0,0-7.43m-190.24,0h-18a3.72,3.72,0,1,0,0,7.43h18a3.72,3.72,0,0,0,0-7.43m86.09-104.14a3.71,3.71,0,0,0-3.71,3.71v18a3.72,3.72,0,1,0,7.43,0v-18a3.72,3.72,0,0,0-3.72-3.71m0,190.24a3.71,3.71,0,0,0-3.71,3.71v18a3.72,3.72,0,1,0,7.43,0v-18a3.72,3.72,0,0,0-3.72-3.71"/><polygon class="cls-28" points="279.41 348.3 279.41 370.84 294.6 370.84 294.6 346.74 279.41 348.3"/><rect class="cls-28" x="282.47" y="175.09" width="14.78" height="24.57"/><circle class="cls-31" cx="291.31" cy="268.87" r="3.77"/><path class="cls-1" d="M416,388.92v8.9c0,3.09,16.47,5.59,36.79,5.59s36.78-2.5,36.78-5.59v-8.9Z"/><g class="cls-32"><path class="cls-11" d="M453.43,404.67H399.6a1.46,1.46,0,0,1-1-.43,4.43,4.43,0,0,1-1.16-3c0-.06,0-.12,0-.17V390.85c.06-2,1-3.6,2.17-3.6h47.22c.73,5,2.41,11.84,6.27,17,.11.15.22.29.34.43Z"/></g><path class="cls-1" d="M482,388.17c0,1.43-13.09,2.59-29.24,2.59s-29.25-1.16-29.25-2.59,13.1-2.59,29.25-2.59S482,386.74,482,388.17Z"/><path class="cls-12" d="M424.77,388.92c3.65-1.06,14.79-1.83,28-1.83s24.34.77,28,1.83c.82-.24,1.26-.49,1.26-.75,0-1.43-13.09-2.59-29.24-2.59s-29.25,1.16-29.25,2.59c0,.26.45.51,1.26.75Z"/><g class="cls-33"><polygon class="cls-11" points="487 385.23 487 405.62 488.74 405.62 488.74 385.23 487 385.23 487 385.23"/><polygon class="cls-11" points="482.48 405.62 484.22 405.62 484.22 385.23 482.48 385.23 482.48 405.62 482.48 405.62"/><polygon class="cls-11" points="477.32 405.62 479.07 405.62 479.07 385.23 477.32 385.23 477.32 405.62 477.32 405.62"/><polygon class="cls-11" points="470.89 405.62 472.63 405.62 472.63 385.23 470.89 385.23 470.89 405.62 470.89 405.62"/><polygon class="cls-11" points="463.82 405.62 465.56 405.62 465.56 385.23 463.82 385.23 463.82 405.62 463.82 405.62"/><polygon class="cls-11" points="456.11 405.62 457.85 405.62 457.85 385.23 456.11 385.23 456.11 405.62 456.11 405.62"/></g><path class="cls-14" d="M489.54,388.76c0,3.08-16.47,5.58-36.78,5.58S416,391.84,416,388.76s16.47-5.59,36.79-5.59,36.78,2.5,36.78,5.59Z"/><path class="cls-1" d="M483.7,388.38c0,1.43-13.1,2.59-29.25,2.59s-29.24-1.16-29.24-2.59,13.09-2.59,29.24-2.59,29.25,1.16,29.25,2.59Z"/><path class="cls-11" d="M426.47,389.14c3.64-1.07,14.79-1.84,28-1.84s24.34.77,28,1.84c.81-.24,1.26-.5,1.26-.76,0-1.43-13.1-2.59-29.25-2.59s-29.24,1.16-29.24,2.59c0,.26.44.52,1.26.76Z"/><path class="cls-1" d="M421.18,378.53v8.9c0,3.08,16.47,5.59,36.78,5.59s36.79-2.51,36.79-5.59v-8.9Z"/><g class="cls-34"><path class="cls-11" d="M458.63,394.28H404.81a1.46,1.46,0,0,1-1-.43,4.43,4.43,0,0,1-1.16-3,1,1,0,0,1,0-.17V380.46c.06-2,1-3.6,2.17-3.6H452c.74,5,2.42,11.84,6.28,17l.33.43Z"/></g><path class="cls-1" d="M487.21,377.78c0,1.43-13.1,2.59-29.25,2.59s-29.24-1.16-29.24-2.59,13.09-2.59,29.24-2.59,29.25,1.16,29.25,2.59Z"/><path class="cls-12" d="M430,378.53c3.64-1.06,14.79-1.84,28-1.84s24.34.78,28,1.84c.81-.24,1.26-.49,1.26-.75,0-1.43-13.1-2.59-29.25-2.59s-29.24,1.16-29.24,2.59c0,.26.44.51,1.26.75Z"/><g class="cls-35"><polygon class="cls-11" points="492.2 374.84 492.2 395.23 493.94 395.23 493.94 374.84 492.2 374.84 492.2 374.84"/><polygon class="cls-11" points="487.69 395.23 489.43 395.23 489.43 374.84 487.69 374.84 487.69 395.23 487.69 395.23"/><polygon class="cls-11" points="482.53 395.23 484.27 395.23 484.27 374.84 482.53 374.84 482.53 395.23 482.53 395.23"/><polygon class="cls-11" points="476.1 395.23 477.84 395.23 477.84 374.84 476.1 374.84 476.1 395.23 476.1 395.23"/><polygon class="cls-11" points="469.03 395.23 470.77 395.23 470.77 374.84 469.03 374.84 469.03 395.23 469.03 395.23"/><polygon class="cls-11" points="461.32 395.23 463.06 395.23 463.06 374.84 461.32 374.84 461.32 395.23 461.32 395.23"/></g><path class="cls-14" d="M494.75,378.37c0,3.08-16.47,5.58-36.79,5.58s-36.78-2.5-36.78-5.58,16.47-5.59,36.78-5.59,36.79,2.5,36.79,5.59Z"/><path class="cls-1" d="M488.9,378c0,1.43-13.09,2.59-29.24,2.59s-29.24-1.16-29.24-2.59,13.09-2.59,29.24-2.59,29.24,1.16,29.24,2.59Z"/><path class="cls-11" d="M431.68,378.75c3.64-1.07,14.79-1.84,28-1.84s24.34.77,28,1.84c.82-.24,1.26-.5,1.26-.76,0-1.43-13.09-2.59-29.24-2.59s-29.24,1.16-29.24,2.59c0,.26.44.52,1.26.76Z"/><path class="cls-1" d="M416.86,367.65v8.9c0,3.09,16.47,5.59,36.78,5.59s36.79-2.5,36.79-5.59v-8.9Z"/><g class="cls-36"><path class="cls-11" d="M454.31,383.41H400.49a1.5,1.5,0,0,1-1-.43,4.48,4.48,0,0,1-1.16-3,1,1,0,0,1,0-.17V369.58c.06-2,1-3.6,2.17-3.6H447.7c.74,5,2.42,11.84,6.28,17l.33.43Z"/></g><path class="cls-1" d="M482.89,366.9c0,1.43-13.1,2.59-29.25,2.59s-29.24-1.16-29.24-2.59,13.09-2.59,29.24-2.59,29.25,1.16,29.25,2.59Z"/><path class="cls-12" d="M425.66,367.65c3.64-1.06,14.79-1.83,28-1.83s24.34.77,28,1.83c.81-.23,1.26-.49,1.26-.75,0-1.43-13.1-2.59-29.25-2.59s-29.24,1.16-29.24,2.59c0,.26.44.52,1.26.75Z"/><g class="cls-37"><polygon class="cls-11" points="487.88 363.96 487.88 384.36 489.62 384.36 489.62 363.96 487.88 363.96 487.88 363.96"/><polygon class="cls-11" points="483.37 384.36 485.11 384.36 485.11 363.96 483.37 363.96 483.37 384.36 483.37 384.36"/><polygon class="cls-11" points="478.21 384.36 479.95 384.36 479.95 363.96 478.21 363.96 478.21 384.36 478.21 384.36"/><polygon class="cls-11" points="471.78 384.36 473.52 384.36 473.52 363.96 471.78 363.96 471.78 384.36 471.78 384.36"/><polygon class="cls-11" points="464.71 384.36 466.45 384.36 466.45 363.96 464.71 363.96 464.71 384.36 464.71 384.36"/><polygon class="cls-11" points="457 384.36 458.74 384.36 458.74 363.96 457 363.96 457 384.36 457 384.36"/></g><path class="cls-14" d="M490.43,367.49c0,3.08-16.47,5.58-36.79,5.58s-36.78-2.5-36.78-5.58,16.47-5.59,36.78-5.59,36.79,2.5,36.79,5.59Z"/><path class="cls-1" d="M484.58,367.11c0,1.44-13.09,2.6-29.24,2.6s-29.24-1.16-29.24-2.6,13.09-2.59,29.24-2.59,29.24,1.16,29.24,2.59Z"/><path class="cls-11" d="M427.36,367.87c3.64-1.07,14.79-1.84,28-1.84s24.34.77,28,1.84c.82-.24,1.26-.49,1.26-.76,0-1.43-13.09-2.59-29.24-2.59s-29.24,1.16-29.24,2.59c0,.27.44.52,1.26.76Z"/><path class="cls-1" d="M412.94,356.45v8.9c0,3.08,16.47,5.58,36.78,5.58s36.79-2.5,36.79-5.58v-8.9Z"/><g class="cls-38"><path class="cls-11" d="M450.39,372.2H396.57a1.46,1.46,0,0,1-1-.43,4.44,4.44,0,0,1-1.16-3,.91.91,0,0,1,0-.17V358.37c.06-2,1-3.59,2.17-3.59h47.21c.74,5,2.42,11.84,6.28,17l.33.43Z"/></g><path class="cls-1" d="M479,355.7c0,1.43-13.1,2.59-29.25,2.59s-29.24-1.16-29.24-2.59,13.09-2.6,29.24-2.6S479,354.26,479,355.7Z"/><path class="cls-12" d="M421.74,356.45c3.64-1.06,14.79-1.84,28-1.84s24.34.78,28,1.84c.81-.24,1.26-.49,1.26-.75,0-1.43-13.1-2.6-29.25-2.6s-29.24,1.17-29.24,2.6c0,.26.44.51,1.26.75Z"/><g class="cls-39"><polygon class="cls-11" points="483.96 352.76 483.96 373.15 485.7 373.15 485.7 352.76 483.96 352.76 483.96 352.76"/><polygon class="cls-11" points="479.45 373.15 481.19 373.15 481.19 352.76 479.45 352.76 479.45 373.15 479.45 373.15"/><polygon class="cls-11" points="474.29 373.15 476.03 373.15 476.03 352.76 474.29 352.76 474.29 373.15 474.29 373.15"/><polygon class="cls-11" points="467.86 373.15 469.6 373.15 469.6 352.76 467.86 352.76 467.86 373.15 467.86 373.15"/><polygon class="cls-11" points="460.79 373.15 462.53 373.15 462.53 352.76 460.79 352.76 460.79 373.15 460.79 373.15"/><polygon class="cls-11" points="453.08 373.15 454.82 373.15 454.82 352.76 453.08 352.76 453.08 373.15 453.08 373.15"/></g><path class="cls-14" d="M486.51,356.28c0,3.09-16.47,5.59-36.79,5.59s-36.78-2.5-36.78-5.59,16.47-5.58,36.78-5.58,36.79,2.5,36.79,5.58Z"/><path class="cls-1" d="M480.66,355.91c0,1.43-13.09,2.59-29.24,2.59s-29.24-1.16-29.24-2.59,13.09-2.59,29.24-2.59,29.24,1.16,29.24,2.59Z"/><path class="cls-11" d="M423.44,356.66c3.64-1.06,14.79-1.83,28-1.83s24.34.77,28,1.83c.82-.23,1.26-.49,1.26-.75,0-1.43-13.09-2.59-29.24-2.59s-29.24,1.16-29.24,2.59c0,.26.44.52,1.26.75Z"/><path class="cls-1" d="M418.14,346.06V355c0,3.08,16.47,5.58,36.79,5.58s36.79-2.5,36.79-5.58v-8.9Z"/><g class="cls-40"><path class="cls-11" d="M455.6,361.81H401.77a1.46,1.46,0,0,1-1-.43,4.54,4.54,0,0,1-1.16-3v-.17a1.21,1.21,0,0,1,0-.19v-9.84a1.41,1.41,0,0,1,0-.2c.05-2,1-3.59,2.16-3.59H449c.73,5,2.42,11.84,6.28,17l.33.43Z"/></g><path class="cls-1" d="M484.17,345.31c0,1.43-13.09,2.59-29.24,2.59s-29.24-1.16-29.24-2.59,13.09-2.6,29.24-2.6,29.24,1.16,29.24,2.6Z"/><path class="cls-12" d="M427,346.06c3.64-1.06,14.79-1.84,28-1.84s24.34.78,28,1.84c.82-.24,1.26-.49,1.26-.75,0-1.43-13.09-2.6-29.24-2.6s-29.24,1.17-29.24,2.6c0,.26.44.51,1.26.75Z"/><g class="cls-41"><polygon class="cls-11" points="489.17 342.37 489.17 362.76 490.91 362.76 490.91 342.37 489.17 342.37 489.17 342.37"/><polygon class="cls-11" points="484.65 362.76 486.39 362.76 486.39 342.37 484.65 342.37 484.65 362.76 484.65 362.76"/><polygon class="cls-11" points="479.5 362.76 481.24 362.76 481.24 342.37 479.5 342.37 479.5 362.76 479.5 362.76"/><polygon class="cls-11" points="473.07 362.76 474.81 362.76 474.81 342.37 473.07 342.37 473.07 362.76 473.07 362.76"/><polygon class="cls-11" points="465.99 362.76 467.74 362.76 467.74 342.37 465.99 342.37 465.99 362.76 465.99 362.76"/><polygon class="cls-11" points="458.28 362.76 460.03 362.76 460.03 342.37 458.28 342.37 458.28 362.76 458.28 362.76"/></g><path class="cls-14" d="M491.72,345.89c0,3.09-16.47,5.59-36.79,5.59s-36.79-2.5-36.79-5.59,16.47-5.58,36.79-5.58,36.79,2.5,36.79,5.58Z"/><path class="cls-1" d="M485.87,345.52c0,1.43-13.09,2.59-29.24,2.59s-29.25-1.16-29.25-2.59,13.1-2.59,29.25-2.59,29.24,1.16,29.24,2.59Z"/><path class="cls-11" d="M428.64,346.27c3.65-1.06,14.8-1.83,28-1.83s24.34.77,28,1.83c.82-.24,1.26-.49,1.26-.75,0-1.43-13.09-2.59-29.24-2.59s-29.25,1.16-29.25,2.59c0,.26.45.51,1.26.75Z"/><path class="cls-1" d="M413.82,335.18v8.9c0,3.08,16.47,5.58,36.79,5.58s36.79-2.5,36.79-5.58v-8.9Z"/><g class="cls-42"><path class="cls-11" d="M451.28,350.93H397.45a1.46,1.46,0,0,1-1-.43,4.53,4.53,0,0,1-1.16-3v-.17a1.34,1.34,0,0,1,0-.2V337.3a1.21,1.21,0,0,1,0-.19c0-2,1-3.6,2.16-3.6h47.22c.73,5,2.42,11.84,6.28,17l.33.43Z"/></g><path class="cls-1" d="M479.85,334.43c0,1.43-13.09,2.59-29.24,2.59s-29.24-1.16-29.24-2.59,13.09-2.59,29.24-2.59,29.24,1.16,29.24,2.59Z"/><path class="cls-12" d="M422.63,335.18c3.64-1.06,14.79-1.84,28-1.84s24.34.78,28,1.84c.82-.24,1.26-.49,1.26-.75,0-1.43-13.09-2.59-29.24-2.59s-29.24,1.16-29.24,2.59c0,.26.44.51,1.26.75Z"/><g class="cls-43"><polygon class="cls-11" points="484.85 331.49 484.85 351.88 486.59 351.88 486.59 331.49 484.85 331.49 484.85 331.49"/><polygon class="cls-11" points="480.33 351.88 482.07 351.88 482.07 331.49 480.33 331.49 480.33 351.88 480.33 351.88"/><polygon class="cls-11" points="475.18 351.88 476.92 351.88 476.92 331.49 475.18 331.49 475.18 351.88 475.18 351.88"/><polygon class="cls-11" points="468.75 351.88 470.49 351.88 470.49 331.49 468.75 331.49 468.75 351.88 468.75 351.88"/><polygon class="cls-11" points="461.67 351.88 463.42 351.88 463.42 331.49 461.67 331.49 461.67 351.88 461.67 351.88"/><polygon class="cls-11" points="453.96 351.88 455.71 351.88 455.71 331.49 453.96 331.49 453.96 351.88 453.96 351.88"/></g><path class="cls-14" d="M487.4,335c0,3.08-16.47,5.58-36.79,5.58s-36.79-2.5-36.79-5.58,16.47-5.59,36.79-5.59,36.79,2.5,36.79,5.59Z"/><path class="cls-1" d="M481.55,334.64c0,1.43-13.09,2.59-29.24,2.59s-29.25-1.16-29.25-2.59,13.1-2.59,29.25-2.59,29.24,1.16,29.24,2.59Z"/><path class="cls-11" d="M424.32,335.4c3.65-1.07,14.8-1.84,28-1.84s24.34.77,28,1.84c.82-.24,1.26-.5,1.26-.76,0-1.43-13.09-2.59-29.24-2.59s-29.25,1.16-29.25,2.59c0,.26.45.52,1.26.76Z"/><path class="cls-1" d="M417.14,325v8.9c0,3.08,16.47,5.58,36.79,5.58s36.78-2.5,36.78-5.58V325Z"/><g class="cls-44"><path class="cls-11" d="M454.6,340.72H400.77a1.46,1.46,0,0,1-1-.43,4.44,4.44,0,0,1-1.16-3c0-.06,0-.11,0-.17V326.89c.06-2,1-3.59,2.17-3.59H448c.73,5,2.41,11.83,6.28,17a4.46,4.46,0,0,0,.33.43Z"/></g><path class="cls-1" d="M483.17,324.21c0,1.44-13.09,2.6-29.24,2.6s-29.25-1.16-29.25-2.6,13.1-2.59,29.25-2.59,29.24,1.16,29.24,2.59Z"/><path class="cls-12" d="M425.94,325c3.65-1.07,14.79-1.84,28-1.84s24.34.77,28,1.84c.82-.24,1.26-.49,1.26-.76,0-1.43-13.09-2.59-29.24-2.59s-29.25,1.16-29.25,2.59c0,.27.45.52,1.26.76Z"/><g class="cls-45"><polygon class="cls-11" points="488.17 321.27 488.17 341.67 489.91 341.67 489.91 321.27 488.17 321.27 488.17 321.27"/><polygon class="cls-11" points="483.65 341.67 485.39 341.67 485.39 321.27 483.65 321.27 483.65 341.67 483.65 341.67"/><polygon class="cls-11" points="478.49 341.67 480.24 341.67 480.24 321.27 478.49 321.27 478.49 341.67 478.49 341.67"/><polygon class="cls-11" points="472.06 341.67 473.81 341.67 473.81 321.27 472.06 321.27 472.06 341.67 472.06 341.67"/><polygon class="cls-11" points="464.99 341.67 466.73 341.67 466.73 321.27 464.99 321.27 464.99 341.67 464.99 341.67"/><polygon class="cls-11" points="457.28 341.67 459.02 341.67 459.02 321.27 457.28 321.27 457.28 341.67 457.28 341.67"/></g><path class="cls-14" d="M490.71,324.8c0,3.09-16.47,5.59-36.78,5.59s-36.79-2.5-36.79-5.59,16.47-5.58,36.79-5.58,36.78,2.5,36.78,5.58Z"/><path class="cls-1" d="M484.87,324.43c0,1.43-13.09,2.59-29.25,2.59s-29.24-1.16-29.24-2.59,13.09-2.6,29.24-2.6,29.25,1.17,29.25,2.6Z"/><path class="cls-11" d="M427.64,325.18c3.64-1.06,14.79-1.84,28-1.84s24.35.78,28,1.84c.81-.24,1.26-.49,1.26-.75,0-1.43-13.09-2.6-29.25-2.6s-29.24,1.17-29.24,2.6c0,.26.44.51,1.26.75Z"/><path class="cls-1" d="M422.35,314.58v8.9c0,3.08,16.47,5.58,36.78,5.58s36.79-2.5,36.79-5.58v-8.9Z"/><g class="cls-46"><path class="cls-11" d="M459.8,330.33H406a1.46,1.46,0,0,1-1-.43,4.44,4.44,0,0,1-1.16-3,1,1,0,0,1,0-.17V316.5c.06-2,1-3.6,2.17-3.6h47.21c.74,5,2.42,11.84,6.28,17l.33.43Z"/></g><path class="cls-1" d="M488.38,313.82c0,1.44-13.1,2.6-29.25,2.6s-29.24-1.16-29.24-2.6,13.09-2.59,29.24-2.59,29.25,1.16,29.25,2.59Z"/><path class="cls-12" d="M431.15,314.58c3.64-1.07,14.79-1.84,28-1.84s24.34.77,28,1.84c.81-.24,1.26-.49,1.26-.76,0-1.43-13.1-2.59-29.25-2.59s-29.24,1.16-29.24,2.59c0,.27.44.52,1.26.76Z"/><g class="cls-47"><polygon class="cls-11" points="493.37 310.88 493.37 331.28 495.11 331.28 495.11 310.88 493.37 310.88 493.37 310.88"/><polygon class="cls-11" points="488.86 331.28 490.6 331.28 490.6 310.88 488.86 310.88 488.86 331.28 488.86 331.28"/><polygon class="cls-11" points="483.7 331.28 485.44 331.28 485.44 310.88 483.7 310.88 483.7 331.28 483.7 331.28"/><polygon class="cls-11" points="477.27 331.28 479.01 331.28 479.01 310.88 477.27 310.88 477.27 331.28 477.27 331.28"/><polygon class="cls-11" points="470.2 331.28 471.94 331.28 471.94 310.88 470.2 310.88 470.2 331.28 470.2 331.28"/><polygon class="cls-11" points="462.49 331.28 464.23 331.28 464.23 310.88 462.49 310.88 462.49 331.28 462.49 331.28"/></g><path class="cls-14" d="M495.92,314.41c0,3.09-16.47,5.59-36.79,5.59s-36.78-2.5-36.78-5.59,16.47-5.58,36.78-5.58,36.79,2.5,36.79,5.58Z"/><path class="cls-1" d="M490.07,314c0,1.43-13.09,2.59-29.24,2.59s-29.24-1.16-29.24-2.59,13.09-2.6,29.24-2.6,29.24,1.17,29.24,2.6Z"/><path class="cls-11" d="M432.85,314.79c3.64-1.06,14.79-1.84,28-1.84s24.34.78,28,1.84c.82-.24,1.26-.49,1.26-.75,0-1.43-13.09-2.6-29.24-2.6s-29.24,1.17-29.24,2.6c0,.26.44.51,1.26.75Z"/><path class="cls-1" d="M418,303.7v8.9c0,3.08,16.47,5.58,36.78,5.58s36.79-2.5,36.79-5.58v-8.9Z"/><g class="cls-48"><path class="cls-11" d="M455.48,319.45H401.66a1.46,1.46,0,0,1-1-.43,4.44,4.44,0,0,1-1.16-3,.91.91,0,0,1,0-.17V305.62c.06-2,1-3.59,2.17-3.59h47.21c.74,5,2.42,11.84,6.28,17l.33.43Z"/></g><path class="cls-1" d="M484.06,303c0,1.43-13.1,2.59-29.25,2.59s-29.24-1.16-29.24-2.59,13.09-2.6,29.24-2.6,29.25,1.16,29.25,2.6Z"/><path class="cls-12" d="M426.83,303.7c3.64-1.06,14.79-1.84,28-1.84s24.34.78,28,1.84c.81-.24,1.26-.49,1.26-.75,0-1.44-13.1-2.6-29.25-2.6s-29.24,1.16-29.24,2.6c0,.26.44.51,1.26.75Z"/><g class="cls-49"><polygon class="cls-11" points="489.05 300 489.05 320.4 490.79 320.4 490.79 300 489.05 300 489.05 300"/><polygon class="cls-11" points="484.54 320.4 486.28 320.4 486.28 300 484.54 300 484.54 320.4 484.54 320.4"/><polygon class="cls-11" points="479.38 320.4 481.12 320.4 481.12 300 479.38 300 479.38 320.4 479.38 320.4"/><polygon class="cls-11" points="472.95 320.4 474.69 320.4 474.69 300 472.95 300 472.95 320.4 472.95 320.4"/><polygon class="cls-11" points="465.88 320.4 467.62 320.4 467.62 300 465.88 300 465.88 320.4 465.88 320.4"/><polygon class="cls-11" points="458.17 320.4 459.91 320.4 459.91 300 458.17 300 458.17 320.4 458.17 320.4"/></g><path class="cls-14" d="M491.6,303.53c0,3.09-16.47,5.59-36.79,5.59S418,306.62,418,303.53,434.5,298,454.81,298s36.79,2.5,36.79,5.58Z"/><path class="cls-1" d="M485.75,303.16c0,1.43-13.09,2.59-29.24,2.59s-29.24-1.16-29.24-2.59,13.09-2.59,29.24-2.59,29.24,1.16,29.24,2.59Z"/><path class="cls-11" d="M428.53,303.91c3.64-1.06,14.79-1.83,28-1.83s24.34.77,28,1.83c.82-.24,1.26-.49,1.26-.75,0-1.43-13.09-2.59-29.24-2.59s-29.24,1.16-29.24,2.59c0,.26.44.51,1.26.75Z"/><path class="cls-9" d="M502,306.71l-7,18.87-9.15,24.63a14.72,14.72,0,0,1-4.86-.45,21.06,21.06,0,0,1-4.71-2.29s2.55-26.44,7.29-41.62c1.21-3.9,2.57-7.05,4.08-8.83,7.35-8.68,14.36,9.69,14.36,9.69Z"/><path class="cls-50" d="M533.84,350.14c.48,2.41,3.92,2,7.76,1.07s2.93.18,8.4-.43,7.12-2.64,7.29-3.46-2.55-1-5.45-1.31l-1.1-.13c-3.27-.41-5.66-2.52-8.64-4.25-2.81-1.65-7-8.34-7-8.34l-7.5.6s3.93,6,5.45,8.57a9,9,0,0,1,.74,5.11,9.62,9.62,0,0,0,.06,2.57Z"/><path class="cls-50" d="M467.76,359.55a2.14,2.14,0,0,0-.39,2.3h0c.56,1.54,2.39,3.26,4.53,5l.73.61.16.14.12.12c2,1.83,1.25,2.25,4.82,6,4.08,4.24,6.89,4.32,7.69,3.93s-.7-2.58-2.22-5.11c-.07-.12-.15-.24-.22-.37l-.61-1c-1.78-3.05-1.32-4.48-.9-9,.34-3.68,5.73-20.57,5.73-20.57l-7.82-1.34s-2.35,13.44-4.95,15.52c-1.38,1.1-2.93,1.11-4.27,1.93l-.27.18a10.1,10.1,0,0,0-2.14,1.72Z"/><path class="cls-9" d="M467.76,359.55a2.14,2.14,0,0,0-.39,2.3h0c.68,1.54,2.47,3.25,4.54,5,.27.22.5.43.72.62l.16.14.12.12c2,1.83,1.25,2.25,4.82,6,4.08,4.24,6.89,4.32,7.69,3.93s-.7-2.58-2.22-5.11a17.41,17.41,0,0,1-7.27-5.36c-2.46-3.13-4.09-7.16-5.77-9.49l-.27.18a10.1,10.1,0,0,0-2.14,1.72Z"/><path class="cls-9" d="M541.6,351.21c3.84-.94,2.93.18,8.4-.43s7.12-2.64,7.29-3.46-2.55-1-5.45-1.31l0,.06A15.45,15.45,0,0,1,544,348.5c-3.71.09-7.64-1-10.2-.93a9.62,9.62,0,0,0,.06,2.57c.48,2.41,3.92,2,7.76,1.07Z"/><path class="cls-26" d="M495,325.58l-9.15,24.63a14.72,14.72,0,0,1-4.86-.45,21.06,21.06,0,0,1-4.71-2.29s2.55-26.44,7.29-41.62L495,325.58Z"/><path class="cls-26" d="M494.92,276.28c-4.6-1.29-17.7.37-30.86,2.62l-2.75-4L432.89,273s-9.38,18.18-4.25,29.77c.76,1.7,2.26,2.79,4.81,2.83h.42s17,.9,22.41,0c15.37-2.58,29.91-8.49,32-8.85,3.34-.59,7.33,5,10.67,11.17s28.76,27.39,28.76,27.39a27.78,27.78,0,0,0,6.09-.55,6.13,6.13,0,0,0,2.62-1.44s-31.1-54.1-41.45-57Z"/><path class="cls-9" d="M460.19,192.45c-3.64-1.92-9.58-.93-10.47-.75-11.29,2.35-16.86,12.66-17.24,17.4-.71,8.74-11.31,7.06-11.84,15.55-.66,10.76,21,11,28.16,15.75,4.28,2.85-18.42,12.72-18.42,12.72S447,235.5,458.46,233.9c13.42-1.89,11-36.58,1.73-41.45Z"/><path class="cls-50" d="M450.85,231.07s-4.15,1.74-6.94.26c-2.63-1.4-4.62-6.6-4.58-6.6,1.19-.07,2.52-1.48,3.54-9.73l.49.38,8.56,3.7s-.62,3.3-1,6.45c-.34,2.64-.52,5.17,0,5.54Z"/><path class="cls-51" d="M451.94,218.7s-.6,3.55-1,6.7c-5.22-1.07-7.32-7.2-8.05-10.4l9.07,3.7Z"/><path class="cls-50" d="M453.87,222.61S441.55,220.72,442.7,212s.33-14.9,8.24-14.06,9,4.44,9.24,7.47-3.08,17.49-6.31,17.23Z"/><path class="cls-9" d="M462.19,200.58s-9,7.77-15.15,8.4-8.46-1.35-8.46-1.35a23.86,23.86,0,0,0,5.79-7.84,4.3,4.3,0,0,1,3.56-2.54c4.38-.38,12.68-.55,14.26,3.33Z"/><path class="cls-9" d="M456.55,199.89s3,2.91,4,5.07,1.19,7.08.46,9.06c0,0,4.7-9.13,2-13.57-2.82-4.71-6.47-.56-6.47-.56Z"/><path class="cls-27" d="M461.59,251.7c-.39,28.51-.11,22.55-2.95,25.26-.68.65-2.6,1-5.13,1.22-8,.58-21.94-.86-22.47-2.47-1.84-5.59-.54-7.33-2.07-15.89-.16-.91-.36-1.89-.59-3-1.28-5.88-2.52-7.88,2-17.33,4.1-8.55,9.58-15.5,10-15.25,8.81,5.76,10.24,2.89,10.48,1.62.05-.29.08-.5.08-.5s10.86,12.4,10.67,26.3Z"/><path class="cls-27" d="M450.92,225.4s11.3,2.46,12.42,7.73S471,269.41,471,269.41s-4.83,1.12-7.06-1.76S456.19,241,456.19,241l-4.86-14.77Z"/><path class="cls-52" d="M455.64,278.55c-8.74.58-24.11-.86-24.69-2.48-2-5.59-.6-7.33-2.28-15.88l4.22-11.88s1.23,9.83,5.13,13.31,14,10.11,15.93,13a10.72,10.72,0,0,1,1.69,3.92Z"/><path class="cls-50" d="M445.62,273s8.63-1.92,10-1.16,4.79,3.55,5.22,4.52-3.1-.73-4.25-1c-.74-.2-2.69.48-3.66.8-4.07,1.36-6.56.66-6.56.66l-.77-3.78Z"/><path class="cls-27" d="M440.36,224.28s-12,0-14.48,6.31c-4.22,10.61-15.65,41.41-9.69,45.89,6.72,5,30.55,1.31,30.55,1.31s.79-4-.31-5.92-19-5.05-19.87-5.94,10.35-17.37,10.35-20.05,3.45-21.6,3.45-21.6Z"/><polygon class="cls-31" points="458.46 280.41 500.01 280.41 512.52 249.32 471.02 249.32 458.46 280.41 458.46 280.41"/><polygon class="cls-53" points="500.5 279.2 445.62 279.2 445.62 280.41 500.01 280.41 500.5 279.2 500.5 279.2"/><path class="cls-30" d="M489.52,264.87a1.44,1.44,0,0,0-1.41-2,2.82,2.82,0,0,0-2.54,2,1.44,1.44,0,0,0,1.41,2,2.83,2.83,0,0,0,2.54-2Z"/><path class="cls-9" d="M127.8,392.85a5.29,5.29,0,0,1,1.43-4.2,30.42,30.42,0,0,0,3.45-5.06l2.09-8.17,8.64.12c.13,1.61.39,3.43.33,3.89-.12,1-1.13,5-.8,7.18s-1.18,6.43-1.6,7.23-2,2.32-7.69,2.08-5.77-2.55-5.85-3.07"/><path class="cls-9" d="M183.35,392.91a5.36,5.36,0,0,0-1.43-4.19,30.51,30.51,0,0,1-3.44-5l-2.08-8.14-8.61.12c-.13,1.61-.39,3.42-.33,3.88.12,1,1.13,4.94.79,7.16s1.18,6.4,1.6,7.2,2,2.31,7.67,2.07,5.74-2.54,5.83-3.06"/><path class="cls-54" d="M176.37,396c-4.73,0-6.13-1.35-6.52-2.1a19.61,19.61,0,0,1-1.65-6.49,5.27,5.27,0,0,1,.05-.71,6.54,6.54,0,0,0,.07-1c0-.28,0-.56,0-.85.79-.26,1.61-.49,2.43-.68a9.53,9.53,0,0,1,0,2.08c-.34,2.22,1.17,6.41,1.59,7.21s1.79,2.09,6.53,2.09c.36,0,.74,0,1.14,0s.62,0,.91-.06a12.44,12.44,0,0,1-3.35.52h0l-1.15,0"/><path class="cls-27" d="M177.31,393.07c-4.91.17-7.21-.6-8.28-1.34a15.36,15.36,0,0,0,.82,2.17c.42.8,2,2.31,7.67,2.07s5.74-2.54,5.83-3.06a5.2,5.2,0,0,0,0-1.37c-.83.71-2.5,1.4-6,1.53Z"/><path class="cls-54" d="M141.53,393.66a19.2,19.2,0,0,0,.7-1.93,7.6,7.6,0,0,1-3,1.06c.58-1.48,1.59-4.72,1.31-6.58a8,8,0,0,1-.07-1,6,6,0,0,0,1,.11A3.54,3.54,0,0,0,143,385c0,.21,0,.42,0,.62a8.45,8.45,0,0,0,.06,1,3.91,3.91,0,0,1,.05.7,19.66,19.66,0,0,1-1.53,6.28"/><path class="cls-27" d="M133.89,393.07c4.94.17,7.26-.6,8.34-1.34a15.65,15.65,0,0,1-.82,2.18c-.42.8-2,2.31-7.74,2.08s-5.79-2.55-5.87-3.07a4.74,4.74,0,0,1,0-1.38c.84.71,2.53,1.4,6,1.53"/><path class="cls-50" d="M148,168.16l.44,15.83c0,.68-5.7,3-6.28,3.44-2.88,2.34-2.41,5.28.42,8.12a20.13,20.13,0,0,0,6.37,3.87,32.34,32.34,0,0,0,5.2,1.89A19.17,19.17,0,0,0,168,199.49c2.65-1.47,7.75-5.37,8.07-8.73.35-3.63-5.1-3.8-8-5.68s-3.9-2.39-3.9-2.39l-.22-14.1L148,168.16"/><path class="cls-26" d="M132.21,252.68c-.43.65-2,19.74-2.39,24.95s1.35,105.84,1.35,105.84,2.32-.43,8.66,1.54c3.18,1,4.27-.92,4.27-.92s5.32-35.7,5.54-37.87,5.71-56.91,5.71-56.91l9.47,92.59s1.14,3.73,3.15,3a49.89,49.89,0,0,1,11.22-2.08s2.88-93.71,2.44-102.39S180.28,252,180.28,252l-48.07.68"/><path class="cls-31" d="M129.82,277.63s19.29,2.16,27.79,1.88c12.53-.42,25.28-2.09,25.28-2.09l-1.16-86.57-17.52-8.4s-1,6.74-7.5,6.74-8.24-5.2-8.24-5.2L131,191.05l-1.18,86.58"/><path class="cls-28" d="M161.55,253.4q-8.42,0-16.84-.41c-4-.2-8.13-.49-11.82-2.1a2.11,2.11,0,0,1-1.3-3.14,27.36,27.36,0,0,1,2.12-4.91,29.31,29.31,0,0,0,1.77-3.49c1.77-4.77-.14-10-2.21-14.28-1.58-3.29-2.16-7.25-2.58-11L131,193.4a4.65,4.65,0,0,1,.76-.9,2.87,2.87,0,0,1,1.79-.81h.06c2.86,0,4.92,4.92,5.85,7q2.3,5.1,4.6,10.18h-4.39a3.38,3.38,0,0,0-3.38,3.38v31.29a3.37,3.37,0,0,0,3.38,3.37h34.13l-.06.37c-.08.6-.17,1.21-.26,1.81l.06.21h.13a24.26,24.26,0,0,0,2.76-.82c.46-.18.92-.37,1.39-.54a15.12,15.12,0,0,0,2.74,1l.43.09a6.64,6.64,0,0,1-2.22,2.54,10.34,10.34,0,0,1-4.36,1.34,76.85,76.85,0,0,1-9.47.52l-3.36,0m16.8-44.56h-5.84c.2-.46.38-.94.55-1.41.68-1.91,1.2-3.88,1.77-5.83a38.79,38.79,0,0,1,1.85-5.24,11.28,11.28,0,0,1,2.69-3.7,10.69,10.69,0,0,0-.51,3.8,120.6,120.6,0,0,1-.51,12.38"/><path class="cls-31" d="M134.21,192.22a2.41,2.41,0,0,0-4.2-.66c-6.15,6-5.1,16.35-5,24.11.07,10.18,0,18.56,2.41,28.37.2.77,1.19.55,1.86.27s2-3.33,2.67-4.45c3.14-5.17,5.23-9.69,5.81-15.83a80.29,80.29,0,0,0-3.11-30.7,9.21,9.21,0,0,0-.4-1.11Z"/><path class="cls-51" d="M157.52,183.09a4.45,4.45,0,0,1-1.6-.3,15.21,15.21,0,0,1-4.55-2.69,12.28,12.28,0,0,1-3.14-4.52l-.13-4.85c.5.92,1.14,2.05,1.86,3.17,1.49,2.36,3.33,4.68,4.94,4.89a19.55,19.55,0,0,0,2.52.16h.22a14.68,14.68,0,0,0,3.06-.28c1.15-.26,2.29-2,3.26-4l.06,4.09a9.51,9.51,0,0,1-1.32,1.6,12.49,12.49,0,0,1-3.31,2.27,4.36,4.36,0,0,1-1.87.42"/><path class="cls-50" d="M148,170.63c1.52,2.83,4.53,7.84,7,8.16a18.21,18.21,0,0,0,5.66-.12c1.31-.29,2.61-2.5,3.65-4.79V174a35.59,35.59,0,0,0,3.35-13.44c0-8.81-5-13-10.89-13s-11.44,3.67-11.44,12.48c0,3.83,2.69,11,2.67,10.59"/><path class="cls-31" d="M178.18,218.6c0,.68.09,1.36.14,2.05.46,5.63,1.49,11.42,4.11,16.48,1.16,2.24,2.85,5.15,5,6.57,3.2,2.09,3.47-1.36,3.91-4.13,2-12.71-.17-24.33-1.86-36.88-.35-2.57-3.59-13.49-8.43-12.06-1.68.5-2.3,3.46-2.21,5.83.26,7.52-1.14,14.63-.68,22.14"/><path class="cls-51" d="M146.56,166.42c-.12-.42-.24-.84-.35-1.28l.16.26c0,.33.12.67.19,1m-.15-2.95a4.93,4.93,0,0,1-.08-.73,7,7,0,0,1,.55-3.09,4.67,4.67,0,0,1,4.1-2.78h0c1.81,0,3.48,1.44,4.74,2.61a2.61,2.61,0,0,0,1.11.72,1.66,1.66,0,0,0,.32,0,3.08,3.08,0,0,0,.67-.09,38.81,38.81,0,0,0,6.06-1.74,4.44,4.44,0,0,1,1.53-.33,2.42,2.42,0,0,1,.47.05,1.86,1.86,0,0,1,1.47,1.58,8.63,8.63,0,0,1,.13,3,4.85,4.85,0,0,0-.13-.85,1.86,1.86,0,0,0-1.47-1.58,2.42,2.42,0,0,0-.47-.05,4.49,4.49,0,0,0-1.53.33,39.92,39.92,0,0,1-6.06,1.74,3.09,3.09,0,0,1-.68.09,1.63,1.63,0,0,1-.31,0,2.54,2.54,0,0,1-1.11-.73c-1.26-1.16-2.93-2.6-4.74-2.6h0a4.67,4.67,0,0,0-4.1,2.78,5.85,5.85,0,0,0-.47,1.63"/><path class="cls-9" d="M165.88,158.12a3.73,3.73,0,0,0-2,.28,38.81,38.81,0,0,1-6.06,1.74,2.37,2.37,0,0,1-1,.06,2.61,2.61,0,0,1-1.11-.72c-1.26-1.17-2.93-2.61-4.74-2.61a4.67,4.67,0,0,0-4.1,2.78,7,7,0,0,0-.55,3.09c0,.94.52,2.17.3,3a13.46,13.46,0,0,1-1-1.62c-.35-1-.76-2-1.13-2.94a19.17,19.17,0,0,1-1.45-6.79,14.48,14.48,0,0,1,4.29-9.88,14.66,14.66,0,0,1,6.79-4c7.31-1.84,14.69,4,16.17,11.06a18.58,18.58,0,0,1-.25,8.52A16.19,16.19,0,0,1,169,163.4a7.59,7.59,0,0,1-.93,1.38c-.2.23-1.07.79-1.13,1a13.13,13.13,0,0,0,.46-6.11,1.86,1.86,0,0,0-1.47-1.58"/><path class="cls-50" d="M190.73,236c-2.87-3.43-9.45-7.13-9.45-7.13L178.89,232l-2.22,7.58.24,3.5a28.59,28.59,0,0,0,7.3,4.73,5.15,5.15,0,0,0,6.27-1.79c.15-.28,1-2.2,2.11-4.83a7.62,7.62,0,0,0-1.86-5.19"/><path class="cls-27" d="M163.87,246.88H124.4a1.61,1.61,0,0,1-1.61-1.61v-1.38a1.61,1.61,0,0,1,1.61-1.61h39.47v4.6Z"/><path class="cls-27" d="M186.26,246.88H139.64a3.37,3.37,0,0,1-3.38-3.37V212.22a3.38,3.38,0,0,1,3.38-3.38h46.62a3.38,3.38,0,0,1,3.38,3.38v31.29a3.37,3.37,0,0,1-3.38,3.37"/><path class="cls-51" d="M173.51,249.27l-.06-.21c.09-.6.18-1.21.26-1.81l.06-.37h2c.65.36,1.33.71,2,1-.47.17-.93.36-1.39.54a24.26,24.26,0,0,1-2.76.82h-.13"/><path class="cls-51" d="M181.72,246.88h-7.95c0-.36.11-.72.17-1.08.12-.66.28-1.32.46-2a14.39,14.39,0,0,1,1.37-2.64c.54-1,1.07-2,1.6-3a2.69,2.69,0,0,1,.73-1l.2-.09.3.09h.06c.19,0,.37-.34.55-.68s.37-.67.61-.67a.28.28,0,0,1,.19.08c.56.41.79,5.6,1,6.68s1.77,1.2,1.77,1.2,1.4-3.08,1.9-4c.39-.75,2.33-3.65,3.38-3.65a.45.45,0,0,1,.2,0c.28.14-.74,2.86-.77,3.17a2.36,2.36,0,0,1-.34.84c-.3.53-.62,1-.9,1.59A4,4,0,0,0,186,243c-.11.55-.28,1.1-.44,1.64l-.38,1.07c-.55,1.17-3.41,1.18-3.41,1.18l-.07,0"/><path class="cls-50" d="M184.77,248s2.93-.13,3.26-1.53.87-10.22.37-10.49-1.64,2.48-2,3.63-1.17,4.84-1.17,4.84a2.34,2.34,0,0,1-2-1.33c-.48-1.27-2.11-6.74-2.75-7.21s-1.34.42-1,1.64,1.29,7.48,1.29,7.48-1.67-7.76-2.23-7.87-1.23.21-.92,2c.21,1.14,0,7.24,0,7.24s-.93-4.73-1.52-5.2-1.17.73-.9,2.1a17.34,17.34,0,0,1-.22,4.31s-.43,1.17.52,1.6a2.78,2.78,0,0,0,1.82.14,2,2,0,0,0,1.76.3,7.67,7.67,0,0,1,2.13-.51l3.56-1.18Z"/><circle class="cls-30" cx="163.17" cy="226.4" r="2.06"/><circle class="cls-27" cx="183.5" cy="236.83" r="3.02"/></svg>