<svg id="Layer_1" data-name="Layer 1" xmlns="http://www.w3.org/2000/svg" xmlns:xlink="http://www.w3.org/1999/xlink" viewBox="0 0 575.02 421"><defs><style>.cls-1{fill:#f99f1b;}.cls-2{fill:none;}.cls-3{fill:#17697a;}.cls-4{fill:#14697a;}.cls-5,.cls-6{fill:#479fb5;}.cls-5{opacity:0.15;}.cls-7{fill:#d1d3d4;}.cls-70,.cls-8{fill:#aad7dd;}.cls-8{opacity:0.61;}.cls-71,.cls-9{fill:#ede9e4;}.cls-10{fill:#efb68f;}.cls-11{clip-path:url(#clip-path);}.cls-12{fill:#f4901f;}.cls-13{fill:#e28725;}.cls-14{clip-path:url(#clip-path-2);}.cls-15{fill:#fdb83e;}.cls-16{clip-path:url(#clip-path-3);}.cls-17{clip-path:url(#clip-path-4);}.cls-18{clip-path:url(#clip-path-5);}.cls-19{clip-path:url(#clip-path-6);}.cls-20{clip-path:url(#clip-path-7);}.cls-21{clip-path:url(#clip-path-8);}.cls-22{clip-path:url(#clip-path-9);}.cls-23{clip-path:url(#clip-path-10);}.cls-24{clip-path:url(#clip-path-11);}.cls-25{clip-path:url(#clip-path-12);}.cls-26{clip-path:url(#clip-path-13);}.cls-27{clip-path:url(#clip-path-14);}.cls-28{clip-path:url(#clip-path-15);}.cls-29{clip-path:url(#clip-path-16);}.cls-30{clip-path:url(#clip-path-17);}.cls-31{clip-path:url(#clip-path-18);}.cls-32{clip-path:url(#clip-path-19);}.cls-33{clip-path:url(#clip-path-20);}.cls-34{clip-path:url(#clip-path-21);}.cls-35{clip-path:url(#clip-path-22);}.cls-36{clip-path:url(#clip-path-23);}.cls-37{clip-path:url(#clip-path-24);}.cls-38{clip-path:url(#clip-path-25);}.cls-39{clip-path:url(#clip-path-26);}.cls-40{clip-path:url(#clip-path-27);}.cls-41{clip-path:url(#clip-path-28);}.cls-42{clip-path:url(#clip-path-29);}.cls-43{clip-path:url(#clip-path-30);}.cls-44{clip-path:url(#clip-path-31);}.cls-45{clip-path:url(#clip-path-32);}.cls-46{clip-path:url(#clip-path-33);}.cls-47{clip-path:url(#clip-path-34);}.cls-48{clip-path:url(#clip-path-35);}.cls-49{clip-path:url(#clip-path-36);}.cls-50{clip-path:url(#clip-path-37);}.cls-51{clip-path:url(#clip-path-38);}.cls-52{clip-path:url(#clip-path-39);}.cls-53{clip-path:url(#clip-path-40);}.cls-54{clip-path:url(#clip-path-41);}.cls-55{clip-path:url(#clip-path-42);}.cls-56{fill:#faa31b;}.cls-57{fill:#bcbec0;}.cls-58{fill:#7b859e;}.cls-59{fill:#e7e7e6;}.cls-60{fill:#d78c2f;}.cls-61{fill:#faa52d;}.cls-62{clip-path:url(#clip-path-43);}.cls-63,.cls-68{fill:#47494c;}.cls-64{fill:#ece6e3;}.cls-65{clip-path:url(#clip-path-44);}.cls-66,.cls-69{fill:#f4ccb1;}.cls-67{fill:#ddd;}.cls-68{opacity:0.72;}.cls-69{opacity:0.6;}.cls-70{opacity:0.31;}.cls-71{opacity:0.28;}</style><clipPath id="clip-path"><path class="cls-1" d="M156.64,354.89v4.23c0,1.47,7.83,2.66,17.49,2.66s17.5-1.19,17.5-2.66v-4.23Z"/></clipPath><clipPath id="clip-path-2"><path class="cls-2" d="M156.64,354.89v4.23c0,1.47,7.83,2.66,17.49,2.66s17.5-1.19,17.5-2.66v-4.23h-35"/></clipPath><clipPath id="clip-path-3"><path class="cls-1" d="M159.11,350v4.23c0,1.47,7.84,2.66,17.5,2.66s17.49-1.19,17.49-2.66V350Z"/></clipPath><clipPath id="clip-path-4"><path class="cls-2" d="M159.11,350v4.23c0,1.47,7.84,2.66,17.5,2.66s17.49-1.19,17.49-2.66V350h-35"/></clipPath><clipPath id="clip-path-5"><path class="cls-1" d="M157.06,344.78V349c0,1.46,7.83,2.65,17.49,2.65s17.5-1.19,17.5-2.65v-4.23Z"/></clipPath><clipPath id="clip-path-6"><path class="cls-2" d="M157.06,344.78V349c0,1.46,7.83,2.65,17.49,2.65s17.5-1.19,17.5-2.65v-4.23h-35"/></clipPath><clipPath id="clip-path-7"><path class="cls-1" d="M156.38,339.07v4.23c0,1.47,7.83,2.66,17.49,2.66s17.49-1.19,17.49-2.66v-4.23Z"/></clipPath><clipPath id="clip-path-8"><path class="cls-2" d="M156.38,339.07v4.23c0,1.47,7.83,2.66,17.49,2.66s17.49-1.19,17.49-2.66v-4.23h-35"/></clipPath><clipPath id="clip-path-9"><path class="cls-1" d="M158.85,334.13v4.23c0,1.47,7.83,2.65,17.5,2.65s17.49-1.18,17.49-2.65v-4.23Z"/></clipPath><clipPath id="clip-path-10"><path class="cls-2" d="M158.85,334.13v4.23c0,1.47,7.83,2.65,17.5,2.65s17.49-1.18,17.49-2.65v-4.23h-35"/></clipPath><clipPath id="clip-path-11"><path class="cls-1" d="M156.8,329v4.24c0,1.46,7.83,2.65,17.49,2.65s17.5-1.19,17.5-2.65V329Z"/></clipPath><clipPath id="clip-path-12"><path class="cls-2" d="M156.8,329v4.24c0,1.46,7.83,2.65,17.49,2.65s17.5-1.19,17.5-2.65V329h-35"/></clipPath><clipPath id="clip-path-13"><path class="cls-1" d="M159.37,323.51v4.23c0,1.46,7.84,2.65,17.5,2.65s17.49-1.19,17.49-2.65v-4.23Z"/></clipPath><clipPath id="clip-path-14"><path class="cls-2" d="M159.37,323.51v4.23c0,1.46,7.84,2.65,17.5,2.65s17.49-1.19,17.49-2.65v-4.23h-35"/></clipPath><clipPath id="clip-path-15"><path class="cls-1" d="M161.85,318.56v4.24c0,1.46,7.83,2.65,17.49,2.65s17.5-1.19,17.5-2.65v-4.24Z"/></clipPath><clipPath id="clip-path-16"><path class="cls-2" d="M161.85,318.56v4.24c0,1.46,7.83,2.65,17.49,2.65s17.5-1.19,17.5-2.65v-4.24h-35"/></clipPath><clipPath id="clip-path-17"><path class="cls-1" d="M159.8,313.39v4.23c0,1.47,7.83,2.66,17.49,2.66s17.49-1.19,17.49-2.66v-4.23Z"/></clipPath><clipPath id="clip-path-18"><path class="cls-2" d="M159.8,313.39v4.23c0,1.47,7.83,2.66,17.49,2.66s17.49-1.19,17.49-2.66v-4.23h-35"/></clipPath><clipPath id="clip-path-19"><path class="cls-1" d="M158.56,307.93v4.23c0,1.47,7.83,2.66,17.49,2.66s17.5-1.19,17.5-2.66v-4.23Z"/></clipPath><clipPath id="clip-path-20"><path class="cls-2" d="M158.56,307.93v4.23c0,1.47,7.83,2.66,17.49,2.66s17.5-1.19,17.5-2.66v-4.23h-35"/></clipPath><clipPath id="clip-path-21"><path class="cls-1" d="M161,303v4.23c0,1.47,7.84,2.66,17.5,2.66S196,308.69,196,307.22V303Z"/></clipPath><clipPath id="clip-path-22"><path class="cls-2" d="M161,303v4.23c0,1.47,7.84,2.66,17.5,2.66S196,308.69,196,307.22V303H161"/></clipPath><clipPath id="clip-path-23"><path class="cls-1" d="M159,297.82v4.23c0,1.46,7.83,2.65,17.49,2.65s17.5-1.19,17.5-2.65v-4.23Z"/></clipPath><clipPath id="clip-path-24"><path class="cls-2" d="M159,297.82v4.23c0,1.46,7.83,2.65,17.49,2.65s17.5-1.19,17.5-2.65v-4.23H159"/></clipPath><clipPath id="clip-path-25"><path class="cls-1" d="M156.88,292.89v4.23c0,1.47,7.83,2.66,17.49,2.66s17.5-1.19,17.5-2.66v-4.23Z"/></clipPath><clipPath id="clip-path-26"><path class="cls-2" d="M156.88,292.89v4.23c0,1.47,7.83,2.66,17.49,2.66s17.5-1.19,17.5-2.66v-4.23h-35"/></clipPath><clipPath id="clip-path-27"><path class="cls-1" d="M159.36,288v4.23c0,1.47,7.83,2.66,17.49,2.66s17.5-1.19,17.5-2.66V288Z"/></clipPath><clipPath id="clip-path-28"><path class="cls-2" d="M159.36,288v4.23c0,1.47,7.83,2.66,17.49,2.66s17.5-1.19,17.5-2.66V288h-35"/></clipPath><clipPath id="clip-path-29"><path class="cls-1" d="M157.3,282.78V287c0,1.47,7.83,2.65,17.5,2.65s17.49-1.18,17.49-2.65v-4.23Z"/></clipPath><clipPath id="clip-path-30"><path class="cls-2" d="M157.3,282.78V287c0,1.47,7.83,2.65,17.5,2.65s17.49-1.18,17.49-2.65v-4.23h-35"/></clipPath><clipPath id="clip-path-31"><path class="cls-1" d="M194.82,355.17v4.24c0,1.46,7.84,2.65,17.5,2.65s17.49-1.19,17.49-2.65v-4.24Z"/></clipPath><clipPath id="clip-path-32"><path class="cls-2" d="M194.82,355.17v4.24c0,1.46,7.84,2.65,17.5,2.65s17.49-1.19,17.49-2.65v-4.24h-35"/></clipPath><clipPath id="clip-path-33"><path class="cls-1" d="M197.3,350.23v4.23c0,1.47,7.83,2.66,17.49,2.66s17.5-1.19,17.5-2.66v-4.23Z"/></clipPath><clipPath id="clip-path-34"><path class="cls-2" d="M197.3,350.23v4.23c0,1.47,7.83,2.66,17.49,2.66s17.5-1.19,17.5-2.66v-4.23h-35"/></clipPath><clipPath id="clip-path-35"><path class="cls-1" d="M195.25,345.06v4.23c0,1.47,7.83,2.66,17.49,2.66s17.49-1.19,17.49-2.66v-4.23Z"/></clipPath><clipPath id="clip-path-36"><path class="cls-2" d="M195.25,345.06v4.23c0,1.47,7.83,2.66,17.49,2.66s17.49-1.19,17.49-2.66v-4.23h-35"/></clipPath><clipPath id="clip-path-37"><path class="cls-1" d="M194.82,340.05v4.23c0,1.47,7.84,2.66,17.5,2.66s17.49-1.19,17.49-2.66v-4.23Z"/></clipPath><clipPath id="clip-path-38"><path class="cls-2" d="M194.82,340.05v4.23c0,1.47,7.84,2.66,17.5,2.66s17.49-1.19,17.49-2.66v-4.23h-35"/></clipPath><clipPath id="clip-path-39"><path class="cls-1" d="M197.3,335.11v4.23c0,1.47,7.83,2.66,17.49,2.66s17.5-1.19,17.5-2.66v-4.23Z"/></clipPath><clipPath id="clip-path-40"><path class="cls-2" d="M197.3,335.11v4.23c0,1.47,7.83,2.66,17.49,2.66s17.5-1.19,17.5-2.66v-4.23h-35"/></clipPath><clipPath id="clip-path-41"><path class="cls-1" d="M195.25,329.94v4.23c0,1.47,7.83,2.66,17.49,2.66s17.49-1.19,17.49-2.66v-4.23Z"/></clipPath><clipPath id="clip-path-42"><path class="cls-2" d="M195.25,329.94v4.23c0,1.47,7.83,2.66,17.49,2.66s17.49-1.19,17.49-2.66v-4.23h-35"/></clipPath><clipPath id="clip-path-43"><path class="cls-3" d="M346.9,393.76a6.58,6.58,0,0,1,1.77-5.21c1.92-2,5.88-7.59,5.88-7.59l1-8.78,10.26.14c.16,2,.2,8.07.13,8.64a13,13,0,0,0-.28,5.08c.42,2.74-1.45,7.95-2,8.95s-2.5,2.86-9.53,2.57-7.13-3.16-7.23-3.8"/></clipPath><clipPath id="clip-path-44"><path class="cls-4" d="M368.75,368s-2.67,5.74-2.7,7c0,.82.09,4.62.18,7.32,0,1.59.08,2.8.08,2.8s1.61,2.36,9,2.14,9.1.43,9.73-.86.21-4.95-3.81-6.45-2.05-6.53-2.05-6.53-3.88.43-10.45-5.45Z"/></clipPath></defs><path class="cls-5" d="M543.77,407.93C559,390,572.51,339.4,572.51,318.5c0-36.05-35.18-38-43.54-56.68-12.44-27.78,38.32-67.65-51.63-97.25-30.81-10.14-53.87-40.26-79.59-58.55C363.55,81.7,321.43,74.83,280.38,70c-19.22-2.28-40.06-.88-55.74,10.27-17.41,12.38-24.6,33.3-37.23,49.59s-32.46,22.88-51.9,27.47c-20.87,4.93-42.35,5.33-57.78,21.76-11.18,11.9-19,21.37-33.92,29.44C21.16,220.69,4.36,231,2.67,258.26c-1.48,23.88,7.29,48.47,24.5,65.56C41.85,338.41,60.91,348.48,77,361.54c5.91,4.8,11.36,12,13.54,19.21,1.77,5.91.82,13-3.93,17.05-4.51,3.81-11.23,4-16,7.48a13.64,13.64,0,0,0-3.81,4.21H542.31C542.81,409,543.3,408.47,543.77,407.93Z"/><path class="cls-6" d="M120.55,314s40.77-55.65,19.84-66.12c0,0-3.72-6-18.94,15.17,0,0-9.34,3-9.81-7.82s15-27.18,5.24-36.62S102,226,95.12,229.16s-3.38-39.95-12.9-44.63S70,196.85,64.65,198.8c-2.5.91-7.22-9.59-14.14-20.1-7.89-12-18.66-24-32.3-19.11-25.59,9.19,3.47,28.18,15.65,39.89s-13.07,5.07-15.8,20,42.48,3.15,38.3,17.6S39.3,243.16,36.83,254c-2.18,9.49,10.05,8.94,21.51,8.39,9.63-.46,18.72-.93,18.23,4.57-.87,9.59-17,3.18-18.82,10.59S83.9,311.69,120.55,314"/><path class="cls-3" d="M120.07,311.51h0l-.28,0a124.79,124.79,0,0,0-5.17-18.42,30.57,30.57,0,0,1-5.44.46c-10.56,0-22-4.81-30.3-9.26a138.16,138.16,0,0,1-14.48-9,3.88,3.88,0,0,1,.3-.48h0l0,0a140,140,0,0,0,14.41,8.94c8.25,4.41,19.6,9.19,30,9.19a30.06,30.06,0,0,0,5.22-.44c-5.26-14.45-13-29.15-21.68-43a48,48,0,0,0-7.11-.48c-13.66,0-31.31,4.24-40.59,6.75,0-.21,0-.44,0-.67,9.34-2.53,26.92-6.72,40.57-6.72a48,48,0,0,1,6.65.41c-6.09-9.73-12.59-19-18.94-27.52a127.36,127.36,0,0,0-18.05-2.11c-1.94-.1-4.06-.16-6.31-.16a107.12,107.12,0,0,0-20.7,1.9,5.06,5.06,0,0,1,.06-.53h0v0l0-.1a107.76,107.76,0,0,1,20.62-1.87c2.26,0,4.39.06,6.34.15a131.74,131.74,0,0,1,17.44,2C69.85,216.61,67,213,64.27,209.5c-16.31-20.53-32-37.16-40-45.43l.54-.33c8.13,8.33,23.73,24.91,40,45.34q8.73,11,16.23,21.59a172.31,172.31,0,0,1-1-19.6c0-7.73.74-17.57,3.31-25.78l.58.12c-2.57,8.14-3.25,18-3.3,25.67a169.21,169.21,0,0,0,1.17,20.61C88.19,241,94,250,99,258.64l.06.11c3.48-21,10.3-32.75,15.43-39,.43-.52.86-1,1.28-1.47l.44.43c-.43.48-.87,1-1.32,1.52-5.12,6.21-11.95,18.07-15.36,39.3a230,230,0,0,1,12.17,24.35c12.88-7.21,20.11-19.79,23.91-29.1,1-2.54,1.88-5,2.57-7.2q.26.16.51.36c-.68,2.2-1.51,4.59-2.53,7.08a69.63,69.63,0,0,1-9,16.05A50.66,50.66,0,0,1,114.39,283c-.81.52-1.64,1-2.48,1.49a138.09,138.09,0,0,1,8.39,26.64l-.23.35h0"/><path class="cls-7" d="M322.82,386.9H116a6.91,6.91,0,0,1-6.91-6.92V162.14a6.91,6.91,0,0,1,6.91-6.92H322.82a6.92,6.92,0,0,1,6.92,6.92V380a6.92,6.92,0,0,1-6.92,6.92"/><path class="cls-6" d="M303.69,365.46H135.18a5.64,5.64,0,0,1-5.64-5.63V182.3a5.64,5.64,0,0,1,5.64-5.64H303.69a5.64,5.64,0,0,1,5.64,5.64V359.83a5.64,5.64,0,0,1-5.64,5.63"/><path class="cls-8" d="M135.18,362a2.18,2.18,0,0,1-2.18-2.18V182.3a2.19,2.19,0,0,1,2.18-2.18H303.69a2.19,2.19,0,0,1,2.18,2.18V359.82a2.18,2.18,0,0,1-2.18,2.18H135.18"/><path class="cls-9" d="M248,252.35s-4.41,7.47-8.45,7.58-10.2-3.47-10.2-3.47-3.71-9.95-1.19-13.85a4.65,4.65,0,0,1,5.16,1,8.5,8.5,0,0,1,1.37,1.58,4.44,4.44,0,0,0,2.12,1.73c2.89,1.06,6.31-1.43,7.59,1a16.2,16.2,0,0,0,2.23,3.18,10.89,10.89,0,0,0,1.37,1.26Z"/><path class="cls-9" d="M184.72,361.59s-10.82-95,49.41-101.66c0,0,46.74,11.13,35.09,101.66Z"/><path class="cls-10" d="M226.44,261.31s11.25,3,14.72,1.24c0,0,.52-5.65-4.21-4.86-3.24.54-5.35-1.33-6.6-2.09-1.75-1.08-4.37,3.35-3.91,5.71Z"/><path class="cls-7" d="M236.23,252.78c-.72.65-2.93-9.15-2.93-9.15a8.5,8.5,0,0,1,1.37,1.58,4.44,4.44,0,0,0,2.12,1.73c0,.29.14,5.21-.56,5.84Z"/><path class="cls-7" d="M246.61,251.09c-.16.11-5.36,3.86-6.06,3.86s3.83-7,3.83-7a16.2,16.2,0,0,0,2.23,3.18Z"/><path class="cls-7" d="M206.79,281.33s18.68,32.17,39.12,27.41,9,19.82,9,19.82-60.63-1-60.83-1.72,12.71-45.51,12.71-45.51Z"/><path class="cls-1" d="M156.64,354.89v4.23c0,1.47,7.83,2.66,17.49,2.66s17.5-1.19,17.5-2.66v-4.23Z"/><g class="cls-11"><path class="cls-12" d="M174.45,362.38h-25.6a.69.69,0,0,1-.47-.2,2.14,2.14,0,0,1-.56-1.43V355.8c0-.94.48-1.71,1-1.71h22.46a18.37,18.37,0,0,0,3,8.09l.16.2Z"/></g><path class="cls-1" d="M188,354.53c0,.68-6.23,1.23-13.91,1.23s-13.91-.55-13.91-1.23,6.23-1.23,13.91-1.23,13.91.55,13.91,1.23Z"/><path class="cls-13" d="M160.82,354.89c1.74-.51,7-.87,13.31-.87s11.58.36,13.31.87c.39-.11.6-.23.6-.36,0-.68-6.23-1.23-13.91-1.23s-13.91.55-13.91,1.23c0,.13.22.25.6.36Z"/><g class="cls-14"><polygon class="cls-12" points="190.41 353.13 190.41 362.83 191.24 362.83 191.24 353.13 190.41 353.13 190.41 353.13"/><polygon class="cls-12" points="188.27 362.83 189.1 362.83 189.1 353.13 188.27 353.13 188.27 362.83 188.27 362.83"/><polygon class="cls-12" points="185.82 362.83 186.64 362.83 186.64 353.13 185.82 353.13 185.82 362.83 185.82 362.83"/><polygon class="cls-12" points="182.76 362.83 183.59 362.83 183.59 353.13 182.76 353.13 182.76 362.83 182.76 362.83"/><polygon class="cls-12" points="179.39 362.83 180.22 362.83 180.22 353.13 179.39 353.13 179.39 362.83 179.39 362.83"/><polygon class="cls-12" points="175.73 362.83 176.56 362.83 176.56 353.13 175.73 353.13 175.73 362.83 175.73 362.83"/></g><path class="cls-15" d="M191.63,354.81c0,1.47-7.84,2.66-17.5,2.66s-17.49-1.19-17.49-2.66,7.83-2.65,17.49-2.65,17.5,1.18,17.5,2.65Z"/><path class="cls-1" d="M188.85,354.63c0,.68-6.23,1.24-13.91,1.24S161,355.31,161,354.63s6.23-1.23,13.91-1.23,13.91.55,13.91,1.23Z"/><path class="cls-12" d="M161.63,355c1.73-.5,7-.87,13.31-.87s11.58.37,13.31.87c.39-.11.6-.23.6-.36,0-.68-6.23-1.23-13.91-1.23S161,354,161,354.63c0,.13.21.25.6.36Z"/><path class="cls-1" d="M159.11,350v4.23c0,1.47,7.84,2.66,17.5,2.66s17.49-1.19,17.49-2.66V350Z"/><g class="cls-16"><path class="cls-12" d="M176.93,357.44h-25.6a.71.71,0,0,1-.48-.2,2.14,2.14,0,0,1-.55-1.43v-4.95c0-.94.48-1.71,1-1.71h22.45a18.31,18.31,0,0,0,3,8.09l.16.2Z"/></g><path class="cls-1" d="M190.52,349.59c0,.68-6.23,1.23-13.91,1.23s-13.91-.55-13.91-1.23,6.23-1.23,13.91-1.23,13.91.55,13.91,1.23Z"/><path class="cls-13" d="M163.3,350c1.73-.51,7-.88,13.31-.88s11.57.37,13.31.88c.38-.11.6-.23.6-.36,0-.68-6.23-1.23-13.91-1.23s-13.91.55-13.91,1.23c0,.13.21.25.6.36Z"/><g class="cls-17"><polygon class="cls-12" points="192.89 348.19 192.89 357.89 193.72 357.89 193.72 348.19 192.89 348.19 192.89 348.19"/><polygon class="cls-12" points="190.74 357.89 191.57 357.89 191.57 348.19 190.74 348.19 190.74 357.89 190.74 357.89"/><polygon class="cls-12" points="188.29 357.89 189.12 357.89 189.12 348.19 188.29 348.19 188.29 357.89 188.29 357.89"/><polygon class="cls-12" points="185.23 357.89 186.06 357.89 186.06 348.19 185.23 348.19 185.23 357.89 185.23 357.89"/><polygon class="cls-12" points="181.87 357.89 182.7 357.89 182.7 348.19 181.87 348.19 181.87 357.89 181.87 357.89"/><polygon class="cls-12" points="178.2 357.89 179.03 357.89 179.03 348.19 178.2 348.19 178.2 357.89 178.2 357.89"/></g><path class="cls-15" d="M194.1,349.87c0,1.47-7.83,2.66-17.49,2.66s-17.5-1.19-17.5-2.66,7.84-2.66,17.5-2.66,17.49,1.19,17.49,2.66Z"/><path class="cls-1" d="M191.32,349.69c0,.68-6.22,1.23-13.9,1.23s-13.91-.55-13.91-1.23,6.22-1.23,13.91-1.23,13.9.55,13.9,1.23Z"/><path class="cls-12" d="M164.11,350.05c1.73-.51,7-.87,13.31-.87s11.57.36,13.3.87c.39-.11.6-.23.6-.36,0-.68-6.22-1.23-13.9-1.23s-13.91.55-13.91,1.23c0,.13.21.25.6.36Z"/><path class="cls-1" d="M157.06,344.78V349c0,1.46,7.83,2.65,17.49,2.65s17.5-1.19,17.5-2.65v-4.23Z"/><g class="cls-18"><path class="cls-12" d="M174.87,352.27h-25.6a.7.7,0,0,1-.47-.21,2.09,2.09,0,0,1-.55-1.42.25.25,0,0,1,0-.08v-4.87c0-.95.48-1.71,1-1.71h22.46a18.38,18.38,0,0,0,3,8.08l.16.21Z"/></g><path class="cls-1" d="M188.46,344.42c0,.68-6.23,1.23-13.91,1.23s-13.9-.55-13.9-1.23,6.22-1.24,13.9-1.24,13.91.56,13.91,1.24Z"/><path class="cls-13" d="M161.25,344.78c1.73-.51,7-.88,13.3-.88s11.58.37,13.31.88c.39-.12.6-.24.6-.36,0-.68-6.23-1.24-13.91-1.24s-13.9.56-13.9,1.24c0,.12.21.24.6.36Z"/><g class="cls-19"><polygon class="cls-12" points="190.84 343.02 190.84 352.72 191.66 352.72 191.66 343.02 190.84 343.02 190.84 343.02"/><polygon class="cls-12" points="188.69 352.72 189.52 352.72 189.52 343.02 188.69 343.02 188.69 352.72 188.69 352.72"/><polygon class="cls-12" points="186.24 352.72 187.07 352.72 187.07 343.02 186.24 343.02 186.24 352.72 186.24 352.72"/><polygon class="cls-12" points="183.18 352.72 184.01 352.72 184.01 343.02 183.18 343.02 183.18 352.72 183.18 352.72"/><polygon class="cls-12" points="179.81 352.72 180.64 352.72 180.64 343.02 179.81 343.02 179.81 352.72 179.81 352.72"/><polygon class="cls-12" points="176.15 352.72 176.98 352.72 176.98 343.02 176.15 343.02 176.15 352.72 176.15 352.72"/></g><path class="cls-15" d="M192.05,344.7c0,1.46-7.83,2.65-17.5,2.65s-17.49-1.19-17.49-2.65,7.83-2.66,17.49-2.66,17.5,1.19,17.5,2.66Z"/><path class="cls-1" d="M189.27,344.52c0,.68-6.23,1.23-13.91,1.23s-13.91-.55-13.91-1.23,6.23-1.23,13.91-1.23,13.91.55,13.91,1.23Z"/><path class="cls-12" d="M162.05,344.88c1.73-.51,7-.88,13.31-.88s11.58.37,13.31.88c.39-.12.6-.24.6-.36,0-.68-6.23-1.23-13.91-1.23s-13.91.55-13.91,1.23c0,.12.21.24.6.36Z"/><path class="cls-1" d="M156.38,339.07v4.23c0,1.47,7.83,2.66,17.49,2.66s17.49-1.19,17.49-2.66v-4.23Z"/><g class="cls-20"><path class="cls-12" d="M174.19,346.56h-25.6a.73.73,0,0,1-.48-.2,2.19,2.19,0,0,1-.55-1.43V340c0-.94.48-1.71,1-1.71h22.46a18.17,18.17,0,0,0,3,8.09l.16.2Z"/></g><path class="cls-1" d="M187.78,338.71c0,.68-6.23,1.23-13.91,1.23S160,339.39,160,338.71s6.23-1.23,13.91-1.23,13.91.55,13.91,1.23Z"/><path class="cls-13" d="M160.56,339.07c1.73-.51,7-.88,13.31-.88s11.58.37,13.31.88c.39-.11.6-.23.6-.36,0-.68-6.23-1.23-13.91-1.23S160,338,160,338.71c0,.13.21.25.6.36Z"/><g class="cls-21"><polygon class="cls-12" points="190.15 337.31 190.15 347.01 190.98 347.01 190.98 337.31 190.15 337.31 190.15 337.31"/><polygon class="cls-12" points="188.01 347.01 188.83 347.01 188.83 337.31 188.01 337.31 188.01 347.01 188.01 347.01"/><polygon class="cls-12" points="185.55 347.01 186.38 347.01 186.38 337.31 185.55 337.31 185.55 347.01 185.55 347.01"/><polygon class="cls-12" points="182.5 347.01 183.32 347.01 183.32 337.31 182.5 337.31 182.5 347.01 182.5 347.01"/><polygon class="cls-12" points="179.13 347.01 179.96 347.01 179.96 337.31 179.13 337.31 179.13 347.01 179.13 347.01"/><polygon class="cls-12" points="175.47 347.01 176.29 347.01 176.29 337.31 175.47 337.31 175.47 347.01 175.47 347.01"/></g><path class="cls-15" d="M191.36,339c0,1.47-7.83,2.66-17.49,2.66s-17.49-1.19-17.49-2.66,7.83-2.66,17.49-2.66,17.49,1.19,17.49,2.66Z"/><path class="cls-1" d="M188.59,338.81c0,.68-6.23,1.23-13.91,1.23s-13.91-.55-13.91-1.23,6.23-1.23,13.91-1.23,13.91.55,13.91,1.23Z"/><path class="cls-12" d="M161.37,339.17c1.73-.51,7-.87,13.31-.87s11.57.36,13.31.87c.38-.11.6-.23.6-.36,0-.68-6.23-1.23-13.91-1.23s-13.91.55-13.91,1.23c0,.13.21.25.6.36Z"/><path class="cls-1" d="M158.85,334.13v4.23c0,1.47,7.83,2.65,17.5,2.65s17.49-1.18,17.49-2.65v-4.23Z"/><g class="cls-22"><path class="cls-12" d="M176.66,341.62H151.07a.68.68,0,0,1-.48-.21A2.09,2.09,0,0,1,150,340v-.08a.28.28,0,0,1,0-.09v-4.68a.34.34,0,0,1,0-.1c0-1,.48-1.71,1-1.71h22.45a18.23,18.23,0,0,0,3,8.08l.15.21Z"/></g><path class="cls-1" d="M190.25,333.77c0,.68-6.22,1.23-13.9,1.23s-13.91-.55-13.91-1.23,6.23-1.23,13.91-1.23,13.9.55,13.9,1.23Z"/><path class="cls-13" d="M163,334.13c1.73-.51,7-.88,13.31-.88s11.57.37,13.3.88c.39-.12.6-.24.6-.36,0-.68-6.22-1.23-13.9-1.23s-13.91.55-13.91,1.23c0,.12.21.24.6.36Z"/><g class="cls-23"><polygon class="cls-12" points="192.63 332.37 192.63 342.07 193.46 342.07 193.46 332.37 192.63 332.37 192.63 332.37"/><polygon class="cls-12" points="190.48 342.07 191.31 342.07 191.31 332.37 190.48 332.37 190.48 342.07 190.48 342.07"/><polygon class="cls-12" points="188.03 342.07 188.86 342.07 188.86 332.37 188.03 332.37 188.03 342.07 188.03 342.07"/><polygon class="cls-12" points="184.97 342.07 185.8 342.07 185.8 332.37 184.97 332.37 184.97 342.07 184.97 342.07"/><polygon class="cls-12" points="181.61 342.07 182.44 342.07 182.44 332.37 181.61 332.37 181.61 342.07 181.61 342.07"/><polygon class="cls-12" points="177.94 342.07 178.77 342.07 178.77 332.37 177.94 332.37 177.94 342.07 177.94 342.07"/></g><path class="cls-15" d="M193.84,334.05c0,1.47-7.83,2.65-17.49,2.65s-17.5-1.18-17.5-2.65,7.83-2.66,17.5-2.66,17.49,1.19,17.49,2.66Z"/><path class="cls-1" d="M191.06,333.87c0,.68-6.23,1.23-13.91,1.23s-13.9-.55-13.9-1.23,6.22-1.23,13.9-1.23,13.91.55,13.91,1.23Z"/><path class="cls-12" d="M163.85,334.23c1.73-.51,7-.88,13.3-.88s11.58.37,13.31.88c.39-.11.6-.24.6-.36,0-.68-6.23-1.23-13.91-1.23s-13.9.55-13.9,1.23c0,.12.21.25.6.36Z"/><path class="cls-1" d="M156.8,329v4.24c0,1.46,7.83,2.65,17.49,2.65s17.5-1.19,17.5-2.65V329Z"/><g class="cls-24"><path class="cls-12" d="M174.61,336.44H149a.69.69,0,0,1-.47-.2,2.14,2.14,0,0,1-.56-1.43v-4.94c0-.95.48-1.71,1-1.71h22.46a18.38,18.38,0,0,0,3,8.08l.16.2Z"/></g><path class="cls-1" d="M188.2,328.6c0,.68-6.23,1.23-13.91,1.23s-13.91-.55-13.91-1.23,6.23-1.24,13.91-1.24,13.91.55,13.91,1.24Z"/><path class="cls-13" d="M161,329c1.74-.5,7-.87,13.31-.87s11.58.37,13.31.87c.39-.11.6-.23.6-.35,0-.69-6.23-1.24-13.91-1.24s-13.91.55-13.91,1.24c0,.12.22.24.6.35Z"/><g class="cls-25"><polygon class="cls-12" points="190.57 327.2 190.57 336.9 191.4 336.9 191.4 327.2 190.57 327.2 190.57 327.2"/><polygon class="cls-12" points="188.43 336.9 189.26 336.9 189.26 327.2 188.43 327.2 188.43 336.9 188.43 336.9"/><polygon class="cls-12" points="185.98 336.9 186.8 336.9 186.8 327.2 185.98 327.2 185.98 336.9 185.98 336.9"/><polygon class="cls-12" points="182.92 336.9 183.75 336.9 183.75 327.2 182.92 327.2 182.92 336.9 182.92 336.9"/><polygon class="cls-12" points="179.55 336.9 180.38 336.9 180.38 327.2 179.55 327.2 179.55 336.9 179.55 336.9"/><polygon class="cls-12" points="175.89 336.9 176.72 336.9 176.72 327.2 175.89 327.2 175.89 336.9 175.89 336.9"/></g><path class="cls-15" d="M191.79,328.87c0,1.47-7.84,2.66-17.5,2.66s-17.49-1.19-17.49-2.66,7.83-2.65,17.49-2.65,17.5,1.19,17.5,2.65Z"/><path class="cls-1" d="M189,328.7c0,.68-6.23,1.23-13.91,1.23s-13.91-.55-13.91-1.23,6.23-1.24,13.91-1.24S189,328,189,328.7Z"/><path class="cls-12" d="M161.79,329.06c1.73-.51,7-.88,13.31-.88s11.58.37,13.31.88c.39-.12.6-.24.6-.36,0-.68-6.23-1.24-13.91-1.24s-13.91.56-13.91,1.24c0,.12.21.24.6.36Z"/><path class="cls-1" d="M159.37,323.51v4.23c0,1.46,7.84,2.65,17.5,2.65s17.49-1.19,17.49-2.65v-4.23Z"/><g class="cls-26"><path class="cls-12" d="M177.19,331h-25.6a.74.74,0,0,1-.48-.21,2.14,2.14,0,0,1-.55-1.42v-4.95c0-.95.48-1.71,1-1.71H174a18.28,18.28,0,0,0,3,8.08l.16.21Z"/></g><path class="cls-1" d="M190.78,323.15c0,.68-6.23,1.23-13.91,1.23S163,323.83,163,323.15s6.23-1.24,13.91-1.24,13.91.56,13.91,1.24Z"/><path class="cls-13" d="M163.56,323.51c1.73-.51,7-.88,13.31-.88s11.57.37,13.31.88c.39-.12.6-.24.6-.36,0-.68-6.23-1.24-13.91-1.24s-13.91.56-13.91,1.24c0,.12.21.24.6.36Z"/><g class="cls-27"><polygon class="cls-12" points="193.15 321.75 193.15 331.45 193.98 331.45 193.98 321.75 193.15 321.75 193.15 321.75"/><polygon class="cls-12" points="191 331.45 191.83 331.45 191.83 321.75 191 321.75 191 331.45 191 331.45"/><polygon class="cls-12" points="188.55 331.45 189.38 331.45 189.38 321.75 188.55 321.75 188.55 331.45 188.55 331.45"/><polygon class="cls-12" points="185.49 331.45 186.32 331.45 186.32 321.75 185.49 321.75 185.49 331.45 185.49 331.45"/><polygon class="cls-12" points="182.13 331.45 182.96 331.45 182.96 321.75 182.13 321.75 182.13 331.45 182.13 331.45"/><polygon class="cls-12" points="178.46 331.45 179.29 331.45 179.29 321.75 178.46 321.75 178.46 331.45 178.46 331.45"/></g><path class="cls-15" d="M194.36,323.43c0,1.46-7.83,2.65-17.49,2.65s-17.5-1.19-17.5-2.65,7.84-2.66,17.5-2.66,17.49,1.19,17.49,2.66Z"/><path class="cls-1" d="M191.58,323.25c0,.68-6.22,1.23-13.9,1.23s-13.91-.55-13.91-1.23S170,322,177.68,322s13.9.55,13.9,1.23Z"/><path class="cls-12" d="M164.37,323.61c1.73-.51,7-.88,13.31-.88s11.57.37,13.3.88c.39-.12.6-.24.6-.36,0-.68-6.22-1.23-13.9-1.23s-13.91.55-13.91,1.23c0,.12.21.24.6.36Z"/><path class="cls-1" d="M161.85,318.56v4.24c0,1.46,7.83,2.65,17.49,2.65s17.5-1.19,17.5-2.65v-4.24Z"/><g class="cls-28"><path class="cls-12" d="M179.66,326.05h-25.6a.69.69,0,0,1-.47-.2,2.11,2.11,0,0,1-.55-1.42s0-.06,0-.09v-4.86c0-1,.49-1.71,1-1.71h22.46a18.28,18.28,0,0,0,3,8.08l.15.2Z"/></g><path class="cls-1" d="M193.25,318.21c0,.68-6.22,1.23-13.91,1.23s-13.9-.55-13.9-1.23,6.22-1.24,13.9-1.24,13.91.55,13.91,1.24Z"/><path class="cls-13" d="M166,318.56c1.73-.5,7-.87,13.3-.87s11.58.37,13.31.87c.39-.11.6-.23.6-.35,0-.68-6.22-1.24-13.91-1.24s-13.9.56-13.9,1.24c0,.12.21.24.6.35Z"/><g class="cls-29"><polygon class="cls-12" points="195.63 316.81 195.63 326.51 196.46 326.51 196.46 316.81 195.63 316.81 195.63 316.81"/><polygon class="cls-12" points="193.48 326.51 194.31 326.51 194.31 316.81 193.48 316.81 193.48 326.51 193.48 326.51"/><polygon class="cls-12" points="191.03 326.51 191.86 326.51 191.86 316.81 191.03 316.81 191.03 326.51 191.03 326.51"/><polygon class="cls-12" points="187.97 326.51 188.8 326.51 188.8 316.81 187.97 316.81 187.97 326.51 187.97 326.51"/><polygon class="cls-12" points="184.61 326.51 185.44 326.51 185.44 316.81 184.61 316.81 184.61 326.51 184.61 326.51"/><polygon class="cls-12" points="180.94 326.51 181.77 326.51 181.77 316.81 180.94 316.81 180.94 326.51 180.94 326.51"/></g><path class="cls-15" d="M196.84,318.49c0,1.46-7.83,2.65-17.5,2.65s-17.49-1.19-17.49-2.65,7.83-2.66,17.49-2.66,17.5,1.19,17.5,2.66Z"/><path class="cls-1" d="M194.06,318.31c0,.68-6.23,1.23-13.91,1.23s-13.91-.55-13.91-1.23,6.23-1.24,13.91-1.24,13.91.56,13.91,1.24Z"/><path class="cls-12" d="M166.84,318.67c1.74-.51,7-.88,13.31-.88s11.58.37,13.31.88c.39-.12.6-.24.6-.36,0-.68-6.23-1.24-13.91-1.24s-13.91.56-13.91,1.24c0,.12.22.24.6.36Z"/><path class="cls-1" d="M159.8,313.39v4.23c0,1.47,7.83,2.66,17.49,2.66s17.49-1.19,17.49-2.66v-4.23Z"/><g class="cls-30"><path class="cls-12" d="M177.61,320.88H152a.73.73,0,0,1-.48-.2,2.19,2.19,0,0,1-.55-1.43v-4.94c0-.95.48-1.71,1-1.71h22.46a18.13,18.13,0,0,0,3,8.08l.16.2Z"/></g><path class="cls-1" d="M191.2,313c0,.68-6.23,1.24-13.91,1.24s-13.91-.56-13.91-1.24,6.23-1.23,13.91-1.23,13.91.55,13.91,1.23Z"/><path class="cls-13" d="M164,313.39c1.73-.5,7-.87,13.31-.87s11.58.37,13.31.87c.39-.11.6-.23.6-.36,0-.68-6.23-1.23-13.91-1.23s-13.91.55-13.91,1.23c0,.13.21.25.6.36Z"/><g class="cls-31"><polygon class="cls-12" points="193.57 311.63 193.57 321.33 194.4 321.33 194.4 311.63 193.57 311.63 193.57 311.63"/><polygon class="cls-12" points="191.43 321.33 192.25 321.33 192.25 311.63 191.43 311.63 191.43 321.33 191.43 321.33"/><polygon class="cls-12" points="188.97 321.33 189.8 321.33 189.8 311.63 188.97 311.63 188.97 321.33 188.97 321.33"/><polygon class="cls-12" points="185.91 321.33 186.74 321.33 186.74 311.63 185.91 311.63 185.91 321.33 185.91 321.33"/><polygon class="cls-12" points="182.55 321.33 183.38 321.33 183.38 311.63 182.55 311.63 182.55 321.33 182.55 321.33"/><polygon class="cls-12" points="178.88 321.33 179.71 321.33 179.71 311.63 178.88 311.63 178.88 321.33 178.88 321.33"/></g><path class="cls-15" d="M194.78,313.31c0,1.47-7.83,2.66-17.49,2.66s-17.49-1.19-17.49-2.66,7.83-2.65,17.49-2.65,17.49,1.19,17.49,2.65Z"/><path class="cls-1" d="M192,313.13c0,.68-6.23,1.24-13.91,1.24s-13.91-.56-13.91-1.24,6.23-1.23,13.91-1.23,13.91.55,13.91,1.23Z"/><path class="cls-12" d="M164.79,313.49c1.73-.5,7-.87,13.31-.87s11.57.37,13.31.87c.38-.11.6-.23.6-.36,0-.68-6.23-1.23-13.91-1.23s-13.91.55-13.91,1.23c0,.13.21.25.6.36Z"/><path class="cls-1" d="M158.56,307.93v4.23c0,1.47,7.83,2.66,17.49,2.66s17.5-1.19,17.5-2.66v-4.23Z"/><g class="cls-32"><path class="cls-12" d="M176.37,315.42h-25.6a.69.69,0,0,1-.47-.2,2.09,2.09,0,0,1-.55-1.43.22.22,0,0,1,0-.08v-4.86c0-1,.48-1.71,1-1.71h22.46a18.38,18.38,0,0,0,3,8.08l.16.2Z"/></g><path class="cls-1" d="M190,307.57c0,.68-6.23,1.24-13.91,1.24s-13.91-.56-13.91-1.24,6.23-1.23,13.91-1.23,13.91.55,13.91,1.23Z"/><path class="cls-13" d="M162.74,307.93c1.74-.5,7-.87,13.31-.87s11.58.37,13.31.87c.39-.11.6-.23.6-.36,0-.68-6.23-1.23-13.91-1.23s-13.91.55-13.91,1.23c0,.13.22.25.6.36Z"/><g class="cls-33"><polygon class="cls-12" points="192.34 306.17 192.34 315.87 193.16 315.87 193.16 306.17 192.34 306.17 192.34 306.17"/><polygon class="cls-12" points="190.19 315.87 191.02 315.87 191.02 306.17 190.19 306.17 190.19 315.87 190.19 315.87"/><polygon class="cls-12" points="187.74 315.87 188.56 315.87 188.56 306.17 187.74 306.17 187.74 315.87 187.74 315.87"/><polygon class="cls-12" points="184.68 315.87 185.51 315.87 185.51 306.17 184.68 306.17 184.68 315.87 184.68 315.87"/><polygon class="cls-12" points="181.31 315.87 182.14 315.87 182.14 306.17 181.31 306.17 181.31 315.87 181.31 315.87"/><polygon class="cls-12" points="177.65 315.87 178.48 315.87 178.48 306.17 177.65 306.17 177.65 315.87 177.65 315.87"/></g><path class="cls-15" d="M193.55,307.85c0,1.47-7.84,2.66-17.5,2.66s-17.49-1.19-17.49-2.66,7.83-2.65,17.49-2.65,17.5,1.18,17.5,2.65Z"/><path class="cls-1" d="M190.77,307.67c0,.68-6.23,1.24-13.91,1.24S163,308.35,163,307.67s6.23-1.23,13.91-1.23,13.91.55,13.91,1.23Z"/><path class="cls-12" d="M163.55,308c1.73-.5,7-.87,13.31-.87s11.58.37,13.31.87c.39-.11.6-.23.6-.36,0-.68-6.23-1.23-13.91-1.23S163,307,163,307.67c0,.13.21.25.6.36Z"/><path class="cls-1" d="M161,303v4.23c0,1.47,7.84,2.66,17.5,2.66S196,308.69,196,307.22V303Z"/><g class="cls-34"><path class="cls-12" d="M178.85,310.48h-25.6a.73.73,0,0,1-.48-.2,2.19,2.19,0,0,1-.55-1.43v-5c0-.94.48-1.71,1-1.71H175.7a18.31,18.31,0,0,0,3,8.09l.16.2Z"/></g><path class="cls-1" d="M192.44,302.63c0,.68-6.23,1.23-13.91,1.23s-13.91-.55-13.91-1.23,6.23-1.23,13.91-1.23,13.91.55,13.91,1.23Z"/><path class="cls-13" d="M165.22,303c1.73-.51,7-.87,13.31-.87s11.57.36,13.31.87c.39-.11.6-.23.6-.36,0-.68-6.23-1.23-13.91-1.23s-13.91.55-13.91,1.23c0,.13.21.25.6.36Z"/><g class="cls-35"><polygon class="cls-12" points="194.81 301.23 194.81 310.93 195.64 310.93 195.64 301.23 194.81 301.23 194.81 301.23"/><polygon class="cls-12" points="192.66 310.93 193.49 310.93 193.49 301.23 192.66 301.23 192.66 310.93 192.66 310.93"/><polygon class="cls-12" points="190.21 310.93 191.04 310.93 191.04 301.23 190.21 301.23 190.21 310.93 190.21 310.93"/><polygon class="cls-12" points="187.15 310.93 187.98 310.93 187.98 301.23 187.15 301.23 187.15 310.93 187.15 310.93"/><polygon class="cls-12" points="183.79 310.93 184.62 310.93 184.62 301.23 183.79 301.23 183.79 310.93 183.79 310.93"/><polygon class="cls-12" points="180.12 310.93 180.95 310.93 180.95 301.23 180.12 301.23 180.12 310.93 180.12 310.93"/></g><path class="cls-15" d="M196,302.91c0,1.47-7.83,2.66-17.49,2.66s-17.5-1.19-17.5-2.66,7.84-2.66,17.5-2.66S196,301.44,196,302.91Z"/><path class="cls-1" d="M193.24,302.73c0,.68-6.22,1.24-13.9,1.24s-13.91-.56-13.91-1.24,6.22-1.23,13.91-1.23,13.9.55,13.9,1.23Z"/><path class="cls-12" d="M166,303.09c1.73-.5,7-.87,13.31-.87s11.57.37,13.3.87c.39-.11.6-.23.6-.36,0-.68-6.22-1.23-13.9-1.23s-13.91.55-13.91,1.23c0,.13.21.25.6.36Z"/><path class="cls-1" d="M159,297.82v4.23c0,1.46,7.83,2.65,17.49,2.65s17.5-1.19,17.5-2.65v-4.23Z"/><g class="cls-36"><path class="cls-12" d="M176.79,305.31h-25.6a.7.7,0,0,1-.47-.21,2.09,2.09,0,0,1-.55-1.42.25.25,0,0,1,0-.08v-4.87c0-1,.48-1.71,1-1.71h22.46a18.38,18.38,0,0,0,3,8.08l.16.21Z"/></g><path class="cls-1" d="M190.38,297.46c0,.68-6.23,1.23-13.91,1.23s-13.9-.55-13.9-1.23,6.22-1.23,13.9-1.23,13.91.55,13.91,1.23Z"/><path class="cls-13" d="M163.17,297.82c1.73-.51,7-.88,13.3-.88s11.58.37,13.31.88c.39-.12.6-.24.6-.36,0-.68-6.23-1.23-13.91-1.23s-13.9.55-13.9,1.23c0,.12.21.24.6.36Z"/><g class="cls-37"><polygon class="cls-12" points="192.76 296.06 192.76 305.76 193.59 305.76 193.59 296.06 192.76 296.06 192.76 296.06"/><polygon class="cls-12" points="190.61 305.76 191.44 305.76 191.44 296.06 190.61 296.06 190.61 305.76 190.61 305.76"/><polygon class="cls-12" points="188.16 305.76 188.99 305.76 188.99 296.06 188.16 296.06 188.16 305.76 188.16 305.76"/><polygon class="cls-12" points="185.1 305.76 185.93 305.76 185.93 296.06 185.1 296.06 185.1 305.76 185.1 305.76"/><polygon class="cls-12" points="181.74 305.76 182.56 305.76 182.56 296.06 181.74 296.06 181.74 305.76 181.74 305.76"/><polygon class="cls-12" points="178.07 305.76 178.9 305.76 178.9 296.06 178.07 296.06 178.07 305.76 178.07 305.76"/></g><path class="cls-15" d="M194,297.74c0,1.46-7.83,2.65-17.5,2.65S159,299.2,159,297.74s7.83-2.66,17.49-2.66,17.5,1.19,17.5,2.66Z"/><path class="cls-1" d="M191.19,297.56c0,.68-6.23,1.23-13.91,1.23s-13.91-.55-13.91-1.23,6.23-1.23,13.91-1.23,13.91.55,13.91,1.23Z"/><path class="cls-12" d="M164,297.92c1.74-.51,7-.88,13.31-.88s11.58.37,13.31.88c.39-.12.6-.24.6-.36,0-.68-6.23-1.23-13.91-1.23s-13.91.55-13.91,1.23c0,.12.21.24.6.36Z"/><path class="cls-1" d="M156.88,292.89v4.23c0,1.47,7.83,2.66,17.49,2.66s17.5-1.19,17.5-2.66v-4.23Z"/><g class="cls-38"><path class="cls-12" d="M174.69,300.38h-25.6a.69.69,0,0,1-.47-.2,2.14,2.14,0,0,1-.55-1.43s0-.05,0-.08v-4.86c0-.95.49-1.71,1-1.71h22.46a18.28,18.28,0,0,0,3,8.08l.15.2Z"/></g><path class="cls-1" d="M188.28,292.53c0,.68-6.22,1.24-13.91,1.24s-13.9-.56-13.9-1.24,6.22-1.23,13.9-1.23,13.91.55,13.91,1.23Z"/><path class="cls-13" d="M161.07,292.89c1.73-.5,7-.87,13.3-.87s11.58.37,13.31.87c.39-.11.6-.23.6-.36,0-.68-6.22-1.23-13.91-1.23s-13.9.55-13.9,1.23c0,.13.21.25.6.36Z"/><g class="cls-39"><polygon class="cls-12" points="190.66 291.13 190.66 300.83 191.49 300.83 191.49 291.13 190.66 291.13 190.66 291.13"/><polygon class="cls-12" points="188.51 300.83 189.34 300.83 189.34 291.13 188.51 291.13 188.51 300.83 188.51 300.83"/><polygon class="cls-12" points="186.06 300.83 186.89 300.83 186.89 291.13 186.06 291.13 186.06 300.83 186.06 300.83"/><polygon class="cls-12" points="183 300.83 183.83 300.83 183.83 291.13 183 291.13 183 300.83 183 300.83"/><polygon class="cls-12" points="179.64 300.83 180.47 300.83 180.47 291.13 179.64 291.13 179.64 300.83 179.64 300.83"/><polygon class="cls-12" points="175.97 300.83 176.8 300.83 176.8 291.13 175.97 291.13 175.97 300.83 175.97 300.83"/></g><path class="cls-15" d="M191.87,292.81c0,1.47-7.83,2.66-17.5,2.66s-17.49-1.19-17.49-2.66,7.83-2.65,17.49-2.65,17.5,1.19,17.5,2.65Z"/><path class="cls-1" d="M189.09,292.64c0,.68-6.23,1.23-13.91,1.23s-13.91-.55-13.91-1.23,6.23-1.24,13.91-1.24,13.91.55,13.91,1.24Z"/><path class="cls-12" d="M161.87,293c1.74-.5,7-.87,13.31-.87s11.58.37,13.31.87c.39-.11.6-.23.6-.35,0-.69-6.23-1.24-13.91-1.24s-13.91.55-13.91,1.24c0,.12.22.24.6.35Z"/><path class="cls-1" d="M159.36,288v4.23c0,1.47,7.83,2.66,17.49,2.66s17.5-1.19,17.5-2.66V288Z"/><g class="cls-40"><path class="cls-12" d="M177.17,295.44h-25.6a.69.69,0,0,1-.47-.2,2.14,2.14,0,0,1-.56-1.43v-4.94c0-.95.48-1.71,1-1.71H174a18.13,18.13,0,0,0,3,8.08l.16.2Z"/></g><path class="cls-1" d="M190.76,287.59c0,.68-6.23,1.24-13.91,1.24s-13.91-.56-13.91-1.24,6.23-1.23,13.91-1.23,13.91.55,13.91,1.23Z"/><path class="cls-13" d="M163.54,288c1.74-.5,7-.87,13.31-.87s11.58.37,13.31.87c.39-.11.6-.23.6-.36,0-.68-6.23-1.23-13.91-1.23s-13.91.55-13.91,1.23c0,.13.21.25.6.36Z"/><g class="cls-41"><polygon class="cls-12" points="193.13 286.19 193.13 295.89 193.96 295.89 193.96 286.19 193.13 286.19 193.13 286.19"/><polygon class="cls-12" points="190.99 295.89 191.81 295.89 191.81 286.19 190.99 286.19 190.99 295.89 190.99 295.89"/><polygon class="cls-12" points="188.53 295.89 189.36 295.89 189.36 286.19 188.53 286.19 188.53 295.89 188.53 295.89"/><polygon class="cls-12" points="185.48 295.89 186.3 295.89 186.3 286.19 185.48 286.19 185.48 295.89 185.48 295.89"/><polygon class="cls-12" points="182.11 295.89 182.94 295.89 182.94 286.19 182.11 286.19 182.11 295.89 182.11 295.89"/><polygon class="cls-12" points="178.45 295.89 179.28 295.89 179.28 286.19 178.45 286.19 178.45 295.89 178.45 295.89"/></g><path class="cls-15" d="M194.35,287.87c0,1.47-7.84,2.66-17.5,2.66s-17.49-1.19-17.49-2.66,7.83-2.65,17.49-2.65,17.5,1.18,17.5,2.65Z"/><path class="cls-1" d="M191.57,287.69c0,.68-6.23,1.24-13.91,1.24s-13.91-.56-13.91-1.24,6.23-1.23,13.91-1.23,13.91.55,13.91,1.23Z"/><path class="cls-12" d="M164.35,288.05c1.73-.5,7-.87,13.31-.87s11.57.37,13.31.87c.39-.11.6-.23.6-.36,0-.68-6.23-1.23-13.91-1.23s-13.91.55-13.91,1.23c0,.13.21.25.6.36Z"/><path class="cls-1" d="M157.3,282.78V287c0,1.47,7.83,2.65,17.5,2.65s17.49-1.18,17.49-2.65v-4.23Z"/><g class="cls-42"><path class="cls-12" d="M175.11,290.27H149.52a.68.68,0,0,1-.48-.21,2.09,2.09,0,0,1-.55-1.42v-.08a.28.28,0,0,1,0-.09v-4.68a.34.34,0,0,1,0-.1c0-.95.48-1.71,1-1.71H172a18.23,18.23,0,0,0,3,8.08l.15.21Z"/></g><path class="cls-1" d="M188.7,282.42c0,.68-6.22,1.23-13.9,1.23s-13.91-.55-13.91-1.23,6.23-1.23,13.91-1.23,13.9.55,13.9,1.23Z"/><path class="cls-13" d="M161.49,282.78c1.73-.51,7-.88,13.31-.88s11.57.37,13.3.88c.39-.12.6-.24.6-.36,0-.68-6.22-1.23-13.9-1.23s-13.91.55-13.91,1.23c0,.12.21.24.6.36Z"/><g class="cls-43"><polygon class="cls-12" points="191.08 281.02 191.08 290.72 191.91 290.72 191.91 281.02 191.08 281.02 191.08 281.02"/><polygon class="cls-12" points="188.93 290.72 189.76 290.72 189.76 281.02 188.93 281.02 188.93 290.72 188.93 290.72"/><polygon class="cls-12" points="186.48 290.72 187.31 290.72 187.31 281.02 186.48 281.02 186.48 290.72 186.48 290.72"/><polygon class="cls-12" points="183.42 290.72 184.25 290.72 184.25 281.02 183.42 281.02 183.42 290.72 183.42 290.72"/><polygon class="cls-12" points="180.06 290.72 180.89 290.72 180.89 281.02 180.06 281.02 180.06 290.72 180.06 290.72"/><polygon class="cls-12" points="176.39 290.72 177.22 290.72 177.22 281.02 176.39 281.02 176.39 290.72 176.39 290.72"/></g><path class="cls-15" d="M192.29,282.7c0,1.47-7.83,2.65-17.49,2.65s-17.5-1.18-17.5-2.65,7.83-2.66,17.5-2.66,17.49,1.19,17.49,2.66Z"/><path class="cls-1" d="M189.51,282.52c0,.68-6.23,1.23-13.91,1.23s-13.9-.55-13.9-1.23,6.22-1.23,13.9-1.23,13.91.55,13.91,1.23Z"/><path class="cls-12" d="M162.3,282.88c1.73-.51,7-.88,13.3-.88s11.58.37,13.31.88c.39-.11.6-.23.6-.36,0-.68-6.23-1.23-13.91-1.23s-13.9.55-13.9,1.23c0,.13.21.25.6.36Z"/><path class="cls-1" d="M194.82,355.17v4.24c0,1.46,7.84,2.65,17.5,2.65s17.49-1.19,17.49-2.65v-4.24Z"/><g class="cls-44"><path class="cls-12" d="M212.64,362.67H187a.74.74,0,0,1-.48-.21A2.16,2.16,0,0,1,186,361v-5c0-.95.48-1.71,1-1.71h22.45a18.28,18.28,0,0,0,3,8.08l.16.21Z"/></g><path class="cls-1" d="M226.23,354.82c0,.68-6.23,1.23-13.91,1.23s-13.91-.55-13.91-1.23,6.23-1.24,13.91-1.24,13.91.56,13.91,1.24Z"/><path class="cls-13" d="M199,355.17c1.73-.5,7-.87,13.31-.87s11.57.37,13.31.87c.39-.11.6-.23.6-.35,0-.68-6.23-1.24-13.91-1.24s-13.91.56-13.91,1.24c0,.12.21.24.6.35Z"/><g class="cls-45"><polygon class="cls-12" points="228.6 353.42 228.6 363.12 229.43 363.12 229.43 353.42 228.6 353.42 228.6 353.42"/><polygon class="cls-12" points="226.45 363.12 227.28 363.12 227.28 353.42 226.45 353.42 226.45 363.12 226.45 363.12"/><polygon class="cls-12" points="224 363.12 224.83 363.12 224.83 353.42 224 353.42 224 363.12 224 363.12"/><polygon class="cls-12" points="220.94 363.12 221.77 363.12 221.77 353.42 220.94 353.42 220.94 363.12 220.94 363.12"/><polygon class="cls-12" points="217.58 363.12 218.41 363.12 218.41 353.42 217.58 353.42 217.58 363.12 217.58 363.12"/><polygon class="cls-12" points="213.91 363.12 214.74 363.12 214.74 353.42 213.91 353.42 213.91 363.12 213.91 363.12"/></g><path class="cls-15" d="M229.81,355.1c0,1.46-7.83,2.65-17.49,2.65s-17.5-1.19-17.5-2.65,7.84-2.66,17.5-2.66,17.49,1.19,17.49,2.66Z"/><path class="cls-1" d="M227,354.92c0,.68-6.22,1.23-13.9,1.23s-13.91-.55-13.91-1.23,6.22-1.24,13.91-1.24,13.9.56,13.9,1.24Z"/><path class="cls-12" d="M199.82,355.28c1.73-.51,7-.88,13.31-.88s11.57.37,13.3.88c.39-.12.6-.24.6-.36,0-.68-6.22-1.24-13.9-1.24s-13.91.56-13.91,1.24c0,.12.21.24.6.36Z"/><path class="cls-1" d="M197.3,350.23v4.23c0,1.47,7.83,2.66,17.49,2.66s17.5-1.19,17.5-2.66v-4.23Z"/><g class="cls-46"><path class="cls-12" d="M215.11,357.72h-25.6a.69.69,0,0,1-.47-.2,2.14,2.14,0,0,1-.55-1.43s0,0,0-.08v-4.86c0-.95.48-1.71,1-1.71H212a18.28,18.28,0,0,0,3,8.08l.15.2Z"/></g><path class="cls-1" d="M228.7,349.87c0,.69-6.22,1.24-13.91,1.24s-13.9-.55-13.9-1.24,6.22-1.23,13.9-1.23,13.91.55,13.91,1.23Z"/><path class="cls-13" d="M201.49,350.23c1.73-.5,7-.87,13.3-.87s11.58.37,13.31.87c.39-.11.6-.23.6-.36,0-.68-6.22-1.23-13.91-1.23s-13.9.55-13.9,1.23c0,.13.21.25.6.36Z"/><g class="cls-47"><polygon class="cls-12" points="231.08 348.48 231.08 358.18 231.91 358.18 231.91 348.48 231.08 348.48 231.08 348.48"/><polygon class="cls-12" points="228.93 358.18 229.76 358.18 229.76 348.48 228.93 348.48 228.93 358.18 228.93 358.18"/><polygon class="cls-12" points="226.48 358.18 227.31 358.18 227.31 348.48 226.48 348.48 226.48 358.18 226.48 358.18"/><polygon class="cls-12" points="223.42 358.18 224.25 358.18 224.25 348.48 223.42 348.48 223.42 358.18 223.42 358.18"/><polygon class="cls-12" points="220.06 358.18 220.88 358.18 220.88 348.48 220.06 348.48 220.06 358.18 220.06 358.18"/><polygon class="cls-12" points="216.39 358.18 217.22 358.18 217.22 348.48 216.39 348.48 216.39 358.18 216.39 358.18"/></g><path class="cls-15" d="M232.29,350.15c0,1.47-7.83,2.66-17.5,2.66s-17.49-1.19-17.49-2.66,7.83-2.65,17.49-2.65,17.5,1.19,17.5,2.65Z"/><path class="cls-1" d="M229.51,350c0,.68-6.23,1.23-13.91,1.23s-13.91-.55-13.91-1.23,6.23-1.24,13.91-1.24,13.91.56,13.91,1.24Z"/><path class="cls-12" d="M202.29,350.33c1.74-.5,7-.87,13.31-.87s11.58.37,13.31.87c.39-.11.6-.23.6-.35,0-.68-6.23-1.24-13.91-1.24s-13.91.56-13.91,1.24c0,.12.22.24.6.35Z"/><path class="cls-1" d="M195.25,345.06v4.23c0,1.47,7.83,2.66,17.49,2.66s17.49-1.19,17.49-2.66v-4.23Z"/><g class="cls-48"><path class="cls-12" d="M213.06,352.55h-25.6a.73.73,0,0,1-.48-.2,2.19,2.19,0,0,1-.55-1.43V346c0-.94.48-1.71,1-1.71h22.45a18.31,18.31,0,0,0,3,8.09l.16.2Z"/></g><path class="cls-1" d="M226.65,344.7c0,.68-6.23,1.23-13.91,1.23s-13.91-.55-13.91-1.23,6.23-1.23,13.91-1.23,13.91.55,13.91,1.23Z"/><path class="cls-13" d="M199.43,345.06c1.73-.51,7-.87,13.31-.87s11.58.36,13.31.87c.39-.11.6-.23.6-.36,0-.68-6.23-1.23-13.91-1.23s-13.91.55-13.91,1.23c0,.13.21.25.6.36Z"/><g class="cls-49"><polygon class="cls-12" points="229.02 343.3 229.02 353 229.85 353 229.85 343.3 229.02 343.3 229.02 343.3"/><polygon class="cls-12" points="226.88 353 227.7 353 227.7 343.3 226.88 343.3 226.88 353 226.88 353"/><polygon class="cls-12" points="224.42 353 225.25 353 225.25 343.3 224.42 343.3 224.42 353 224.42 353"/><polygon class="cls-12" points="221.37 353 222.19 353 222.19 343.3 221.37 343.3 221.37 353 221.37 353"/><polygon class="cls-12" points="218 353 218.83 353 218.83 343.3 218 343.3 218 353 218 353"/><polygon class="cls-12" points="214.34 353 215.16 353 215.16 343.3 214.34 343.3 214.34 353 214.34 353"/></g><path class="cls-15" d="M230.23,345c0,1.47-7.83,2.66-17.49,2.66s-17.49-1.19-17.49-2.66,7.83-2.66,17.49-2.66,17.49,1.19,17.49,2.66Z"/><path class="cls-1" d="M227.45,344.8c0,.68-6.22,1.24-13.9,1.24s-13.91-.56-13.91-1.24,6.23-1.23,13.91-1.23,13.9.55,13.9,1.23Z"/><path class="cls-12" d="M200.24,345.16c1.73-.5,7-.87,13.31-.87s11.57.37,13.31.87c.38-.11.59-.23.59-.36,0-.68-6.22-1.23-13.9-1.23s-13.91.55-13.91,1.23c0,.13.21.25.6.36Z"/><path class="cls-1" d="M194.82,340.05v4.23c0,1.47,7.84,2.66,17.5,2.66s17.49-1.19,17.49-2.66v-4.23Z"/><g class="cls-50"><path class="cls-12" d="M212.64,347.54H187a.73.73,0,0,1-.48-.2,2.19,2.19,0,0,1-.55-1.43V341c0-1,.48-1.71,1-1.71h22.45a18.28,18.28,0,0,0,3,8.08,1.56,1.56,0,0,0,.16.2Z"/></g><path class="cls-1" d="M226.23,339.69c0,.69-6.23,1.24-13.91,1.24s-13.91-.55-13.91-1.24,6.23-1.23,13.91-1.23,13.91.55,13.91,1.23Z"/><path class="cls-13" d="M199,340.05c1.73-.5,7-.87,13.31-.87s11.57.37,13.31.87c.39-.11.6-.23.6-.36,0-.68-6.23-1.23-13.91-1.23s-13.91.55-13.91,1.23c0,.13.21.25.6.36Z"/><g class="cls-51"><polygon class="cls-12" points="228.6 338.3 228.6 348 229.43 348 229.43 338.3 228.6 338.3 228.6 338.3"/><polygon class="cls-12" points="226.45 348 227.28 348 227.28 338.3 226.45 338.3 226.45 348 226.45 348"/><polygon class="cls-12" points="224 348 224.83 348 224.83 338.3 224 338.3 224 348 224 348"/><polygon class="cls-12" points="220.94 348 221.77 348 221.77 338.3 220.94 338.3 220.94 348 220.94 348"/><polygon class="cls-12" points="217.58 348 218.41 348 218.41 338.3 217.58 338.3 217.58 348 217.58 348"/><polygon class="cls-12" points="213.91 348 214.74 348 214.74 338.3 213.91 338.3 213.91 348 213.91 348"/></g><path class="cls-15" d="M229.81,340c0,1.47-7.83,2.66-17.49,2.66s-17.5-1.19-17.5-2.66,7.84-2.65,17.5-2.65,17.49,1.19,17.49,2.65Z"/><path class="cls-1" d="M227,339.8c0,.68-6.22,1.23-13.9,1.23s-13.91-.55-13.91-1.23,6.22-1.24,13.91-1.24,13.9.56,13.9,1.24Z"/><path class="cls-12" d="M199.82,340.15c1.73-.5,7-.87,13.31-.87s11.57.37,13.3.87c.39-.11.6-.23.6-.35,0-.68-6.22-1.24-13.9-1.24s-13.91.56-13.91,1.24c0,.12.21.24.6.35Z"/><path class="cls-1" d="M197.3,335.11v4.23c0,1.47,7.83,2.66,17.49,2.66s17.5-1.19,17.5-2.66v-4.23Z"/><g class="cls-52"><path class="cls-12" d="M215.11,342.6h-25.6a.69.69,0,0,1-.47-.2,2.14,2.14,0,0,1-.55-1.43s0-.05,0-.08V336c0-.95.48-1.71,1-1.71H212a18.28,18.28,0,0,0,3,8.08l.15.2Z"/></g><path class="cls-1" d="M228.7,334.75c0,.68-6.22,1.24-13.91,1.24s-13.9-.56-13.9-1.24,6.22-1.23,13.9-1.23,13.91.55,13.91,1.23Z"/><path class="cls-13" d="M201.49,335.11c1.73-.5,7-.87,13.3-.87s11.58.37,13.31.87c.39-.11.6-.23.6-.36,0-.68-6.22-1.23-13.91-1.23s-13.9.55-13.9,1.23c0,.13.21.25.6.36Z"/><g class="cls-53"><polygon class="cls-12" points="231.08 333.36 231.08 343.05 231.91 343.05 231.91 333.36 231.08 333.36 231.08 333.36"/><polygon class="cls-12" points="228.93 343.05 229.76 343.05 229.76 333.36 228.93 333.36 228.93 343.05 228.93 343.05"/><polygon class="cls-12" points="226.48 343.05 227.31 343.05 227.31 333.36 226.48 333.36 226.48 343.05 226.48 343.05"/><polygon class="cls-12" points="223.42 343.05 224.25 343.05 224.25 333.36 223.42 333.36 223.42 343.05 223.42 343.05"/><polygon class="cls-12" points="220.06 343.05 220.88 343.05 220.88 333.36 220.06 333.36 220.06 343.05 220.06 343.05"/><polygon class="cls-12" points="216.39 343.05 217.22 343.05 217.22 333.36 216.39 333.36 216.39 343.05 216.39 343.05"/></g><path class="cls-15" d="M232.29,335c0,1.47-7.83,2.66-17.5,2.66S197.3,336.5,197.3,335s7.83-2.65,17.49-2.65,17.5,1.19,17.5,2.65Z"/><path class="cls-1" d="M229.51,334.85c0,.69-6.23,1.24-13.91,1.24s-13.91-.55-13.91-1.24,6.23-1.23,13.91-1.23,13.91.55,13.91,1.23Z"/><path class="cls-12" d="M202.29,335.21c1.74-.5,7-.87,13.31-.87s11.58.37,13.31.87c.39-.11.6-.23.6-.36,0-.68-6.23-1.23-13.91-1.23s-13.91.55-13.91,1.23c0,.13.22.25.6.36Z"/><path class="cls-1" d="M195.25,329.94v4.23c0,1.47,7.83,2.66,17.49,2.66s17.49-1.19,17.49-2.66v-4.23Z"/><g class="cls-54"><path class="cls-12" d="M213.06,337.43h-25.6a.73.73,0,0,1-.48-.2,2.19,2.19,0,0,1-.55-1.43v-4.95c0-.94.48-1.71,1-1.71h22.45a18.31,18.31,0,0,0,3,8.09l.16.2Z"/></g><path class="cls-1" d="M226.65,329.58c0,.68-6.23,1.23-13.91,1.23s-13.91-.55-13.91-1.23,6.23-1.23,13.91-1.23,13.91.55,13.91,1.23Z"/><path class="cls-13" d="M199.43,329.94c1.73-.51,7-.88,13.31-.88s11.58.37,13.31.88c.39-.11.6-.23.6-.36,0-.68-6.23-1.23-13.91-1.23s-13.91.55-13.91,1.23c0,.13.21.25.6.36Z"/><g class="cls-55"><polygon class="cls-12" points="229.02 328.18 229.02 337.88 229.85 337.88 229.85 328.18 229.02 328.18 229.02 328.18"/><polygon class="cls-12" points="226.88 337.88 227.7 337.88 227.7 328.18 226.88 328.18 226.88 337.88 226.88 337.88"/><polygon class="cls-12" points="224.42 337.88 225.25 337.88 225.25 328.18 224.42 328.18 224.42 337.88 224.42 337.88"/><polygon class="cls-12" points="221.37 337.88 222.19 337.88 222.19 328.18 221.37 328.18 221.37 337.88 221.37 337.88"/><polygon class="cls-12" points="218 337.88 218.83 337.88 218.83 328.18 218 328.18 218 337.88 218 337.88"/><polygon class="cls-12" points="214.34 337.88 215.16 337.88 215.16 328.18 214.34 328.18 214.34 337.88 214.34 337.88"/></g><path class="cls-15" d="M230.23,329.86c0,1.47-7.83,2.66-17.49,2.66s-17.49-1.19-17.49-2.66,7.83-2.66,17.49-2.66,17.49,1.19,17.49,2.66Z"/><path class="cls-1" d="M227.45,329.68c0,.68-6.22,1.23-13.9,1.23s-13.91-.55-13.91-1.23,6.23-1.23,13.91-1.23,13.9.55,13.9,1.23Z"/><path class="cls-12" d="M200.24,330c1.73-.51,7-.87,13.31-.87s11.57.36,13.31.87c.38-.11.59-.23.59-.36,0-.68-6.22-1.23-13.9-1.23s-13.91.55-13.91,1.23c0,.13.21.25.6.36Z"/><path class="cls-15" d="M232.29,337.84a25,25,0,1,1,25,25,25,25,0,0,1-25-25Z"/><path class="cls-56" d="M257.3,316.7a21.44,21.44,0,1,0,21.44,21.43A21.46,21.46,0,0,0,257.3,316.7Zm0,44.23a22.81,22.81,0,1,1,16.12-6.68,22.62,22.62,0,0,1-16.12,6.68Z"/><path class="cls-56" d="M260.44,344.75a3.8,3.8,0,0,0-.05-1.32,2.81,2.81,0,0,0-.56-1.1,5.29,5.29,0,0,0-1.12-1,13.9,13.9,0,0,0-1.73-1,35.94,35.94,0,0,1-3.21-1.76,11.31,11.31,0,0,1-2.39-1.95,6.47,6.47,0,0,1-1.41-2.37,7,7,0,0,1-.25-3,6.88,6.88,0,0,1,.85-2.66,6.26,6.26,0,0,1,1.77-2,7.91,7.91,0,0,1,2.53-1.21,10.6,10.6,0,0,1,3.16-.36l.44-3.76,3,.36-.46,3.81a9.39,9.39,0,0,1,2.85,1.21,7.09,7.09,0,0,1,3.18,4.57,9.29,9.29,0,0,1,.13,3.23l-5.46-.65a4.67,4.67,0,0,0-.56-3.26,3.21,3.21,0,0,0-2.38-1.34,4.07,4.07,0,0,0-1.5.06,2.8,2.8,0,0,0-1.08.53,2.52,2.52,0,0,0-.71.9,3.81,3.81,0,0,0-.33,1.19,3.63,3.63,0,0,0,0,1.2,2.4,2.4,0,0,0,.54,1.05,4.91,4.91,0,0,0,1.13,1,15.83,15.83,0,0,0,1.8,1c1.17.61,2.22,1.21,3.17,1.8a11.56,11.56,0,0,1,2.38,2,6.46,6.46,0,0,1,1.66,5.4,6.76,6.76,0,0,1-.87,2.71,6.36,6.36,0,0,1-1.77,1.95,7.62,7.62,0,0,1-2.55,1.15,11,11,0,0,1-3.17.34l-.41,3.49-3-.35.41-3.48a13.26,13.26,0,0,1-2.95-1,8.27,8.27,0,0,1-2.42-1.83,7.28,7.28,0,0,1-1.51-2.72,8.64,8.64,0,0,1-.25-3.69l5.46.64a5.41,5.41,0,0,0,.1,2.13,3.57,3.57,0,0,0,.78,1.44A3.3,3.3,0,0,0,255,347a5.93,5.93,0,0,0,1.49.38,4.88,4.88,0,0,0,1.59,0,3.24,3.24,0,0,0,1.2-.5,2.53,2.53,0,0,0,.79-.87,3.14,3.14,0,0,0,.37-1.18Z"/><path class="cls-57" d="M143.7,395.69H125a2.08,2.08,0,0,1-2.07-2.08V380.13h22.82v13.48a2.08,2.08,0,0,1-2.08,2.08Z"/><path class="cls-57" d="M313.83,395.69H295.16a2.08,2.08,0,0,1-2.07-2.08V380.13h22.82v13.48a2.08,2.08,0,0,1-2.08,2.08Z"/><path class="cls-58" d="M305.87,220.29v-38h0v38m0-38h0m0,0h0m0,0h0"/><path class="cls-6" d="M289.71,232.32a15.09,15.09,0,1,0-15.09,15.09,15.09,15.09,0,0,0,15.09-15.09Z"/><path class="cls-3" d="M283.82,233.05a9.2,9.2,0,1,0-9.2,9.2,9.19,9.19,0,0,0,9.2-9.2Z"/><path class="cls-59" d="M274.62,268.89h0a6,6,0,0,1-6-6V234.08a6,6,0,1,1,12,0v28.81a6,6,0,0,1-6,6Z"/><path class="cls-3" d="M145.68,226.68H129.54v-12.9h16.14a6.44,6.44,0,0,1,6.45,6.45h0a6.44,6.44,0,0,1-6.45,6.45Z"/><polygon class="cls-3" points="136.92 226.69 129.54 226.69 129.54 193.95 136.92 193.95 136.92 226.69 136.92 226.69"/><path class="cls-3" d="M145.68,315.44H129.54v12.91h16.14a6.45,6.45,0,0,0,6.45-6.46h0a6.45,6.45,0,0,0-6.45-6.45Z"/><polygon class="cls-3" points="136.92 315.44 129.54 315.44 129.54 348.17 136.92 348.17 136.92 315.44 136.92 315.44"/><path class="cls-6" d="M204.45,238.22A21.44,21.44,0,1,0,183,259.65a21.44,21.44,0,0,0,21.43-21.43Z"/><path class="cls-3" d="M198.36,238.22A15.35,15.35,0,1,0,183,253.56a15.34,15.34,0,0,0,15.34-15.34Z"/><path class="cls-59" d="M192.28,238.22a9.27,9.27,0,1,0-9.26,9.26,9.27,9.27,0,0,0,9.26-9.26Z"/><path class="cls-59" d="M183,225.43h0a.51.51,0,0,1-.51-.5v-2.51a.51.51,0,0,1,1,0v2.51a.51.51,0,0,1-.5.5Z"/><path class="cls-59" d="M174,229.12h0a.51.51,0,0,1-.71,0l-1.77-1.77a.5.5,0,0,1,.71-.71l1.77,1.77a.51.51,0,0,1,0,.71Z"/><path class="cls-59" d="M170.18,238.12h0a.5.5,0,0,1-.5.5h-2.51a.5.5,0,0,1-.5-.5.51.51,0,0,1,.5-.5h2.51a.51.51,0,0,1,.5.5Z"/><path class="cls-59" d="M173.87,247.17h0a.51.51,0,0,1,0,.71l-1.77,1.77a.5.5,0,0,1-.71-.71l1.77-1.77a.51.51,0,0,1,.71,0Z"/><path class="cls-59" d="M191.92,247.27h0a.51.51,0,0,1,.71,0L194.4,249a.5.5,0,0,1-.71.71L191.92,248a.51.51,0,0,1,0-.71Z"/><path class="cls-59" d="M195.71,238.26h0a.51.51,0,0,1,.5-.5h2.51a.51.51,0,0,1,0,1h-2.51a.51.51,0,0,1-.5-.51Z"/><path class="cls-59" d="M183.14,254.79h0a.5.5,0,0,1-.5-.5v-2.5a.5.5,0,0,1,.5-.5.5.5,0,0,1,.5.5v2.5a.5.5,0,0,1-.5.5Z"/><path class="cls-60" d="M379.72,218.32a13.51,13.51,0,0,1,2.89-2,19.08,19.08,0,0,1,3.25-1.4,17,17,0,0,1,3.46-.77,13,13,0,0,1,3.53,0c-1.15.3-2.27.51-3.37.83s-2.2.6-3.28,1c-2.17.69-4.29,1.53-6.48,2.37Z"/><path class="cls-61" d="M336.53,206.49s-.18-7.66,4.67-10.3l4.85-2.63Z"/><path class="cls-3" d="M346.9,393.76a6.58,6.58,0,0,1,1.77-5.21c1.92-2,5.88-7.59,5.88-7.59l1-8.78,10.26.14c.16,2,.2,8.07.13,8.64a13,13,0,0,0-.28,5.08c.42,2.74-1.45,7.95-2,8.95s-2.5,2.86-9.53,2.57-7.13-3.16-7.23-3.8"/><g class="cls-62"><path class="cls-63" d="M362.61,384.27a19,19,0,0,0-.12-3.67l-.27-1,.27,1,3.56-.46-.09,4.15s-2.38,1.16-3.35,0"/><path class="cls-3" d="M426.07,403.61a6.62,6.62,0,0,0-1.77-5.19,37.4,37.4,0,0,1-4.25-6.24l-2.58-10.08-10.66.15c-.16,2-.49,4.23-.42,4.8.16,1.29,1.41,6.12,1,8.86s1.45,7.93,2,8.92,2.49,2.86,9.5,2.57,7.11-3.15,7.22-3.79"/><path class="cls-63" d="M417.44,407.43c-5.87,0-7.6-1.68-8.09-2.6a24.22,24.22,0,0,1-2-8,6.23,6.23,0,0,1,.06-.89,8.26,8.26,0,0,0,.08-1.26c0-.34,0-.69,0-1,1-.32,2-.6,3-.85a11.07,11.07,0,0,1,0,2.59c-.41,2.74,1.46,7.93,2,8.92s2.22,2.59,8.08,2.59l1.42,0c.39,0,.76,0,1.12-.08a15.26,15.26,0,0,1-4.15.66h0l-1.41,0"/><path class="cls-64" d="M418.59,403.8c-6.07.21-8.92-.75-10.25-1.66a21.34,21.34,0,0,0,1,2.69c.52,1,2.5,2.86,9.5,2.57s7.11-3.15,7.22-3.79a6.05,6.05,0,0,0-.06-1.7c-1,.87-3.1,1.73-7.42,1.89Z"/></g><path class="cls-4" d="M368.75,368s-2.67,5.74-2.7,7c0,.82.09,4.62.18,7.32,0,1.59.08,2.8.08,2.8s1.61,2.36,9,2.14,9.1.43,9.73-.86.21-4.95-3.81-6.45-2.05-6.53-2.05-6.53-3.88.43-10.45-5.45Z"/><g class="cls-65"><path class="cls-63" d="M372.41,370.65s-1.78,11.94,1.52,14l2.7,4.38s-9.55-.49-10.32-3.95h0l-1.16-11.72,3-6.35,5.05,4.27"/><path class="cls-64" d="M366.23,382.3s6.2,1.88,9.45,1.84c0,0,7.8.21,10.1-1.14l1.05,5.6-8,2s-12.39-3.48-12.8-4.63l.18-3.64"/></g><path class="cls-63" d="M363.9,394.77c.22-.51.54-1.38.87-2.4a9.44,9.44,0,0,1-3.7,1.32c.72-1.84,2-5.85,1.63-8.15a8.43,8.43,0,0,1-.09-1.27,7,7,0,0,0,1.29.14,3.46,3.46,0,0,0,1.59-.41c0,.26.16.58.16.83a8.67,8.67,0,0,0,.08,1.29,5.94,5.94,0,0,1,.06.87,24.58,24.58,0,0,1-1.89,7.78"/><path class="cls-6" d="M389.09,247.2c-17.59,5.51-42.38,3.6-42.38,3.6s-1.41,50.39,0,65.64c0,0-1.15,2.22,4.23,65.36,0,0,9.9.57,15-.84,0,0,1.13-50,1.56-62.71s3.81-49.16,3.81-49.16l13.14,45.2s-4.95,6.5-8.05,21.19-7.63,32.77-7.63,32.77,9.84,7.93,13.79,7.08c0,0,19.26-54,21.24-62.17s-14.69-66-14.69-66Z"/><path class="cls-61" d="M345.87,230.86v31.41s29.45,2.57,47-2.75l-8.47-38.59-34.74,2-3.82,7.89Z"/><path class="cls-66" d="M357.09,176.5c-.71-.85-2.43-5.91-2.43-5.91l-.63.76a7.89,7.89,0,0,1-5.2,2.8C346.6,174.36,344,173,342,172l.12.38s1.93,5.67,2,6.52,0,2.93,0,2.93,6.85,5.26,9,4.55,5.67-8,5.67-8-.95-1-1.65-1.89Z"/><path class="cls-10" d="M355.43,172.75c-.44-1.47-.77-2.89-.77-2.89h0c-1.33,1.66-3.67,3.74-5.83,4s-4.87-.78-6.89-1.94h0s.69,2,1.22,3.79c.87,2.86,7.53,1.17,11.33-2.06Z"/><path class="cls-66" d="M331.25,152.77s3.88,12.55,5,13.77c0,0,6.55,8.7,13.29,7.76s7.1-10.29,7.2-12.63-1.27-15.43-1.27-15.43-9,2.32-12.6-2c0,0-3.43,8.43-11.29,8.15Z"/><path class="cls-64" d="M354.43,394c6.13.21,9-.75,10.34-1.66a23,23,0,0,1-1,2.7c-.53,1-2.52,2.86-9.58,2.57s-7.17-3.16-7.28-3.8a6.05,6.05,0,0,1,.06-1.7c1,.87,3.13,1.73,7.48,1.89"/><path class="cls-10" d="M334.34,162c-.25-.43-.49-.87-.74-1.32l.25.24c.14.35.32.71.49,1.08m-1-3.23a5.79,5.79,0,0,1-.29-.78,8,8,0,0,1-.2-3.57,5.43,5.43,0,0,1,3.9-4.2h0c2-.5,4.33.65,6.06,1.59a3,3,0,0,0,1.45.49,1.5,1.5,0,0,0,.37-.05,4,4,0,0,0,.75-.28,46.33,46.33,0,0,0,6.38-3.58,5.19,5.19,0,0,1,1.66-.78,2,2,0,0,1,.53-.08,2.15,2.15,0,0,1,2.09,1.35c.54,1-.35.84-.2,2-.11-.3.15.3,0,0-.54-1-1-.89-1.84-.85-.17,0,.18,0,0,0a5.25,5.25,0,0,0-1.65.78A46,46,0,0,1,346,154.4a5.16,5.16,0,0,1-.74.29,2.52,2.52,0,0,1-.37.05,3,3,0,0,1-1.45-.5c-1.73-.94-4-2.08-6.06-1.59h0a5.44,5.44,0,0,0-3.9,4.2,7,7,0,0,0-.1,1.93"/><path class="cls-3" d="M353.47,147.64a5,5,0,0,0-2.16,1.08,45.24,45.24,0,0,1-6.22,3.62,2.72,2.72,0,0,1-1.09.37,2.93,2.93,0,0,1-1.46-.41c-1.75-.84-4.05-1.84-6.07-1.26a5.17,5.17,0,0,0-3.59,4.21,7.29,7.29,0,0,0,.44,3.39,13.73,13.73,0,0,1,1,3.21,13.08,13.08,0,0,1-1.6-1.4c-.69-.94-1.44-1.84-2.15-2.77a20.38,20.38,0,0,1-3.65-6.74,15.53,15.53,0,0,1,1.81-11.84,17.25,17.25,0,0,1,6.38-6.37c7.61-4.26,17.59-.43,21.38,6.63a19.48,19.48,0,0,1,2.28,9.12,15.07,15.07,0,0,1-.49,3.5,7,7,0,0,1-.68,1.69,15.07,15.07,0,0,0-1.18,2.16c-.21-2.27-.19-4.69-1.34-6.66-.56-1-.78-1.6-1.59-1.53"/><path class="cls-60" d="M345.87,235.49s34.15.36,41.12-2.88l-2.56-11.68-38.56,3.83Z"/><path class="cls-61" d="M329.37,198.27c-1.48,3.47-4.5,27.74-1.85,31.55s8.42,10.26,34.69-9.23l2.55,7.63s25.84-1.27,31.35-9.11-7.84-28.6-10.38-33.26-27.53-8.06-27.53-8.06-2.39,5.54-6,6.67-8.06-2.6-8.06-2.6S330.86,194.82,329.37,198.27Z"/><polygon class="cls-66" points="364.72 228.21 351.82 227.61 362.18 220.58 364.72 228.21 364.72 228.21"/><path class="cls-60" d="M336.2,218.6a5.17,5.17,0,0,0-.72.84,97.8,97.8,0,0,1,17.76-3.3c2.42,0,4.85-.12,7.28-.3l-.49-.05a101.35,101.35,0,0,0-12.56-.68c-1.09,0-2.18,0-3.28.09,0,0-3.43-14.7-8.71-17.66,0,0,5,13.35,5.39,18.13A10.43,10.43,0,0,0,336.2,218.6Z"/><path class="cls-60" d="M380.51,212c0-.07,0-.16-.05-.26l.15,0s-1-4.76-2-10c-.52-3.14-1-6.56-1.41-9.64-.06-.65-.1-1.26-.12-1.78,0,0-.39,10.73-.11,17.61a15.65,15.65,0,0,1-1.12,5.18,26.51,26.51,0,0,0-8.88,4.69l-2.28,1.73s16.58-7.38,19.71-7.77A23.42,23.42,0,0,0,380.51,212Z"/><path class="cls-59" d="M193.87,226.89h0a.48.48,0,0,1,0,.7l-1.77,1.77a.5.5,0,0,1-.71,0,.5.5,0,0,1,0-.7l1.77-1.77a.5.5,0,0,1,.71,0Z"/><polygon class="cls-7" points="434.57 312.69 434.27 316.61 443.91 316.6 434.57 312.69"/><path class="cls-3" d="M456.67,180.13c-3.74-2-9.84-.95-10.75-.76-11.6,2.41-17.33,13-17.72,17.87-.72,9-11.61,7.25-12.15,16-.69,11,21.59,11.32,28.93,16.19,4.39,2.92-18.93,13.06-18.93,13.06s17.09-18.1,28.84-19.74c13.8-1.94,11.31-37.58,1.78-42.59Z"/><path class="cls-57" d="M431.48,296.79a305,305,0,0,0-3-34.49c-2.15-13.46-4.09-21.21-4.12-21.29-.28-1.18-4.38-6-13.5-5.83s-8.26,6.44-8.26,6.44h0a2.11,2.11,0,0,0,.07.55c.09.33,8.46,33.12,8.09,75.45,0,.6-.06,1.62,0,2.31,0,0,21.13.59,21.13,0,.74-3.7.38-13.95-.38-23.14Z"/><path class="cls-67" d="M434.13,317.42c0,.59-.29,1.06-.64,1.06h0c-.35,0-.63-.49-.64-1.06H414.73c0,.59-.29,1.06-.64,1.06h0c-.36,0-.64-.5-.64-1.1a319.89,319.89,0,0,0-1.5-33.42c-2.41-24.91-6.86-41.56-6.93-41.78a2.91,2.91,0,0,1-.06-.56s-.87-6.29,8.25-6.44,13.23,4.65,13.51,5.83c0,.06,1.11,4.45,2.58,12.34.48,2.61,1,5.6,1.54,9a303,303,0,0,1,3,34.48c.77,9.2,1,16.94.3,20.64Z"/><path class="cls-7" d="M434.13,317.42c0,.59-.29,1.06-.64,1.06h0c-.35,0-.63-.49-.64-1.06H414.73c0,.59-.29,1.06-.64,1.06h0c-.36,0-.64-.5-.64-1.1a319.89,319.89,0,0,0-1.5-33.42c3-15.81,14.57-27.9,17.35-30.61.48,2.61,1,5.6,1.54,9a303,303,0,0,1,3,34.48c.77,9.2,1,16.94.3,20.64Z"/><path class="cls-57" d="M419.93,315.85c-2,0-3.46.1-4,.65h0c0-.56,0-1.6-.08-3.57-.06-2.31-.16-5.93-.31-10-.26-7.14-.71-16.94-1.38-23.18-.79-7.27-5.47-36.71-5.49-36.81a1.4,1.4,0,0,1-.05-.38,4,4,0,0,1,.79-2.7c1-1.27,2.75-1.93,5.25-2,6.67-.09,9.71,3.32,9.93,4.25.06.21,5.25,23,6.15,35.86.08,1.19.27,3.22.5,5.79.92,10.09,2.84,31.07.92,31.44a53.19,53.19,0,0,1-10.53.62Zm-4.05,1.36.05,0s0,0,0-.09h0a.56.56,0,0,1,.13-.41c.58-.64,2.77-.62,5.55-.58a53.63,53.63,0,0,0,10.56-.63c1.95-.37.64-16.55-.74-31.68-.24-2.57-.42-4.6-.51-5.79-.9-12.87-6.1-35.72-6.15-35.9-.23-1-3.35-4.53-10.14-4.41-2.56,0-4.38.73-5.4,2a4.08,4.08,0,0,0-.83,2.86,1.24,1.24,0,0,0,.05.43c0,.12,4.71,29.67,5.48,36.76,1.26,11.7,1.76,35.89,1.79,37.24v.12l.11.07Z"/><path class="cls-57" d="M406.32,394c8.23-45,6.12-72.65,6.11-73,0-.69,1.16-1.32,1.8-1.34s3.48-.21,3.81.38c.43.78,2.09,34.82-10.18,74Z"/><path class="cls-7" d="M472.62,394c-8.23-45-6.12-72.65-6.11-73,0-.69-1.16-1.32-1.79-1.34s-3.49-.21-3.82.38c-.43.78-2.09,34.82,10.18,74Z"/><path class="cls-68" d="M485.76,394c-8.24-45-6.12-72.65-6.11-73,0-.69-1.16-1.32-1.79-1.34s-3.49-.21-3.82.38c-.43.78-2.09,34.82,10.18,74Z"/><path class="cls-68" d="M419.55,394c8.23-45,6.11-72.65,6.1-73,0-.69,1.17-1.32,1.8-1.34s3.49-.21,3.82.38c.43.78,2.09,34.82-10.18,74Z"/><path class="cls-57" d="M483.16,320.79h-71a1.53,1.53,0,0,1-1.44-1.59v-1a1.52,1.52,0,0,1,1.44-1.58h71a1.52,1.52,0,0,1,1.44,1.58v1a1.53,1.53,0,0,1-1.44,1.59Z"/><path class="cls-66" d="M468.51,269.31s13,16.24,15.64,16,4.37-1.2,6.73,0c1.7.87,7.06,5.6,5.62,5.28s-4-.68-4.73-.75c-.95-.1-2.47-.12-3.5-.31-.66-.13-3-.2-3.8-.23-3.42-.12-19.58-10.46-19.58-10.46l3.62-9.5Z"/><path class="cls-61" d="M490.44,254.14c.28.78,1.52,1.2,2.13,1.36a6.21,6.21,0,0,1-.44-2,1.56,1.56,0,0,0-1.41-.81c-.39.08-.62.44-.28,1.43Zm-.57-2.17a3.33,3.33,0,0,1,2.24-.05v-1.15a6,6,0,0,1,.05-.75h10.91a6,6,0,0,1,.05.75v2.35a5.8,5.8,0,0,1-5.5,6,5.33,5.33,0,0,1-4.13-2.05h0s-2.59-.7-3.41-1.76-1.08-2.77-.21-3.36Z"/><path class="cls-69" d="M502.22,250.77v2.35a5.79,5.79,0,0,1-5.5,6,4.52,4.52,0,0,1-.74-.06,5.89,5.89,0,0,0,4.76-6v-2.35a6.06,6.06,0,0,0,0-.75h1.48a6.06,6.06,0,0,1,0,.75Z"/><path class="cls-66" d="M518.38,387.48c-.23,2.73,3.24,3.4,7.26,3.61s2.8,1.12,8.3,2.22,7.71-.56,8.11-1.38-2.21-1.85-4.93-3.13l-1-.49c-3.07-1.47-4.79-4.49-7.19-7.28s-4.42-11.13-4.42-11.13L517,368.15s2.1,7.63,2.83,10.89a11,11,0,0,1-.77,5.69,11.55,11.55,0,0,0-.69,2.75Z"/><path class="cls-3" d="M525.77,391.13c4,.21,2.76,1.1,8.17,2.18s7.58-.56,8-1.36-2.17-1.82-4.85-3.07l0,.05a14.16,14.16,0,0,1-8.2.1c-3.59-1.06-7.05-3.41-9.52-4.16a11.2,11.2,0,0,0-.67,2.71c-.23,2.68,3.18,3.34,7.13,3.55Z"/><path class="cls-3" d="M452.15,284.21s41.45,2,50.81,8.51,24.36,81.8,24.36,81.8a5.74,5.74,0,0,1-3,1.05c-1.93.23-6.16-1-6.16-1s-21.57-33.7-23.09-42.2-1.15-16.06-4.6-16.27-46.59,5.74-53.11-6.84,14.78-25,14.78-25Z"/><path class="cls-66" d="M501.28,387.79c-.23,2.73,3.24,3.39,7.25,3.61s2.81,1.12,8.31,2.21,7.71-.56,8.11-1.37-2.2-1.85-4.93-3.13l-1-.49c-3.07-1.48-4.79-4.49-7.19-7.29-2.26-2.65-4.41-11.12-4.41-11.12l-7.48-1.75s2.09,7.63,2.82,10.89A10.94,10.94,0,0,1,502,385a11.75,11.75,0,0,0-.69,2.76Z"/><path class="cls-3" d="M508.53,391.4c4,.22,2.81,1.12,8.31,2.21s7.71-.56,8.11-1.37-2.2-1.85-4.93-3.13l0,.05a14.38,14.38,0,0,1-8.34.11c-3.64-1.09-7.16-3.47-9.67-4.24a11.75,11.75,0,0,0-.69,2.76c-.23,2.73,3.24,3.39,7.25,3.61Z"/><path class="cls-6" d="M431.31,286.47s48.92,1.1,58,8,21.44,82.78,21.44,82.78a5.76,5.76,0,0,1-3,.93c-1.93.15-6.12-1.27-6.12-1.27s-20.35-34.6-21.57-43.15-.57-16.11-4-16.46-45.5,3.87-51.57-9a22.91,22.91,0,0,1,4.21-19.67Z"/><path class="cls-66" d="M422.87,223.5l.05-.07a7.38,7.38,0,0,1,1.24-1.19h0c3.6-2.76,10.05-3.35,10.05-3.35h0s.7-.07,1.82-.13a39.85,39.85,0,0,0,2.1-11.13l.64.19L449.53,211s-.47,3.73-.69,7.27c0,.77-.09,1.54-.11,2.25.32.13,7,1.16,8.45,2.86s4.36,13.11,5.09,15.13l-41.35.74s-1-11.83,1.95-15.71Z"/><path class="cls-64" d="M447.65,289.48c.1-.05.77-.28.86-.32,2.67-1.14,5.39-1.45,8.45-2,3.91-.7,3-.31,4.28-1.24,1.88-1.3-.86-1.18-3.34-4.88-1.09-1.63-1.17-4.13-1.63-5.2-.35-.85-.32-2.7-.09-5.07h0c0-.45.1-.9.15-1.38a16.12,16.12,0,0,0,1,1.86,26.4,26.4,0,0,0,3.5,4.49,11.73,11.73,0,0,0,4.07,3.08,3,3,0,0,0,1.95-.19c1.71-.74,3.37-2.81,4.69-4.8.31-.47.62-.94.87-1.39a7.45,7.45,0,0,1,.9-1.49c.73-.89-2.86-3.77-4.37-5.09s-6.65-27.38-6.65-27.38c-.74-2-3.64-13.41-5.09-15.13,0,0-5.67,7.59-13,7.15s-19.8-8.14-20-8.26a4.79,4.79,0,0,0-1.31,1.27c-3,3.88-1.95,15.71-1.95,15.71s5.72,27.61,5.72,30.4c0,5.11-2.05,12.92-2.05,21.57C426.8,294.31,441.32,292.12,447.65,289.48Z"/><path class="cls-10" d="M449.53,211s-.47,3.73-.69,7.27c-6.08-.63-8.93-7-10-10.42L449.53,211Z"/><path class="cls-66" d="M451.36,214.45s-14.42-.79-13.84-10.62-.87-16.56,8.36-16.47,10.81,4,11.34,7.31-2.09,19.74-5.86,19.78Z"/><path class="cls-7" d="M456.36,266.23a42.55,42.55,0,0,0,4.46,9.5,11.73,11.73,0,0,0,4.07,3.08,3,3,0,0,0,1.95-.19c1.71-.74,3.37-2.81,4.69-4.8.31-.47.6-.94.87-1.39-4.58-4-13.27-13.25-14.18-25.86-1.23-17.22-1.93,20.45-1.86,19.66Z"/><path class="cls-7" d="M428.69,245.47s2,39,17.93,44.4c.1-.06,0,.05.07,0A48,48,0,0,1,457,287.15c3.91-.7,5.4-.83,6.65-2.29.17-.4-1.18-2.14-4.47-4.23-1.65-1.05-2.41-3.73-2.87-4.8-.35-.85-.32-2.7-.09-5.07h0c-15.47-6.27-27.49-25.29-27.49-25.29Z"/><path class="cls-66" d="M424.64,233.72c1.67-8.24,9.24-3.51,9.24-3.51,2.63-.65,21.91,33.57,23.46,34.35,1.3.65,19.07-5,24.47-6.74,1.39-1.2,6.28-5.36,7.14-5.43s7.69,1.8,7.65,3-1.61,2.87-4.08,3.3c-1.87.33-5,1.68-7.07,2h0s-19.61,14.63-28,16.41C450,278.69,423,242,424.64,233.72Z"/><path class="cls-64" d="M469.09,261.7s3.47,5.36,1.79,9.33c-.33.78-5.51,3.6-13.76,6.66-5.79-.75-12.82-5.16-19-14.89-12.56-19.86-18.12-30.37-11.43-33.49s12.2,1.77,15.63,9.42c3.56,8,12.57,21.75,15.75,25.47,4.41-.22,11-2.5,11-2.5Z"/><path class="cls-3" d="M458,188s-9.26,8-15.56,8.62-8.69-1.38-8.69-1.38a24.47,24.47,0,0,0,5.95-8.06,4.45,4.45,0,0,1,3.65-2.61c4.5-.39,13-.56,14.65,3.43Z"/><path class="cls-3" d="M452.18,187.25s3.1,3,4.07,5.22,1.23,7.27.48,9.31c0,0,4.82-9.39,2.09-13.95-2.9-4.84-6.64-.58-6.64-.58Z"/><path class="cls-64" d="M436.05,218.75s6.45,6,12.68,1.73c0,0,7.23,1.29,8.46,2.86,0,0-7.16,10.48-14,8s-18.53-6.61-19-9.09C424.18,222.23,427.8,219.11,436.05,218.75Z"/><path class="cls-70" d="M135.18,362a2.18,2.18,0,0,1-2.18-2.18V182.3a2.19,2.19,0,0,1,2.18-2.18H303.69a2.19,2.19,0,0,1,2.18,2.18V359.82a2.18,2.18,0,0,1-2.18,2.18H135.18"/><path class="cls-71" d="M164.15,362h-29a2.18,2.18,0,0,1-2.18-2.18V352.7L305.07,180.63a2.2,2.2,0,0,1,.8,1.62h0v38L164.15,362"/><polyline class="cls-71" points="133 256.28 133 212.27 165.16 180.12 209.17 180.12 133 256.28"/></svg>