<svg id="Layer_1" data-name="Layer 1" xmlns="http://www.w3.org/2000/svg" xmlns:xlink="http://www.w3.org/1999/xlink" viewBox="0 0 570 421"><defs><style>.cls-1{fill:#f99f1b;}.cls-2{fill:none;}.cls-3{fill:#17697a;}.cls-4{fill:#14697a;}.cls-5,.cls-6{fill:#479fb5;}.cls-5{opacity:0.15;}.cls-7{fill:#d1d3d4;}.cls-70,.cls-8{fill:#aad7dd;}.cls-8{opacity:0.61;}.cls-71,.cls-9{fill:#ede9e4;}.cls-10{fill:#efb68f;}.cls-11{clip-path:url(#clip-path);}.cls-12{fill:#f4901f;}.cls-13{fill:#e28725;}.cls-14{clip-path:url(#clip-path-2);}.cls-15{fill:#fdb83e;}.cls-16{clip-path:url(#clip-path-3);}.cls-17{clip-path:url(#clip-path-4);}.cls-18{clip-path:url(#clip-path-5);}.cls-19{clip-path:url(#clip-path-6);}.cls-20{clip-path:url(#clip-path-7);}.cls-21{clip-path:url(#clip-path-8);}.cls-22{clip-path:url(#clip-path-9);}.cls-23{clip-path:url(#clip-path-10);}.cls-24{clip-path:url(#clip-path-11);}.cls-25{clip-path:url(#clip-path-12);}.cls-26{clip-path:url(#clip-path-13);}.cls-27{clip-path:url(#clip-path-14);}.cls-28{clip-path:url(#clip-path-15);}.cls-29{clip-path:url(#clip-path-16);}.cls-30{clip-path:url(#clip-path-17);}.cls-31{clip-path:url(#clip-path-18);}.cls-32{clip-path:url(#clip-path-19);}.cls-33{clip-path:url(#clip-path-20);}.cls-34{clip-path:url(#clip-path-21);}.cls-35{clip-path:url(#clip-path-22);}.cls-36{clip-path:url(#clip-path-23);}.cls-37{clip-path:url(#clip-path-24);}.cls-38{clip-path:url(#clip-path-25);}.cls-39{clip-path:url(#clip-path-26);}.cls-40{clip-path:url(#clip-path-27);}.cls-41{clip-path:url(#clip-path-28);}.cls-42{clip-path:url(#clip-path-29);}.cls-43{clip-path:url(#clip-path-30);}.cls-44{clip-path:url(#clip-path-31);}.cls-45{clip-path:url(#clip-path-32);}.cls-46{clip-path:url(#clip-path-33);}.cls-47{clip-path:url(#clip-path-34);}.cls-48{clip-path:url(#clip-path-35);}.cls-49{clip-path:url(#clip-path-36);}.cls-50{clip-path:url(#clip-path-37);}.cls-51{clip-path:url(#clip-path-38);}.cls-52{clip-path:url(#clip-path-39);}.cls-53{clip-path:url(#clip-path-40);}.cls-54{clip-path:url(#clip-path-41);}.cls-55{clip-path:url(#clip-path-42);}.cls-56{fill:#faa31b;}.cls-57{fill:#bcbec0;}.cls-58{fill:#7b859e;}.cls-59{fill:#e7e7e6;}.cls-60{fill:#d78c2f;}.cls-61{fill:#faa52d;}.cls-62{clip-path:url(#clip-path-43);}.cls-63,.cls-68{fill:#47494c;}.cls-64{fill:#ece6e3;}.cls-65{clip-path:url(#clip-path-44);}.cls-66,.cls-69{fill:#f4ccb1;}.cls-67{fill:#ddd;}.cls-68{opacity:0.72;}.cls-69{opacity:0.6;}.cls-70{opacity:0.31;}.cls-71{opacity:0.28;}</style><clipPath id="clip-path"><path class="cls-1" d="M146.46,336.07v4.24c0,1.46,7.84,2.65,17.5,2.65s17.49-1.19,17.49-2.65v-4.24Z"/></clipPath><clipPath id="clip-path-2"><path class="cls-2" d="M146.46,336.07v4.24c0,1.46,7.84,2.65,17.5,2.65s17.49-1.19,17.49-2.65v-4.24h-35"/></clipPath><clipPath id="clip-path-3"><path class="cls-1" d="M148.94,331.13v4.23c0,1.47,7.83,2.66,17.49,2.66s17.5-1.19,17.5-2.66v-4.23Z"/></clipPath><clipPath id="clip-path-4"><path class="cls-2" d="M148.94,331.13v4.23c0,1.47,7.83,2.66,17.49,2.66s17.5-1.19,17.5-2.66v-4.23h-35"/></clipPath><clipPath id="clip-path-5"><path class="cls-1" d="M146.89,326v4.23c0,1.47,7.83,2.66,17.49,2.66s17.49-1.19,17.49-2.66V326Z"/></clipPath><clipPath id="clip-path-6"><path class="cls-2" d="M146.89,326v4.23c0,1.47,7.83,2.66,17.49,2.66s17.49-1.19,17.49-2.66V326h-35"/></clipPath><clipPath id="clip-path-7"><path class="cls-1" d="M146.2,320.25v4.23c0,1.47,7.83,2.66,17.5,2.66s17.49-1.19,17.49-2.66v-4.23Z"/></clipPath><clipPath id="clip-path-8"><path class="cls-2" d="M146.2,320.25v4.23c0,1.47,7.83,2.66,17.5,2.66s17.49-1.19,17.49-2.66v-4.23h-35"/></clipPath><clipPath id="clip-path-9"><path class="cls-1" d="M148.68,315.31v4.23c0,1.47,7.83,2.66,17.49,2.66s17.5-1.19,17.5-2.66v-4.23Z"/></clipPath><clipPath id="clip-path-10"><path class="cls-2" d="M148.68,315.31v4.23c0,1.47,7.83,2.66,17.49,2.66s17.5-1.19,17.5-2.66v-4.23h-35"/></clipPath><clipPath id="clip-path-11"><path class="cls-1" d="M146.62,310.14v4.23c0,1.47,7.84,2.66,17.5,2.66s17.49-1.19,17.49-2.66v-4.23Z"/></clipPath><clipPath id="clip-path-12"><path class="cls-2" d="M146.62,310.14v4.23c0,1.47,7.84,2.66,17.5,2.66s17.49-1.19,17.49-2.66v-4.23h-35"/></clipPath><clipPath id="clip-path-13"><path class="cls-1" d="M149.2,304.69v4.23c0,1.47,7.83,2.66,17.49,2.66s17.5-1.19,17.5-2.66v-4.23Z"/></clipPath><clipPath id="clip-path-14"><path class="cls-2" d="M149.2,304.69v4.23c0,1.47,7.83,2.66,17.49,2.66s17.5-1.19,17.5-2.66v-4.23h-35"/></clipPath><clipPath id="clip-path-15"><path class="cls-1" d="M151.68,299.75V304c0,1.47,7.83,2.66,17.49,2.66s17.5-1.19,17.5-2.66v-4.23Z"/></clipPath><clipPath id="clip-path-16"><path class="cls-2" d="M151.68,299.75V304c0,1.47,7.83,2.66,17.49,2.66s17.5-1.19,17.5-2.66v-4.23h-35"/></clipPath><clipPath id="clip-path-17"><path class="cls-1" d="M149.62,294.58v4.23c0,1.46,7.83,2.65,17.5,2.65s17.49-1.19,17.49-2.65v-4.23Z"/></clipPath><clipPath id="clip-path-18"><path class="cls-2" d="M149.62,294.58v4.23c0,1.46,7.83,2.65,17.5,2.65s17.49-1.19,17.49-2.65v-4.23h-35"/></clipPath><clipPath id="clip-path-19"><path class="cls-1" d="M148.38,289.11v4.24c0,1.46,7.84,2.65,17.5,2.65s17.49-1.19,17.49-2.65v-4.24Z"/></clipPath><clipPath id="clip-path-20"><path class="cls-2" d="M148.38,289.11v4.24c0,1.46,7.84,2.65,17.5,2.65s17.49-1.19,17.49-2.65v-4.24h-35"/></clipPath><clipPath id="clip-path-21"><path class="cls-1" d="M150.86,284.17v4.24c0,1.46,7.83,2.65,17.49,2.65s17.5-1.19,17.5-2.65v-4.24Z"/></clipPath><clipPath id="clip-path-22"><path class="cls-2" d="M150.86,284.17v4.24c0,1.46,7.83,2.65,17.49,2.65s17.5-1.19,17.5-2.65v-4.24h-35"/></clipPath><clipPath id="clip-path-23"><path class="cls-1" d="M148.81,279v4.23c0,1.47,7.83,2.66,17.49,2.66s17.49-1.19,17.49-2.66V279Z"/></clipPath><clipPath id="clip-path-24"><path class="cls-2" d="M148.81,279v4.23c0,1.47,7.83,2.66,17.49,2.66s17.49-1.19,17.49-2.66V279h-35"/></clipPath><clipPath id="clip-path-25"><path class="cls-1" d="M146.71,274.08v4.23c0,1.46,7.83,2.65,17.49,2.65s17.5-1.19,17.5-2.65v-4.23Z"/></clipPath><clipPath id="clip-path-26"><path class="cls-2" d="M146.71,274.08v4.23c0,1.46,7.83,2.65,17.49,2.65s17.5-1.19,17.5-2.65v-4.23h-35"/></clipPath><clipPath id="clip-path-27"><path class="cls-1" d="M149.18,269.13v4.24c0,1.46,7.84,2.65,17.5,2.65s17.49-1.19,17.49-2.65v-4.24Z"/></clipPath><clipPath id="clip-path-28"><path class="cls-2" d="M149.18,269.13v4.24c0,1.46,7.84,2.65,17.5,2.65s17.49-1.19,17.49-2.65v-4.24h-35"/></clipPath><clipPath id="clip-path-29"><path class="cls-1" d="M147.13,264v4.23c0,1.47,7.83,2.66,17.49,2.66s17.5-1.19,17.5-2.66V264Z"/></clipPath><clipPath id="clip-path-30"><path class="cls-2" d="M147.13,264v4.23c0,1.47,7.83,2.66,17.49,2.66s17.5-1.19,17.5-2.66V264h-35"/></clipPath><clipPath id="clip-path-31"><path class="cls-1" d="M184.65,336.36v4.23c0,1.47,7.83,2.66,17.49,2.66s17.5-1.19,17.5-2.66v-4.23Z"/></clipPath><clipPath id="clip-path-32"><path class="cls-2" d="M184.65,336.36v4.23c0,1.47,7.83,2.66,17.49,2.66s17.5-1.19,17.5-2.66v-4.23h-35"/></clipPath><clipPath id="clip-path-33"><path class="cls-1" d="M187.13,331.42v4.23c0,1.47,7.83,2.65,17.49,2.65s17.49-1.18,17.49-2.65v-4.23Z"/></clipPath><clipPath id="clip-path-34"><path class="cls-2" d="M187.13,331.42v4.23c0,1.47,7.83,2.65,17.49,2.65s17.49-1.18,17.49-2.65v-4.23h-35"/></clipPath><clipPath id="clip-path-35"><path class="cls-1" d="M185.07,326.24v4.24c0,1.46,7.83,2.65,17.5,2.65s17.49-1.19,17.49-2.65v-4.24Z"/></clipPath><clipPath id="clip-path-36"><path class="cls-2" d="M185.07,326.24v4.24c0,1.46,7.83,2.65,17.5,2.65s17.49-1.19,17.49-2.65v-4.24h-35"/></clipPath><clipPath id="clip-path-37"><path class="cls-1" d="M184.65,321.24v4.23c0,1.47,7.83,2.65,17.49,2.65s17.5-1.18,17.5-2.65v-4.23Z"/></clipPath><clipPath id="clip-path-38"><path class="cls-2" d="M184.65,321.24v4.23c0,1.47,7.83,2.65,17.49,2.65s17.5-1.18,17.5-2.65v-4.23h-35"/></clipPath><clipPath id="clip-path-39"><path class="cls-1" d="M187.13,316.3v4.23c0,1.46,7.83,2.65,17.49,2.65s17.49-1.19,17.49-2.65V316.3Z"/></clipPath><clipPath id="clip-path-40"><path class="cls-2" d="M187.13,316.3v4.23c0,1.46,7.83,2.65,17.49,2.65s17.49-1.19,17.49-2.65V316.3h-35"/></clipPath><clipPath id="clip-path-41"><path class="cls-1" d="M185.07,311.12v4.23c0,1.47,7.83,2.66,17.5,2.66s17.49-1.19,17.49-2.66v-4.23Z"/></clipPath><clipPath id="clip-path-42"><path class="cls-2" d="M185.07,311.12v4.23c0,1.47,7.83,2.66,17.5,2.66s17.49-1.19,17.49-2.66v-4.23h-35"/></clipPath><clipPath id="clip-path-43"><path class="cls-3" d="M336.72,374.94a6.6,6.6,0,0,1,1.77-5.2,96,96,0,0,0,5.89-7.6l1-8.77,10.27.13c.16,2,.2,8.07.13,8.64a12.64,12.64,0,0,0-.28,5.08c.42,2.75-1.46,7.95-2,8.95S351,379,344,378.74s-7.13-3.16-7.24-3.8"/></clipPath><clipPath id="clip-path-44"><path class="cls-4" d="M358.57,349.13s-2.66,5.75-2.69,7c0,.81.09,4.61.17,7.32.05,1.58.09,2.79.09,2.79s1.6,2.36,9,2.15,9.1.43,9.74-.86.21-4.95-3.82-6.46-2-6.53-2-6.53-3.89.43-10.46-5.45Z"/></clipPath></defs><path class="cls-5" d="M526.45,210.27c-12.43-30,38.33-73.07-51.62-105C444,94.27,421,61.74,395.24,42,361,15.71,318.92,8.29,277.86,3c-19.21-2.47-40.06-1-55.73,11.08-17.41,13.37-24.6,36-37.23,53.57S152.43,92.39,133,97.35c-20.87,5.33-42.35,5.76-57.78,23.5C64,133.7,56.27,143.93,41.3,152.65,18.64,165.84,1.85,177,.16,206.43c-1.48,25.79,7.29,52.35,24.49,70.81C39.34,293,58.4,303.87,74.46,318c5.92,5.19,11.36,12.92,13.54,20.75,1.78,6.39.83,14.07-3.92,18.42-4.51,4.11-11.23,4.36-16,8.07-6.78,5.26-7.63,16.25-3.91,24.24,8,17.27,28.1,23.31,44.49,26.41,2.84.53,5.67,1,8.53,1.35,40.07,4.93,85.55-13.1,123.38-19.86,64-11.44,123.74,23.7,187.92,1.58,33.4-11.51,90.3-2.28,112.8-30.86,15.22-19.32,28.74-74,28.75-96.59,0-38.94-35.18-41-43.55-61.22Z"/><path class="cls-6" d="M110.37,295.17s40.77-55.66,19.84-66.13c0,0-3.71-5.95-18.93,15.17,0,0-9.35,3-9.81-7.81s14.94-27.19,5.23-36.63S91.85,207.18,85,210.35s-3.39-39.95-12.9-44.63S59.83,178,54.47,180c-2.5.92-7.21-9.58-14.13-20.1-7.9-12-18.66-24-32.3-19.11C-17.56,150,11.5,169,23.69,180.67s-13.07,5.07-15.8,19.94,42.48,3.15,38.3,17.61-17.06,6.12-19.54,16.93c-2.17,9.48,10.06,8.93,21.51,8.38,9.64-.46,18.73-.93,18.23,4.57-.86,9.6-17,3.19-18.81,10.59s26.15,34.18,62.79,36.48"/><path class="cls-3" d="M121,302.79h0l-.31,0a120.34,120.34,0,0,0-5.81-19,37.32,37.32,0,0,1-6.11.48c-11.85,0-24.7-5-34-9.54a157.35,157.35,0,0,1-16.25-9.25,4.2,4.2,0,0,1,.33-.49h0l0,0A159.48,159.48,0,0,0,75,274.15c9.26,4.54,22,9.47,33.72,9.47a37.9,37.9,0,0,0,5.87-.45c-5.92-14.89-14.65-30-24.35-44.29a58.7,58.7,0,0,0-8-.49c-15.34,0-35.16,4.36-45.58,7q0-.33,0-.69c10.5-2.6,30.24-6.92,45.57-6.92a62.67,62.67,0,0,1,7.47.41c-6.85-10-14.15-19.58-21.28-28.33a155.41,155.41,0,0,0-20.26-2.17c-2.18-.1-4.56-.16-7.1-.16a132.15,132.15,0,0,0-23.24,2c0-.17,0-.35.07-.54h0v0l0-.11a132.83,132.83,0,0,1,23.15-1.92c2.55,0,4.94.06,7.13.16a161.45,161.45,0,0,1,19.58,2c-3.22-3.93-6.4-7.7-9.48-11.25-18.32-21.14-35.91-38.26-45-46.78l.62-.33c9.13,8.57,26.64,25.64,44.87,46.67q9.8,11.32,18.22,22.24a162.6,162.6,0,0,1-1.17-20.18c0-8,.82-18.09,3.71-26.55a5.49,5.49,0,0,1,.66.13c-2.89,8.38-3.65,18.49-3.71,26.42a157.74,157.74,0,0,0,1.32,21.22c7.32,9.55,13.82,18.84,19.42,27.76l.07.1c3.91-21.59,11.56-33.72,17.32-40.1.49-.54,1-1.05,1.44-1.52l.49.44c-.48.49-1,1-1.47,1.57-5.76,6.39-13.42,18.6-17.26,40.46a231.37,231.37,0,0,1,13.68,25.07c14.46-7.42,22.58-20.37,26.85-30,1.16-2.61,2.11-5.12,2.87-7.42l.58.37c-.76,2.27-1.7,4.74-2.84,7.3a70.37,70.37,0,0,1-10.13,16.52,55,55,0,0,1-14.27,12.26q-1.37.81-2.79,1.53a134,134,0,0,1,9.42,27.44c-.14.2-.22.32-.25.35h0"/><path class="cls-7" d="M312.65,368.08H105.87A6.91,6.91,0,0,1,99,361.17V143.32a6.91,6.91,0,0,1,6.92-6.91H312.65a6.91,6.91,0,0,1,6.92,6.91V361.17a6.91,6.91,0,0,1-6.92,6.91"/><path class="cls-6" d="M293.52,346.64H125a5.63,5.63,0,0,1-5.63-5.63V163.48a5.64,5.64,0,0,1,5.63-5.64H293.52a5.64,5.64,0,0,1,5.63,5.64V341a5.63,5.63,0,0,1-5.63,5.63"/><path class="cls-8" d="M125,343.19a2.18,2.18,0,0,1-2.17-2.18V163.48A2.18,2.18,0,0,1,125,161.3H293.52a2.18,2.18,0,0,1,2.17,2.18V341a2.18,2.18,0,0,1-2.17,2.18H125"/><path class="cls-9" d="M237.8,233.53s-4.4,7.48-8.45,7.58-10.19-3.46-10.19-3.46-3.71-10-1.2-13.86a4.66,4.66,0,0,1,5.17,1,8.84,8.84,0,0,1,1.37,1.57,4.33,4.33,0,0,0,2.12,1.73c2.88,1.06,6.31-1.42,7.59,1a15.9,15.9,0,0,0,2.23,3.18,10.35,10.35,0,0,0,1.36,1.26Z"/><path class="cls-9" d="M174.55,342.77s-10.83-95,49.41-101.66c0,0,46.74,11.13,35.08,101.66Z"/><path class="cls-10" d="M216.27,242.5s11.25,3,14.72,1.24c0,0,.52-5.66-4.22-4.87-3.24.55-5.35-1.33-6.59-2.09-1.76-1.08-4.38,3.35-3.91,5.72Z"/><path class="cls-7" d="M226.06,234c-.72.65-2.93-9.15-2.93-9.15a8.84,8.84,0,0,1,1.37,1.57,4.33,4.33,0,0,0,2.12,1.73c0,.29.14,5.22-.56,5.85Z"/><path class="cls-7" d="M236.44,232.27c-.16.11-5.36,3.86-6.07,3.86s3.84-7,3.84-7a15.9,15.9,0,0,0,2.23,3.18Z"/><path class="cls-7" d="M196.62,262.52s18.68,32.16,39.12,27.4,9,19.83,9,19.83-60.63-1-60.83-1.73,12.71-45.5,12.71-45.5Z"/><path class="cls-1" d="M146.46,336.07v4.24c0,1.46,7.84,2.65,17.5,2.65s17.49-1.19,17.49-2.65v-4.24Z"/><g class="cls-11"><path class="cls-12" d="M164.28,343.56h-25.6a.71.71,0,0,1-.48-.2,2.12,2.12,0,0,1-.55-1.43V337c0-.95.48-1.71,1-1.71h22.45a18.28,18.28,0,0,0,3,8.08,1.56,1.56,0,0,0,.16.2Z"/></g><path class="cls-1" d="M177.87,335.72c0,.68-6.23,1.23-13.91,1.23s-13.91-.55-13.91-1.23,6.23-1.24,13.91-1.24,13.91.55,13.91,1.24Z"/><path class="cls-13" d="M150.65,336.07c1.73-.5,7-.87,13.31-.87s11.57.37,13.31.87c.38-.11.6-.23.6-.35,0-.68-6.23-1.24-13.91-1.24s-13.91.56-13.91,1.24c0,.12.21.24.6.35Z"/><g class="cls-14"><polygon class="cls-12" points="180.24 334.32 180.24 344.02 181.07 344.02 181.07 334.32 180.24 334.32 180.24 334.32"/><polygon class="cls-12" points="178.09 344.02 178.92 344.02 178.92 334.32 178.09 334.32 178.09 344.02 178.09 344.02"/><polygon class="cls-12" points="175.64 344.02 176.47 344.02 176.47 334.32 175.64 334.32 175.64 344.02 175.64 344.02"/><polygon class="cls-12" points="172.58 344.02 173.41 344.02 173.41 334.32 172.58 334.32 172.58 344.02 172.58 344.02"/><polygon class="cls-12" points="169.22 344.02 170.05 344.02 170.05 334.32 169.22 334.32 169.22 344.02 169.22 344.02"/><polygon class="cls-12" points="165.55 344.02 166.38 344.02 166.38 334.32 165.55 334.32 165.55 344.02 165.55 344.02"/></g><path class="cls-15" d="M181.45,336c0,1.47-7.83,2.66-17.49,2.66s-17.5-1.19-17.5-2.66,7.84-2.65,17.5-2.65,17.49,1.19,17.49,2.65Z"/><path class="cls-1" d="M178.67,335.82c0,.68-6.22,1.23-13.9,1.23s-13.91-.55-13.91-1.23,6.22-1.24,13.91-1.24,13.9.56,13.9,1.24Z"/><path class="cls-12" d="M151.46,336.18c1.73-.51,7-.88,13.31-.88s11.57.37,13.3.88c.39-.12.6-.24.6-.36,0-.68-6.22-1.24-13.9-1.24s-13.91.56-13.91,1.24c0,.12.21.24.6.36Z"/><path class="cls-1" d="M148.94,331.13v4.23c0,1.47,7.83,2.66,17.49,2.66s17.5-1.19,17.5-2.66v-4.23Z"/><g class="cls-16"><path class="cls-12" d="M166.75,338.62h-25.6a.69.69,0,0,1-.47-.2,2.14,2.14,0,0,1-.55-1.43.19.19,0,0,1,0-.08v-4.86c0-.95.48-1.71,1-1.71h22.46a18.28,18.28,0,0,0,3,8.08l.15.2Z"/></g><path class="cls-1" d="M180.34,330.77c0,.69-6.23,1.24-13.91,1.24s-13.9-.55-13.9-1.24,6.22-1.23,13.9-1.23,13.91.55,13.91,1.23Z"/><path class="cls-13" d="M153.13,331.13c1.73-.5,7-.87,13.3-.87s11.58.37,13.31.87c.39-.11.6-.23.6-.36,0-.68-6.23-1.23-13.91-1.23s-13.9.55-13.9,1.23c0,.13.21.25.6.36Z"/><g class="cls-17"><polygon class="cls-12" points="182.72 329.38 182.72 339.07 183.54 339.07 183.54 329.38 182.72 329.38 182.72 329.38"/><polygon class="cls-12" points="180.57 339.07 181.4 339.07 181.4 329.38 180.57 329.38 180.57 339.07 180.57 339.07"/><polygon class="cls-12" points="178.12 339.07 178.95 339.07 178.95 329.38 178.12 329.38 178.12 339.07 178.12 339.07"/><polygon class="cls-12" points="175.06 339.07 175.89 339.07 175.89 329.38 175.06 329.38 175.06 339.07 175.06 339.07"/><polygon class="cls-12" points="171.7 339.07 172.52 339.07 172.52 329.38 171.7 329.38 171.7 339.07 171.7 339.07"/><polygon class="cls-12" points="168.03 339.07 168.86 339.07 168.86 329.38 168.03 329.38 168.03 339.07 168.03 339.07"/></g><path class="cls-15" d="M183.93,331.05c0,1.47-7.83,2.66-17.5,2.66s-17.49-1.19-17.49-2.66,7.83-2.65,17.49-2.65,17.5,1.19,17.5,2.65Z"/><path class="cls-1" d="M181.15,330.88c0,.68-6.23,1.23-13.91,1.23s-13.91-.55-13.91-1.23,6.23-1.24,13.91-1.24,13.91.55,13.91,1.24Z"/><path class="cls-12" d="M153.93,331.23c1.74-.5,7-.87,13.31-.87s11.58.37,13.31.87c.39-.11.6-.23.6-.35,0-.69-6.23-1.24-13.91-1.24s-13.91.55-13.91,1.24c0,.12.21.24.6.35Z"/><path class="cls-1" d="M146.89,326v4.23c0,1.47,7.83,2.66,17.49,2.66s17.49-1.19,17.49-2.66V326Z"/><g class="cls-18"><path class="cls-12" d="M164.7,333.45H139.1a.73.73,0,0,1-.48-.2,2.19,2.19,0,0,1-.55-1.43v-4.95c0-.94.48-1.71,1-1.71h22.45a18.31,18.31,0,0,0,3,8.09l.16.2Z"/></g><path class="cls-1" d="M178.29,325.6c0,.68-6.23,1.23-13.91,1.23s-13.91-.55-13.91-1.23,6.23-1.23,13.91-1.23,13.91.55,13.91,1.23Z"/><path class="cls-13" d="M151.07,326c1.73-.51,7-.87,13.31-.87s11.58.36,13.31.87c.39-.11.6-.23.6-.36,0-.68-6.23-1.23-13.91-1.23s-13.91.55-13.91,1.23c0,.13.21.25.6.36Z"/><g class="cls-19"><polygon class="cls-12" points="180.66 324.2 180.66 333.9 181.49 333.9 181.49 324.2 180.66 324.2 180.66 324.2"/><polygon class="cls-12" points="178.51 333.9 179.34 333.9 179.34 324.2 178.51 324.2 178.51 333.9 178.51 333.9"/><polygon class="cls-12" points="176.06 333.9 176.89 333.9 176.89 324.2 176.06 324.2 176.06 333.9 176.06 333.9"/><polygon class="cls-12" points="173 333.9 173.83 333.9 173.83 324.2 173 324.2 173 333.9 173 333.9"/><polygon class="cls-12" points="169.64 333.9 170.47 333.9 170.47 324.2 169.64 324.2 169.64 333.9 169.64 333.9"/><polygon class="cls-12" points="165.97 333.9 166.8 333.9 166.8 324.2 165.97 324.2 165.97 333.9 165.97 333.9"/></g><path class="cls-15" d="M181.87,325.88c0,1.47-7.83,2.66-17.49,2.66s-17.49-1.19-17.49-2.66,7.83-2.66,17.49-2.66,17.49,1.19,17.49,2.66Z"/><path class="cls-1" d="M179.09,325.7c0,.68-6.22,1.23-13.9,1.23s-13.91-.55-13.91-1.23,6.23-1.23,13.91-1.23,13.9.55,13.9,1.23Z"/><path class="cls-12" d="M151.88,326.06c1.73-.5,7-.87,13.31-.87s11.57.37,13.3.87c.39-.11.6-.23.6-.36,0-.68-6.22-1.23-13.9-1.23s-13.91.55-13.91,1.23c0,.13.21.25.6.36Z"/><path class="cls-1" d="M146.2,320.25v4.23c0,1.47,7.83,2.66,17.5,2.66s17.49-1.19,17.49-2.66v-4.23Z"/><g class="cls-20"><path class="cls-12" d="M164,327.74H138.42a.71.71,0,0,1-.48-.2,2.14,2.14,0,0,1-.55-1.43V326a.28.28,0,0,1,0-.09v-4.68a.28.28,0,0,1,0-.09c0-.95.48-1.71,1-1.71h22.45a18.28,18.28,0,0,0,3,8.08l.15.2Z"/></g><path class="cls-1" d="M177.6,319.89c0,.69-6.22,1.24-13.9,1.24s-13.91-.55-13.91-1.24,6.23-1.23,13.91-1.23,13.9.55,13.9,1.23Z"/><path class="cls-13" d="M150.39,320.25c1.73-.5,7-.87,13.31-.87s11.57.37,13.3.87c.39-.11.6-.23.6-.36,0-.68-6.22-1.23-13.9-1.23s-13.91.55-13.91,1.23c0,.13.21.25.6.36Z"/><g class="cls-21"><polygon class="cls-12" points="179.98 318.5 179.98 328.19 180.81 328.19 180.81 318.5 179.98 318.5 179.98 318.5"/><polygon class="cls-12" points="177.83 328.19 178.66 328.19 178.66 318.5 177.83 318.5 177.83 328.19 177.83 328.19"/><polygon class="cls-12" points="175.38 328.19 176.21 328.19 176.21 318.5 175.38 318.5 175.38 328.19 175.38 328.19"/><polygon class="cls-12" points="172.32 328.19 173.15 328.19 173.15 318.5 172.32 318.5 172.32 328.19 172.32 328.19"/><polygon class="cls-12" points="168.96 328.19 169.79 328.19 169.79 318.5 168.96 318.5 168.96 328.19 168.96 328.19"/><polygon class="cls-12" points="165.29 328.19 166.12 328.19 166.12 318.5 165.29 318.5 165.29 328.19 165.29 328.19"/></g><path class="cls-15" d="M181.19,320.17c0,1.47-7.83,2.66-17.49,2.66s-17.5-1.19-17.5-2.66,7.83-2.65,17.5-2.65,17.49,1.19,17.49,2.65Z"/><path class="cls-1" d="M178.41,320c0,.68-6.23,1.23-13.91,1.23s-13.9-.55-13.9-1.23,6.22-1.24,13.9-1.24,13.91.55,13.91,1.24Z"/><path class="cls-12" d="M151.2,320.35c1.73-.5,7-.87,13.3-.87s11.58.37,13.31.87c.39-.11.6-.23.6-.35,0-.69-6.23-1.24-13.91-1.24s-13.9.55-13.9,1.24c0,.12.21.24.6.35Z"/><path class="cls-1" d="M148.68,315.31v4.23c0,1.47,7.83,2.66,17.49,2.66s17.5-1.19,17.5-2.66v-4.23Z"/><g class="cls-22"><path class="cls-12" d="M166.49,322.8h-25.6a.69.69,0,0,1-.47-.2,2.09,2.09,0,0,1-.55-1.43.19.19,0,0,1,0-.08v-4.86c0-1,.48-1.71,1-1.71h22.46a18.38,18.38,0,0,0,3,8.08l.16.2Z"/></g><path class="cls-1" d="M180.08,315c0,.68-6.23,1.24-13.91,1.24s-13.9-.56-13.9-1.24,6.22-1.23,13.9-1.23,13.91.55,13.91,1.23Z"/><path class="cls-13" d="M152.86,315.31c1.74-.5,7-.87,13.31-.87s11.58.37,13.31.87c.39-.11.6-.23.6-.36,0-.68-6.23-1.23-13.91-1.23s-13.9.55-13.9,1.23c0,.13.21.25.59.36Z"/><g class="cls-23"><polygon class="cls-12" points="182.46 313.55 182.46 323.25 183.28 323.25 183.28 313.55 182.46 313.55 182.46 313.55"/><polygon class="cls-12" points="180.31 323.25 181.14 323.25 181.14 313.55 180.31 313.55 180.31 323.25 180.31 323.25"/><polygon class="cls-12" points="177.86 323.25 178.69 323.25 178.69 313.55 177.86 313.55 177.86 323.25 177.86 323.25"/><polygon class="cls-12" points="174.8 323.25 175.63 323.25 175.63 313.55 174.8 313.55 174.8 323.25 174.8 323.25"/><polygon class="cls-12" points="171.43 323.25 172.26 323.25 172.26 313.55 171.43 313.55 171.43 323.25 171.43 323.25"/><polygon class="cls-12" points="167.77 323.25 168.6 323.25 168.6 313.55 167.77 313.55 167.77 323.25 167.77 323.25"/></g><path class="cls-15" d="M183.67,315.23c0,1.47-7.84,2.66-17.5,2.66s-17.49-1.19-17.49-2.66,7.83-2.65,17.49-2.65,17.5,1.19,17.5,2.65Z"/><path class="cls-1" d="M180.89,315.05c0,.68-6.23,1.24-13.91,1.24s-13.91-.56-13.91-1.24,6.23-1.23,13.91-1.23,13.91.55,13.91,1.23Z"/><path class="cls-12" d="M153.67,315.41c1.73-.5,7-.87,13.31-.87s11.58.37,13.31.87c.39-.11.6-.23.6-.36,0-.68-6.23-1.23-13.91-1.23s-13.91.55-13.91,1.23c0,.13.21.25.6.36Z"/><path class="cls-1" d="M146.62,310.14v4.23c0,1.47,7.84,2.66,17.5,2.66s17.49-1.19,17.49-2.66v-4.23Z"/><g class="cls-24"><path class="cls-12" d="M164.44,317.63h-25.6a.68.68,0,0,1-.48-.21,2.09,2.09,0,0,1-.55-1.42v-4.95c0-.95.48-1.71,1-1.71h22.45a18.23,18.23,0,0,0,3,8.08l.16.21Z"/></g><path class="cls-1" d="M178,309.78c0,.68-6.23,1.23-13.91,1.23s-13.91-.55-13.91-1.23,6.23-1.23,13.91-1.23,13.91.55,13.91,1.23Z"/><path class="cls-13" d="M150.81,310.14c1.73-.51,7-.88,13.31-.88s11.57.37,13.31.88c.38-.12.6-.24.6-.36,0-.68-6.23-1.23-13.91-1.23s-13.91.55-13.91,1.23c0,.12.21.24.6.36Z"/><g class="cls-25"><polygon class="cls-12" points="180.4 308.38 180.4 318.08 181.23 318.08 181.23 308.38 180.4 308.38 180.4 308.38"/><polygon class="cls-12" points="178.25 318.08 179.08 318.08 179.08 308.38 178.25 308.38 178.25 318.08 178.25 318.08"/><polygon class="cls-12" points="175.8 318.08 176.63 318.08 176.63 308.38 175.8 308.38 175.8 318.08 175.8 318.08"/><polygon class="cls-12" points="172.74 318.08 173.57 318.08 173.57 308.38 172.74 308.38 172.74 318.08 172.74 318.08"/><polygon class="cls-12" points="169.38 318.08 170.21 318.08 170.21 308.38 169.38 308.38 169.38 318.08 169.38 318.08"/><polygon class="cls-12" points="165.71 318.08 166.54 318.08 166.54 308.38 165.71 308.38 165.71 318.08 165.71 318.08"/></g><path class="cls-15" d="M181.61,310.06c0,1.47-7.83,2.66-17.49,2.66s-17.5-1.19-17.5-2.66,7.84-2.66,17.5-2.66,17.49,1.19,17.49,2.66Z"/><path class="cls-1" d="M178.83,309.88c0,.68-6.22,1.23-13.9,1.23S151,310.56,151,309.88s6.22-1.23,13.91-1.23,13.9.55,13.9,1.23Z"/><path class="cls-12" d="M151.62,310.24c1.73-.51,7-.87,13.31-.87s11.57.36,13.3.87c.39-.11.6-.23.6-.36,0-.68-6.22-1.23-13.9-1.23S151,309.2,151,309.88c0,.13.21.25.6.36Z"/><path class="cls-1" d="M149.2,304.69v4.23c0,1.47,7.83,2.66,17.49,2.66s17.5-1.19,17.5-2.66v-4.23Z"/><g class="cls-26"><path class="cls-12" d="M167,312.18h-25.6a.69.69,0,0,1-.47-.2,2.14,2.14,0,0,1-.55-1.43s0-.05,0-.08V305.6c0-.94.49-1.71,1-1.71h22.46a18.31,18.31,0,0,0,3,8.09l.15.2Z"/></g><path class="cls-1" d="M180.6,304.33c0,.68-6.22,1.23-13.91,1.23s-13.9-.55-13.9-1.23,6.22-1.23,13.9-1.23,13.91.55,13.91,1.23Z"/><path class="cls-13" d="M153.39,304.69c1.73-.51,7-.87,13.3-.87s11.58.36,13.31.87c.39-.11.6-.23.6-.36,0-.68-6.22-1.23-13.91-1.23s-13.9.55-13.9,1.23c0,.13.21.25.6.36Z"/><g class="cls-27"><polygon class="cls-12" points="182.98 302.93 182.98 312.63 183.81 312.63 183.81 302.93 182.98 302.93 182.98 302.93"/><polygon class="cls-12" points="180.83 312.63 181.66 312.63 181.66 302.93 180.83 302.93 180.83 312.63 180.83 312.63"/><polygon class="cls-12" points="178.38 312.63 179.21 312.63 179.21 302.93 178.38 302.93 178.38 312.63 178.38 312.63"/><polygon class="cls-12" points="175.32 312.63 176.15 312.63 176.15 302.93 175.32 302.93 175.32 312.63 175.32 312.63"/><polygon class="cls-12" points="171.96 312.63 172.78 312.63 172.78 302.93 171.96 302.93 171.96 312.63 171.96 312.63"/><polygon class="cls-12" points="168.29 312.63 169.12 312.63 169.12 302.93 168.29 302.93 168.29 312.63 168.29 312.63"/></g><path class="cls-15" d="M184.19,304.61c0,1.47-7.83,2.66-17.5,2.66s-17.49-1.19-17.49-2.66S157,302,166.69,302s17.5,1.19,17.5,2.66Z"/><path class="cls-1" d="M181.41,304.43c0,.68-6.23,1.24-13.91,1.24s-13.91-.56-13.91-1.24,6.23-1.23,13.91-1.23,13.91.55,13.91,1.23Z"/><path class="cls-12" d="M154.19,304.79c1.74-.5,7-.87,13.31-.87s11.58.37,13.31.87c.39-.11.6-.23.6-.36,0-.68-6.23-1.23-13.91-1.23s-13.91.55-13.91,1.23c0,.13.22.25.6.36Z"/><path class="cls-1" d="M151.68,299.75V304c0,1.47,7.83,2.66,17.49,2.66s17.5-1.19,17.5-2.66v-4.23Z"/><g class="cls-28"><path class="cls-12" d="M169.49,307.24h-25.6a.66.66,0,0,1-.47-.21,2.09,2.09,0,0,1-.56-1.42v-4.95c0-.94.48-1.71,1-1.71h22.46a18.09,18.09,0,0,0,3,8.08l.16.21Z"/></g><path class="cls-1" d="M183.08,299.39c0,.68-6.23,1.23-13.91,1.23s-13.91-.55-13.91-1.23,6.23-1.23,13.91-1.23,13.91.55,13.91,1.23Z"/><path class="cls-13" d="M155.86,299.75c1.74-.51,7-.88,13.31-.88s11.58.37,13.31.88c.39-.12.6-.24.6-.36,0-.68-6.23-1.23-13.91-1.23s-13.91.55-13.91,1.23c0,.12.21.24.6.36Z"/><g class="cls-29"><polygon class="cls-12" points="185.45 297.99 185.45 307.69 186.28 307.69 186.28 297.99 185.45 297.99 185.45 297.99"/><polygon class="cls-12" points="183.31 307.69 184.13 307.69 184.13 297.99 183.31 297.99 183.31 307.69 183.31 307.69"/><polygon class="cls-12" points="180.85 307.69 181.68 307.69 181.68 297.99 180.85 297.99 180.85 307.69 180.85 307.69"/><polygon class="cls-12" points="177.8 307.69 178.62 307.69 178.62 297.99 177.8 297.99 177.8 307.69 177.8 307.69"/><polygon class="cls-12" points="174.43 307.69 175.26 307.69 175.26 297.99 174.43 297.99 174.43 307.69 174.43 307.69"/><polygon class="cls-12" points="170.77 307.69 171.59 307.69 171.59 297.99 170.77 297.99 170.77 307.69 170.77 307.69"/></g><path class="cls-15" d="M186.67,299.67c0,1.47-7.84,2.66-17.5,2.66s-17.49-1.19-17.49-2.66,7.83-2.66,17.49-2.66,17.5,1.19,17.5,2.66Z"/><path class="cls-1" d="M183.89,299.49c0,.68-6.23,1.23-13.91,1.23s-13.91-.55-13.91-1.23,6.23-1.23,13.91-1.23,13.91.55,13.91,1.23Z"/><path class="cls-12" d="M156.67,299.85c1.73-.51,7-.87,13.31-.87s11.57.36,13.31.87c.38-.11.6-.23.6-.36,0-.68-6.23-1.23-13.91-1.23s-13.91.55-13.91,1.23c0,.13.21.25.6.36Z"/><path class="cls-1" d="M149.62,294.58v4.23c0,1.46,7.83,2.65,17.5,2.65s17.49-1.19,17.49-2.65v-4.23Z"/><g class="cls-30"><path class="cls-12" d="M167.43,302.07H141.84a.7.7,0,0,1-.48-.21,2.11,2.11,0,0,1-.55-1.42v-.08a.34.34,0,0,1,0-.1v-4.68a.28.28,0,0,1,0-.09c0-.95.48-1.71,1-1.71h22.45a18.28,18.28,0,0,0,3,8.08l.15.21Z"/></g><path class="cls-1" d="M181,294.22c0,.68-6.22,1.23-13.9,1.23s-13.91-.55-13.91-1.23,6.23-1.24,13.91-1.24,13.9.56,13.9,1.24Z"/><path class="cls-13" d="M153.81,294.58c1.73-.51,7-.88,13.31-.88s11.57.37,13.3.88c.39-.12.6-.24.6-.36,0-.68-6.22-1.24-13.9-1.24s-13.91.56-13.91,1.24c0,.12.21.24.6.36Z"/><g class="cls-31"><polygon class="cls-12" points="183.4 292.82 183.4 302.52 184.23 302.52 184.23 292.82 183.4 292.82 183.4 292.82"/><polygon class="cls-12" points="181.25 302.52 182.08 302.52 182.08 292.82 181.25 292.82 181.25 302.52 181.25 302.52"/><polygon class="cls-12" points="178.8 302.52 179.63 302.52 179.63 292.82 178.8 292.82 178.8 302.52 178.8 302.52"/><polygon class="cls-12" points="175.74 302.52 176.57 302.52 176.57 292.82 175.74 292.82 175.74 302.52 175.74 302.52"/><polygon class="cls-12" points="172.38 302.52 173.21 302.52 173.21 292.82 172.38 292.82 172.38 302.52 172.38 302.52"/><polygon class="cls-12" points="168.71 302.52 169.54 302.52 169.54 292.82 168.71 292.82 168.71 302.52 168.71 302.52"/></g><path class="cls-15" d="M184.61,294.5c0,1.46-7.83,2.65-17.49,2.65s-17.5-1.19-17.5-2.65,7.83-2.66,17.5-2.66,17.49,1.19,17.49,2.66Z"/><path class="cls-1" d="M181.83,294.32c0,.68-6.23,1.23-13.91,1.23S154,295,154,294.32s6.22-1.24,13.9-1.24,13.91.56,13.91,1.24Z"/><path class="cls-12" d="M154.62,294.68c1.73-.51,7-.88,13.3-.88s11.58.37,13.31.88c.39-.12.6-.24.6-.36,0-.68-6.23-1.24-13.91-1.24s-13.9.56-13.9,1.24c0,.12.21.24.6.36Z"/><path class="cls-1" d="M148.38,289.11v4.24c0,1.46,7.84,2.65,17.5,2.65s17.49-1.19,17.49-2.65v-4.24Z"/><g class="cls-32"><path class="cls-12" d="M166.2,296.61H140.6a.74.74,0,0,1-.48-.21,2.16,2.16,0,0,1-.55-1.42v-5c0-.95.48-1.71,1-1.71h22.45a18.28,18.28,0,0,0,3,8.08l.16.21Z"/></g><path class="cls-1" d="M179.79,288.76c0,.68-6.23,1.23-13.91,1.23S152,289.44,152,288.76s6.23-1.24,13.91-1.24,13.91.56,13.91,1.24Z"/><path class="cls-13" d="M152.57,289.11c1.73-.5,7-.87,13.31-.87s11.57.37,13.31.87c.38-.11.6-.23.6-.35,0-.68-6.23-1.24-13.91-1.24s-13.91.56-13.91,1.24c0,.12.21.24.6.35Z"/><g class="cls-33"><polygon class="cls-12" points="182.16 287.36 182.16 297.06 182.99 297.06 182.99 287.36 182.16 287.36 182.16 287.36"/><polygon class="cls-12" points="180.01 297.06 180.84 297.06 180.84 287.36 180.01 287.36 180.01 297.06 180.01 297.06"/><polygon class="cls-12" points="177.56 297.06 178.39 297.06 178.39 287.36 177.56 287.36 177.56 297.06 177.56 297.06"/><polygon class="cls-12" points="174.5 297.06 175.33 297.06 175.33 287.36 174.5 287.36 174.5 297.06 174.5 297.06"/><polygon class="cls-12" points="171.14 297.06 171.97 297.06 171.97 287.36 171.14 287.36 171.14 297.06 171.14 297.06"/><polygon class="cls-12" points="167.47 297.06 168.3 297.06 168.3 287.36 167.47 287.36 167.47 297.06 167.47 297.06"/></g><path class="cls-15" d="M183.37,289c0,1.46-7.83,2.65-17.49,2.65s-17.5-1.19-17.5-2.65,7.84-2.66,17.5-2.66,17.49,1.19,17.49,2.66Z"/><path class="cls-1" d="M180.59,288.86c0,.68-6.22,1.23-13.9,1.23s-13.91-.55-13.91-1.23,6.22-1.24,13.91-1.24,13.9.56,13.9,1.24Z"/><path class="cls-12" d="M153.38,289.22c1.73-.51,7-.88,13.31-.88s11.57.37,13.3.88c.39-.12.6-.24.6-.36,0-.68-6.22-1.24-13.9-1.24s-13.91.56-13.91,1.24c0,.12.21.24.6.36Z"/><path class="cls-1" d="M150.86,284.17v4.24c0,1.46,7.83,2.65,17.49,2.65s17.5-1.19,17.5-2.65v-4.24Z"/><g class="cls-34"><path class="cls-12" d="M168.67,291.66h-25.6a.69.69,0,0,1-.47-.2,2.14,2.14,0,0,1-.55-1.43s0,0,0-.08v-4.86c0-.95.48-1.71,1-1.71h22.46a18.28,18.28,0,0,0,3,8.08l.15.2Z"/></g><path class="cls-1" d="M182.26,283.81c0,.69-6.22,1.24-13.91,1.24s-13.9-.55-13.9-1.24,6.22-1.23,13.9-1.23,13.91.55,13.91,1.23Z"/><path class="cls-13" d="M155.05,284.17c1.73-.5,7-.87,13.3-.87s11.58.37,13.31.87c.39-.11.6-.23.6-.36,0-.68-6.22-1.23-13.91-1.23s-13.9.55-13.9,1.23c0,.13.21.25.6.36Z"/><g class="cls-35"><polygon class="cls-12" points="184.64 282.42 184.64 292.12 185.47 292.12 185.47 282.42 184.64 282.42 184.64 282.42"/><polygon class="cls-12" points="182.49 292.12 183.32 292.12 183.32 282.42 182.49 282.42 182.49 292.12 182.49 292.12"/><polygon class="cls-12" points="180.04 292.12 180.87 292.12 180.87 282.42 180.04 282.42 180.04 292.12 180.04 292.12"/><polygon class="cls-12" points="176.98 292.12 177.81 292.12 177.81 282.42 176.98 282.42 176.98 292.12 176.98 292.12"/><polygon class="cls-12" points="173.62 292.12 174.44 292.12 174.44 282.42 173.62 282.42 173.62 292.12 173.62 292.12"/><polygon class="cls-12" points="169.95 292.12 170.78 292.12 170.78 282.42 169.95 282.42 169.95 292.12 169.95 292.12"/></g><path class="cls-15" d="M185.85,284.09c0,1.47-7.83,2.66-17.5,2.66s-17.49-1.19-17.49-2.66,7.83-2.65,17.49-2.65,17.5,1.19,17.5,2.65Z"/><path class="cls-1" d="M183.07,283.92c0,.68-6.23,1.23-13.91,1.23s-13.91-.55-13.91-1.23,6.23-1.24,13.91-1.24,13.91.56,13.91,1.24Z"/><path class="cls-12" d="M155.85,284.27c1.74-.5,7-.87,13.31-.87s11.58.37,13.31.87c.39-.11.6-.23.6-.35,0-.68-6.23-1.24-13.91-1.24s-13.91.56-13.91,1.24c0,.12.22.24.6.35Z"/><path class="cls-1" d="M148.81,279v4.23c0,1.47,7.83,2.66,17.49,2.66s17.49-1.19,17.49-2.66V279Z"/><g class="cls-36"><path class="cls-12" d="M166.62,286.49H141a.73.73,0,0,1-.48-.2,2.19,2.19,0,0,1-.55-1.43v-4.95c0-.94.48-1.71,1-1.71h22.45a18.27,18.27,0,0,0,3,8.09l.16.2Z"/></g><path class="cls-1" d="M180.21,278.64c0,.68-6.23,1.23-13.91,1.23s-13.91-.55-13.91-1.23,6.23-1.23,13.91-1.23,13.91.55,13.91,1.23Z"/><path class="cls-13" d="M153,279c1.73-.51,7-.87,13.31-.87s11.58.36,13.31.87c.39-.11.6-.23.6-.36,0-.68-6.23-1.23-13.91-1.23s-13.91.55-13.91,1.23c0,.13.21.25.6.36Z"/><g class="cls-37"><polygon class="cls-12" points="182.58 277.24 182.58 286.94 183.41 286.94 183.41 277.24 182.58 277.24 182.58 277.24"/><polygon class="cls-12" points="180.44 286.94 181.26 286.94 181.26 277.24 180.44 277.24 180.44 286.94 180.44 286.94"/><polygon class="cls-12" points="177.98 286.94 178.81 286.94 178.81 277.24 177.98 277.24 177.98 286.94 177.98 286.94"/><polygon class="cls-12" points="174.93 286.94 175.75 286.94 175.75 277.24 174.93 277.24 174.93 286.94 174.93 286.94"/><polygon class="cls-12" points="171.56 286.94 172.39 286.94 172.39 277.24 171.56 277.24 171.56 286.94 171.56 286.94"/><polygon class="cls-12" points="167.9 286.94 168.72 286.94 168.72 277.24 167.9 277.24 167.9 286.94 167.9 286.94"/></g><path class="cls-15" d="M183.79,278.92c0,1.47-7.83,2.66-17.49,2.66s-17.49-1.19-17.49-2.66,7.83-2.65,17.49-2.65,17.49,1.18,17.49,2.65Z"/><path class="cls-1" d="M181,278.74c0,.68-6.22,1.24-13.9,1.24s-13.91-.56-13.91-1.24,6.23-1.23,13.91-1.23,13.9.55,13.9,1.23Z"/><path class="cls-12" d="M153.8,279.1c1.73-.5,7-.87,13.31-.87s11.57.37,13.31.87c.38-.11.59-.23.59-.36,0-.68-6.22-1.23-13.9-1.23s-13.91.55-13.91,1.23c0,.13.21.25.6.36Z"/><path class="cls-1" d="M146.71,274.08v4.23c0,1.46,7.83,2.65,17.49,2.65s17.5-1.19,17.5-2.65v-4.23Z"/><g class="cls-38"><path class="cls-12" d="M164.52,281.57h-25.6a.7.7,0,0,1-.47-.21,2.09,2.09,0,0,1-.56-1.42V275c0-.95.48-1.71,1-1.71h22.46a18.13,18.13,0,0,0,3,8.08l.16.21Z"/></g><path class="cls-1" d="M178.11,273.72c0,.68-6.23,1.23-13.91,1.23s-13.91-.55-13.91-1.23,6.23-1.23,13.91-1.23,13.91.55,13.91,1.23Z"/><path class="cls-13" d="M150.89,274.08c1.74-.51,7-.88,13.31-.88s11.58.37,13.31.88c.39-.12.6-.24.6-.36,0-.68-6.23-1.23-13.91-1.23s-13.91.55-13.91,1.23c0,.12.21.24.6.36Z"/><g class="cls-39"><polygon class="cls-12" points="180.48 272.32 180.48 282.02 181.31 282.02 181.31 272.32 180.48 272.32 180.48 272.32"/><polygon class="cls-12" points="178.34 282.02 179.16 282.02 179.16 272.32 178.34 272.32 178.34 282.02 178.34 282.02"/><polygon class="cls-12" points="175.88 282.02 176.71 282.02 176.71 272.32 175.88 272.32 175.88 282.02 175.88 282.02"/><polygon class="cls-12" points="172.83 282.02 173.65 282.02 173.65 272.32 172.83 272.32 172.83 282.02 172.83 282.02"/><polygon class="cls-12" points="169.46 282.02 170.29 282.02 170.29 272.32 169.46 272.32 169.46 282.02 169.46 282.02"/><polygon class="cls-12" points="165.8 282.02 166.62 282.02 166.62 272.32 165.8 272.32 165.8 282.02 165.8 282.02"/></g><path class="cls-15" d="M181.7,274c0,1.46-7.84,2.65-17.5,2.65s-17.49-1.19-17.49-2.65,7.83-2.66,17.49-2.66,17.5,1.19,17.5,2.66Z"/><path class="cls-1" d="M178.92,273.82c0,.68-6.23,1.23-13.91,1.23s-13.91-.55-13.91-1.23,6.23-1.23,13.91-1.23,13.91.55,13.91,1.23Z"/><path class="cls-12" d="M151.7,274.18c1.73-.51,7-.88,13.31-.88s11.57.37,13.31.88c.39-.12.6-.24.6-.36,0-.68-6.23-1.23-13.91-1.23s-13.91.55-13.91,1.23c0,.12.21.24.6.36Z"/><path class="cls-1" d="M149.18,269.13v4.24c0,1.46,7.84,2.65,17.5,2.65s17.49-1.19,17.49-2.65v-4.24Z"/><g class="cls-40"><path class="cls-12" d="M167,276.63H141.4a.72.72,0,0,1-.48-.21,2.11,2.11,0,0,1-.55-1.42v-.09s0-.06,0-.09v-4.68s0-.06,0-.09c0-.95.48-1.71,1-1.71h22.45a18.28,18.28,0,0,0,3,8.08l.16.21Z"/></g><path class="cls-1" d="M180.58,268.78c0,.68-6.22,1.23-13.9,1.23s-13.91-.55-13.91-1.23,6.23-1.24,13.91-1.24,13.9.56,13.9,1.24Z"/><path class="cls-13" d="M153.37,269.13c1.73-.5,7-.87,13.31-.87s11.57.37,13.31.87c.38-.11.59-.23.59-.35,0-.68-6.22-1.24-13.9-1.24s-13.91.56-13.91,1.24c0,.12.21.24.6.35Z"/><g class="cls-41"><polygon class="cls-12" points="182.96 267.38 182.96 277.08 183.79 277.08 183.79 267.38 182.96 267.38 182.96 267.38"/><polygon class="cls-12" points="180.81 277.08 181.64 277.08 181.64 267.38 180.81 267.38 180.81 277.08 180.81 277.08"/><polygon class="cls-12" points="178.36 277.08 179.19 277.08 179.19 267.38 178.36 267.38 178.36 277.08 178.36 277.08"/><polygon class="cls-12" points="175.3 277.08 176.13 277.08 176.13 267.38 175.3 267.38 175.3 277.08 175.3 277.08"/><polygon class="cls-12" points="171.94 277.08 172.77 277.08 172.77 267.38 171.94 267.38 171.94 277.08 171.94 277.08"/><polygon class="cls-12" points="168.27 277.08 169.1 277.08 169.1 267.38 168.27 267.38 168.27 277.08 168.27 277.08"/></g><path class="cls-15" d="M184.17,269.06c0,1.46-7.83,2.65-17.49,2.65s-17.5-1.19-17.5-2.65,7.84-2.66,17.5-2.66,17.49,1.19,17.49,2.66Z"/><path class="cls-1" d="M181.39,268.88c0,.68-6.22,1.23-13.91,1.23s-13.9-.55-13.9-1.23,6.22-1.24,13.9-1.24,13.91.56,13.91,1.24Z"/><path class="cls-12" d="M154.18,269.24c1.73-.51,7-.88,13.3-.88s11.58.37,13.31.88c.39-.12.6-.24.6-.36,0-.68-6.22-1.24-13.91-1.24s-13.9.56-13.9,1.24c0,.12.21.24.6.36Z"/><path class="cls-1" d="M147.13,264v4.23c0,1.47,7.83,2.66,17.49,2.66s17.5-1.19,17.5-2.66V264Z"/><g class="cls-42"><path class="cls-12" d="M164.94,271.45h-25.6a.69.69,0,0,1-.47-.2,2.09,2.09,0,0,1-.55-1.43.19.19,0,0,1,0-.08v-4.86c0-.95.48-1.71,1-1.71H161.8a18.38,18.38,0,0,0,3,8.08l.16.2Z"/></g><path class="cls-1" d="M178.53,263.6c0,.68-6.23,1.24-13.91,1.24s-13.91-.56-13.91-1.24,6.23-1.23,13.91-1.23,13.91.55,13.91,1.23Z"/><path class="cls-13" d="M151.31,264c1.74-.5,7-.87,13.31-.87s11.58.37,13.31.87c.39-.11.6-.23.6-.36,0-.68-6.23-1.23-13.91-1.23s-13.91.55-13.91,1.23c0,.13.22.25.6.36Z"/><g class="cls-43"><polygon class="cls-12" points="180.91 262.2 180.91 271.9 181.73 271.9 181.73 262.2 180.91 262.2 180.91 262.2"/><polygon class="cls-12" points="178.76 271.9 179.59 271.9 179.59 262.2 178.76 262.2 178.76 271.9 178.76 271.9"/><polygon class="cls-12" points="176.31 271.9 177.13 271.9 177.13 262.2 176.31 262.2 176.31 271.9 176.31 271.9"/><polygon class="cls-12" points="173.25 271.9 174.08 271.9 174.08 262.2 173.25 262.2 173.25 271.9 173.25 271.9"/><polygon class="cls-12" points="169.88 271.9 170.71 271.9 170.71 262.2 169.88 262.2 169.88 271.9 169.88 271.9"/><polygon class="cls-12" points="166.22 271.9 167.05 271.9 167.05 262.2 166.22 262.2 166.22 271.9 166.22 271.9"/></g><path class="cls-15" d="M182.12,263.88c0,1.47-7.84,2.66-17.5,2.66s-17.49-1.19-17.49-2.66,7.83-2.65,17.49-2.65,17.5,1.19,17.5,2.65Z"/><path class="cls-1" d="M179.34,263.7c0,.68-6.23,1.24-13.91,1.24s-13.91-.56-13.91-1.24,6.23-1.23,13.91-1.23,13.91.55,13.91,1.23Z"/><path class="cls-12" d="M152.12,264.06c1.73-.5,7-.87,13.31-.87s11.58.37,13.31.87c.39-.11.6-.23.6-.36,0-.68-6.23-1.23-13.91-1.23s-13.91.55-13.91,1.23c0,.13.21.25.6.36Z"/><path class="cls-1" d="M184.65,336.36v4.23c0,1.47,7.83,2.66,17.49,2.66s17.5-1.19,17.5-2.66v-4.23Z"/><g class="cls-44"><path class="cls-12" d="M202.46,343.85h-25.6a.66.66,0,0,1-.47-.21,2.09,2.09,0,0,1-.55-1.42s0-.05,0-.08v-4.87c0-.94.48-1.71,1-1.71h22.46a18.23,18.23,0,0,0,3,8.08l.15.21Z"/></g><path class="cls-1" d="M216.05,336c0,.68-6.22,1.23-13.91,1.23s-13.9-.55-13.9-1.23,6.22-1.23,13.9-1.23,13.91.55,13.91,1.23Z"/><path class="cls-13" d="M188.84,336.36c1.73-.51,7-.88,13.3-.88s11.58.37,13.31.88c.39-.12.6-.23.6-.36,0-.68-6.22-1.23-13.91-1.23s-13.9.55-13.9,1.23c0,.13.21.24.6.36Z"/><g class="cls-45"><polygon class="cls-12" points="218.43 334.6 218.43 344.3 219.26 344.3 219.26 334.6 218.43 334.6 218.43 334.6"/><polygon class="cls-12" points="216.28 344.3 217.11 344.3 217.11 334.6 216.28 334.6 216.28 344.3 216.28 344.3"/><polygon class="cls-12" points="213.83 344.3 214.66 344.3 214.66 334.6 213.83 334.6 213.83 344.3 213.83 344.3"/><polygon class="cls-12" points="210.77 344.3 211.6 344.3 211.6 334.6 210.77 334.6 210.77 344.3 210.77 344.3"/><polygon class="cls-12" points="207.41 344.3 208.23 344.3 208.23 334.6 207.41 334.6 207.41 344.3 207.41 344.3"/><polygon class="cls-12" points="203.74 344.3 204.57 344.3 204.57 334.6 203.74 334.6 203.74 344.3 203.74 344.3"/></g><path class="cls-15" d="M219.64,336.28c0,1.47-7.83,2.66-17.5,2.66s-17.49-1.19-17.49-2.66,7.83-2.66,17.49-2.66,17.5,1.19,17.5,2.66Z"/><path class="cls-1" d="M216.86,336.1c0,.68-6.23,1.23-13.91,1.23S189,336.78,189,336.1s6.23-1.23,13.91-1.23,13.91.55,13.91,1.23Z"/><path class="cls-12" d="M189.64,336.46c1.74-.51,7-.87,13.31-.87s11.58.36,13.31.87c.39-.11.6-.23.6-.36,0-.68-6.23-1.23-13.91-1.23S189,335.42,189,336.1c0,.13.22.25.6.36Z"/><path class="cls-1" d="M187.13,331.42v4.23c0,1.47,7.83,2.65,17.49,2.65s17.49-1.18,17.49-2.65v-4.23Z"/><g class="cls-46"><path class="cls-12" d="M204.94,338.91h-25.6a.7.7,0,0,1-.48-.21,2.14,2.14,0,0,1-.55-1.42v-4.95c0-.95.48-1.71,1-1.71H201.8a18.09,18.09,0,0,0,3,8.08l.16.21Z"/></g><path class="cls-1" d="M218.53,331.06c0,.68-6.23,1.23-13.91,1.23s-13.91-.55-13.91-1.23,6.23-1.23,13.91-1.23,13.91.55,13.91,1.23Z"/><path class="cls-13" d="M191.31,331.42c1.73-.51,7-.88,13.31-.88s11.58.37,13.31.88c.39-.12.6-.24.6-.36,0-.68-6.23-1.23-13.91-1.23s-13.91.55-13.91,1.23c0,.12.21.24.6.36Z"/><g class="cls-47"><polygon class="cls-12" points="220.9 329.66 220.9 339.36 221.73 339.36 221.73 329.66 220.9 329.66 220.9 329.66"/><polygon class="cls-12" points="218.76 339.36 219.58 339.36 219.58 329.66 218.76 329.66 218.76 339.36 218.76 339.36"/><polygon class="cls-12" points="216.3 339.36 217.13 339.36 217.13 329.66 216.3 329.66 216.3 339.36 216.3 339.36"/><polygon class="cls-12" points="213.25 339.36 214.07 339.36 214.07 329.66 213.25 329.66 213.25 339.36 213.25 339.36"/><polygon class="cls-12" points="209.88 339.36 210.71 339.36 210.71 329.66 209.88 329.66 209.88 339.36 209.88 339.36"/><polygon class="cls-12" points="206.22 339.36 207.04 339.36 207.04 329.66 206.22 329.66 206.22 339.36 206.22 339.36"/></g><path class="cls-15" d="M222.11,331.34c0,1.47-7.83,2.65-17.49,2.65s-17.49-1.18-17.49-2.65,7.83-2.66,17.49-2.66,17.49,1.19,17.49,2.66Z"/><path class="cls-1" d="M219.34,331.16c0,.68-6.23,1.23-13.91,1.23s-13.91-.55-13.91-1.23,6.23-1.23,13.91-1.23,13.91.55,13.91,1.23Z"/><path class="cls-12" d="M192.12,331.52c1.73-.51,7-.88,13.31-.88s11.57.37,13.31.88c.38-.11.6-.24.6-.36,0-.68-6.23-1.23-13.91-1.23s-13.91.55-13.91,1.23c0,.12.21.25.6.36Z"/><path class="cls-1" d="M185.07,326.24v4.24c0,1.46,7.83,2.65,17.5,2.65s17.49-1.19,17.49-2.65v-4.24Z"/><g class="cls-48"><path class="cls-12" d="M202.88,333.73H177.29a.69.69,0,0,1-.48-.2,2.14,2.14,0,0,1-.55-1.43V332a.28.28,0,0,1,0-.09v-4.68a.28.28,0,0,1,0-.09c0-1,.48-1.71,1-1.71h22.45a18.28,18.28,0,0,0,3,8.08l.15.2Z"/></g><path class="cls-1" d="M216.47,325.89c0,.68-6.22,1.23-13.9,1.23s-13.91-.55-13.91-1.23,6.23-1.24,13.91-1.24,13.9.55,13.9,1.24Z"/><path class="cls-13" d="M189.26,326.24c1.73-.5,7-.87,13.31-.87s11.57.37,13.3.87c.39-.11.6-.23.6-.35,0-.69-6.22-1.24-13.9-1.24s-13.91.55-13.91,1.24c0,.12.21.24.6.35Z"/><g class="cls-49"><polygon class="cls-12" points="218.85 324.49 218.85 334.19 219.68 334.19 219.68 324.49 218.85 324.49 218.85 324.49"/><polygon class="cls-12" points="216.7 334.19 217.53 334.19 217.53 324.49 216.7 324.49 216.7 334.19 216.7 334.19"/><polygon class="cls-12" points="214.25 334.19 215.08 334.19 215.08 324.49 214.25 324.49 214.25 334.19 214.25 334.19"/><polygon class="cls-12" points="211.19 334.19 212.02 334.19 212.02 324.49 211.19 324.49 211.19 334.19 211.19 334.19"/><polygon class="cls-12" points="207.83 334.19 208.66 334.19 208.66 324.49 207.83 324.49 207.83 334.19 207.83 334.19"/><polygon class="cls-12" points="204.16 334.19 204.99 334.19 204.99 324.49 204.16 324.49 204.16 334.19 204.16 334.19"/></g><path class="cls-15" d="M220.06,326.16c0,1.47-7.83,2.66-17.49,2.66s-17.5-1.19-17.5-2.66,7.83-2.65,17.5-2.65,17.49,1.19,17.49,2.65Z"/><path class="cls-1" d="M217.28,326c0,.68-6.23,1.23-13.91,1.23s-13.9-.55-13.9-1.23,6.22-1.24,13.9-1.24,13.91.56,13.91,1.24Z"/><path class="cls-12" d="M190.07,326.35c1.73-.51,7-.88,13.3-.88s11.58.37,13.31.88c.39-.12.6-.24.6-.36,0-.68-6.23-1.24-13.91-1.24s-13.9.56-13.9,1.24c0,.12.21.24.6.36Z"/><path class="cls-1" d="M184.65,321.24v4.23c0,1.47,7.83,2.65,17.49,2.65s17.5-1.18,17.5-2.65v-4.23Z"/><g class="cls-50"><path class="cls-12" d="M202.46,328.73h-25.6a.66.66,0,0,1-.47-.21,2.09,2.09,0,0,1-.55-1.42s0-.06,0-.08v-4.87c0-.95.48-1.71,1-1.71h22.46a18.23,18.23,0,0,0,3,8.08l.15.21Z"/></g><path class="cls-1" d="M216.05,320.88c0,.68-6.22,1.23-13.91,1.23s-13.9-.55-13.9-1.23,6.22-1.23,13.9-1.23,13.91.55,13.91,1.23Z"/><path class="cls-13" d="M188.84,321.24c1.73-.51,7-.88,13.3-.88s11.58.37,13.31.88c.39-.12.6-.24.6-.36,0-.68-6.22-1.23-13.91-1.23s-13.9.55-13.9,1.23c0,.12.21.24.6.36Z"/><g class="cls-51"><polygon class="cls-12" points="218.43 319.48 218.43 329.18 219.26 329.18 219.26 319.48 218.43 319.48 218.43 319.48"/><polygon class="cls-12" points="216.28 329.18 217.11 329.18 217.11 319.48 216.28 319.48 216.28 329.18 216.28 329.18"/><polygon class="cls-12" points="213.83 329.18 214.66 329.18 214.66 319.48 213.83 319.48 213.83 329.18 213.83 329.18"/><polygon class="cls-12" points="210.77 329.18 211.6 329.18 211.6 319.48 210.77 319.48 210.77 329.18 210.77 329.18"/><polygon class="cls-12" points="207.41 329.18 208.23 329.18 208.23 319.48 207.41 319.48 207.41 329.18 207.41 329.18"/><polygon class="cls-12" points="203.74 329.18 204.57 329.18 204.57 319.48 203.74 319.48 203.74 329.18 203.74 329.18"/></g><path class="cls-15" d="M219.64,321.16c0,1.47-7.83,2.65-17.5,2.65s-17.49-1.18-17.49-2.65,7.83-2.66,17.49-2.66,17.5,1.19,17.5,2.66Z"/><path class="cls-1" d="M216.86,321c0,.68-6.23,1.23-13.91,1.23S189,321.66,189,321s6.23-1.23,13.91-1.23,13.91.55,13.91,1.23Z"/><path class="cls-12" d="M189.64,321.34c1.74-.51,7-.88,13.31-.88s11.58.37,13.31.88c.39-.11.6-.24.6-.36,0-.68-6.23-1.23-13.91-1.23S189,320.3,189,321c0,.12.22.25.6.36Z"/><path class="cls-1" d="M187.13,316.3v4.23c0,1.46,7.83,2.65,17.49,2.65s17.49-1.19,17.49-2.65V316.3Z"/><g class="cls-52"><path class="cls-12" d="M204.94,323.79h-25.6a.74.74,0,0,1-.48-.21,2.14,2.14,0,0,1-.55-1.42v-5c0-.95.48-1.71,1-1.71H201.8a18.13,18.13,0,0,0,3,8.08l.16.21Z"/></g><path class="cls-1" d="M218.53,315.94c0,.68-6.23,1.23-13.91,1.23s-13.91-.55-13.91-1.23,6.23-1.24,13.91-1.24,13.91.56,13.91,1.24Z"/><path class="cls-13" d="M191.31,316.3c1.73-.51,7-.88,13.31-.88s11.58.37,13.31.88c.39-.12.6-.24.6-.36,0-.68-6.23-1.24-13.91-1.24s-13.91.56-13.91,1.24c0,.12.21.24.6.36Z"/><g class="cls-53"><polygon class="cls-12" points="220.9 314.54 220.9 324.24 221.73 324.24 221.73 314.54 220.9 314.54 220.9 314.54"/><polygon class="cls-12" points="218.76 324.24 219.58 324.24 219.58 314.54 218.76 314.54 218.76 324.24 218.76 324.24"/><polygon class="cls-12" points="216.3 324.24 217.13 324.24 217.13 314.54 216.3 314.54 216.3 324.24 216.3 324.24"/><polygon class="cls-12" points="213.25 324.24 214.07 324.24 214.07 314.54 213.25 314.54 213.25 324.24 213.25 324.24"/><polygon class="cls-12" points="209.88 324.24 210.71 324.24 210.71 314.54 209.88 314.54 209.88 324.24 209.88 324.24"/><polygon class="cls-12" points="206.22 324.24 207.04 324.24 207.04 314.54 206.22 314.54 206.22 324.24 206.22 324.24"/></g><path class="cls-15" d="M222.11,316.22c0,1.46-7.83,2.65-17.49,2.65s-17.49-1.19-17.49-2.65,7.83-2.66,17.49-2.66,17.49,1.19,17.49,2.66Z"/><path class="cls-1" d="M219.34,316c0,.68-6.23,1.23-13.91,1.23s-13.91-.55-13.91-1.23,6.23-1.23,13.91-1.23,13.91.55,13.91,1.23Z"/><path class="cls-12" d="M192.12,316.4c1.73-.51,7-.88,13.31-.88s11.57.37,13.31.88c.38-.12.6-.24.6-.36,0-.68-6.23-1.23-13.91-1.23s-13.91.55-13.91,1.23c0,.12.21.24.6.36Z"/><path class="cls-1" d="M185.07,311.12v4.23c0,1.47,7.83,2.66,17.5,2.66s17.49-1.19,17.49-2.66v-4.23Z"/><g class="cls-54"><path class="cls-12" d="M202.88,318.61H177.29a.69.69,0,0,1-.48-.2,2.14,2.14,0,0,1-.55-1.43v-.08a.28.28,0,0,1,0-.09v-4.68a.28.28,0,0,1,0-.09c0-1,.48-1.71,1-1.71h22.45a18.28,18.28,0,0,0,3,8.08l.15.2Z"/></g><path class="cls-1" d="M216.47,310.76c0,.69-6.22,1.24-13.9,1.24s-13.91-.55-13.91-1.24,6.23-1.23,13.91-1.23,13.9.55,13.9,1.23Z"/><path class="cls-13" d="M189.26,311.12c1.73-.5,7-.87,13.31-.87s11.57.37,13.3.87c.39-.11.6-.23.6-.36,0-.68-6.22-1.23-13.9-1.23s-13.91.55-13.91,1.23c0,.13.21.25.6.36Z"/><g class="cls-55"><polygon class="cls-12" points="218.85 309.37 218.85 319.06 219.68 319.06 219.68 309.37 218.85 309.37 218.85 309.37"/><polygon class="cls-12" points="216.7 319.06 217.53 319.06 217.53 309.37 216.7 309.37 216.7 319.06 216.7 319.06"/><polygon class="cls-12" points="214.25 319.06 215.08 319.06 215.08 309.37 214.25 309.37 214.25 319.06 214.25 319.06"/><polygon class="cls-12" points="211.19 319.06 212.02 319.06 212.02 309.37 211.19 309.37 211.19 319.06 211.19 319.06"/><polygon class="cls-12" points="207.83 319.06 208.66 319.06 208.66 309.37 207.83 309.37 207.83 319.06 207.83 319.06"/><polygon class="cls-12" points="204.16 319.06 204.99 319.06 204.99 309.37 204.16 309.37 204.16 319.06 204.16 319.06"/></g><path class="cls-15" d="M220.06,311c0,1.47-7.83,2.66-17.49,2.66s-17.5-1.19-17.5-2.66,7.83-2.65,17.5-2.65,17.49,1.19,17.49,2.65Z"/><path class="cls-1" d="M217.28,310.87c0,.68-6.23,1.23-13.91,1.23s-13.9-.55-13.9-1.23,6.22-1.24,13.9-1.24,13.91.55,13.91,1.24Z"/><path class="cls-12" d="M190.07,311.22c1.73-.5,7-.87,13.3-.87s11.58.37,13.31.87c.39-.11.6-.23.6-.35,0-.69-6.23-1.24-13.91-1.24s-13.9.55-13.9,1.24c0,.12.21.24.6.35Z"/><path class="cls-15" d="M222.11,319a25,25,0,1,1,25,25,25,25,0,0,1-25-25Z"/><path class="cls-56" d="M247.13,297.89a21.43,21.43,0,1,0,21.43,21.43,21.45,21.45,0,0,0-21.43-21.43Zm0,44.22a22.79,22.79,0,1,1,16.12-6.68,22.64,22.64,0,0,1-16.12,6.68Z"/><path class="cls-56" d="M250.27,325.93a3.56,3.56,0,0,0-.06-1.32,2.78,2.78,0,0,0-.55-1.1,5.56,5.56,0,0,0-1.12-1,14.69,14.69,0,0,0-1.74-1,34.6,34.6,0,0,1-3.2-1.76,11.28,11.28,0,0,1-2.39-1.94,6.68,6.68,0,0,1-1.42-2.38,6.8,6.8,0,0,1-.24-3,6.94,6.94,0,0,1,.85-2.66,6.38,6.38,0,0,1,1.77-2,7.84,7.84,0,0,1,2.52-1.2,10.63,10.63,0,0,1,3.16-.37l.45-3.75,3,.35-.45,3.81a9.76,9.76,0,0,1,2.85,1.21,7.21,7.21,0,0,1,2,2,7.13,7.13,0,0,1,1.14,2.62,9.74,9.74,0,0,1,.13,3.22l-5.47-.64a4.64,4.64,0,0,0-.56-3.27,3.23,3.23,0,0,0-2.38-1.34,4,4,0,0,0-1.49.06A2.85,2.85,0,0,0,246,311a2.61,2.61,0,0,0-.7.91,3.73,3.73,0,0,0-.33,1.19,3.4,3.4,0,0,0,.05,1.2,2.61,2.61,0,0,0,.53,1.05,5.7,5.7,0,0,0,1.13,1,18.65,18.65,0,0,0,1.8,1c1.17.6,2.23,1.2,3.17,1.8a11.6,11.6,0,0,1,2.39,2,6.84,6.84,0,0,1,1.41,2.39,6.72,6.72,0,0,1,.24,3,7,7,0,0,1-.86,2.71,6.35,6.35,0,0,1-1.78,1.94,7.69,7.69,0,0,1-2.54,1.16,11.48,11.48,0,0,1-3.17.33l-.42,3.5-3-.36.41-3.48a12.17,12.17,0,0,1-3-1,8,8,0,0,1-2.42-1.83,7.26,7.26,0,0,1-1.52-2.71,8.85,8.85,0,0,1-.25-3.7l5.46.65a5.33,5.33,0,0,0,.11,2.12,3.38,3.38,0,0,0,.77,1.44,3.52,3.52,0,0,0,1.25.87,5.9,5.9,0,0,0,1.5.38,4.88,4.88,0,0,0,1.59,0,3.24,3.24,0,0,0,1.2-.5,2.64,2.64,0,0,0,.79-.87,3.2,3.2,0,0,0,.37-1.18Z"/><path class="cls-57" d="M133.53,376.87H114.86a2.07,2.07,0,0,1-2.07-2.08V361.31h22.82v13.48a2.08,2.08,0,0,1-2.08,2.08Z"/><path class="cls-57" d="M303.66,376.87H285a2.08,2.08,0,0,1-2.08-2.08V361.31h22.83v13.48a2.08,2.08,0,0,1-2.08,2.08Z"/><path class="cls-58" d="M295.69,201.47v-38h0v38m0-38h0m0,0h0m0,0h0"/><path class="cls-6" d="M279.53,213.5a15.09,15.09,0,1,0-15.08,15.09,15.08,15.08,0,0,0,15.08-15.09Z"/><path class="cls-3" d="M273.64,214.24a9.2,9.2,0,1,0-9.19,9.19,9.19,9.19,0,0,0,9.19-9.19Z"/><path class="cls-59" d="M264.45,250.07h0a6,6,0,0,1-6-6V215.26a6,6,0,0,1,12,0v28.82a6,6,0,0,1-6,6Z"/><path class="cls-3" d="M135.51,207.87H119.37V195h16.14a6.45,6.45,0,0,1,6.45,6.45h0a6.45,6.45,0,0,1-6.45,6.45Z"/><polygon class="cls-3" points="126.75 207.87 119.37 207.87 119.37 175.13 126.75 175.13 126.75 207.87 126.75 207.87"/><path class="cls-3" d="M135.51,296.62H119.37v12.91h16.14a6.45,6.45,0,0,0,6.45-6.45h0a6.45,6.45,0,0,0-6.45-6.45Z"/><polygon class="cls-3" points="126.75 296.62 119.37 296.62 119.37 329.36 126.75 329.36 126.75 296.62 126.75 296.62"/><path class="cls-6" d="M194.28,219.4a21.44,21.44,0,1,0-21.44,21.44,21.44,21.44,0,0,0,21.44-21.44Z"/><path class="cls-3" d="M188.18,219.4a15.34,15.34,0,1,0-15.34,15.34,15.34,15.34,0,0,0,15.34-15.34Z"/><path class="cls-59" d="M182.11,219.4a9.27,9.27,0,1,0-9.27,9.27,9.27,9.27,0,0,0,9.27-9.27Z"/><path class="cls-59" d="M172.84,206.61h0a.5.5,0,0,1-.5-.5v-2.5a.5.5,0,1,1,1,0v2.5a.5.5,0,0,1-.5.5Z"/><path class="cls-59" d="M163.79,210.3h0a.5.5,0,0,1-.71,0l-1.77-1.77a.5.5,0,0,1,.71-.71l1.77,1.77a.5.5,0,0,1,0,.71Z"/><path class="cls-59" d="M160,219.31h0a.5.5,0,0,1-.5.5H157a.5.5,0,0,1-.5-.5.5.5,0,0,1,.5-.5h2.5a.5.5,0,0,1,.5.5Z"/><path class="cls-59" d="M163.69,228.36h0a.5.5,0,0,1,0,.71l-1.77,1.77a.5.5,0,1,1-.71-.71l1.77-1.77a.5.5,0,0,1,.71,0Z"/><path class="cls-59" d="M181.75,228.46h0a.5.5,0,0,1,.71,0l1.77,1.77a.5.5,0,0,1-.71.71l-1.77-1.77a.5.5,0,0,1,0-.71Z"/><path class="cls-59" d="M185.54,219.45h0a.5.5,0,0,1,.5-.5h2.5a.5.5,0,1,1,0,1H186a.5.5,0,0,1-.5-.5Z"/><path class="cls-59" d="M173,236h0a.51.51,0,0,1-.5-.5V233a.51.51,0,0,1,.5-.5.5.5,0,0,1,.5.5v2.51a.5.5,0,0,1-.5.5Z"/><path class="cls-60" d="M369.54,199.51a13.7,13.7,0,0,1,2.89-2,20.29,20.29,0,0,1,3.25-1.4,18,18,0,0,1,3.46-.77,13.11,13.11,0,0,1,3.54,0c-1.15.3-2.27.52-3.38.83s-2.19.6-3.27,1c-2.18.7-4.29,1.53-6.49,2.38Z"/><path class="cls-61" d="M326.36,187.67s-.19-7.66,4.66-10.29l4.85-2.64Z"/><path class="cls-3" d="M336.72,374.94a6.6,6.6,0,0,1,1.77-5.2,96,96,0,0,0,5.89-7.6l1-8.77,10.27.13c.16,2,.2,8.07.13,8.64a12.64,12.64,0,0,0-.28,5.08c.42,2.75-1.46,7.95-2,8.95S351,379,344,378.74s-7.13-3.16-7.24-3.8"/><g class="cls-62"><path class="cls-63" d="M352.44,365.45a19.1,19.1,0,0,0-.13-3.66l-.26-1,.26,1,3.57-.47-.1,4.15s-2.37,1.17-3.34,0"/><path class="cls-3" d="M415.89,384.79a6.57,6.57,0,0,0-1.76-5.19,37.77,37.77,0,0,1-4.26-6.23l-2.58-10.08-10.66.14c-.16,2-.48,4.24-.41,4.81.16,1.28,1.4,6.12,1,8.86s1.45,7.92,2,8.92,2.49,2.85,9.5,2.56,7.11-3.15,7.21-3.79"/><path class="cls-63" d="M407.26,388.61c-5.86,0-7.6-1.67-8.08-2.59a24.12,24.12,0,0,1-2-8,6.09,6.09,0,0,1,.06-.88,8.48,8.48,0,0,0,.08-1.27c0-.34,0-.69,0-1.05,1-.32,2-.6,3-.84a12.18,12.18,0,0,1,0,2.58c-.41,2.74,1.46,7.93,2,8.92s2.22,2.6,8.09,2.6c.44,0,.92,0,1.41,0s.77,0,1.12-.07a15.16,15.16,0,0,1-4.14.65h0l-1.42,0"/><path class="cls-64" d="M408.42,385c-6.08.22-8.93-.74-10.25-1.66a21.68,21.68,0,0,0,1,2.7c.52,1,2.49,2.85,9.5,2.56s7.11-3.15,7.21-3.79a5.93,5.93,0,0,0-.05-1.7c-1,.88-3.11,1.74-7.42,1.89Z"/></g><path class="cls-4" d="M358.57,349.13s-2.66,5.75-2.69,7c0,.81.09,4.61.17,7.32.05,1.58.09,2.79.09,2.79s1.6,2.36,9,2.15,9.1.43,9.74-.86.21-4.95-3.82-6.46-2-6.53-2-6.53-3.89.43-10.46-5.45Z"/><g class="cls-65"><path class="cls-63" d="M362.23,351.83s-1.78,11.94,1.53,14l2.7,4.38s-9.55-.5-10.32-4h0L355,354.56l3-6.34,5.06,4.26"/><path class="cls-64" d="M356.05,363.49s6.2,1.88,9.45,1.84c0,0,7.81.2,10.1-1.15l1,5.61-8,2s-12.39-3.47-12.79-4.62l.17-3.64"/></g><path class="cls-63" d="M353.72,376a24.48,24.48,0,0,0,.87-2.4,9.38,9.38,0,0,1-3.7,1.32c.73-1.84,2-5.85,1.63-8.14a8.53,8.53,0,0,1-.08-1.28,6.18,6.18,0,0,0,1.29.14,3.46,3.46,0,0,0,1.59-.41c0,.26.15.58.15.83a8.52,8.52,0,0,0,.09,1.29,5.94,5.94,0,0,1,.06.87,24.22,24.22,0,0,1-1.9,7.78"/><path class="cls-6" d="M378.91,228.38c-17.58,5.51-42.37,3.6-42.37,3.6s-1.42,50.39,0,65.64c0,0-1.14,2.23,4.23,65.37,0,0,9.9.56,15-.85,0,0,1.13-50,1.55-62.71s3.82-49.15,3.82-49.15l13.13,45.19s-4.94,6.5-8.05,21.19-7.63,32.77-7.63,32.77,9.84,7.93,13.8,7.08c0,0,19.26-54,21.23-62.17s-14.69-66-14.69-66Z"/><path class="cls-61" d="M335.69,212.05v31.4s29.46,2.57,47-2.75l-8.48-38.59-34.73,2-3.83,7.89Z"/><path class="cls-66" d="M346.91,157.68c-.71-.84-2.42-5.9-2.42-5.9l-.64.76a7.86,7.86,0,0,1-5.19,2.8c-2.23.21-4.84-1.12-6.85-2.16l.12.37s1.93,5.67,2,6.52,0,2.93,0,2.93,6.85,5.26,9,4.56,5.68-8,5.68-8-.95-1.05-1.66-1.9Z"/><path class="cls-10" d="M345.25,153.93c-.43-1.47-.76-2.89-.76-2.89h0c-1.34,1.66-3.67,3.74-5.83,4s-4.88-.79-6.89-1.95h0s.69,2,1.22,3.79c.87,2.86,7.52,1.17,11.33-2Z"/><path class="cls-66" d="M321.07,134s3.89,12.55,5,13.77c0,0,6.55,8.7,13.29,7.76s7.09-10.29,7.2-12.63-1.27-15.42-1.27-15.42-9,2.32-12.6-2c0,0-3.43,8.43-11.3,8.16Z"/><path class="cls-64" d="M344.26,375.21c6.12.22,9-.74,10.33-1.66a19.22,19.22,0,0,1-1,2.7c-.52,1-2.51,2.87-9.58,2.57s-7.17-3.15-7.27-3.8a5.93,5.93,0,0,1,0-1.7c1,.88,3.13,1.74,7.49,1.89"/><path class="cls-10" d="M324.17,143.19c-.25-.42-.5-.87-.74-1.31l.25.24c.14.34.32.71.49,1.07m-1-3.23a5.79,5.79,0,0,1-.29-.78,7.84,7.84,0,0,1-.2-3.57,5.46,5.46,0,0,1,3.9-4.2h0c2.05-.49,4.33.65,6.06,1.59a3,3,0,0,0,1.45.5,1.57,1.57,0,0,0,.37-.05,3.89,3.89,0,0,0,.74-.28,47.1,47.1,0,0,0,6.39-3.59,5.25,5.25,0,0,1,1.65-.78,3.35,3.35,0,0,1,.54-.08,2.17,2.17,0,0,1,2.09,1.35c.54,1-.35.85-.21,2-.1-.31.16.29,0,0-.53-1-1-.89-1.83-.86-.18,0,.18,0,0,0a5.15,5.15,0,0,0-1.65.78,47.1,47.1,0,0,1-6.39,3.59,4,4,0,0,1-.75.28,1.5,1.5,0,0,1-.37,0,3,3,0,0,1-1.45-.5c-1.73-.94-4-2.08-6.06-1.59h0a5.45,5.45,0,0,0-3.9,4.19,7,7,0,0,0-.09,1.93"/><path class="cls-3" d="M343.3,128.82a5.11,5.11,0,0,0-2.17,1.09,45.67,45.67,0,0,1-6.21,3.61,2.94,2.94,0,0,1-1.1.38,3,3,0,0,1-1.45-.42c-1.75-.83-4.05-1.83-6.07-1.26a5.23,5.23,0,0,0-3.6,4.21,7.28,7.28,0,0,0,.45,3.39,13.17,13.17,0,0,1,1,3.22,15.13,15.13,0,0,1-1.59-1.4c-.69-.95-1.44-1.84-2.15-2.77a20.17,20.17,0,0,1-3.66-6.75,15.59,15.59,0,0,1,1.82-11.84,17.23,17.23,0,0,1,6.38-6.36c7.6-4.27,17.58-.44,21.37,6.62a19.39,19.39,0,0,1,2.28,9.12,14.55,14.55,0,0,1-.48,3.51,7.67,7.67,0,0,1-.68,1.69,15.09,15.09,0,0,0-1.19,2.16c-.2-2.28-.18-4.7-1.33-6.66-.57-1-.78-1.61-1.59-1.54"/><path class="cls-60" d="M335.69,216.68s34.16.36,41.13-2.89l-2.57-11.68L335.69,206Z"/><path class="cls-61" d="M319.2,179.46c-1.48,3.46-4.5,27.73-1.85,31.55s8.42,10.26,34.69-9.23l2.54,7.62s25.85-1.27,31.36-9.11-7.84-28.6-10.38-33.26S348,159,348,159s-2.4,5.54-6,6.67S334,163,334,163,320.68,176,319.2,179.46Z"/><polygon class="cls-66" points="354.55 209.4 341.65 208.8 352 201.77 354.55 209.4 354.55 209.4"/><path class="cls-60" d="M326,199.79a4.06,4.06,0,0,0-.72.84,97.57,97.57,0,0,1,17.75-3.3c2.43-.05,4.85-.13,7.29-.3l-.49-.06a101.62,101.62,0,0,0-12.57-.68c-1.09,0-2.18,0-3.27.1,0,0-3.43-14.7-8.71-17.66,0,0,5,13.34,5.39,18.13A10.43,10.43,0,0,0,326,199.79Z"/><path class="cls-60" d="M370.34,193.15a2,2,0,0,1,0-.26l.15,0s-1-4.76-2-10c-.52-3.15-1.05-6.57-1.42-9.65-.06-.65-.1-1.25-.11-1.78,0,0-.4,10.73-.11,17.62a15.48,15.48,0,0,1-1.13,5.18,26.71,26.71,0,0,0-8.87,4.68l-2.28,1.74s16.58-7.38,19.7-7.78A24.18,24.18,0,0,0,370.34,193.15Z"/><path class="cls-59" d="M183.7,208.07h0a.51.51,0,0,1,0,.71l-1.77,1.77a.51.51,0,0,1-.71,0,.5.5,0,0,1,0-.71l1.77-1.77a.5.5,0,0,1,.71,0Z"/><polygon class="cls-7" points="424.39 293.87 424.1 297.79 433.74 297.79 424.39 293.87"/><path class="cls-3" d="M446.5,161.32c-3.74-2-9.84-1-10.75-.77-11.61,2.42-17.33,13-17.72,17.87-.72,9-11.62,7.26-12.16,16-.68,11.06,21.6,11.32,28.93,16.19,4.4,2.92-18.92,13.06-18.92,13.06S433,205.55,444.72,203.9c13.79-1.94,11.31-37.58,1.78-42.58Z"/><path class="cls-57" d="M421.3,278a302.77,302.77,0,0,0-3-34.48c-2.16-13.46-4.1-21.21-4.12-21.3-.28-1.18-4.39-6-13.51-5.82s-8.25,6.43-8.25,6.43h0a2.91,2.91,0,0,0,.06.56c.09.32,8.46,33.11,8.1,75.44,0,.6-.07,1.63,0,2.31,0,0,21.14.59,21.14,0,.74-3.7.38-13.95-.39-23.14Z"/><path class="cls-67" d="M424,298.6c0,.59-.29,1.06-.65,1.06h0c-.36,0-.64-.48-.64-1.06H404.56c0,.59-.3,1.06-.65,1.06h0c-.35,0-.64-.5-.63-1.09a319.93,319.93,0,0,0-1.51-33.43c-2.4-24.91-6.85-41.55-6.92-41.78a2.29,2.29,0,0,1-.06-.56s-.87-6.28,8.25-6.43,13.22,4.64,13.51,5.82c0,.07,1.11,4.45,2.57,12.34.49,2.61,1,5.61,1.55,9a302.77,302.77,0,0,1,3,34.48c.77,9.19,1,16.93.3,20.63Z"/><path class="cls-7" d="M424,298.6c0,.59-.29,1.06-.65,1.06h0c-.36,0-.64-.48-.64-1.06H404.56c0,.59-.3,1.06-.65,1.06h0c-.35,0-.64-.5-.63-1.09a319.93,319.93,0,0,0-1.51-33.43c3-15.8,14.57-27.89,17.35-30.61.49,2.61,1,5.61,1.55,9a302.77,302.77,0,0,1,3,34.48c.77,9.19,1,16.93.3,20.63Z"/><path class="cls-57" d="M409.75,297c-2,0-3.45.1-4,.66h0c0-.56,0-1.6-.08-3.57-.06-2.31-.16-5.92-.31-10-.26-7.13-.72-16.94-1.39-23.18-.79-7.27-5.46-36.71-5.49-36.8a1.56,1.56,0,0,1,0-.39,3.91,3.91,0,0,1,.79-2.7c1-1.26,2.74-1.92,5.24-2,6.67-.1,9.72,3.31,9.94,4.24.05.22,5.24,23,6.14,35.86.09,1.2.27,3.23.51,5.8.92,10.08,2.84,31.06.92,31.43a53.33,53.33,0,0,1-10.53.63l-1.74,0Zm-4,1.37.05,0s0,0,0-.1h0a.53.53,0,0,1,.14-.41c.57-.64,2.76-.61,5.55-.58a52.87,52.87,0,0,0,10.56-.63c1.95-.37.63-16.54-.75-31.67-.23-2.57-.42-4.6-.5-5.8-.9-12.87-6.1-35.72-6.15-35.9-.23-1-3.36-4.53-10.14-4.41-2.57,0-4.38.73-5.4,2a4.12,4.12,0,0,0-.84,2.86,2,2,0,0,0,.05.43c0,.13,4.72,29.68,5.48,36.77,1.27,11.7,1.77,35.88,1.79,37.23v.12l.11.08Z"/><path class="cls-57" d="M396.15,375.16c8.23-45,6.11-72.65,6.1-73,0-.69,1.17-1.32,1.8-1.34s3.49-.2,3.82.39c.43.77,2.09,34.82-10.19,74Z"/><path class="cls-7" d="M462.45,375.16c-8.24-45-6.12-72.65-6.11-73,0-.69-1.16-1.32-1.8-1.34s-3.48-.2-3.81.39c-.43.77-2.09,34.82,10.18,74Z"/><path class="cls-68" d="M475.58,375.16c-8.23-45-6.11-72.65-6.1-73,0-.69-1.16-1.32-1.8-1.34s-3.49-.2-3.82.39c-.43.77-2.08,34.82,10.19,74Z"/><path class="cls-68" d="M409.38,375.16c8.23-45,6.11-72.65,6.1-73,0-.69,1.16-1.32,1.8-1.34s3.48-.2,3.81.39c.43.77,2.09,34.82-10.18,74Z"/><path class="cls-57" d="M473,302H402a1.52,1.52,0,0,1-1.44-1.58v-1a1.53,1.53,0,0,1,1.44-1.59h71a1.53,1.53,0,0,1,1.45,1.59v1A1.52,1.52,0,0,1,473,302Z"/><path class="cls-66" d="M458.34,250.49s13,16.24,15.63,16,4.38-1.21,6.74,0c1.69.87,7.06,5.59,5.62,5.28s-4.05-.68-4.74-.75c-.94-.1-2.46-.13-3.5-.32-.65-.13-3-.2-3.79-.23-3.42-.12-19.58-10.46-19.58-10.46l3.62-9.5Z"/><path class="cls-61" d="M480.27,235.32c.28.78,1.51,1.2,2.12,1.36a6.73,6.73,0,0,1-.44-2,1.58,1.58,0,0,0-1.4-.81c-.39.08-.63.44-.28,1.43Zm-.58-2.17a3.31,3.31,0,0,1,2.25,0V232a6.33,6.33,0,0,1,.05-.76H492.9c0,.25,0,.5,0,.76v2.34a5.79,5.79,0,0,1-5.5,6,5.31,5.31,0,0,1-4.12-2h0s-2.6-.7-3.41-1.76-1.08-2.77-.22-3.36Z"/><path class="cls-69" d="M492.05,232v2.34a5.8,5.8,0,0,1-5.5,6,4.52,4.52,0,0,1-.74-.06,5.87,5.87,0,0,0,4.76-6V232c0-.26,0-.51,0-.76H492a6.33,6.33,0,0,1,.05.76Z"/><path class="cls-66" d="M508.21,368.67c-.23,2.72,3.23,3.39,7.25,3.61s2.8,1.12,8.31,2.21,7.71-.56,8.11-1.37-2.21-1.86-4.94-3.13l-1-.49c-3.08-1.48-4.8-4.5-7.19-7.29s-4.42-11.12-4.42-11.12l-7.48-1.75s2.1,7.62,2.83,10.88a11,11,0,0,1-.76,5.69,11.17,11.17,0,0,0-.69,2.76Z"/><path class="cls-3" d="M515.6,372.31c3.95.22,2.75,1.1,8.17,2.18s7.58-.55,8-1.35-2.17-1.82-4.85-3.08l0,.05a14.11,14.11,0,0,1-8.2.11c-3.58-1.07-7-3.41-9.51-4.17a11.22,11.22,0,0,0-.68,2.71c-.22,2.69,3.19,3.34,7.14,3.55Z"/><path class="cls-3" d="M442,265.39s41.45,2,50.81,8.51,24.36,81.8,24.36,81.8a5.86,5.86,0,0,1-3,1.06c-1.92.23-6.16-1-6.16-1s-21.56-33.71-23.08-42.2-1.15-16.07-4.61-16.27-46.58,5.74-53.1-6.84S442,265.39,442,265.39Z"/><path class="cls-66" d="M491.11,369c-.23,2.73,3.24,3.4,7.25,3.61s2.81,1.12,8.31,2.22,7.71-.56,8.1-1.38-2.2-1.85-4.92-3.13l-1-.49c-3.06-1.47-4.79-4.49-7.18-7.28s-4.42-11.13-4.42-11.13l-7.48-1.75s2.1,7.63,2.83,10.89a10.87,10.87,0,0,1-.77,5.69,11.53,11.53,0,0,0-.68,2.75Z"/><path class="cls-3" d="M498.36,372.58c4,.22,2.81,1.12,8.31,2.22s7.71-.56,8.1-1.38-2.2-1.85-4.92-3.13l-.05,0a14.35,14.35,0,0,1-8.33.11c-3.64-1.08-7.16-3.46-9.68-4.23a11.53,11.53,0,0,0-.68,2.75c-.23,2.73,3.24,3.4,7.25,3.61Z"/><path class="cls-6" d="M421.13,267.65s48.93,1.1,58.05,8,21.44,82.78,21.44,82.78a5.65,5.65,0,0,1-3,.93c-1.93.15-6.12-1.27-6.12-1.27s-20.35-34.6-21.57-43.15-.58-16.11-4-16.45-45.5,3.87-51.57-9a22.91,22.91,0,0,1,4.21-19.67Z"/><path class="cls-66" d="M412.7,204.69a.35.35,0,0,1,.05-.08,7.26,7.26,0,0,1,1.23-1.18h0c3.61-2.77,10.05-3.36,10.05-3.36h0s.71-.07,1.82-.12A39.5,39.5,0,0,0,428,188.8l.64.19,10.74,3.15s-.47,3.74-.7,7.27c-.05.78-.08,1.54-.1,2.26.31.12,7,1.15,8.45,2.86s4.36,13.11,5.09,15.13l-41.36.74s-1-11.84,2-15.71Z"/><path class="cls-64" d="M437.47,270.66l.87-.32c2.67-1.13,5.39-1.45,8.45-2,3.9-.69,2.94-.31,4.28-1.23,1.88-1.31-.87-1.19-3.34-4.89-1.09-1.63-1.18-4.12-1.63-5.2-.35-.84-.33-2.69-.09-5.06h0q.06-.66.15-1.38a15.91,15.91,0,0,0,1,1.86,27,27,0,0,0,3.51,4.49,11.6,11.6,0,0,0,4.07,3.08,3,3,0,0,0,1.94-.19c1.72-.74,3.38-2.81,4.7-4.8.31-.47.61-.93.87-1.39a7.18,7.18,0,0,1,.89-1.49c.74-.89-2.85-3.77-4.36-5.08s-6.66-27.38-6.66-27.38c-.73-2-3.63-13.41-5.09-15.13,0,0-5.67,7.58-13,7.15s-19.8-8.14-20-8.26a4.7,4.7,0,0,0-1.3,1.27c-3,3.87-2,15.71-2,15.71s5.72,27.61,5.72,30.39c0,5.11-2,12.92-2,21.58C416.63,275.49,431.14,273.3,437.47,270.66Z"/><path class="cls-10" d="M439.36,192.14s-.48,3.74-.7,7.27c-6.08-.63-8.93-6.95-10-10.42l10.74,3.15Z"/><path class="cls-66" d="M441.19,195.64s-14.43-.79-13.84-10.62-.88-16.56,8.36-16.47,10.8,4,11.34,7.3-2.09,19.74-5.86,19.79Z"/><path class="cls-7" d="M446.18,247.41a42,42,0,0,0,4.47,9.5,11.6,11.6,0,0,0,4.07,3.08,3,3,0,0,0,1.94-.19c1.72-.74,3.38-2.81,4.7-4.8.31-.47.6-.94.87-1.39-4.59-4-13.28-13.24-14.18-25.85-1.23-17.23-1.93,20.44-1.87,19.65Z"/><path class="cls-7" d="M418.52,226.65s2,39,17.93,44.41c.1-.06,0,0,.06,0a48,48,0,0,1,10.28-2.73c3.9-.69,5.4-.82,6.65-2.29.16-.4-1.19-2.13-4.47-4.23-1.65-1.05-2.42-3.72-2.87-4.8-.35-.84-.33-2.69-.09-5.06h0c-15.47-6.26-27.49-25.29-27.49-25.29Z"/><path class="cls-66" d="M414.46,214.91c1.67-8.25,9.25-3.52,9.25-3.52,2.63-.65,21.91,33.57,23.45,34.35,1.31.66,19.08-5,24.47-6.74,1.4-1.19,6.29-5.35,7.14-5.42,1-.09,7.69,1.79,7.65,3s-1.61,2.87-4.07,3.3c-1.87.32-5.05,1.67-7.07,2h0s-19.61,14.63-28,16.42c-7.52,1.6-34.53-35.12-32.86-43.36Z"/><path class="cls-64" d="M458.91,242.88s3.48,5.36,1.79,9.34c-.32.77-5.51,3.6-13.75,6.65-5.79-.74-12.82-5.16-19-14.89-12.56-19.86-18.11-30.37-11.43-33.49s12.21,1.78,15.64,9.42c3.56,8,12.57,21.75,15.75,25.47,4.4-.22,11-2.5,11-2.5Z"/><path class="cls-3" d="M447.79,169.15s-9.26,8-15.56,8.62-8.68-1.38-8.68-1.38a24.65,24.65,0,0,0,5.95-8,4.39,4.39,0,0,1,3.65-2.61c4.49-.39,13-.57,14.64,3.42Z"/><path class="cls-3" d="M442,168.44s3.1,3,4.08,5.21,1.22,7.27.47,9.31c0,0,4.83-9.39,2.1-13.94-2.9-4.84-6.65-.58-6.65-.58Z"/><path class="cls-64" d="M425.87,199.94s6.46,6,12.69,1.73c0,0,7.23,1.28,8.45,2.86,0,0-7.16,10.48-14,8s-18.54-6.6-19-9.08C414,203.42,417.63,200.3,425.87,199.94Z"/><path class="cls-70" d="M125,343.19a2.18,2.18,0,0,1-2.17-2.18V163.48A2.18,2.18,0,0,1,125,161.3H293.52a2.18,2.18,0,0,1,2.17,2.18V341a2.18,2.18,0,0,1-2.17,2.18H125"/><path class="cls-71" d="M154,343.19H125a2.18,2.18,0,0,1-2.17-2.18v-7.12L294.9,161.81a2.15,2.15,0,0,1,.79,1.62h0v0h0v38L154,343.19"/><polyline class="cls-71" points="122.83 237.47 122.83 193.46 154.98 161.3 198.99 161.3 122.83 237.47"/></svg>