<svg id="Layer_1" data-name="Layer 1" xmlns="http://www.w3.org/2000/svg" xmlns:xlink="http://www.w3.org/1999/xlink" viewBox="0 0 1364.6 841.89"><defs><style>.cls-1{fill:#f6ba40;}.cls-2{fill:#f99f1b;}.cls-12,.cls-3{fill:none;}.cls-20,.cls-4{fill:#c3e1e6;}.cls-4{fill-rule:evenodd;opacity:0.55;}.cls-5{fill:#3e94a8;}.cls-6{opacity:0.63;}.cls-7{fill:#83c0cc;}.cls-8{fill:#17697a;}.cls-9{fill:#47494c;}.cls-10{fill:#f9a876;}.cls-11{fill:#fdb61b;}.cls-12{stroke:#f6ba40;stroke-miterlimit:10;stroke-width:4px;}.cls-13{fill:#ece6e3;}.cls-14{fill:#f4ccb1;}.cls-15,.cls-49{fill:#84c0cc;}.cls-16{fill:#faa52d;}.cls-17{fill:#d78c2f;}.cls-18{fill:#efb68f;}.cls-19{fill:#5e6264;}.cls-21{clip-path:url(#clip-path);}.cls-22{clip-path:url(#clip-path-2);}.cls-23{fill:#f4901f;}.cls-24{fill:#e28725;}.cls-25{clip-path:url(#clip-path-3);}.cls-26{fill:#fdb83e;}.cls-27{clip-path:url(#clip-path-4);}.cls-28{clip-path:url(#clip-path-5);}.cls-29{clip-path:url(#clip-path-6);}.cls-30{clip-path:url(#clip-path-7);}.cls-31{clip-path:url(#clip-path-8);}.cls-32{clip-path:url(#clip-path-9);}.cls-33{clip-path:url(#clip-path-10);}.cls-34{clip-path:url(#clip-path-11);}.cls-35{clip-path:url(#clip-path-12);}.cls-36{clip-path:url(#clip-path-13);}.cls-37{clip-path:url(#clip-path-14);}.cls-38{clip-path:url(#clip-path-15);}.cls-39{clip-path:url(#clip-path-16);}.cls-40{clip-path:url(#clip-path-17);}.cls-41{clip-path:url(#clip-path-18);}.cls-42{clip-path:url(#clip-path-19);}.cls-43{clip-path:url(#clip-path-20);}.cls-44{clip-path:url(#clip-path-21);}.cls-45{clip-path:url(#clip-path-22);}.cls-46{clip-path:url(#clip-path-23);}.cls-47{clip-path:url(#clip-path-24);}.cls-48{clip-path:url(#clip-path-25);}.cls-49{opacity:0.53;}.cls-50{fill:#479fb5;}.cls-51{clip-path:url(#clip-path-26);}.cls-52{clip-path:url(#clip-path-27);}.cls-53{clip-path:url(#clip-path-28);}.cls-54{clip-path:url(#clip-path-29);}.cls-55{clip-path:url(#clip-path-30);}.cls-56{clip-path:url(#clip-path-31);}.cls-57{clip-path:url(#clip-path-32);}.cls-58{clip-path:url(#clip-path-33);}.cls-59{clip-path:url(#clip-path-34);}.cls-60{clip-path:url(#clip-path-35);}.cls-61{clip-path:url(#clip-path-36);}.cls-62{clip-path:url(#clip-path-37);}.cls-63{fill:#d1d3d4;}.cls-64{fill:#ec7d29;}</style><clipPath id="clip-path"><circle class="cls-1" cx="640.54" cy="456.78" r="206.29"/></clipPath><clipPath id="clip-path-2"><path class="cls-2" d="M202,662.44v13.32c0,4.62,24.66,8.37,55.08,8.37s55.08-3.75,55.08-8.37V662.44Z"/></clipPath><clipPath id="clip-path-3"><path class="cls-3" d="M202,662.44v13.32c0,4.62,24.66,8.37,55.08,8.37s55.08-3.75,55.08-8.37V662.44H202"/></clipPath><clipPath id="clip-path-4"><path class="cls-2" d="M209.77,646.88v13.33c0,4.61,24.66,8.36,55.08,8.36s55.08-3.75,55.08-8.36V646.88Z"/></clipPath><clipPath id="clip-path-5"><path class="cls-3" d="M209.77,646.88v13.33c0,4.61,24.66,8.36,55.08,8.36s55.08-3.75,55.08-8.36V646.88H209.77"/></clipPath><clipPath id="clip-path-6"><path class="cls-2" d="M203.3,630.6v13.32c0,4.62,24.66,8.36,55.08,8.36s55.08-3.74,55.08-8.36V630.6Z"/></clipPath><clipPath id="clip-path-7"><path class="cls-3" d="M203.3,630.6v13.32c0,4.62,24.66,8.36,55.08,8.36s55.08-3.74,55.08-8.36V630.6H203.3"/></clipPath><clipPath id="clip-path-8"><path class="cls-2" d="M208.27,615.3v13.32c0,4.62,24.66,8.37,55.08,8.37s55.08-3.75,55.08-8.37V615.3Z"/></clipPath><clipPath id="clip-path-9"><path class="cls-3" d="M208.27,615.3v13.32c0,4.62,24.66,8.37,55.08,8.37s55.08-3.75,55.08-8.37V615.3H208.27"/></clipPath><clipPath id="clip-path-10"><path class="cls-2" d="M216.06,599.74v13.33c0,4.61,24.66,8.36,55.08,8.36s55.08-3.75,55.08-8.36V599.74Z"/></clipPath><clipPath id="clip-path-11"><path class="cls-3" d="M216.06,599.74v13.33c0,4.61,24.66,8.36,55.08,8.36s55.08-3.75,55.08-8.36V599.74H216.06"/></clipPath><clipPath id="clip-path-12"><path class="cls-2" d="M209.6,583.46v13.32c0,4.62,24.65,8.36,55.07,8.36s55.08-3.74,55.08-8.36V583.46Z"/></clipPath><clipPath id="clip-path-13"><path class="cls-3" d="M209.6,583.46v13.32c0,4.62,24.65,8.36,55.07,8.36s55.08-3.74,55.08-8.36V583.46H209.6"/></clipPath><clipPath id="clip-path-14"><path class="cls-2" d="M794.53,665.39V677.2c0,4.09,21.87,7.41,48.84,7.41s48.83-3.32,48.83-7.41V665.39Z"/></clipPath><clipPath id="clip-path-15"><path class="cls-3" d="M794.53,665.39V677.2c0,4.09,21.87,7.41,48.84,7.41s48.83-3.32,48.83-7.41V665.39H794.53"/></clipPath><clipPath id="clip-path-16"><path class="cls-2" d="M801.45,651.59v11.82c0,4.09,21.86,7.41,48.83,7.41s48.83-3.32,48.83-7.41V651.59Z"/></clipPath><clipPath id="clip-path-17"><path class="cls-3" d="M801.45,651.59v11.82c0,4.09,21.86,7.41,48.83,7.41s48.83-3.32,48.83-7.41V651.59H801.45"/></clipPath><clipPath id="clip-path-18"><path class="cls-2" d="M795.71,637.15V649c0,4.09,21.86,7.41,48.83,7.41s48.84-3.32,48.84-7.41V637.15Z"/></clipPath><clipPath id="clip-path-19"><path class="cls-3" d="M795.71,637.15V649c0,4.09,21.86,7.41,48.83,7.41s48.84-3.32,48.84-7.41V637.15H795.71"/></clipPath><clipPath id="clip-path-20"><path class="cls-2" d="M903.77,664.78v11.81c0,4.09,21.86,7.41,48.83,7.41s48.84-3.32,48.84-7.41V664.78Z"/></clipPath><clipPath id="clip-path-21"><path class="cls-3" d="M903.77,664.78v11.81c0,4.09,21.86,7.41,48.83,7.41s48.84-3.32,48.84-7.41V664.78H903.77"/></clipPath><clipPath id="clip-path-22"><path class="cls-2" d="M910.68,651v11.81c0,4.1,21.86,7.42,48.83,7.42s48.84-3.32,48.84-7.42V651Z"/></clipPath><clipPath id="clip-path-23"><path class="cls-3" d="M910.68,651v11.81c0,4.1,21.86,7.42,48.83,7.42s48.84-3.32,48.84-7.42V651H910.68"/></clipPath><clipPath id="clip-path-24"><path class="cls-2" d="M905,636.54v11.81c0,4.1,21.86,7.42,48.83,7.42s48.83-3.32,48.83-7.42V636.54Z"/></clipPath><clipPath id="clip-path-25"><path class="cls-3" d="M905,636.54v11.81c0,4.1,21.86,7.42,48.83,7.42s48.83-3.32,48.83-7.42V636.54H905"/></clipPath><clipPath id="clip-path-26"><path class="cls-2" d="M899.74,621.67v11.81c0,4.09,21.87,7.41,48.84,7.41s48.83-3.32,48.83-7.41V621.67Z"/></clipPath><clipPath id="clip-path-27"><path class="cls-3" d="M899.74,621.67v11.81c0,4.09,21.87,7.41,48.84,7.41s48.83-3.32,48.83-7.41V621.67H899.74"/></clipPath><clipPath id="clip-path-28"><path class="cls-2" d="M906.65,607.87v11.82c0,4.09,21.87,7.41,48.84,7.41s48.83-3.32,48.83-7.41V607.87Z"/></clipPath><clipPath id="clip-path-29"><path class="cls-3" d="M906.65,607.87v11.82c0,4.09,21.87,7.41,48.84,7.41s48.83-3.32,48.83-7.41V607.87H906.65"/></clipPath><clipPath id="clip-path-30"><path class="cls-2" d="M900.92,593.43v11.81c0,4.1,21.86,7.42,48.83,7.42s48.84-3.32,48.84-7.42V593.43Z"/></clipPath><clipPath id="clip-path-31"><path class="cls-3" d="M900.92,593.43v11.81c0,4.1,21.86,7.42,48.83,7.42s48.84-3.32,48.84-7.42V593.43H900.92"/></clipPath><clipPath id="clip-path-32"><path class="cls-2" d="M905.32,579.87v11.81c0,4.1,21.87,7.42,48.84,7.42s48.83-3.32,48.83-7.42V579.87Z"/></clipPath><clipPath id="clip-path-33"><path class="cls-3" d="M905.32,579.87v11.81c0,4.1,21.87,7.42,48.84,7.42s48.83-3.32,48.83-7.42V579.87H905.32"/></clipPath><clipPath id="clip-path-34"><path class="cls-2" d="M912.23,566.08v11.81c0,4.1,21.87,7.42,48.84,7.42s48.83-3.32,48.83-7.42V566.08Z"/></clipPath><clipPath id="clip-path-35"><path class="cls-3" d="M912.23,566.08v11.81c0,4.1,21.87,7.42,48.84,7.42s48.83-3.32,48.83-7.42V566.08H912.23"/></clipPath><clipPath id="clip-path-36"><path class="cls-2" d="M906.5,551.64v11.81c0,4.1,21.86,7.41,48.83,7.41s48.84-3.31,48.84-7.41V551.64Z"/></clipPath><clipPath id="clip-path-37"><path class="cls-3" d="M906.5,551.64v11.81c0,4.1,21.86,7.41,48.83,7.41s48.84-3.31,48.84-7.41V551.64H906.5"/></clipPath></defs><path class="cls-4" d="M1135.37,246.55c-9.16,0-16.59-5.71-16.59-12.75s7.43-12.74,16.59-12.74,16.59,5.7,16.59,12.74-7.42,12.75-16.59,12.75ZM334.2,552.13H248.71c-47.72,0-86.76,30-86.76,66.64h0c0,36.65,39,66.64,86.76,66.64h843.07c77.27,0,140.48-48.56,140.48-107.91h0c0-59.35-63.21-107.9-140.48-107.9h0c-32.67,0-59.4-20.53-59.4-45.63h0c0-25.09,26.73-45.62,59.4-45.62h71.49c34,0,61.76-21.35,61.76-47.44h0c0-26.08-27.8-47.43-61.76-47.43h-90.4c-13.22,0-24-8.31-24-18.47h0c0-10.15,10.82-18.46,24-18.46h15.94c9.12,0,16.59-5.74,16.59-12.75h0c0-7-7.47-12.74-16.59-12.74H984.24c-22,0-24.47,20-80.1,20H743.86c-11.91,0-21.65,7.48-21.65,16.63h0c0,9.14,9.74,16.63,21.65,16.63h20.8c17.25,0,31.37,10.84,31.37,24.1h0c0,13.25-14.12,24.09-31.37,24.09H733.37c-84.51,0-96.44,17-111.24,50.7s-91.67,36.46-91.67,36.46h-208c-26,0-3.28,23.69-3.28,43.67l16.34,10.73c0,20-39.06,18.23-13.06,18.23H334.2c25,0,45.48,15.71,45.48,34.93h0c0,19.2-20.47,34.92-45.48,34.92Z"/><path class="cls-5" d="M424.47,266.33H218.7c-25.72,0-46.77,24.8-46.77,55.12h0c0,30.31,21,55.12,46.77,55.12h11.62c24.74,0,45,23.85,45,53s-20.24,53-45,53H145.74c-47.2,0-85.82,45.51-85.82,101.14S98.54,684.9,145.74,684.9H636.52l13.09-422.46Z"/><g class="cls-6"><path class="cls-7" d="M227,586.56s29-12.7,21.82-39.08c0,0-6.64-16.64-16.12-22.44,0,0-1.58,36.92-7.2,36.7s4.2-41.23,4.2-41.23S206,499.2,195.14,498.39c0,0,9.83,38.29,4.54,36.38s-17.07-41-17.07-41-26.35-11.75-34.75,7.63-3.24,30.91.6,33,30.16,6.79,28.65,10.87-20.55,7.36-29.68,1.63c0,0,4.36,35.46,19,36.58s21.22-9,30.24-8.09,14.92,5.12,9.91,7.2-19.61-2.84-28.24,3.29-15.33,9.63-2.71,15.61,36.89,8.55,44.14-3.17L227,586.56Z"/><path class="cls-8" d="M159.22,510.18s65.91,42.72,67.8,76.38a82.27,82.27,0,0,0,.77,32.13L226.55,625s-3.27-23-6.78-26.74c0,0,21.47-24.7-60.55-88.1Z"/></g><path class="cls-9" d="M358.06,526.56c-2.1,0-4-.07-5.59-.23-10.84-1.11-24.46-3.89-24.46-3.89V519.8c6.39.67,21.42,2.13,30.44,2.13.77,0,1.49,0,2.16,0,11.44-.38,23-1.58,28.74-2.23l0,4.53s-19,2.37-31.26,2.37"/><path class="cls-10" d="M321.64,447.81a46.23,46.23,0,0,0,.42,13.33c1.31,8.15,1.35,23.93,1.66,24.84a5.22,5.22,0,0,0,6.21,3c3.85-1,9.05-5.4,9.05-5.4l-9.78-36.47-7.56.69Z"/><path class="cls-11" d="M404.38,458.8c0,.46,1.15,2.28-.31,10.42s-6,22.43-6.34,23.34a6.29,6.29,0,0,1-7.33,2.94c-4.59-1.08-10.82-5.52-10.82-5.52l11.17-36.38,13.63,5.2"/><path class="cls-1" d="M107.61,626.42a59.54,59.54,0,0,0-.51,7.74c0,26.12,17,47.3,37.91,47.3s37.92-21.18,37.92-47.3a59.54,59.54,0,0,0-.51-7.74Z"/><ellipse class="cls-12" cx="187.41" cy="642.42" rx="14.45" ry="9.63" transform="translate(-296.1 179.77) rotate(-30)"/><path class="cls-12" d="M150.72,574a16.48,16.48,0,0,1-1.94,12.38s-4.08,8,2.52,12c0,0,9.18,6.24-1.38,14.71,0,0-7.5,6.06-.36,14.45"/><path class="cls-12" d="M139.44,544.13a16.48,16.48,0,0,1-1.94,12.38s-4.08,8,2.52,12c0,0,9.18,6.24-1.38,14.71,0,0-7.5,6.07-.36,14.45"/><rect class="cls-3" x="276.77" y="659.97" width="28.25" height="22.37"/><circle class="cls-13" cx="201.97" cy="383.75" r="1.03"/><circle class="cls-13" cx="161.95" cy="441.66" r="1.03"/><circle class="cls-8" cx="194.89" cy="250.41" r="1.03"/><circle class="cls-8" cx="253.64" cy="233.09" r="0.8"/><path class="cls-3" d="M1041.77,262.44H998.2a4.27,4.27,0,0,0-4.27,4.27v35.84h47.84Z"/><path class="cls-3" d="M1097.35,266.71a4.28,4.28,0,0,0-4.28-4.27h-47.43v40.11h51.71Z"/><path class="cls-3" d="M1045.64,306.42v61.06c9.21,3.06,17.37,3.21,21.39-3,9.24-14.16,19.34-38.78,30.32-32.41v-25.7Z"/><path class="cls-3" d="M993.93,306.42v38.92c4.88-2.19,10.3-2.1,16.61,2.49,7.94,5.78,20,13.72,31.23,18.22V306.42Z"/><circle class="cls-13" cx="229.06" cy="422.17" r="1.15"/><path class="cls-8" d="M323.38,674.62a6.83,6.83,0,0,1,1.84-5.39,39.46,39.46,0,0,0,4.42-6.48l2.68-10.47,11.07.15c.17,2.06.5,4.4.43,5-.16,1.33-1.46,6.36-1,9.21s-1.51,8.23-2.05,9.26-2.58,3-9.86,2.66-7.39-3.27-7.5-3.93"/><path class="cls-8" d="M394.58,674.7a6.8,6.8,0,0,0-1.82-5.37,38.87,38.87,0,0,1-4.41-6.46l-2.67-10.44-11,.15c-.16,2.06-.5,4.39-.43,5,.17,1.33,1.46,6.34,1,9.17s1.5,8.21,2,9.24,2.58,2.95,9.83,2.65,7.37-3.26,7.47-3.92"/><path class="cls-9" d="M385.65,678.66c-6.07,0-7.87-1.74-8.37-2.69a25.06,25.06,0,0,1-2.11-8.32,5.37,5.37,0,0,1,.07-.92,9,9,0,0,0,.08-1.31c0-.35,0-.71,0-1.08,1-.34,2.06-.63,3.11-.88a12.5,12.5,0,0,1,0,2.68c-.43,2.83,1.5,8.21,2,9.23s2.3,2.69,8.37,2.69l1.47,0,1.15-.08a16.1,16.1,0,0,1-4.29.67h0c-.51,0-1,0-1.46,0"/><path class="cls-13" d="M386.84,674.89c-6.29.23-9.24-.76-10.61-1.71a20.48,20.48,0,0,0,1,2.79c.54,1,2.58,2.95,9.83,2.65s7.37-3.26,7.47-3.92a6,6,0,0,0-.05-1.76c-1.07.91-3.22,1.8-7.69,1.95Z"/><path class="cls-9" d="M341,675.66a25.13,25.13,0,0,0,.9-2.48,9.66,9.66,0,0,1-3.82,1.36c.75-1.9,2-6,1.68-8.43a10.54,10.54,0,0,1-.09-1.32,6.78,6.78,0,0,0,1.34.15,4.47,4.47,0,0,0,1.83-.36c0,.27,0,.54,0,.8a8,8,0,0,0,.09,1.33,6.37,6.37,0,0,1,.06.9,25.1,25.1,0,0,1-2,8"/><path class="cls-13" d="M331.19,674.9c6.34.22,9.31-.77,10.69-1.72a21.36,21.36,0,0,1-1.05,2.8c-.54,1-2.6,3-9.92,2.66s-7.42-3.27-7.53-3.94a6.09,6.09,0,0,1,.06-1.76c1.07.91,3.24,1.8,7.75,2"/><path class="cls-14" d="M349.32,386.61l.55,20.29c0,.87-7.3,3.81-8.05,4.41-3.68,3-3.07,6.77.55,10.41a25.57,25.57,0,0,0,8.16,5,42.91,42.91,0,0,0,6.67,2.43,24.63,24.63,0,0,0,17.65-2.34c3.39-1.88,9.94-6.88,10.34-11.19.45-4.66-6.54-4.87-10.3-7.29s-5-3.06-5-3.06l-.28-18.07-20.29-.55"/><path class="cls-15" d="M329,494.94c-.56.84-2.51,25.32-3.07,32S327.7,662.6,327.7,662.6s3-.56,11.1,2c4.09,1.27,5.47-1.18,5.47-1.18s6.83-45.76,7.11-48.54,7.32-73,7.32-73l12.14,118.69s1.45,4.78,4,3.89a64.25,64.25,0,0,1,14.38-2.66s3.68-120.12,3.13-131.24-1.74-36.49-1.74-36.49l-61.61.86"/><path class="cls-16" d="M326,526.93s24.73,2.77,35.62,2.41c16.07-.54,32.4-2.68,32.4-2.68l-1.48-111-22.46-10.77s-1.28,8.64-9.61,8.64-10.57-6.67-10.57-6.67L327.48,416l-1.51,111"/><path class="cls-17" d="M366.65,495.87q-10.8,0-21.6-.53c-5.15-.25-10.42-.62-15.14-2.69a2.7,2.7,0,0,1-1.67-4,34.74,34.74,0,0,1,2.72-6.3,34.68,34.68,0,0,0,2.26-4.47c2.28-6.12-.17-12.8-2.82-18.3-2-4.22-2.78-9.29-3.32-14.16l.36-26.44a6,6,0,0,1,1-1.15,3.65,3.65,0,0,1,2.29-1h.09c3.65,0,6.3,6.31,7.49,8.94q2.94,6.53,5.9,13.05h-5.64a4.32,4.32,0,0,0-4.32,4.32v40.11a4.32,4.32,0,0,0,4.32,4.32h43.76c0,.16-.05.32-.07.48-.12.77-.23,1.55-.34,2.32l.07.27h.17a28.83,28.83,0,0,0,3.54-1.06c.59-.23,1.18-.47,1.78-.69A19.69,19.69,0,0,0,391,490.1l.55.11a8.44,8.44,0,0,1-2.84,3.26,13.37,13.37,0,0,1-5.59,1.71,100.36,100.36,0,0,1-12.14.67l-4.3,0m21.53-57.11h-7.49c.25-.6.49-1.21.7-1.81.88-2.45,1.54-5,2.27-7.48a49.51,49.51,0,0,1,2.38-6.71,14.44,14.44,0,0,1,3.44-4.75,13.89,13.89,0,0,0-.65,4.88,151.55,151.55,0,0,1-.65,15.87"/><path class="cls-16" d="M331.6,417.45a3.55,3.55,0,0,0-1.37-1.66,3.48,3.48,0,0,0-4,.81c-7.89,7.7-6.54,21-6.47,30.91.09,13-.06,23.79,3.1,36.36.25,1,1.52.7,2.38.35,1-.44,2.56-4.27,3.43-5.7,4-6.63,6.7-12.42,7.43-20.29a102.74,102.74,0,0,0-4-39.36,11,11,0,0,0-.51-1.42Z"/><path class="cls-18" d="M361.48,405.75a5.81,5.81,0,0,1-2.05-.38,19.71,19.71,0,0,1-5.84-3.46,15.6,15.6,0,0,1-4-5.79l-.17-6.21c.63,1.18,1.45,2.62,2.38,4.06,1.91,3,4.27,6,6.33,6.27a24.73,24.73,0,0,0,3.24.21h.27a18.55,18.55,0,0,0,3.93-.37c1.47-.33,2.94-2.54,4.17-5.08l.08,5.25a12,12,0,0,1-1.69,2.05,15.9,15.9,0,0,1-4.25,2.91,5.53,5.53,0,0,1-2.39.54"/><path class="cls-14" d="M349.33,389.77c1.95,3.64,5.8,10.06,9,10.47a23.26,23.26,0,0,0,7.26-.16c1.67-.37,3.34-3.2,4.67-6.14v.19c2.22-4.75,4.3-11.77,4.3-17.24,0-11.29-6.36-16.69-14-16.69s-14.67,4.71-14.67,16c0,4.91,3.45,14.13,3.43,13.57"/><path class="cls-16" d="M388,451.27c.05.87.11,1.74.18,2.62.59,7.21,1.91,14.64,5.27,21.13,1.49,2.87,3.65,6.6,6.43,8.42,4.1,2.68,4.45-1.74,5-5.3,2.61-16.29-.23-31.18-2.39-47.27-.45-3.29-4.6-17.29-10.8-15.46-2.15.64-2.95,4.43-2.84,7.48.33,9.63-1.46,18.74-.87,28.38"/><path class="cls-18" d="M347.43,384.38c-.15-.53-.31-1.08-.45-1.64q.11.18.21.33c.06.42.15.86.24,1.31m-.19-3.79a6.34,6.34,0,0,1-.11-.93,9.1,9.1,0,0,1,.71-4,6,6,0,0,1,5.25-3.56h0c2.32,0,4.47,1.85,6.08,3.34a3.21,3.21,0,0,0,1.42.92,1.92,1.92,0,0,0,.41.05,4.34,4.34,0,0,0,.87-.12,49.83,49.83,0,0,0,7.76-2.23,5.63,5.63,0,0,1,2-.42,2.88,2.88,0,0,1,.59.06,2.39,2.39,0,0,1,1.88,2,10.82,10.82,0,0,1,.18,3.89,8.26,8.26,0,0,0-.18-1.09,2.41,2.41,0,0,0-1.88-2,3.81,3.81,0,0,0-.59-.05,5.61,5.61,0,0,0-2,.41,49.86,49.86,0,0,1-7.76,2.24,4.32,4.32,0,0,1-.87.11,1.84,1.84,0,0,1-.41,0,3.32,3.32,0,0,1-1.42-.93c-1.61-1.48-3.76-3.34-6.08-3.34h0a6,6,0,0,0-5.25,3.57,7.88,7.88,0,0,0-.6,2.08"/><path class="cls-8" d="M372.19,373.74a4.77,4.77,0,0,0-2.56.36,49.83,49.83,0,0,1-7.76,2.23,2.92,2.92,0,0,1-1.28.07,3.21,3.21,0,0,1-1.42-.92c-1.61-1.49-3.76-3.34-6.08-3.34a6,6,0,0,0-5.25,3.56,9.1,9.1,0,0,0-.71,4c0,1.2.67,2.78.39,3.89a17.36,17.36,0,0,1-1.27-2.08c-.45-1.27-1-2.51-1.45-3.77A24.44,24.44,0,0,1,343,369a18.49,18.49,0,0,1,5.5-12.66,18.83,18.83,0,0,1,8.7-5.09c9.37-2.36,18.82,5.09,20.72,14.19a23.71,23.71,0,0,1-.32,10.92,21,21,0,0,1-1.42,4.15,9.41,9.41,0,0,1-1.2,1.78c-.25.29-1.37,1-1.44,1.31.61-2.57,1.22-5.26.58-7.82a2.39,2.39,0,0,0-1.88-2"/><path class="cls-14" d="M404.05,473.53c-3.69-4.4-12.11-9.14-12.11-9.14l-3.07,4L386,478.12l.31,4.49c2,1.7,6,4.84,9.35,6.05a6.58,6.58,0,0,0,8-2.28c.2-.37,1.3-2.83,2.72-6.2a9.86,9.86,0,0,0-2.39-6.65"/><path class="cls-13" d="M369.62,487.51H319a2.06,2.06,0,0,1-2.06-2.06v-1.77a2.06,2.06,0,0,1,2.06-2.06h50.6v5.89Z"/><path class="cls-13" d="M398.32,487.51H338.55a4.32,4.32,0,0,1-4.32-4.32V443.08a4.32,4.32,0,0,1,4.32-4.32h59.77a4.32,4.32,0,0,1,4.33,4.32v40.11a4.32,4.32,0,0,1-4.33,4.32"/><path class="cls-18" d="M382,490.58l-.07-.27c.11-.77.22-1.55.34-2.32,0-.16,0-.32.07-.48h2.56c.82.46,1.7.91,2.59,1.32-.6.22-1.19.46-1.78.69a28.83,28.83,0,0,1-3.54,1.06H382"/><path class="cls-18" d="M392.5,487.51H382.31c.06-.46.14-.92.22-1.38.15-.85.35-1.69.58-2.52a19.07,19.07,0,0,1,1.76-3.38c.69-1.27,1.37-2.54,2.06-3.8a3.38,3.38,0,0,1,.93-1.24l.26-.11.38.12h.07c.26,0,.47-.44.71-.87s.47-.86.78-.86a.4.4,0,0,1,.25.1c.71.53,1,7.17,1.34,8.57s2.26,1.53,2.26,1.53,1.79-3.95,2.44-5.18c.5-1,3-4.69,4.32-4.69a.81.81,0,0,1,.27.05c.35.18-1,3.67-1,4.06a2.88,2.88,0,0,1-.43,1.08c-.38.68-.8,1.35-1.15,2a4.94,4.94,0,0,0-.35,1.46,19.16,19.16,0,0,1-.57,2.1L397,486c-.7,1.51-4.37,1.52-4.37,1.52l-.09,0"/><path class="cls-14" d="M396.4,488.89s3.76-.17,4.19-2,1.11-13.1.47-13.44-2.1,3.18-2.53,4.66-1.5,6.2-1.5,6.2a3,3,0,0,1-2.61-1.71c-.61-1.63-2.7-8.64-3.53-9.24s-1.71.54-1.29,2.1,1.65,9.59,1.65,9.59-2.14-9.94-2.85-10.09-1.58.27-1.18,2.61c.26,1.47,0,9.29,0,9.29s-1.19-6.07-1.95-6.67-1.49.93-1.14,2.69a22.5,22.5,0,0,1-.29,5.53s-.55,1.5.67,2a3.48,3.48,0,0,0,2.32.19,2.53,2.53,0,0,0,2.26.37,10,10,0,0,1,2.73-.64l4.56-1.51Z"/><circle class="cls-19" cx="368.72" cy="461.26" r="2.65"/><circle class="cls-13" cx="394.78" cy="474.63" r="3.88"/><path class="cls-13" d="M289.11,326.39a23.71,23.71,0,0,1,17.75-22.95c-.46,0-.92,0-1.39,0a23.7,23.7,0,0,0,0,47.4,23.46,23.46,0,0,0,6-.76A23.69,23.69,0,0,1,289.11,326.39Z"/><circle class="cls-13" cx="249.38" cy="347.36" r="0.93"/><circle class="cls-13" cx="287.39" cy="377.55" r="0.93"/><circle class="cls-13" cx="331.76" cy="340.82" r="0.8"/><circle class="cls-13" cx="305.79" cy="449.18" r="1.22"/><circle class="cls-13" cx="412.75" cy="352.03" r="1.23"/><circle class="cls-13" cx="347.81" cy="318.86" r="0.96"/><path class="cls-20" d="M971.42,307.21c-.49-5.3-5.63-9.63-12.35-10.65v-.1a19.15,19.15,0,0,0-2.86-.22,18.94,18.94,0,0,0-4.63.58c-.58.13-1.14.29-1.69.47-3.28-6.29-11.11-10.72-20.27-10.72-11.11,0-20.27,6.52-21.7,15a16.15,16.15,0,0,0-7.34-1.74c-8.15,0-14.76,5.83-14.76,13a11.47,11.47,0,0,0,.61,3.66h95.76C981.22,312.06,977,308.48,971.42,307.21Z"/><circle class="cls-1" cx="977.8" cy="332.17" r="22.76"/><path class="cls-20" d="M1057.93,342.89c-.42-4.55-4.83-8.26-10.6-9.14v-.08a16.32,16.32,0,0,0-2.45-.19,16.11,16.11,0,0,0-4,.5c-.5.11-1,.25-1.45.4-2.81-5.39-9.53-9.2-17.39-9.2-9.53,0-17.39,5.6-18.62,12.85a13.76,13.76,0,0,0-6.29-1.49c-7,0-12.66,5-12.66,11.17a10,10,0,0,0,.51,3.14h82.16C1066.34,347.05,1062.71,344,1057.93,342.89Z"/><path class="cls-8" d="M460.2,315.26c-.39-3.84-4.47-7-9.82-7.72v-.07a16.73,16.73,0,0,0-2.27-.16,15.63,15.63,0,0,0-3.67.43q-.69.13-1.35.33c-2.6-4.55-8.82-7.77-16.1-7.77-8.83,0-16.11,4.73-17.24,10.85a14,14,0,0,0-5.84-1.25c-6.47,0-11.72,4.22-11.72,9.43a7.69,7.69,0,0,0,.48,2.66h76.09C468,318.78,464.62,316.18,460.2,315.26Z"/><circle class="cls-17" cx="642.23" cy="456.78" r="228.24"/><circle class="cls-1" cx="640.54" cy="456.78" r="206.29"/><g class="cls-21"><ellipse class="cls-1" cx="618.67" cy="463.42" rx="212.79" ry="206.9"/></g><path class="cls-17" d="M698.28,352.12s-98.46-47.64-129.17,31.69c0,0-15,52.18,33.79,73,0,0,72.35,26.61,70,65,0,0-14,66.09-101.56,15.85l-9.76,27s43.89,28.54,84.95,16.19c0,0,49.06-11,59.75-52.41A75,75,0,0,0,702,489.34,62.59,62.59,0,0,0,678.88,461s-10.33-6.14-22.49-12.27c-19.08-9.62-43.8-21.71-48.9-29.05,0,0-23.36-24.36,4-48.06,0,0,22.24-24.23,77,3.81Z"/><polygon class="cls-19" points="713.97 338.4 651.63 452.47 641.74 557.62 629.72 452.14 713.97 338.4"/><path class="cls-17" d="M526,335.14a6.08,6.08,0,0,0-8.6,8.6l20.89,20.89a6.08,6.08,0,0,0,8.6-8.6L526,335.14m220.21,220.2a6.08,6.08,0,0,0-8.6,8.6l20.89,20.9a6.08,6.08,0,0,0,8.6-8.6l-20.89-20.9m12.29-220.2L737.59,356a6.08,6.08,0,0,0,8.6,8.6l20.89-20.89a6.08,6.08,0,0,0-8.6-8.6M538.27,555.34l-20.89,20.9a6.08,6.08,0,0,0,8.6,8.6l20.89-20.9a6.08,6.08,0,0,0-8.6-8.6M812.71,453.9H783.17a6.09,6.09,0,1,0,0,12.17h29.54a6.09,6.09,0,0,0,0-12.17m-311.42,0H471.75a6.09,6.09,0,1,0,0,12.17h29.54a6.09,6.09,0,0,0,0-12.17M642.23,283.42a6.08,6.08,0,0,0-6.08,6.08v29.55a6.08,6.08,0,1,0,12.16,0V289.5a6.08,6.08,0,0,0-6.08-6.08m0,311.42a6.08,6.08,0,0,0-6.08,6.08v29.55a6.08,6.08,0,1,0,12.16,0V600.92a6.08,6.08,0,0,0-6.08-6.08"/><polygon class="cls-17" points="620.17 583.84 620.17 620.75 645.04 620.75 645.04 581.29 620.17 583.84"/><rect class="cls-17" x="625.18" y="300.3" width="24.2" height="40.22"/><circle class="cls-16" cx="639.65" cy="453.82" r="6.17"/><path class="cls-2" d="M202,662.44v13.32c0,4.62,24.66,8.37,55.08,8.37s55.08-3.75,55.08-8.37V662.44Z"/><g class="cls-22"><path class="cls-23" d="M258.06,686h-80.6a2.18,2.18,0,0,1-1.5-.64,6.66,6.66,0,0,1-1.73-4.49,2.09,2.09,0,0,1,0-.25,2.81,2.81,0,0,1,0-.29V665.62c0-.1,0-.2,0-.3.08-3,1.51-5.38,3.24-5.38h70.7c1.1,7.47,3.62,17.72,9.4,25.44.16.22.33.43.5.64Z"/></g><path class="cls-2" d="M300.84,661.31c0,2.15-19.6,3.88-43.79,3.88s-43.78-1.73-43.78-3.88,19.6-3.88,43.78-3.88,43.79,1.74,43.79,3.88Z"/><path class="cls-24" d="M215.15,662.44c5.46-1.59,22.15-2.75,41.9-2.75s36.45,1.16,41.9,2.75c1.23-.36,1.89-.73,1.89-1.13,0-2.14-19.6-3.88-43.79-3.88s-43.78,1.74-43.78,3.88c0,.4.66.77,1.88,1.13Z"/><g class="cls-25"><polygon class="cls-23" points="308.32 656.91 308.32 687.45 310.93 687.45 310.93 656.91 308.32 656.91 308.32 656.91"/><polygon class="cls-23" points="301.56 687.45 304.17 687.45 304.17 656.91 301.56 656.91 301.56 687.45 301.56 687.45"/><polygon class="cls-23" points="293.84 687.45 296.45 687.45 296.45 656.91 293.84 656.91 293.84 687.45 293.84 687.45"/><polygon class="cls-23" points="284.21 687.45 286.82 687.45 286.82 656.91 284.21 656.91 284.21 687.45 284.21 687.45"/><polygon class="cls-23" points="273.62 687.45 276.23 687.45 276.23 656.91 273.62 656.91 273.62 687.45 273.62 687.45"/><polygon class="cls-23" points="262.07 687.45 264.68 687.45 264.68 656.91 262.07 656.91 262.07 687.45 262.07 687.45"/></g><path class="cls-26" d="M312.13,662.19c0,4.62-24.66,8.36-55.08,8.36S202,666.81,202,662.19s24.66-8.36,55.08-8.36,55.08,3.74,55.08,8.36Z"/><path class="cls-2" d="M303.38,661.63c0,2.14-19.6,3.88-43.78,3.88s-43.79-1.74-43.79-3.88,19.6-3.88,43.79-3.88,43.78,1.74,43.78,3.88Z"/><path class="cls-23" d="M217.7,662.76c5.45-1.59,22.14-2.75,41.9-2.75s36.44,1.16,41.9,2.75c1.22-.36,1.88-.74,1.88-1.13,0-2.14-19.6-3.88-43.78-3.88s-43.79,1.74-43.79,3.88c0,.39.66.77,1.89,1.13Z"/><path class="cls-2" d="M209.77,646.88v13.33c0,4.61,24.66,8.36,55.08,8.36s55.08-3.75,55.08-8.36V646.88Z"/><g class="cls-27"><path class="cls-23" d="M265.85,670.47H185.26a2.19,2.19,0,0,1-1.5-.65,6.71,6.71,0,0,1-1.74-4.49c0-.08,0-.16,0-.25V649.76c.09-3,1.52-5.38,3.25-5.38H256c1.1,7.47,3.62,17.73,9.41,25.44.16.22.32.44.49.65Z"/></g><path class="cls-2" d="M308.64,645.75c0,2.15-19.61,3.89-43.79,3.89s-43.79-1.74-43.79-3.89,19.61-3.88,43.79-3.88,43.79,1.74,43.79,3.88Z"/><path class="cls-24" d="M223,646.88c5.45-1.59,22.15-2.75,41.9-2.75s36.45,1.16,41.9,2.75c1.22-.35,1.89-.73,1.89-1.13,0-2.14-19.61-3.88-43.79-3.88s-43.79,1.74-43.79,3.88c0,.4.67.78,1.89,1.13Z"/><g class="cls-28"><polygon class="cls-23" points="316.12 641.35 316.12 671.89 318.72 671.89 318.72 641.35 316.12 641.35 316.12 641.35"/><polygon class="cls-23" points="309.35 671.89 311.96 671.89 311.96 641.35 309.35 641.35 309.35 671.89 309.35 671.89"/><polygon class="cls-23" points="301.63 671.89 304.24 671.89 304.24 641.35 301.63 641.35 301.63 671.89 301.63 671.89"/><polygon class="cls-23" points="292 671.89 294.61 671.89 294.61 641.35 292 641.35 292 671.89 292 671.89"/><polygon class="cls-23" points="281.42 671.89 284.02 671.89 284.02 641.35 281.42 641.35 281.42 671.89 281.42 671.89"/><polygon class="cls-23" points="269.87 671.89 272.48 671.89 272.48 641.35 269.87 641.35 269.87 671.89 269.87 671.89"/></g><path class="cls-26" d="M319.93,646.63c0,4.62-24.66,8.37-55.08,8.37s-55.08-3.75-55.08-8.37,24.66-8.36,55.08-8.36,55.08,3.75,55.08,8.36Z"/><path class="cls-2" d="M311.18,646.07c0,2.15-19.61,3.88-43.79,3.88s-43.79-1.73-43.79-3.88,19.61-3.88,43.79-3.88,43.79,1.74,43.79,3.88Z"/><path class="cls-23" d="M225.49,647.2c5.46-1.59,22.15-2.75,41.9-2.75s36.45,1.16,41.9,2.75c1.22-.35,1.89-.73,1.89-1.13,0-2.14-19.61-3.88-43.79-3.88s-43.79,1.74-43.79,3.88c0,.4.67.78,1.89,1.13Z"/><path class="cls-2" d="M203.3,630.6v13.32c0,4.62,24.66,8.36,55.08,8.36s55.08-3.74,55.08-8.36V630.6Z"/><g class="cls-29"><path class="cls-23" d="M259.38,654.18H178.79a2.22,2.22,0,0,1-1.5-.64,6.73,6.73,0,0,1-1.74-4.49c0-.09,0-.17,0-.26V633.48c.09-3,1.52-5.39,3.25-5.39h70.7c1.09,7.47,3.61,17.73,9.4,25.45.16.22.33.43.49.64Z"/></g><path class="cls-2" d="M302.17,629.47c0,2.14-19.61,3.88-43.79,3.88s-43.79-1.74-43.79-3.88,19.61-3.88,43.79-3.88,43.79,1.73,43.79,3.88Z"/><path class="cls-24" d="M216.48,630.6c5.45-1.6,22.15-2.76,41.9-2.76s36.45,1.16,41.9,2.76c1.22-.36,1.89-.74,1.89-1.13,0-2.15-19.61-3.88-43.79-3.88s-43.79,1.73-43.79,3.88c0,.39.67.77,1.89,1.13Z"/><g class="cls-30"><polygon class="cls-23" points="309.65 625.06 309.65 655.6 312.25 655.6 312.25 625.06 309.65 625.06 309.65 625.06"/><polygon class="cls-23" points="302.88 655.6 305.49 655.6 305.49 625.06 302.88 625.06 302.88 655.6 302.88 655.6"/><polygon class="cls-23" points="295.17 655.6 297.77 655.6 297.77 625.06 295.17 625.06 295.17 655.6 295.17 655.6"/><polygon class="cls-23" points="285.54 655.6 288.14 655.6 288.14 625.06 285.54 625.06 285.54 655.6 285.54 655.6"/><polygon class="cls-23" points="274.95 655.6 277.55 655.6 277.55 625.06 274.95 625.06 274.95 655.6 274.95 655.6"/><polygon class="cls-23" points="263.4 655.6 266.01 655.6 266.01 625.06 263.4 625.06 263.4 655.6 263.4 655.6"/></g><path class="cls-26" d="M313.46,630.35c0,4.62-24.66,8.36-55.08,8.36S203.3,635,203.3,630.35,228,622,258.38,622s55.08,3.75,55.08,8.37Z"/><path class="cls-2" d="M304.71,629.79c0,2.14-19.6,3.88-43.79,3.88s-43.78-1.74-43.78-3.88,19.6-3.89,43.78-3.89,43.79,1.74,43.79,3.89Z"/><path class="cls-23" d="M219,630.91c5.46-1.59,22.15-2.75,41.9-2.75s36.45,1.16,41.9,2.75c1.23-.35,1.89-.73,1.89-1.12,0-2.15-19.6-3.89-43.79-3.89s-43.78,1.74-43.78,3.89c0,.39.66.77,1.88,1.12Z"/><path class="cls-2" d="M208.27,615.3v13.32c0,4.62,24.66,8.37,55.08,8.37s55.08-3.75,55.08-8.37V615.3Z"/><g class="cls-31"><path class="cls-23" d="M264.35,638.88h-80.6a2.16,2.16,0,0,1-1.49-.64,6.71,6.71,0,0,1-1.74-4.49,2.09,2.09,0,0,1,0-.25c0-.09,0-.19,0-.29V618.48c0-.1,0-.2,0-.3.09-3,1.51-5.38,3.24-5.38h70.7c1.1,7.47,3.62,17.72,9.4,25.44l.5.64Z"/></g><path class="cls-2" d="M307.13,614.17c0,2.15-19.6,3.88-43.78,3.88s-43.79-1.73-43.79-3.88,19.6-3.88,43.79-3.88,43.78,1.74,43.78,3.88Z"/><path class="cls-24" d="M221.45,615.3c5.45-1.59,22.14-2.75,41.9-2.75s36.44,1.16,41.9,2.75c1.22-.36,1.88-.73,1.88-1.13,0-2.14-19.6-3.88-43.78-3.88s-43.79,1.74-43.79,3.88c0,.4.66.77,1.89,1.13Z"/><g class="cls-32"><polygon class="cls-23" points="314.61 609.77 314.61 640.31 317.22 640.31 317.22 609.77 314.61 609.77 314.61 609.77"/><polygon class="cls-23" points="307.85 640.31 310.46 640.31 310.46 609.77 307.85 609.77 307.85 640.31 307.85 640.31"/><polygon class="cls-23" points="300.13 640.31 302.74 640.31 302.74 609.77 300.13 609.77 300.13 640.31 300.13 640.31"/><polygon class="cls-23" points="290.5 640.31 293.11 640.31 293.11 609.77 290.5 609.77 290.5 640.31 290.5 640.31"/><polygon class="cls-23" points="279.91 640.31 282.52 640.31 282.52 609.77 279.91 609.77 279.91 640.31 279.91 640.31"/><polygon class="cls-23" points="268.37 640.31 270.98 640.31 270.98 609.77 268.37 609.77 268.37 640.31 268.37 640.31"/></g><path class="cls-26" d="M318.43,615.05c0,4.62-24.66,8.37-55.08,8.37s-55.08-3.75-55.08-8.37,24.66-8.36,55.08-8.36,55.08,3.74,55.08,8.36Z"/><path class="cls-2" d="M309.68,614.49c0,2.14-19.61,3.88-43.79,3.88s-43.79-1.74-43.79-3.88,19.61-3.88,43.79-3.88,43.79,1.74,43.79,3.88Z"/><path class="cls-23" d="M224,615.62c5.45-1.59,22.15-2.75,41.9-2.75s36.45,1.16,41.9,2.75c1.22-.36,1.89-.74,1.89-1.13,0-2.14-19.61-3.88-43.79-3.88s-43.79,1.74-43.79,3.88c0,.39.67.77,1.89,1.13Z"/><path class="cls-2" d="M216.06,599.74v13.33c0,4.61,24.66,8.36,55.08,8.36s55.08-3.75,55.08-8.36V599.74Z"/><g class="cls-33"><path class="cls-23" d="M272.15,623.33h-80.6a2.19,2.19,0,0,1-1.5-.65,6.65,6.65,0,0,1-1.73-4.48c0-.09,0-.17,0-.26V602.62c.09-3,1.52-5.38,3.25-5.38h70.7c1.1,7.47,3.62,17.73,9.4,25.44.16.22.33.44.5.65Z"/></g><path class="cls-2" d="M314.93,598.61c0,2.15-19.6,3.89-43.79,3.89s-43.78-1.74-43.78-3.89,19.6-3.88,43.78-3.88,43.79,1.74,43.79,3.88Z"/><path class="cls-24" d="M229.24,599.74c5.46-1.59,22.15-2.75,41.9-2.75s36.45,1.16,41.9,2.75c1.23-.35,1.89-.73,1.89-1.13,0-2.14-19.6-3.88-43.79-3.88s-43.78,1.74-43.78,3.88c0,.4.66.78,1.88,1.13Z"/><g class="cls-34"><polygon class="cls-23" points="322.41 594.21 322.41 624.75 325.02 624.75 325.02 594.21 322.41 594.21 322.41 594.21"/><polygon class="cls-23" points="315.65 624.75 318.26 624.75 318.26 594.21 315.65 594.21 315.65 624.75 315.65 624.75"/><polygon class="cls-23" points="307.93 624.75 310.54 624.75 310.54 594.21 307.93 594.21 307.93 624.75 307.93 624.75"/><polygon class="cls-23" points="298.3 624.75 300.91 624.75 300.91 594.21 298.3 594.21 298.3 624.75 298.3 624.75"/><polygon class="cls-23" points="287.71 624.75 290.32 624.75 290.32 594.21 287.71 594.21 287.71 624.75 287.71 624.75"/><polygon class="cls-23" points="276.16 624.75 278.77 624.75 278.77 594.21 276.16 594.21 276.16 624.75 276.16 624.75"/></g><path class="cls-26" d="M326.22,599.49c0,4.62-24.66,8.37-55.08,8.37s-55.08-3.75-55.08-8.37,24.66-8.36,55.08-8.36,55.08,3.75,55.08,8.36Z"/><path class="cls-2" d="M317.47,598.93c0,2.15-19.6,3.88-43.78,3.88s-43.79-1.73-43.79-3.88,19.6-3.88,43.79-3.88,43.78,1.74,43.78,3.88Z"/><path class="cls-23" d="M231.79,600.06c5.45-1.59,22.14-2.75,41.9-2.75s36.44,1.16,41.89,2.75c1.23-.35,1.89-.73,1.89-1.13,0-2.14-19.6-3.88-43.78-3.88s-43.79,1.74-43.79,3.88c0,.4.66.78,1.89,1.13Z"/><path class="cls-2" d="M209.6,583.46v13.32c0,4.62,24.65,8.36,55.07,8.36s55.08-3.74,55.08-8.36V583.46Z"/><g class="cls-35"><path class="cls-23" d="M265.68,607h-80.6a2.22,2.22,0,0,1-1.5-.64,6.68,6.68,0,0,1-1.73-4.49,2.26,2.26,0,0,1,0-.26,2.62,2.62,0,0,1,0-.28V586.63c0-.09,0-.19,0-.29.08-3,1.51-5.39,3.24-5.39h70.7c1.1,7.47,3.62,17.73,9.4,25.45.16.22.33.43.5.64Z"/></g><path class="cls-2" d="M308.46,582.33c0,2.14-19.6,3.88-43.79,3.88s-43.78-1.74-43.78-3.88,19.6-3.88,43.78-3.88,43.79,1.73,43.79,3.88Z"/><path class="cls-24" d="M222.77,583.46c5.46-1.6,22.15-2.76,41.9-2.76s36.45,1.16,41.9,2.76c1.23-.36,1.89-.74,1.89-1.13,0-2.15-19.6-3.88-43.79-3.88s-43.78,1.73-43.78,3.88c0,.39.66.77,1.88,1.13Z"/><g class="cls-36"><polygon class="cls-23" points="315.94 577.92 315.94 608.46 318.55 608.46 318.55 577.92 315.94 577.92 315.94 577.92"/><polygon class="cls-23" points="309.18 608.46 311.79 608.46 311.79 577.92 309.18 577.92 309.18 608.46 309.18 608.46"/><polygon class="cls-23" points="301.46 608.46 304.07 608.46 304.07 577.92 301.46 577.92 301.46 608.46 301.46 608.46"/><polygon class="cls-23" points="291.83 608.46 294.44 608.46 294.44 577.92 291.83 577.92 291.83 608.46 291.83 608.46"/><polygon class="cls-23" points="281.24 608.46 283.85 608.46 283.85 577.92 281.24 577.92 281.24 608.46 281.24 608.46"/><polygon class="cls-23" points="269.7 608.46 272.31 608.46 272.31 577.92 269.7 577.92 269.7 608.46 269.7 608.46"/></g><path class="cls-26" d="M319.75,583.21c0,4.62-24.66,8.36-55.08,8.36s-55.07-3.74-55.07-8.36,24.65-8.37,55.07-8.37,55.08,3.75,55.08,8.37Z"/><path class="cls-2" d="M311,582.65c0,2.14-19.6,3.88-43.78,3.88s-43.79-1.74-43.79-3.88,19.6-3.89,43.79-3.89S311,580.5,311,582.65Z"/><path class="cls-23" d="M225.32,583.78c5.45-1.6,22.14-2.76,41.9-2.76s36.44,1.16,41.9,2.76c1.22-.36,1.88-.74,1.88-1.13,0-2.15-19.6-3.89-43.78-3.89s-43.79,1.74-43.79,3.89c0,.39.66.77,1.89,1.13Z"/><path class="cls-2" d="M794.53,665.39V677.2c0,4.09,21.87,7.41,48.84,7.41s48.83-3.32,48.83-7.41V665.39Z"/><g class="cls-37"><path class="cls-23" d="M844.26,686.3H772.8a2,2,0,0,1-1.33-.57,6,6,0,0,1-1.54-4c0-.08,0-.15,0-.23V667.94c.08-2.64,1.35-4.77,2.88-4.77h62.68c1,6.62,3.21,15.71,8.34,22.56l.44.57Z"/></g><path class="cls-2" d="M882.19,664.39c0,1.9-17.38,3.44-38.82,3.44s-38.82-1.54-38.82-3.44S821.93,661,843.37,661s38.82,1.54,38.82,3.44Z"/><path class="cls-24" d="M806.22,665.39c4.83-1.41,19.63-2.44,37.15-2.44s32.31,1,37.15,2.44c1.08-.32,1.67-.65,1.67-1,0-1.9-17.38-3.44-38.82-3.44s-38.82,1.54-38.82,3.44c0,.35.58.68,1.67,1Z"/><g class="cls-38"><polygon class="cls-23" points="888.82 660.48 888.82 687.56 891.13 687.56 891.13 660.48 888.82 660.48 888.82 660.48"/><polygon class="cls-23" points="882.83 687.56 885.14 687.56 885.14 660.48 882.83 660.48 882.83 687.56 882.83 687.56"/><polygon class="cls-23" points="875.98 687.56 878.29 687.56 878.29 660.48 875.98 660.48 875.98 687.56 875.98 687.56"/><polygon class="cls-23" points="867.44 687.56 869.76 687.56 869.76 660.48 867.44 660.48 867.44 687.56 867.44 687.56"/><polygon class="cls-23" points="858.06 687.56 860.37 687.56 860.37 660.48 858.06 660.48 858.06 687.56 858.06 687.56"/><polygon class="cls-23" points="847.82 687.56 850.13 687.56 850.13 660.48 847.82 660.48 847.82 687.56 847.82 687.56"/></g><path class="cls-26" d="M892.2,665.17c0,4.09-21.86,7.41-48.83,7.41s-48.84-3.32-48.84-7.41,21.87-7.42,48.84-7.42,48.83,3.32,48.83,7.42Z"/><path class="cls-2" d="M884.44,664.67c0,1.9-17.38,3.44-38.82,3.44s-38.82-1.54-38.82-3.44,17.38-3.44,38.82-3.44,38.82,1.54,38.82,3.44Z"/><path class="cls-23" d="M808.47,665.67c4.84-1.41,19.64-2.44,37.15-2.44s32.32,1,37.15,2.44c1.08-.32,1.67-.65,1.67-1,0-1.9-17.38-3.44-38.82-3.44s-38.82,1.54-38.82,3.44c0,.35.59.68,1.67,1Z"/><path class="cls-2" d="M801.45,651.59v11.82c0,4.09,21.86,7.41,48.83,7.41s48.83-3.32,48.83-7.41V651.59Z"/><g class="cls-39"><path class="cls-23" d="M851.17,672.5H779.71a2,2,0,0,1-1.33-.57,5.91,5.91,0,0,1-1.53-4c0-.07,0-.15,0-.22V654.15c.08-2.65,1.35-4.78,2.88-4.78h62.68c1,6.63,3.21,15.72,8.34,22.56.14.2.29.39.44.57Z"/></g><path class="cls-2" d="M889.1,650.59c0,1.9-17.38,3.45-38.82,3.45s-38.82-1.55-38.82-3.45,17.38-3.44,38.82-3.44,38.82,1.54,38.82,3.44Z"/><path class="cls-24" d="M813.13,651.59c4.84-1.41,19.64-2.44,37.15-2.44s32.31,1,37.15,2.44c1.08-.31,1.67-.65,1.67-1,0-1.9-17.38-3.44-38.82-3.44s-38.82,1.54-38.82,3.44c0,.35.59.69,1.67,1Z"/><g class="cls-40"><polygon class="cls-23" points="895.73 646.69 895.73 673.76 898.04 673.76 898.04 646.69 895.73 646.69 895.73 646.69"/><polygon class="cls-23" points="889.74 673.76 892.05 673.76 892.05 646.69 889.74 646.69 889.74 673.76 889.74 673.76"/><polygon class="cls-23" points="882.89 673.76 885.21 673.76 885.21 646.69 882.89 646.69 882.89 673.76 882.89 673.76"/><polygon class="cls-23" points="874.36 673.76 876.67 673.76 876.67 646.69 874.36 646.69 874.36 673.76 874.36 673.76"/><polygon class="cls-23" points="864.97 673.76 867.28 673.76 867.28 646.69 864.97 646.69 864.97 673.76 864.97 673.76"/><polygon class="cls-23" points="854.73 673.76 857.04 673.76 857.04 646.69 854.73 646.69 854.73 673.76 854.73 673.76"/></g><path class="cls-26" d="M899.11,651.37c0,4.1-21.86,7.42-48.83,7.42s-48.83-3.32-48.83-7.42S823.31,644,850.28,644s48.83,3.32,48.83,7.41Z"/><path class="cls-2" d="M891.36,650.88c0,1.9-17.39,3.44-38.83,3.44s-38.82-1.54-38.82-3.44,17.38-3.45,38.82-3.45,38.83,1.55,38.83,3.45Z"/><path class="cls-23" d="M815.38,651.88c4.84-1.41,19.64-2.44,37.15-2.44s32.32,1,37.15,2.44c1.09-.32,1.68-.66,1.68-1,0-1.9-17.39-3.45-38.83-3.45s-38.82,1.55-38.82,3.45c0,.34.59.68,1.67,1Z"/><path class="cls-2" d="M795.71,637.15V649c0,4.09,21.86,7.41,48.83,7.41s48.84-3.32,48.84-7.41V637.15Z"/><g class="cls-41"><path class="cls-23" d="M845.43,658.06H774a2,2,0,0,1-1.33-.57,6,6,0,0,1-1.54-4c0-.07,0-.15,0-.22V639.71c.08-2.65,1.34-4.78,2.88-4.78h62.68c1,6.63,3.21,15.72,8.33,22.56l.44.57Z"/></g><path class="cls-2" d="M883.37,636.15c0,1.9-17.38,3.44-38.83,3.44s-38.82-1.54-38.82-3.44,17.38-3.44,38.82-3.44,38.83,1.54,38.83,3.44Z"/><path class="cls-24" d="M807.4,637.15c4.83-1.41,19.63-2.44,37.14-2.44s32.32,1,37.15,2.44c1.09-.31,1.68-.65,1.68-1,0-1.9-17.38-3.44-38.83-3.44s-38.82,1.54-38.82,3.44c0,.35.59.69,1.68,1Z"/><g class="cls-42"><polygon class="cls-23" points="890 632.25 890 659.32 892.31 659.32 892.31 632.25 890 632.25 890 632.25"/><polygon class="cls-23" points="884 659.32 886.32 659.32 886.32 632.25 884 632.25 884 659.32 884 659.32"/><polygon class="cls-23" points="877.16 659.32 879.47 659.32 879.47 632.25 877.16 632.25 877.16 659.32 877.16 659.32"/><polygon class="cls-23" points="868.62 659.32 870.93 659.32 870.93 632.25 868.62 632.25 868.62 659.32 868.62 659.32"/><polygon class="cls-23" points="859.23 659.32 861.54 659.32 861.54 632.25 859.23 632.25 859.23 659.32 859.23 659.32"/><polygon class="cls-23" points="849 659.32 851.31 659.32 851.31 632.25 849 632.25 849 659.32 849 659.32"/></g><path class="cls-26" d="M893.38,636.93c0,4.1-21.86,7.42-48.84,7.42s-48.83-3.32-48.83-7.42,21.86-7.41,48.83-7.41,48.84,3.32,48.84,7.41Z"/><path class="cls-2" d="M885.62,636.44c0,1.9-17.38,3.44-38.82,3.44S808,638.34,808,636.44,825.36,633,846.8,633s38.82,1.55,38.82,3.45Z"/><path class="cls-23" d="M809.65,637.44C814.49,636,829.29,635,846.8,635s32.31,1,37.15,2.44c1.08-.32,1.67-.66,1.67-1,0-1.9-17.38-3.45-38.82-3.45S808,634.54,808,636.44c0,.34.59.68,1.67,1Z"/><path class="cls-2" d="M903.77,664.78v11.81c0,4.09,21.86,7.41,48.83,7.41s48.84-3.32,48.84-7.41V664.78Z"/><g class="cls-43"><path class="cls-23" d="M953.49,685.68H882a1.94,1.94,0,0,1-1.32-.57,5.87,5.87,0,0,1-1.54-4,1.55,1.55,0,0,1,0-.22c0-.08,0-.17,0-.25V667.59c0-.08,0-.17,0-.26.08-2.65,1.34-4.78,2.87-4.78h62.69c1,6.63,3.2,15.72,8.33,22.56.15.2.29.39.44.57Z"/></g><path class="cls-2" d="M991.42,663.77c0,1.91-17.38,3.45-38.82,3.45s-38.82-1.54-38.82-3.45,17.38-3.44,38.82-3.44,38.82,1.54,38.82,3.44Z"/><path class="cls-24" d="M915.45,664.78c4.84-1.42,19.64-2.44,37.15-2.44s32.32,1,37.15,2.44c1.09-.32,1.67-.66,1.67-1,0-1.9-17.38-3.44-38.82-3.44s-38.82,1.54-38.82,3.44c0,.35.59.69,1.67,1Z"/><g class="cls-44"><polygon class="cls-23" points="998.05 659.87 998.05 686.95 1000.37 686.95 1000.37 659.87 998.05 659.87 998.05 659.87"/><polygon class="cls-23" points="992.06 686.95 994.37 686.95 994.37 659.87 992.06 659.87 992.06 686.95 992.06 686.95"/><polygon class="cls-23" points="985.22 686.95 987.53 686.95 987.53 659.87 985.22 659.87 985.22 686.95 985.22 686.95"/><polygon class="cls-23" points="976.68 686.95 978.99 686.95 978.99 659.87 976.68 659.87 976.68 686.95 976.68 686.95"/><polygon class="cls-23" points="967.29 686.95 969.6 686.95 969.6 659.87 967.29 659.87 967.29 686.95 967.29 686.95"/><polygon class="cls-23" points="957.05 686.95 959.37 686.95 959.37 659.87 957.05 659.87 957.05 686.95 957.05 686.95"/></g><path class="cls-26" d="M1001.44,664.55c0,4.1-21.87,7.42-48.84,7.42s-48.83-3.32-48.83-7.42,21.86-7.41,48.83-7.41,48.84,3.32,48.84,7.41Z"/><path class="cls-2" d="M993.68,664.06c0,1.9-17.38,3.44-38.82,3.44S916,666,916,664.06s17.39-3.44,38.83-3.44,38.82,1.54,38.82,3.44Z"/><path class="cls-23" d="M917.71,665.06c4.83-1.41,19.63-2.44,37.15-2.44s32.31,1,37.14,2.44c1.09-.32,1.68-.65,1.68-1,0-1.9-17.38-3.44-38.82-3.44S916,662.16,916,664.06c0,.35.59.68,1.68,1Z"/><path class="cls-2" d="M910.68,651v11.81c0,4.1,21.86,7.42,48.83,7.42s48.84-3.32,48.84-7.42V651Z"/><g class="cls-45"><path class="cls-23" d="M960.4,671.89H889a2,2,0,0,1-1.33-.57,5.94,5.94,0,0,1-1.54-4,1.62,1.62,0,0,1,0-.22V653.54c.08-2.65,1.34-4.78,2.88-4.78h62.68c1,6.63,3.2,15.72,8.33,22.56l.44.57Z"/></g><path class="cls-2" d="M998.34,650c0,1.9-17.39,3.44-38.83,3.44s-38.82-1.54-38.82-3.44,17.38-3.44,38.82-3.44,38.83,1.54,38.83,3.44Z"/><path class="cls-24" d="M922.37,651c4.83-1.41,19.63-2.44,37.14-2.44s32.32,1,37.15,2.44c1.09-.31,1.68-.65,1.68-1,0-1.9-17.39-3.44-38.83-3.44s-38.82,1.54-38.82,3.44c0,.35.59.69,1.68,1Z"/><g class="cls-46"><polygon class="cls-23" points="1004.97 646.08 1004.97 673.15 1007.28 673.15 1007.28 646.08 1004.97 646.08 1004.97 646.08"/><polygon class="cls-23" points="998.97 673.15 1001.28 673.15 1001.28 646.08 998.97 646.08 998.97 673.15 998.97 673.15"/><polygon class="cls-23" points="992.13 673.15 994.44 673.15 994.44 646.08 992.13 646.08 992.13 673.15 992.13 673.15"/><polygon class="cls-23" points="983.59 673.15 985.9 673.15 985.9 646.08 983.59 646.08 983.59 673.15 983.59 673.15"/><polygon class="cls-23" points="974.2 673.15 976.51 673.15 976.51 646.08 974.2 646.08 974.2 673.15 974.2 673.15"/><polygon class="cls-23" points="963.97 673.15 966.28 673.15 966.28 646.08 963.97 646.08 963.97 673.15 963.97 673.15"/></g><path class="cls-26" d="M1008.35,650.76c0,4.1-21.87,7.42-48.84,7.42s-48.83-3.32-48.83-7.42,21.86-7.41,48.83-7.41,48.84,3.32,48.84,7.41Z"/><path class="cls-2" d="M1000.59,650.26c0,1.9-17.38,3.44-38.82,3.44S923,652.16,923,650.26s17.38-3.44,38.82-3.44,38.82,1.54,38.82,3.44Z"/><path class="cls-23" d="M924.62,651.26c4.83-1.41,19.63-2.43,37.15-2.43s32.31,1,37.15,2.43c1.08-.31,1.67-.65,1.67-1,0-1.9-17.38-3.44-38.82-3.44S923,648.36,923,650.26c0,.35.58.69,1.67,1Z"/><path class="cls-2" d="M905,636.54v11.81c0,4.1,21.86,7.42,48.83,7.42s48.83-3.32,48.83-7.42V636.54Z"/><g class="cls-47"><path class="cls-23" d="M954.67,657.45H883.21a2,2,0,0,1-1.33-.57,6,6,0,0,1-1.54-4,1.62,1.62,0,0,0,0-.22V639.09c.08-2.64,1.35-4.77,2.88-4.77h62.68c1,6.63,3.21,15.72,8.34,22.56.14.2.29.38.44.57Z"/></g><path class="cls-2" d="M992.6,635.54c0,1.9-17.38,3.44-38.82,3.44S915,637.44,915,635.54s17.38-3.44,38.82-3.44,38.82,1.54,38.82,3.44Z"/><path class="cls-24" d="M916.63,636.54c4.84-1.41,19.64-2.44,37.15-2.44s32.31,1,37.15,2.44c1.08-.32,1.67-.65,1.67-1,0-1.9-17.38-3.44-38.82-3.44S915,633.64,915,635.54c0,.35.59.68,1.67,1Z"/><g class="cls-48"><polygon class="cls-23" points="999.23 631.64 999.23 658.71 1001.54 658.71 1001.54 631.64 999.23 631.64 999.23 631.64"/><polygon class="cls-23" points="993.24 658.71 995.55 658.71 995.55 631.64 993.24 631.64 993.24 658.71 993.24 658.71"/><polygon class="cls-23" points="986.39 658.71 988.71 658.71 988.71 631.64 986.39 631.64 986.39 658.71 986.39 658.71"/><polygon class="cls-23" points="977.85 658.71 980.17 658.71 980.17 631.64 977.85 631.64 977.85 658.71 977.85 658.71"/><polygon class="cls-23" points="968.47 658.71 970.78 658.71 970.78 631.64 968.47 631.64 968.47 658.71 968.47 658.71"/><polygon class="cls-23" points="958.23 658.71 960.54 658.71 960.54 631.64 958.23 631.64 958.23 658.71 958.23 658.71"/></g><path class="cls-26" d="M1002.61,636.32c0,4.1-21.86,7.41-48.83,7.41S905,640.42,905,636.32s21.86-7.41,48.83-7.41,48.83,3.32,48.83,7.41Z"/><path class="cls-2" d="M994.85,635.82c0,1.9-17.38,3.44-38.82,3.44s-38.82-1.54-38.82-3.44,17.38-3.44,38.82-3.44,38.82,1.54,38.82,3.44Z"/><path class="cls-23" d="M918.88,636.82c4.84-1.41,19.64-2.44,37.15-2.44s32.32,1,37.15,2.44c1.09-.31,1.67-.65,1.67-1,0-1.9-17.38-3.44-38.82-3.44s-38.82,1.54-38.82,3.44c0,.35.59.69,1.67,1Z"/><path class="cls-49" d="M1096,682.88s43.78-38.75,37.57-47.36-19,2.46-19,2.46,29.93-40,9.93-46.54-30.78,36.78-30.78,36.78-1.09-17.21-13.42-11.39,4.09,43.61,4.09,43.61l11.6,22.44Z"/><path class="cls-7" d="M1094.31,660s15.22-43.68,25.88-55.61c0,0-24.78,27-25.88,55.61Z"/><path class="cls-7" d="M1083.79,623.79s3.47,17,12,27.87c0,0,20.2-4,30-9.68,0,0-20.06,13.59-30.19,12.17,0,0-13-15.73-11.75-30.36Z"/><path class="cls-7" d="M1102.92,634.55s12.35-7.77,16.41-15.64c0,0-10.11,10.51-16.5,12.59,0,0-1.27-13,.89-17.07,0,0-5.33,12.17-.8,20.12Z"/><path class="cls-50" d="M1084,664.62a20.34,20.34,0,0,0-38.78,3.35,14.16,14.16,0,0,0-2-.14,13.83,13.83,0,0,0-13.83,13.83c0,.22,0,.43,0,.64a13.75,13.75,0,0,0,.5,3.11h65.3a14.91,14.91,0,0,0,.94-3.11A15.13,15.13,0,0,0,1084,664.62Z"/><path class="cls-2" d="M899.74,621.67v11.81c0,4.09,21.87,7.41,48.84,7.41s48.83-3.32,48.83-7.41V621.67Z"/><g class="cls-51"><path class="cls-23" d="M949.47,642.58H878a2,2,0,0,1-1.33-.57,6,6,0,0,1-1.54-4c0-.08,0-.15,0-.23V624.22c.08-2.65,1.35-4.77,2.88-4.77h62.68c1,6.62,3.21,15.71,8.34,22.56l.44.57Z"/></g><path class="cls-2" d="M987.4,620.67c0,1.9-17.38,3.44-38.82,3.44s-38.83-1.54-38.83-3.44,17.39-3.44,38.83-3.44,38.82,1.54,38.82,3.44Z"/><path class="cls-24" d="M911.43,621.67c4.83-1.41,19.63-2.44,37.15-2.44s32.31,1,37.15,2.44c1.08-.32,1.67-.65,1.67-1,0-1.9-17.38-3.44-38.82-3.44s-38.83,1.54-38.83,3.44c0,.35.59.68,1.68,1Z"/><g class="cls-52"><polygon class="cls-23" points="994.03 616.76 994.03 643.84 996.34 643.84 996.34 616.76 994.03 616.76 994.03 616.76"/><polygon class="cls-23" points="988.03 643.84 990.35 643.84 990.35 616.76 988.03 616.76 988.03 643.84 988.03 643.84"/><polygon class="cls-23" points="981.19 643.84 983.5 643.84 983.5 616.76 981.19 616.76 981.19 643.84 981.19 643.84"/><polygon class="cls-23" points="972.65 643.84 974.97 643.84 974.97 616.76 972.65 616.76 972.65 643.84 972.65 643.84"/><polygon class="cls-23" points="963.26 643.84 965.58 643.84 965.58 616.76 963.26 616.76 963.26 643.84 963.26 643.84"/><polygon class="cls-23" points="953.03 643.84 955.34 643.84 955.34 616.76 953.03 616.76 953.03 643.84 953.03 643.84"/></g><path class="cls-26" d="M997.41,621.45c0,4.09-21.86,7.41-48.83,7.41s-48.84-3.32-48.84-7.41S921.61,614,948.58,614s48.83,3.32,48.83,7.42Z"/><path class="cls-2" d="M989.65,621c0,1.9-17.38,3.44-38.82,3.44S912,622.85,912,621s17.38-3.44,38.82-3.44,38.82,1.54,38.82,3.44Z"/><path class="cls-23" d="M913.68,622c4.84-1.41,19.64-2.44,37.15-2.44s32.31,1,37.15,2.44c1.08-.32,1.67-.65,1.67-1,0-1.9-17.38-3.44-38.82-3.44S912,619.05,912,621c0,.35.59.68,1.67,1Z"/><path class="cls-2" d="M906.65,607.87v11.82c0,4.09,21.87,7.41,48.84,7.41s48.83-3.32,48.83-7.41V607.87Z"/><g class="cls-53"><path class="cls-23" d="M956.38,628.78H884.92a2,2,0,0,1-1.33-.57,6,6,0,0,1-1.54-4,1.62,1.62,0,0,0,0-.22V610.43c.08-2.65,1.35-4.78,2.88-4.78H947.6c1,6.63,3.21,15.72,8.34,22.56.14.2.29.39.44.57Z"/></g><path class="cls-2" d="M994.31,606.87c0,1.9-17.38,3.44-38.82,3.44s-38.82-1.54-38.82-3.44,17.38-3.44,38.82-3.44,38.82,1.54,38.82,3.44Z"/><path class="cls-24" d="M918.34,607.87c4.84-1.41,19.64-2.44,37.15-2.44s32.31,1,37.15,2.44c1.08-.31,1.67-.65,1.67-1,0-1.9-17.38-3.44-38.82-3.44s-38.82,1.54-38.82,3.44c0,.35.59.69,1.67,1Z"/><g class="cls-54"><polygon class="cls-23" points="1000.94 602.97 1000.94 630.04 1003.25 630.04 1003.25 602.97 1000.94 602.97 1000.94 602.97"/><polygon class="cls-23" points="994.95 630.04 997.26 630.04 997.26 602.97 994.95 602.97 994.95 630.04 994.95 630.04"/><polygon class="cls-23" points="988.1 630.04 990.41 630.04 990.41 602.97 988.1 602.97 988.1 630.04 988.1 630.04"/><polygon class="cls-23" points="979.56 630.04 981.88 630.04 981.88 602.97 979.56 602.97 979.56 630.04 979.56 630.04"/><polygon class="cls-23" points="970.18 630.04 972.49 630.04 972.49 602.97 970.18 602.97 970.18 630.04 970.18 630.04"/><polygon class="cls-23" points="959.94 630.04 962.25 630.04 962.25 602.97 959.94 602.97 959.94 630.04 959.94 630.04"/></g><path class="cls-26" d="M1004.32,607.65c0,4.1-21.86,7.42-48.83,7.42s-48.84-3.32-48.84-7.42,21.87-7.41,48.84-7.41,48.83,3.32,48.83,7.41Z"/><path class="cls-2" d="M996.56,607.16c0,1.9-17.38,3.44-38.82,3.44s-38.82-1.54-38.82-3.44,17.38-3.45,38.82-3.45,38.82,1.54,38.82,3.45Z"/><path class="cls-23" d="M920.59,608.16c4.84-1.42,19.64-2.44,37.15-2.44s32.32,1,37.15,2.44c1.09-.32,1.67-.66,1.67-1,0-1.91-17.38-3.45-38.82-3.45s-38.82,1.54-38.82,3.45c0,.34.59.68,1.67,1Z"/><path class="cls-2" d="M900.92,593.43v11.81c0,4.1,21.86,7.42,48.83,7.42s48.84-3.32,48.84-7.42V593.43Z"/><g class="cls-55"><path class="cls-23" d="M950.64,614.34H879.19a2,2,0,0,1-1.33-.57,5.89,5.89,0,0,1-1.54-4,1.62,1.62,0,0,1,0-.22c0-.09,0-.18,0-.26V596.25c0-.08,0-.17,0-.26.08-2.65,1.34-4.78,2.88-4.78h62.68c1,6.63,3.2,15.72,8.33,22.56l.44.57Z"/></g><path class="cls-2" d="M988.57,592.43c0,1.9-17.38,3.44-38.82,3.44s-38.82-1.54-38.82-3.44S928.31,589,949.75,589s38.82,1.54,38.82,3.44Z"/><path class="cls-24" d="M912.6,593.43c4.84-1.41,19.64-2.44,37.15-2.44s32.32,1,37.15,2.44c1.09-.31,1.67-.65,1.67-1,0-1.9-17.38-3.44-38.82-3.44s-38.82,1.54-38.82,3.44c0,.35.59.69,1.67,1Z"/><g class="cls-56"><polygon class="cls-23" points="995.21 588.53 995.21 615.6 997.52 615.6 997.52 588.53 995.21 588.53 995.21 588.53"/><polygon class="cls-23" points="989.21 615.6 991.52 615.6 991.52 588.53 989.21 588.53 989.21 615.6 989.21 615.6"/><polygon class="cls-23" points="982.37 615.6 984.68 615.6 984.68 588.53 982.37 588.53 982.37 615.6 982.37 615.6"/><polygon class="cls-23" points="973.83 615.6 976.14 615.6 976.14 588.53 973.83 588.53 973.83 615.6 973.83 615.6"/><polygon class="cls-23" points="964.44 615.6 966.75 615.6 966.75 588.53 964.44 588.53 964.44 615.6 964.44 615.6"/><polygon class="cls-23" points="954.21 615.6 956.52 615.6 956.52 588.53 954.21 588.53 954.21 615.6 954.21 615.6"/></g><path class="cls-26" d="M998.59,593.21c0,4.1-21.87,7.42-48.84,7.42s-48.83-3.32-48.83-7.42,21.86-7.41,48.83-7.41,48.84,3.32,48.84,7.41Z"/><path class="cls-2" d="M990.83,592.71c0,1.9-17.38,3.45-38.82,3.45s-38.82-1.55-38.82-3.45,17.38-3.44,38.82-3.44,38.82,1.54,38.82,3.44Z"/><path class="cls-23" d="M914.86,593.72c4.83-1.42,19.63-2.44,37.15-2.44s32.31,1,37.15,2.44c1.08-.32,1.67-.66,1.67-1,0-1.9-17.38-3.44-38.82-3.44s-38.82,1.54-38.82,3.44c0,.35.58.69,1.67,1Z"/><path class="cls-2" d="M905.32,579.87v11.81c0,4.1,21.87,7.42,48.84,7.42s48.83-3.32,48.83-7.42V579.87Z"/><g class="cls-57"><path class="cls-23" d="M955,600.78H883.59a2,2,0,0,1-1.33-.57,6,6,0,0,1-1.54-4c0-.07,0-.15,0-.22V582.43c.08-2.65,1.34-4.78,2.88-4.78h62.68c1,6.63,3.21,15.72,8.34,22.56.14.2.29.38.43.57Z"/></g><path class="cls-2" d="M993,578.87c0,1.9-17.38,3.44-38.82,3.44s-38.83-1.54-38.83-3.44,17.39-3.44,38.83-3.44S993,577,993,578.87Z"/><path class="cls-24" d="M917,579.87c4.83-1.41,19.63-2.44,37.15-2.44s32.31,1,37.14,2.44c1.09-.31,1.68-.65,1.68-1,0-1.9-17.38-3.44-38.82-3.44s-38.83,1.54-38.83,3.44c0,.35.59.69,1.68,1Z"/><g class="cls-58"><polygon class="cls-23" points="999.61 574.97 999.61 602.04 1001.92 602.04 1001.92 574.97 999.61 574.97 999.61 574.97"/><polygon class="cls-23" points="993.61 602.04 995.93 602.04 995.93 574.97 993.61 574.97 993.61 602.04 993.61 602.04"/><polygon class="cls-23" points="986.77 602.04 989.08 602.04 989.08 574.97 986.77 574.97 986.77 602.04 986.77 602.04"/><polygon class="cls-23" points="978.23 602.04 980.54 602.04 980.54 574.97 978.23 574.97 978.23 602.04 978.23 602.04"/><polygon class="cls-23" points="968.84 602.04 971.16 602.04 971.16 574.97 968.84 574.97 968.84 602.04 968.84 602.04"/><polygon class="cls-23" points="958.61 602.04 960.92 602.04 960.92 574.97 958.61 574.97 958.61 602.04 958.61 602.04"/></g><path class="cls-26" d="M1003,579.65c0,4.1-21.86,7.42-48.83,7.42s-48.84-3.32-48.84-7.42,21.87-7.41,48.84-7.41,48.83,3.32,48.83,7.41Z"/><path class="cls-2" d="M995.23,579.16c0,1.89-17.38,3.44-38.82,3.44s-38.82-1.55-38.82-3.44,17.38-3.45,38.82-3.45,38.82,1.54,38.82,3.45Z"/><path class="cls-23" d="M919.26,580.16c4.84-1.42,19.64-2.44,37.15-2.44s32.31,1,37.15,2.44c1.08-.32,1.67-.66,1.67-1,0-1.91-17.38-3.45-38.82-3.45s-38.82,1.54-38.82,3.45c0,.34.59.68,1.67,1Z"/><path class="cls-2" d="M912.23,566.08v11.81c0,4.1,21.87,7.42,48.84,7.42s48.83-3.32,48.83-7.42V566.08Z"/><g class="cls-59"><path class="cls-23" d="M962,587H890.5a2,2,0,0,1-1.33-.57,6,6,0,0,1-1.54-4c0-.08,0-.15,0-.23V568.63c.08-2.64,1.35-4.77,2.88-4.77h62.68c1,6.62,3.21,15.72,8.34,22.56l.44.57Z"/></g><path class="cls-2" d="M999.89,565.08c0,1.9-17.38,3.44-38.82,3.44s-38.82-1.54-38.82-3.44,17.38-3.44,38.82-3.44,38.82,1.54,38.82,3.44Z"/><path class="cls-24" d="M923.92,566.08c4.83-1.41,19.63-2.44,37.15-2.44s32.31,1,37.15,2.44c1.08-.32,1.67-.65,1.67-1,0-1.9-17.38-3.44-38.82-3.44s-38.82,1.54-38.82,3.44c0,.35.59.68,1.67,1Z"/><g class="cls-60"><polygon class="cls-23" points="1006.52 561.17 1006.52 588.25 1008.83 588.25 1008.83 561.17 1006.52 561.17 1006.52 561.17"/><polygon class="cls-23" points="1000.53 588.25 1002.84 588.25 1002.84 561.17 1000.53 561.17 1000.53 588.25 1000.53 588.25"/><polygon class="cls-23" points="993.68 588.25 996 588.25 996 561.17 993.68 561.17 993.68 588.25 993.68 588.25"/><polygon class="cls-23" points="985.14 588.25 987.46 588.25 987.46 561.17 985.14 561.17 985.14 588.25 985.14 588.25"/><polygon class="cls-23" points="975.76 588.25 978.07 588.25 978.07 561.17 975.76 561.17 975.76 588.25 975.76 588.25"/><polygon class="cls-23" points="965.52 588.25 967.83 588.25 967.83 561.17 965.52 561.17 965.52 588.25 965.52 588.25"/></g><path class="cls-26" d="M1009.9,565.86c0,4.09-21.86,7.41-48.83,7.41s-48.84-3.32-48.84-7.41,21.87-7.42,48.84-7.42,48.83,3.32,48.83,7.42Z"/><path class="cls-2" d="M1002.14,565.36c0,1.9-17.38,3.44-38.82,3.44s-38.82-1.54-38.82-3.44,17.38-3.44,38.82-3.44,38.82,1.54,38.82,3.44Z"/><path class="cls-23" d="M926.17,566.36c4.84-1.41,19.64-2.44,37.15-2.44s32.32,1,37.15,2.44c1.08-.31,1.67-.65,1.67-1,0-1.9-17.38-3.44-38.82-3.44s-38.82,1.54-38.82,3.44c0,.35.59.69,1.67,1Z"/><path class="cls-2" d="M906.5,551.64v11.81c0,4.1,21.86,7.41,48.83,7.41s48.84-3.31,48.84-7.41V551.64Z"/><g class="cls-61"><path class="cls-23" d="M956.22,572.55H884.77a2,2,0,0,1-1.33-.57,5.89,5.89,0,0,1-1.54-4,1.77,1.77,0,0,1,0-.23c0-.08,0-.17,0-.25V554.45c0-.08,0-.17,0-.26.08-2.64,1.34-4.77,2.88-4.77h62.68c1,6.62,3.2,15.71,8.33,22.56l.44.57Z"/></g><path class="cls-2" d="M994.15,550.64c0,1.9-17.38,3.44-38.82,3.44s-38.82-1.54-38.82-3.44,17.38-3.44,38.82-3.44,38.82,1.54,38.82,3.44Z"/><path class="cls-24" d="M918.18,551.64c4.84-1.41,19.64-2.44,37.15-2.44s32.32,1,37.15,2.44c1.09-.32,1.67-.65,1.67-1,0-1.9-17.38-3.44-38.82-3.44s-38.82,1.54-38.82,3.44c0,.35.59.68,1.67,1Z"/><g class="cls-62"><polygon class="cls-23" points="1000.79 546.73 1000.79 573.81 1003.1 573.81 1003.1 546.73 1000.79 546.73 1000.79 546.73"/><polygon class="cls-23" points="994.79 573.81 997.1 573.81 997.1 546.73 994.79 546.73 994.79 573.81 994.79 573.81"/><polygon class="cls-23" points="987.95 573.81 990.26 573.81 990.26 546.73 987.95 546.73 987.95 573.81 987.95 573.81"/><polygon class="cls-23" points="979.41 573.81 981.72 573.81 981.72 546.73 979.41 546.73 979.41 573.81 979.41 573.81"/><polygon class="cls-23" points="970.02 573.81 972.33 573.81 972.33 546.73 970.02 546.73 970.02 573.81 970.02 573.81"/><polygon class="cls-23" points="959.78 573.81 962.1 573.81 962.1 546.73 959.78 546.73 959.78 573.81 959.78 573.81"/></g><path class="cls-26" d="M1004.17,551.42c0,4.09-21.87,7.41-48.84,7.41s-48.83-3.32-48.83-7.41S928.36,544,955.33,544s48.84,3.32,48.84,7.42Z"/><path class="cls-2" d="M996.41,550.92c0,1.9-17.38,3.44-38.82,3.44s-38.83-1.54-38.83-3.44,17.39-3.44,38.83-3.44,38.82,1.54,38.82,3.44Z"/><path class="cls-23" d="M920.44,551.92c4.83-1.41,19.63-2.44,37.15-2.44s32.31,1,37.15,2.44c1.08-.32,1.67-.65,1.67-1,0-1.9-17.38-3.44-38.82-3.44s-38.83,1.54-38.83,3.44c0,.35.59.68,1.68,1Z"/><path class="cls-8" d="M1018,555.64l-9.31,25-12.15,32.7a19.6,19.6,0,0,1-6.45-.59,27.83,27.83,0,0,1-6.24-3s3.37-35.11,9.66-55.26c1.62-5.18,3.42-9.36,5.42-11.72,9.76-11.53,19.07,12.87,19.07,12.87Z"/><path class="cls-14" d="M1060.24,613.29c.64,3.2,5.21,2.66,10.31,1.42s3.88.24,11.14-.57,9.46-3.51,9.68-4.59-3.38-1.3-7.23-1.74l-1.46-.17c-4.34-.55-7.52-3.35-11.47-5.65-3.74-2.18-9.31-11.07-9.31-11.07l-10,.79s5.23,7.94,7.25,11.39c1.18,2,1.12,4.71,1,6.78a13,13,0,0,0,.08,3.41Z"/><path class="cls-14" d="M972.52,625.78a2.85,2.85,0,0,0-.51,3.06h0c.74,2,3.18,4.32,6,6.6l1,.8.22.2.17.15c2.64,2.44,1.64,3,6.39,7.94,5.42,5.63,9.14,5.73,10.21,5.22.89-.44-.93-3.43-3-6.79l-.29-.49-.81-1.34c-2.36-4-1.76-5.94-1.2-12,.46-4.88,7.61-27.3,7.61-27.3L988,600.09s-3.12,17.85-6.57,20.6c-1.84,1.46-3.9,1.49-5.66,2.57l-.37.23a13.34,13.34,0,0,0-2.84,2.29Z"/><path class="cls-8" d="M972.52,625.78a2.85,2.85,0,0,0-.51,3.06h0c.91,2,3.29,4.31,6,6.58.36.3.67.57,1,.82l.22.2.17.15c2.64,2.44,1.64,3,6.39,7.94,5.42,5.63,9.14,5.73,10.21,5.22.89-.44-.93-3.43-3-6.79a23,23,0,0,1-9.65-7.11c-3.26-4.16-5.43-9.5-7.65-12.6l-.37.23a13.34,13.34,0,0,0-2.84,2.29Z"/><path class="cls-8" d="M1070.55,614.71c5.1-1.25,3.88.24,11.14-.57s9.46-3.51,9.68-4.59-3.38-1.3-7.23-1.74l0,.08a20.51,20.51,0,0,1-10.39,3.23c-4.93.12-10.15-1.3-13.55-1.24a13,13,0,0,0,.08,3.41c.64,3.2,5.21,2.66,10.31,1.42Z"/><path class="cls-50" d="M1008.72,580.68l-12.15,32.7a19.6,19.6,0,0,1-6.45-.59,27.83,27.83,0,0,1-6.24-3s3.37-35.11,9.66-55.26l15.18,26.19Z"/><path class="cls-50" d="M1008.57,515.24c-6.1-1.72-23.49.49-41,3.48L964,513.44l-37.74-2.58s-12.45,24.15-5.63,39.53c1,2.26,3,3.71,6.39,3.76h.55s22.59,1.19,29.75,0c20.4-3.43,39.71-11.28,42.42-11.75,4.43-.78,9.72,6.68,14.16,14.82S1052,593.58,1052,593.58s5.72,0,8.09-.73a8.13,8.13,0,0,0,3.47-1.92s-41.28-71.82-55-75.69Z"/><path class="cls-8" d="M962.47,404c-4.83-2.54-12.71-1.24-13.89-1-15,3.12-22.39,16.8-22.9,23.09-.93,11.61-15,9.37-15.71,20.64-.88,14.29,27.91,14.63,37.38,20.92,5.69,3.78-24.45,16.88-24.45,16.88S945,461.1,960.17,459c17.83-2.5,14.62-48.56,2.3-55Z"/><path class="cls-14" d="M950.07,455.22s-5.5,2.31-9.21.34c-3.49-1.85-6.14-8.76-6.09-8.76,1.59-.09,3.36-2,4.7-12.91l.66.5,11.36,4.91s-.82,4.39-1.35,8.56c-.45,3.51-.69,6.86-.07,7.36Z"/><path class="cls-18" d="M951.53,438.8s-.81,4.72-1.37,8.89c-6.92-1.41-9.71-9.56-10.69-13.8l12.06,4.91Z"/><path class="cls-14" d="M954.08,444s-16.35-2.51-14.83-14.13.44-19.77,11-18.66,11.94,5.89,12.26,9.91-4.09,23.23-8.38,22.88Z"/><path class="cls-8" d="M965.12,414.75s-12,10.31-20.11,11.14-11.22-1.78-11.22-1.78a31.77,31.77,0,0,0,7.68-10.42,5.73,5.73,0,0,1,4.72-3.37c5.82-.5,16.84-.73,18.93,4.43Z"/><path class="cls-8" d="M957.64,413.82s4,3.87,5.26,6.74,1.59,9.4.62,12c0,0,6.24-12.13,2.7-18-3.74-6.25-8.58-.75-8.58-.75Z"/><path class="cls-13" d="M964.33,482.61c-.52,37.85-.15,29.94-3.92,33.53-.9.87-3.45,1.38-6.81,1.63-10.56.77-29.12-1.15-29.83-3.29-2.44-7.42-.72-9.73-2.75-21.09-.21-1.21-.47-2.51-.78-3.94-1.69-7.8-3.34-10.46,2.67-23,5.45-11.36,12.72-20.58,13.23-20.25,11.71,7.64,13.6,3.83,13.91,2.15.07-.39.11-.67.11-.67s14.42,16.46,14.17,34.92Z"/><path class="cls-13" d="M950.16,447.69s15,3.26,16.49,10.26,10.2,48.17,10.2,48.17-6.41,1.49-9.38-2.33-10.3-35.44-10.3-35.44l-6.46-19.61Z"/><path class="cls-63" d="M956.43,518.25c-11.61.77-32-1.15-32.78-3.29-2.68-7.42-.79-9.73-3-21.09l5.59-15.76s1.64,13.05,6.82,17.66,18.63,13.42,21.15,17.28a14.12,14.12,0,0,1,2.24,5.2Z"/><path class="cls-14" d="M943.13,510.86s11.45-2.54,13.3-1.53,6.36,4.72,6.93,6-4.12-1-5.64-1.39c-1-.26-3.58.64-4.86,1.07-5.4,1.8-8.71.87-8.71.87l-1-5Z"/><path class="cls-13" d="M936.14,446.21s-15.89,0-19.22,8.37c-5.59,14.09-20.77,55-12.86,60.92,8.91,6.69,40.56,1.75,40.56,1.75s1-5.3-.41-7.86-25.28-6.71-26.38-7.89,13.74-23.07,13.74-26.61,4.57-28.68,4.57-28.68Z"/><polygon class="cls-16" points="960.17 520.72 1015.34 520.72 1031.94 479.45 976.85 479.45 960.17 520.72 960.17 520.72"/><polygon class="cls-64" points="1015.99 519.11 943.13 519.11 943.13 520.72 1015.34 520.72 1015.99 519.11 1015.99 519.11"/><path class="cls-19" d="M1001.41,500.09a1.91,1.91,0,0,0-1.87-2.63,3.76,3.76,0,0,0-3.38,2.63,1.9,1.9,0,0,0,1.87,2.62,3.76,3.76,0,0,0,3.38-2.62Z"/></svg>