<svg id="Layer_1" data-name="Layer 1" xmlns="http://www.w3.org/2000/svg" xmlns:xlink="http://www.w3.org/1999/xlink" viewBox="0 0 1364.6 841.89"><defs><style>.cls-1,.cls-12,.cls-7,.cls-8{fill:#84c0cc;}.cls-2,.cls-26,.cls-27{fill:#ece6e3;}.cls-3{fill:none;}.cls-4{fill:#f99f1b;}.cls-5{fill:#17697a;}.cls-28,.cls-29,.cls-30,.cls-6{fill:#18697a;}.cls-7{opacity:0.23;}.cls-8{opacity:0.53;}.cls-9{fill:#bcbec0;}.cls-10{fill:#d1d3d4;}.cls-11{clip-path:url(#clip-path);}.cls-12{opacity:0.56;}.cls-13{fill:#dbdcde;}.cls-14{fill:#efb68f;}.cls-15{fill:#479fb5;}.cls-16{fill:#f4ccb1;}.cls-17{clip-path:url(#clip-path-2);}.cls-18{clip-path:url(#clip-path-3);}.cls-19{fill:#47494c;}.cls-20{clip-path:url(#clip-path-4);}.cls-21{clip-path:url(#clip-path-5);}.cls-22{fill:#fff;}.cls-23{fill:#faa52d;}.cls-24{fill:#93ced4;}.cls-25{fill:#aad7dd;}.cls-26{opacity:0.25;}.cls-27{opacity:0.71;}.cls-28,.cls-29,.cls-30{font-size:13.03px;font-family:OpenSans-Regular, Open Sans;}.cls-28{letter-spacing:0.2em;}.cls-29{letter-spacing:0.18em;}.cls-31{fill:#fdb83e;}.cls-32{fill:#faa31b;}.cls-33{clip-path:url(#clip-path-6);}.cls-34{fill:#f4901f;}.cls-35{fill:#e28725;}.cls-36{clip-path:url(#clip-path-7);}.cls-37{clip-path:url(#clip-path-8);}.cls-38{clip-path:url(#clip-path-9);}.cls-39{clip-path:url(#clip-path-10);}.cls-40{clip-path:url(#clip-path-11);}.cls-41{clip-path:url(#clip-path-12);}.cls-42{clip-path:url(#clip-path-13);}.cls-43{clip-path:url(#clip-path-14);}.cls-44{clip-path:url(#clip-path-15);}.cls-45{clip-path:url(#clip-path-16);}.cls-46{clip-path:url(#clip-path-17);}.cls-47{clip-path:url(#clip-path-18);}.cls-48{clip-path:url(#clip-path-19);}.cls-49{clip-path:url(#clip-path-20);}.cls-50{clip-path:url(#clip-path-21);}.cls-51{clip-path:url(#clip-path-22);}.cls-52{clip-path:url(#clip-path-23);}.cls-53{clip-path:url(#clip-path-24);}.cls-54{clip-path:url(#clip-path-25);}.cls-55{clip-path:url(#clip-path-26);}.cls-56{clip-path:url(#clip-path-27);}.cls-57{clip-path:url(#clip-path-28);}.cls-58{clip-path:url(#clip-path-29);}.cls-59{clip-path:url(#clip-path-30);}.cls-60{clip-path:url(#clip-path-31);}.cls-61{clip-path:url(#clip-path-32);}.cls-62{clip-path:url(#clip-path-33);}.cls-63{clip-path:url(#clip-path-34);}.cls-64{clip-path:url(#clip-path-35);}.cls-65{clip-path:url(#clip-path-36);}.cls-66{clip-path:url(#clip-path-37);}</style><clipPath id="clip-path"><rect class="cls-1" x="557.3" y="451.25" width="267.51" height="175.07"/></clipPath><clipPath id="clip-path-2"><path class="cls-2" d="M981.84,524.49c3.75,1.19,9,1.84,14.4,2.37,7.67.76,15.58,1.28,19.72,2.78,1.52.55,2.53,1.23,2.84,2.1,1.8,4.91,9.72,12.49,9.72,12.49,50.75-2.1,56.32-21.4,56.32-21.4-47.87-35.33-92-46.56-92-46.56s-4.13-1.59-14.53,5.92c-6.94,5-6,6.95-6,6.95s-.07,22.22,9.52,35.35Z"/></clipPath><clipPath id="clip-path-3"><path class="cls-5" d="M190.53,492.8s-.86-4.21,8.82-17.15c2.09-2.8,8.46-13.31,8.46-13.31,2.52-.61,10.36,3.56,12.43,4.83l.65.41s3.36,14.54-3.77,12.89l-.67-.13c-6.89-1.07-13.55,5.77-16.57,10.11-2,2.82-8,2.46-9.35,2.35Z"/></clipPath><clipPath id="clip-path-4"><path class="cls-5" d="M241.62,464.53s-.85-4.21,8.83-17.15c2.09-2.79,8.46-13.3,8.46-13.3,2.51-.62,10.35,3.55,12.42,4.82l.66.41s3.35,14.55-3.78,12.9a5.13,5.13,0,0,0-.66-.13C260.65,451,254,457.84,251,462.19c-2,2.82-8,2.45-9.35,2.34Z"/></clipPath><clipPath id="clip-path-5"><path class="cls-6" d="M346.56,394.75c-1.86-8.14-22.48-33.49-33.05-27.62s-5.08,37.77,5.93,75.38l.51,1.71c-22.19-3.72-48.61-4.85-48.61-4.85l-2.78,13.09c20,5.64,58.86,25.24,75.15,33.68,6.23,2.88,13.55,2.88,15-2.71,5-18.72-12.19-88.68-12.19-88.68Z"/></clipPath><clipPath id="clip-path-6"><path class="cls-4" d="M325.07,677.07v11.82c0,4.09,21.87,7.41,48.84,7.41s48.83-3.32,48.83-7.41V677.07Z"/></clipPath><clipPath id="clip-path-7"><path class="cls-3" d="M325.07,677.07v11.82c0,4.09,21.87,7.41,48.84,7.41s48.83-3.32,48.83-7.41V677.07H325.07"/></clipPath><clipPath id="clip-path-8"><path class="cls-4" d="M332,663.28v11.81c0,4.1,21.87,7.42,48.84,7.42s48.83-3.32,48.83-7.42V663.28Z"/></clipPath><clipPath id="clip-path-9"><path class="cls-3" d="M332,663.28v11.81c0,4.1,21.87,7.42,48.84,7.42s48.83-3.32,48.83-7.42V663.28H332"/></clipPath><clipPath id="clip-path-10"><path class="cls-4" d="M326.25,648.84v11.81c0,4.1,21.86,7.42,48.83,7.42s48.84-3.32,48.84-7.42V648.84Z"/></clipPath><clipPath id="clip-path-11"><path class="cls-3" d="M326.25,648.84v11.81c0,4.1,21.86,7.42,48.83,7.42s48.84-3.32,48.84-7.42V648.84H326.25"/></clipPath><clipPath id="clip-path-12"><path class="cls-4" d="M330.65,635.28v11.81c0,4.1,21.87,7.42,48.84,7.42s48.83-3.32,48.83-7.42V635.28Z"/></clipPath><clipPath id="clip-path-13"><path class="cls-3" d="M330.65,635.28v11.81c0,4.1,21.87,7.42,48.84,7.42s48.83-3.32,48.83-7.42V635.28H330.65"/></clipPath><clipPath id="clip-path-14"><path class="cls-4" d="M337.56,621.49V633.3c0,4.09,21.87,7.41,48.84,7.41s48.83-3.32,48.83-7.41V621.49Z"/></clipPath><clipPath id="clip-path-15"><path class="cls-3" d="M337.56,621.49V633.3c0,4.09,21.87,7.41,48.84,7.41s48.83-3.32,48.83-7.41V621.49H337.56"/></clipPath><clipPath id="clip-path-16"><path class="cls-4" d="M331.83,607.05v11.81c0,4.09,21.86,7.41,48.83,7.41s48.84-3.32,48.84-7.41V607.05Z"/></clipPath><clipPath id="clip-path-17"><path class="cls-3" d="M331.83,607.05v11.81c0,4.09,21.86,7.41,48.83,7.41s48.84-3.32,48.84-7.41V607.05H331.83"/></clipPath><clipPath id="clip-path-18"><path class="cls-4" d="M434.19,675v11.81c0,4.1,21.86,7.42,48.83,7.42s48.84-3.32,48.84-7.42V675Z"/></clipPath><clipPath id="clip-path-19"><path class="cls-3" d="M434.19,675v11.81c0,4.1,21.86,7.42,48.83,7.42s48.84-3.32,48.84-7.42V675H434.19"/></clipPath><clipPath id="clip-path-20"><path class="cls-4" d="M441.1,661.19V673c0,4.1,21.86,7.41,48.83,7.41s48.84-3.31,48.84-7.41V661.19Z"/></clipPath><clipPath id="clip-path-21"><path class="cls-3" d="M441.1,661.19V673c0,4.1,21.86,7.41,48.83,7.41s48.84-3.31,48.84-7.41V661.19H441.1"/></clipPath><clipPath id="clip-path-22"><path class="cls-4" d="M435.36,646.75v11.81c0,4.1,21.87,7.41,48.84,7.41S533,662.66,533,658.56V646.75Z"/></clipPath><clipPath id="clip-path-23"><path class="cls-3" d="M435.36,646.75v11.81c0,4.1,21.87,7.41,48.84,7.41S533,662.66,533,658.56V646.75H435.36"/></clipPath><clipPath id="clip-path-24"><path class="cls-4" d="M430.16,631.87v11.82c0,4.09,21.87,7.41,48.84,7.41s48.83-3.32,48.83-7.41V631.87Z"/></clipPath><clipPath id="clip-path-25"><path class="cls-3" d="M430.16,631.87v11.82c0,4.09,21.87,7.41,48.84,7.41s48.83-3.32,48.83-7.41V631.87H430.16"/></clipPath><clipPath id="clip-path-26"><path class="cls-4" d="M437.07,618.08v11.81c0,4.1,21.87,7.42,48.84,7.42s48.83-3.32,48.83-7.42V618.08Z"/></clipPath><clipPath id="clip-path-27"><path class="cls-3" d="M437.07,618.08v11.81c0,4.1,21.87,7.42,48.84,7.42s48.83-3.32,48.83-7.42V618.08H437.07"/></clipPath><clipPath id="clip-path-28"><path class="cls-4" d="M431.34,603.64v11.81c0,4.1,21.86,7.42,48.83,7.42S529,619.55,529,615.45V603.64Z"/></clipPath><clipPath id="clip-path-29"><path class="cls-3" d="M431.34,603.64v11.81c0,4.1,21.86,7.42,48.83,7.42S529,619.55,529,615.45V603.64H431.34"/></clipPath><clipPath id="clip-path-30"><path class="cls-4" d="M435.74,590.08v11.81c0,4.1,21.87,7.42,48.84,7.42s48.83-3.32,48.83-7.42V590.08Z"/></clipPath><clipPath id="clip-path-31"><path class="cls-3" d="M435.74,590.08v11.81c0,4.1,21.87,7.42,48.84,7.42s48.83-3.32,48.83-7.42V590.08H435.74"/></clipPath><clipPath id="clip-path-32"><path class="cls-4" d="M442.65,576.29V588.1c0,4.09,21.87,7.41,48.84,7.41s48.83-3.32,48.83-7.41V576.29Z"/></clipPath><clipPath id="clip-path-33"><path class="cls-3" d="M442.65,576.29V588.1c0,4.09,21.87,7.41,48.84,7.41s48.83-3.32,48.83-7.41V576.29H442.65"/></clipPath><clipPath id="clip-path-34"><path class="cls-4" d="M436.92,561.85v11.81c0,4.09,21.86,7.41,48.83,7.41s48.84-3.32,48.84-7.41V561.85Z"/></clipPath><clipPath id="clip-path-35"><path class="cls-3" d="M436.92,561.85v11.81c0,4.09,21.86,7.41,48.83,7.41s48.84-3.32,48.84-7.41V561.85H436.92"/></clipPath><clipPath id="clip-path-36"><path class="cls-4" d="M443.26,548.19V560c0,4.1,21.87,7.42,48.84,7.42s48.83-3.32,48.83-7.42V548.19Z"/></clipPath><clipPath id="clip-path-37"><path class="cls-3" d="M443.26,548.19V560c0,4.1,21.87,7.42,48.84,7.42s48.83-3.32,48.83-7.42V548.19H443.26"/></clipPath></defs><path class="cls-7" d="M1238.06,696.7s153.73-141.42,26-294.52c-113.33-135.85-245.47-126.56-342.41-71.43C880.36,354.22,761.32,333.64,660,195.41,521.83,6.91,42.87,121.24,130.19,411.26,172.45,551.6,1.58,556.7,88.65,697l1149.41-.3Z"/><path class="cls-8" d="M165,519.55c15.35-18.46,46.15,5.94,46.15,5.94s5.67,49.34,12,53.73S226,536,226,536c13.59,5.46,38.81,39.63,38.81,39.63s-22.33,42.42-15.22,45,18-38.62,18-38.62c10.7,10.57,15.19,32.24,15.19,32.24,2.87,33-37.18,35.19-37.18,35.19s-7.45,14.87-6.71,36.78h0a60.62,60.62,0,0,1,0,10.73l-3.43-1.79c.18-1.12.31-2.23.39-3.31v-.07c0-.68.06-1.65.09-2.85h0c0-2.71,0-4.69.1-6.08h0c0-8.46-.34-19.71-2.49-23.14a7.61,7.61,0,0,0,1.51-1.29l-1.51,1.29c-12,10.25-42.38-2.86-57-15s-5.29-13.26,7.19-16.58,29.91,8.4,36.8,8.14.38-7.53-10.92-12.33-22.1,3.88-40.5-3.54S153.56,571,153.56,571c10.28,10.35,35.34,14.64,38.24,10.64s-29.52-20.43-33.92-24.39S149.64,538,165,519.55Z"/><rect class="cls-9" x="674.51" y="642.68" width="33.22" height="46.86"/><rect class="cls-10" x="547.96" y="436.93" width="288.21" height="205.78" rx="17.52"/><rect class="cls-10" x="615.49" y="689.54" width="151.85" height="7.45"/><rect class="cls-1" x="557.3" y="451.25" width="267.51" height="175.07"/><g class="cls-11"><polygon class="cls-12" points="694.45 446.57 832.96 501.9 840.43 440.34 694.45 446.57"/><polygon class="cls-12" points="548.48 477.74 831.6 594.37 833.64 631.25 529.47 511.51 548.48 477.74"/><polygon class="cls-12" points="540.33 561.64 712.78 633.59 526.75 634.37 540.33 561.64"/></g><polyline class="cls-13" points="806.28 416.07 769.64 416.07 769.64 416.07 806.28 416.07"/><path class="cls-5" d="M945.45,438.21c5.11-3.6,14.58-3.69,16-3.66,18.14.5,29.59,13.62,31.48,20.2,3.49,12.14,19.46,7.12,22.6,18.95,4,15-29.54,20.76-39.3,29.21-5.85,5.08,32,13.31,32,13.31s-30.59-20.66-48.76-20.06c-21.31.69-27.08-48.77-14-58Z"/><path class="cls-5" d="M961.69,439.8c-.19-.7,16.65,6.92,17.5,7.78,7.9,8,5.65,18.35,1.13,18.45-2.9.07-2.34,4.45-2.34,4.45L945.7,458.06s3.89-20.61,16-18.26Z"/><path class="cls-14" d="M981.72,486c8.18-5.27,19.91,2.08,19.08,12.1a9.78,9.78,0,0,1-1.9,5.12c-6.48,8.73-50.68,26.87-55.39,27.81-8.59,1.72-46.71-.87-46.71-.87L895,524.29s36.94-8.3,41.3-8.19c5,.12,29.86-20.1,45.39-30.12Z"/><path class="cls-10" d="M975.81,486.56c7.13-4.84,16.65.8,15.47,9.28a9.29,9.29,0,0,1-1.84,4.41c-5.87,7.67-44.24,30.44-48.25,31.46-7.3,1.86-26.91.2-26.91.2l-2.73-11.23s21-6.43,24.63-6.55c4.24-.14,26.08-18.39,39.63-27.57Z"/><path class="cls-14" d="M900.31,529.46s-2.33-8.8-4.65-10.66-10-6.23-10.9-5.49,5.53,8,5.55,8.91,1.93,8.32,4.51,9.09,5.49-1.85,5.49-1.85Z"/><path class="cls-15" d="M997.19,688.67l7-.93s23.49-17,27-48.65a51.55,51.55,0,0,0,.17-9.79,1.58,1.58,0,0,1,.24-1.08h0c.75-1.05,2.62-3.67,5.16-7.41s6.77-10.63,11.47-18.43c8.47-14.06,18.33-30.87,21.71-36.22,10.78-17.06,5.59-28.54,5.59-28.54s-30.07-2.7-38.31-9.25l-3,4.15s-6.51,26.23-6.2,26.35l-1,2.72c-5.14,14.43-11.06,32.47-14.28,47.15-1.81,8.27-2.77,15.47-2.26,20.37a32,32,0,0,1-.53,7.46c-2.91,18.82-12.79,52.11-12.79,52.11Z"/><path class="cls-5" d="M982.53,696.71h29.15s.7-4-.83-7.11-3.53-3-.26-7.64c-1.85,1.73-7.81,2.45-12,1.94-.52.76-3.33,5.86-5.05,7-1.91,1.25-10.4.8-11,5.82Z"/><path class="cls-16" d="M1010.85,689.61c-1.46-2.94-3.54-3-.27-7.64-1.85,1.73-7.8,2.45-12,1.94-.51.76-3.33,5.86-5,7C991.6,692.15,1012.37,692.68,1010.85,689.61Z"/><path class="cls-5" d="M1027.05,561.58c2.55,12.77,8.56,34,21.16,40.79,8.47-14.06,18.33-30.87,21.71-36.22,10.78-17.06,5.59-28.54,5.59-28.54s-30.07-2.7-38.31-9.25l-3,4.15s-6.51,26.23-6.2,26.35l-1,2.72Z"/><path class="cls-10" d="M973.59,489.32a28.25,28.25,0,0,0-6,8.56s6.57,17.17,21.94,19.32c0,0-12.16-27.89-15.94-27.88Z"/><path class="cls-15" d="M1047.49,539.58l-.1-5c10.86,1.24,37.45-11.8,37.45-11.8s9.92,6.56,12.92,26.49c1.68,11.14,5.28,49.4,6.09,62.19.28,4.38.26,7.51.28,8.76h0a1.68,1.68,0,0,0,.46,1,56.21,56.21,0,0,1,5.89,8.21c16.57,28,7.91,66.13,7.91,66.13l-3.85-.89s-14-39.49-23.17-56.58a35.54,35.54,0,0,0-4.15-6.45c-3.45-3.8-7.08-10.26-10.66-18-6.76-14.69-13.33-34.08-18-49.1-.33.06-11-25-11-25Z"/><path class="cls-16" d="M983.93,506.5c17.76-3.7,6.41-26.39,5.38-26-2.46-.46-7.86-4.39-12.69-12.06L976,469l-10.91,8.69s2.52,3.38,4.64,6.7c1.66,2.59,3.07,5.14,2.84,6-.87.63,6.66,17.11,11.39,16.12Z"/><path class="cls-14" d="M965.06,477.67s2.52,3.37,4.64,6.69c6.78-3.8,6.79-11.43,6.27-15.39l-10.91,8.7Z"/><path class="cls-16" d="M964.76,482s16.46-8.33,10.6-17.57-7.69-16.54-18.45-11.62-10.54,9.52-9.41,13S960.32,484,964.76,482Z"/><path class="cls-5" d="M1095.21,696.71h29.15s.69-4-.83-7.11-3.74-4.27-3.19-7.83a11.07,11.07,0,0,1-9.09,3.16c-.52.76-3.33,4.83-5.06,6-1.9,1.25-10.4.8-11,5.82Z"/><path class="cls-16" d="M1123.53,689.6c-1.46-2.93-3.74-4.27-3.19-7.83a11.07,11.07,0,0,1-9.09,3.16c-.52.76-3.33,4.83-5.06,6C1104.29,692.14,1125.05,692.67,1123.53,689.6Z"/><path class="cls-2" d="M981.84,524.49c3.75,1.19,9,1.84,14.4,2.37,7.67.76,15.58,1.28,19.72,2.78,1.52.55,2.53,1.23,2.84,2.1,1.8,4.91,9.72,12.49,9.72,12.49,50.75-2.1,56.32-21.4,56.32-21.4-47.87-35.33-92-46.56-92-46.56s-4.13-1.59-14.53,5.92c-6.94,5-6,6.95-6,6.95s-.07,22.22,9.52,35.35Z"/><g class="cls-17"><polyline class="cls-10" points="997.19 522.65 990.15 526.97 997.19 529.44 996.24 526.86 997.19 522.65"/></g><path class="cls-10" d="M996.24,526.86c7.67.76,15.58,1.28,19.72,2.78,1.7-23-10.25-40.32-10.25-40.32s-7.79,28.83-9.47,37.54Z"/><path class="cls-5" d="M944.53,454.63s16.28,9.09,26.15,8.57,13.05-3.9,13.05-3.9a37.43,37.43,0,0,1-11.18-10,7.13,7.13,0,0,0-6.28-2.83c-7,.47-20.23,2.15-21.74,8.12Z"/><path class="cls-5" d="M953.29,452.31s-4,4.91-5,8.24-.08,10.48,1.59,13.16c0,0-9.79-12.07-6.7-19.08,3.26-7.44,10.1-2.32,10.1-2.32Z"/><path class="cls-16" d="M306.59,508.85s-49.28-19.31-79.32-27.11c-3.73-1-7.15-1.75-10.15-2.3l3.16-11.19s2.95-.05,7.72,0c18.71,0,65.56,1,73.93,8.93,10.5,10,4.66,31.71,4.66,31.71Z"/><path class="cls-16" d="M172.3,280.28c2.82,3.06,6.86,6.29,9.72,6.33a10.09,10.09,0,0,1,5.08,1.24l1.7-2.21,2-2.64s-.18-.27-.51-.7-2.62-2.36-2.66-3.89a6,6,0,0,0-2.34-4.41c-1.37-.9-3.45-3.62-3.92-3.32-1.16.73,2.42,4.17,2.21,5.17a1,1,0,0,1-1,.9h0c-4.13-.1-11.76-6.65-13.18-4.76-.53.7,1.73,7,2.93,8.29Z"/><path class="cls-5" d="M190.53,492.8s-.86-4.21,8.82-17.15c2.09-2.8,8.46-13.31,8.46-13.31,2.52-.61,10.36,3.56,12.43,4.83l.65.41s3.36,14.54-3.77,12.89l-.67-.13c-6.89-1.07-13.55,5.77-16.57,10.11-2,2.82-8,2.46-9.35,2.35Z"/><g class="cls-18"><polygon class="cls-19" points="193.99 477.58 192.78 481.7 221.6 475.99 224.83 462.28 208.81 459.53 193.99 477.58"/><path class="cls-2" d="M210.35,462.61s-8.73,14.68-10.82,17.25c0,0-6.27,11.72-6.75,14.62l-8.19-.65,19.6-38.55,6.16,7.33h0"/></g><path class="cls-5" d="M241.62,464.53s-.85-4.21,8.83-17.15c2.09-2.79,8.46-13.3,8.46-13.3,2.51-.62,10.35,3.55,12.42,4.82l.66.41s3.35,14.55-3.78,12.9a5.13,5.13,0,0,0-.66-.13C260.65,451,254,457.84,251,462.19c-2,2.82-8,2.45-9.35,2.34Z"/><g class="cls-20"><path class="cls-2" d="M261.29,434.3s-8.91,12.78-10.51,15.67c0,0-8.52,13.5-8,15.91l-3.53-.16s15.58-30.2,19.6-33.58l2.48,2.16"/><path class="cls-19" d="M269.53,447.87s-14-.59-18.75,2.1l10.51-15.67,6.68.41,4.81,2.65-3.25,10.51h0"/></g><path class="cls-6" d="M346.56,394.75c-1.86-8.14-22.48-33.49-33.05-27.62s-5.08,37.77,5.93,75.38l.51,1.71c-22.19-3.72-48.61-4.85-48.61-4.85l-2.78,13.09c20,5.64,58.86,25.24,75.15,33.68,6.23,2.88,13.55,2.88,15-2.71,5-18.72-12.19-88.68-12.19-88.68Z"/><g class="cls-21"><path class="cls-16" d="M284.93,437.12s-8.14,15.95-2.5,25.16l-13.87-9.82V429.89Z"/></g><path class="cls-16" d="M346.72,203.36c1.66,3.81,3,8.81,1.86,11.44a10.2,10.2,0,0,0-.92,5.15l-2.71.67-3.24.79s-.17-.28-.43-.76-.61-1.14-.95-1.92a2.78,2.78,0,0,0-1.53-2.08,5.93,5.93,0,0,1-3.09-3.93c-.27-1.6-1.92-4.61-1.45-4.92,1.14-.77,2.84,3.9,3.84,4.11a1,1,0,0,0,1.24-.58v0c1.57-3.82-1.33-13.45,1-14,.85-.2,5.7,4.42,6.4,6Z"/><path class="cls-15" d="M293.3,398.89c-10.51,3.22-7.87,18.17-6.3,59.2.18,4.64.54,9.13,1.06,13.4-15.41-3.66-39.09-4.21-50.56-4.25a26,26,0,0,0,2,23.18c26,9.19,65.94,24.7,65.94,24.7v0c2.66.81,5.17-.76,7.16-5.27,7.95-18,21.55-137.78,21.55-137.78.12-8.73-30.37,23.62-40.88,26.85Z"/><path class="cls-16" d="M275.26,309.1s4.63-11.73-4.36-28.45l12.78,2.84,8.69,1.92a82.88,82.88,0,0,1,3.32,8.47c.49,1.45,2.33,7.26,2.87,9.06,3.05.13-1.35,4.75-7.62,5.66a91.56,91.56,0,0,1-15.68.5Z"/><path class="cls-14" d="M292.37,285.41a82.88,82.88,0,0,1,3.32,8.47c-7.46,2.23-20.78-5-20.78-5a24.59,24.59,0,0,1,8.77-5.36l8.69,1.92Z"/><path class="cls-16" d="M298.12,281s-14.82,16.39-24.88,7-18.75-13.59-9.72-24.44,14.74-9.29,18.86-7,19.33,19.91,15.74,24.41Z"/><path class="cls-22" d="M288.86,277.63l5.49-5.18s2.24,3.43.67,4.92-6.16.26-6.16.26Z"/><path class="cls-23" d="M356.52,247.92c-2.22-13.75-8.91-28.85-8.91-28.85l-7.28-.34s.81,18.62.63,31.64a27.79,27.79,0,0,1-3.56,12.91c-2.26,3-35.56,35.07-36.67,36.09l0,0h0c-3.54.61-3.15,6.43-6.79,7.4-6.07,1.63-16.15-1.34-21.54.66h0s-43.24.05-49.81-3.1-32.24-22.06-32.24-22.06l-4.75,5.53S206.29,318,220.25,324.1c7.6,3.32,25.39,10.3,39,13.26,5.39,1.16,8.38,5.56,11.1,10.36,20.39,36.06,6.62,76.63,6.62,76.63s8.07,1.79,23.37-2.46a147.8,147.8,0,0,0,34.43-14.48c8.59-6.5,11.44-8.54,12.79-9.54,2.88-2.13,5.91-2.41,6.11-5.15.54-7-13.29-37-23.8-63.8-1.82-4.62-6-12.89-3.38-17.11,8.47-13.57,31.83-38.05,32-42.37a175.64,175.64,0,0,0-2-21.52Z"/><path class="cls-5" d="M286.89,252.16a24.09,24.09,0,0,0-1.87-6.38s-1,4-8.64,3.47-19.73.72-23.76,9.1c-.25.53-.48,1.08-.69,1.64a18.55,18.55,0,0,1-.9-4.64c-1.45,3.61,0,8.12,0,8.12h0l-.06.39c-1.68,1.38-3.1,5.64-3.1,5.64a5.26,5.26,0,0,1,2.85-2.44c0,6.52,2.72,12.89,7.53,14.78,7,2.78,7,.66,14.07,5.19,0,0,1.9-2.27.61-3.8s-6.2-3.74-3.46-6,3.75.27,4.75-1.25-4-6,2.45-10.13,10.8-10,10.22-13.73Z"/><path class="cls-16" d="M1001.4,489.18s12.92,14.31,6.35,23.68-52.63,29.75-57.57,30.88c-9,2.06-49.22.42-49.22.42l-2-6.12s38.67-9.79,43.27-9.8c7.21,0,51.76-40.6,59.2-39.06Z"/><path class="cls-2" d="M1002.7,517.5c-.21.15-16.58-8.19-21.36-19.77,0,0,14.43-19.17,23.52-9s12.34,18.49,8.58,23.06-10.74,5.7-10.74,5.7Z"/><path class="cls-2" d="M1007.79,515.89S959,548.08,949,545.64l-29,.91-2.62-15,28-4.48,39.06-28.56S996.32,493.06,1007.79,515.89Z"/><rect class="cls-6" x="703.19" y="481.41" width="7.63" height="119.96"/><polyline class="cls-24" points="824.81 626.32 557.3 626.32 557.3 451.26 824.81 451.26 824.81 626.32"/><polyline class="cls-25" points="557.3 610.21 557.3 562.64 700.67 451.25 761.66 451.26 557.3 610.21"/><polyline class="cls-25" points="603.28 626.32 573.56 626.32 786.33 451.25 816.11 451.26 603.28 626.32"/><polyline class="cls-25" points="650.56 626.32 634.31 626.32 824.81 469.76 824.81 483.19 650.56 626.32"/><path class="cls-23" d="M885.46,598h-168a10.55,10.55,0,0,1-10.55-10.55v-91.3a10.55,10.55,0,0,1,10.55-10.55h168A10.55,10.55,0,0,1,896,496.16v91.3A10.55,10.55,0,0,1,885.46,598Z"/><path class="cls-26" d="M707.11,494.22a11.2,11.2,0,0,0-.18,1.94v91.3A10.55,10.55,0,0,0,717.48,598h168a10.5,10.5,0,0,0,8-3.73L707.11,494.22Z"/><path class="cls-27" d="M731.15,569.33H720a5,5,0,0,1-5-5V553.17a5,5,0,0,1,5-5h11.15a5,5,0,0,1,5,5v11.15a5,5,0,0,1-5,5Z"/><text class="cls-28" transform="translate(748.55 583.32)">123 456 </text><text class="cls-29" transform="translate(821.32 583.32)">78</text><text class="cls-30" transform="translate(842.72 583.32)">9</text><text class="cls-29" transform="translate(854.56 505.73)">23</text><text class="cls-30" transform="translate(875.96 505.73)">8</text><polygon class="cls-15" points="881.31 562.05 745.37 562.05 745.37 554.39 881.31 554.39 881.31 562.05 881.31 562.05"/><path class="cls-16" d="M904.5,542.91s-1.15-8.91-3.24-11S892,524.45,891,525.06s4.47,8.55,4.38,9.43.81,8.39,3.29,9.48,5.79-1.06,5.79-1.06Z"/><rect class="cls-6" x="703.19" y="481.1" width="7.63" height="121.05"/><path class="cls-31" d="M230.3,616.17a47.15,47.15,0,1,1,47.15,47.15,47.15,47.15,0,0,1-47.15-47.15Z"/><path class="cls-32" d="M277.45,576.32a40.4,40.4,0,1,0,40.4,40.4,40.45,40.45,0,0,0-40.4-40.4Zm0,83.36a43,43,0,1,1,30.38-12.58,42.72,42.72,0,0,1-30.38,12.58Z"/><path class="cls-32" d="M283.37,629.19a7,7,0,0,0-.11-2.49,5.19,5.19,0,0,0-1.05-2.08,10.1,10.1,0,0,0-2.11-1.86,27.37,27.37,0,0,0-3.27-1.83,66.2,66.2,0,0,1-6-3.31,21.47,21.47,0,0,1-4.52-3.68,12.62,12.62,0,0,1-2.66-4.47,12.82,12.82,0,0,1-.46-5.73,13.07,13.07,0,0,1,1.6-5,12,12,0,0,1,3.33-3.7,14.84,14.84,0,0,1,4.77-2.27,19.82,19.82,0,0,1,5.95-.68l.84-7.08,5.7.67-.85,7.18a17.88,17.88,0,0,1,5.36,2.28,13.59,13.59,0,0,1,3.86,3.68,13.86,13.86,0,0,1,2.15,4.94,18.17,18.17,0,0,1,.23,6.08l-10.29-1.22q.46-4-1.06-6.15a6.1,6.1,0,0,0-4.49-2.53,8,8,0,0,0-2.81.12,5.24,5.24,0,0,0-2.05,1,4.91,4.91,0,0,0-1.32,1.7,7.06,7.06,0,0,0-.63,2.25,6.42,6.42,0,0,0,.09,2.25,5,5,0,0,0,1,2,10.06,10.06,0,0,0,2.13,1.86,33.49,33.49,0,0,0,3.4,2q3.3,1.7,6,3.39a21.58,21.58,0,0,1,4.49,3.7,12.19,12.19,0,0,1,3.13,10.19,13,13,0,0,1-1.64,5.11,11.82,11.82,0,0,1-3.34,3.66,14.5,14.5,0,0,1-4.79,2.18,21.17,21.17,0,0,1-6,.63l-.79,6.59-5.66-.67.78-6.56a24.12,24.12,0,0,1-5.57-2,15.07,15.07,0,0,1-4.55-3.44,13.56,13.56,0,0,1-2.86-5.12,16.68,16.68,0,0,1-.48-7l10.3,1.23a10.23,10.23,0,0,0,.19,4,6.64,6.64,0,0,0,1.47,2.73,6.52,6.52,0,0,0,2.35,1.62,11.46,11.46,0,0,0,2.82.72,9.17,9.17,0,0,0,3-.08,6.16,6.16,0,0,0,2.26-.94,4.93,4.93,0,0,0,1.5-1.65,6,6,0,0,0,.7-2.22Z"/><path class="cls-24" d="M1177.91,696.55c-9,.91-30.94-9.93-36.66-22.7-5.25-11.72,3.4-23.12,3-34-.29-8.14-8-16.45-6.25-25.71.06-.32.11-.64.16-1,1.47-10.65,13.09-16.69,22.27-11.09a20.75,20.75,0,0,1,6.71,5.86c6.36,9.9.52,24,5.82,35.17,3.74,7.86,11.57,52.72,4.94,53.39Z"/><path class="cls-15" d="M1169.48,688.08a49,49,0,0,1-9.15-10.17,106.05,106.05,0,0,1-10.47-8,.87.87,0,0,1-.24-1.09.65.65,0,0,1,1,0,101.8,101.8,0,0,0,8.26,6.66c-3.18-6-4.18-12.94-2.81-18.09.06-.26.13-.53.2-.81-2.43-4.42-3.43-6.64-5.46-11.07a.88.88,0,0,1,.33-1.07h0a.61.61,0,0,1,.93.23c1.78,3.92,2.66,5.88,4.71,9.78a129.89,129.89,0,0,0,2.9-17c-4.42-5.76-11.93-14.19-12.46-14.66a.87.87,0,0,1-.22-1.06.64.64,0,0,1,1-.18c.36.27,8,8.69,11.89,13.61.84-10.79-2.75-21.45-11.09-28.57-.4-.34-.57-.82-.38-1.06h0c.19-.22.68-.14,1.08.2a32.35,32.35,0,0,1,11.42,19.73,56.68,56.68,0,0,0,2.46-6.48.6.6,0,0,1,.89-.35.9.9,0,0,1,.45,1,62.9,62.9,0,0,1-3.48,8.48,125.53,125.53,0,0,1-3.51,28.45h0l-.29,1.2a20.89,20.89,0,0,0-.27,8.41c4.42-5.42,12.81-18.86,12.9-19a.69.69,0,0,1,1-.26.8.8,0,0,1,.11,1.07c-.42.64-9.16,15.29-13.6,20.19a33.65,33.65,0,0,0,5.72,11.83,37,37,0,0,1,2.65-5.31c.17-.3.62-.28,1,0a1,1,0,0,1,.42,1.08,32.29,32.29,0,0,0-2.68,6,49.36,49.36,0,0,0,5.88,5.95c.38.32.56.64.47.82l-.11.1a1.77,1.77,0,0,1-1.37-.52Z"/><path class="cls-15" d="M1178.37,696.63c12.31.53,41.35-16,48.12-33.81,6.22-16.38-6.47-31.21-6.8-46-.24-11.11,9.63-23,6.48-35.5-.11-.43-.21-.87-.29-1.3-2.86-14.38-19.16-21.68-31.21-13.34-3.94,2.73-7,5.6-8.67,8.52-7.88,14,1.19,32.74-5.14,48.35-4.47,11-11.57,72.71-2.49,73.09Z"/><path class="cls-5" d="M1189.18,684.43a66.62,66.62,0,0,0,11.65-14.58,141.21,141.21,0,0,0,13.61-11.79,1.16,1.16,0,0,0,.25-1.49.87.87,0,0,0-1.34,0,142.25,142.25,0,0,1-10.71,9.71c3.85-8.38,4.66-18,2.39-24.85l-.35-1.09c3-6.2,4.16-9.3,6.57-15.5a1.26,1.26,0,0,0-.53-1.44h0a.82.82,0,0,0-1.24.38c-2.12,5.47-3.17,8.21-5.64,13.69a176.08,176.08,0,0,1-5.3-22.89c5.55-8.2,15.12-20.27,15.8-21a1.19,1.19,0,0,0,.21-1.46.86.86,0,0,0-1.32-.16c-.46.39-10.27,12.46-15.11,19.46-2-14.63,2-29.42,12.84-39.78.51-.5.71-1.16.43-1.47h0c-.28-.29-.93-.14-1.45.36a44.06,44.06,0,0,0-14,27.77,79,79,0,0,1-3.87-8.64.82.82,0,0,0-1.24-.4,1.22,1.22,0,0,0-.52,1.44,86.92,86.92,0,0,0,5.4,11.27c1.1,13.43,3,25.59,7,38.46h0c.17.56.34,1.1.5,1.61a28.64,28.64,0,0,1,1,11.43c-6.44-7-18.93-24.66-19.07-24.85a.94.94,0,0,0-1.36-.26,1.09,1.09,0,0,0-.06,1.46c.62.83,13.69,20.09,20.12,26.4a45.82,45.82,0,0,1-6.85,16.57,50.86,50.86,0,0,0-4-7c-.26-.39-.86-.34-1.37.11a1.32,1.32,0,0,0-.48,1.49,45.25,45.25,0,0,1,4.13,7.93,65.13,65.13,0,0,1-7.55,8.56c-.48.47-.7.93-.56,1.16l.16.12a2.4,2.4,0,0,0,1.82-.81Z"/><path class="cls-4" d="M325.07,677.07v11.82c0,4.09,21.87,7.41,48.84,7.41s48.83-3.32,48.83-7.41V677.07Z"/><g class="cls-33"><path class="cls-34" d="M374.8,698H303.34a2,2,0,0,1-1.33-.57,6,6,0,0,1-1.54-4c0-.07,0-.15,0-.22V679.63c.08-2.65,1.35-4.78,2.88-4.78H366c1,6.63,3.21,15.72,8.34,22.56.14.2.29.39.44.57Z"/></g><path class="cls-4" d="M412.73,676.07c0,1.9-17.38,3.45-38.82,3.45s-38.83-1.55-38.83-3.45,17.39-3.44,38.83-3.44,38.82,1.54,38.82,3.44Z"/><path class="cls-35" d="M336.76,677.07c4.83-1.41,19.63-2.44,37.15-2.44s32.31,1,37.15,2.44c1.08-.31,1.67-.65,1.67-1,0-1.9-17.38-3.44-38.82-3.44s-38.83,1.54-38.83,3.44c0,.35.59.69,1.68,1Z"/><g class="cls-36"><polygon class="cls-34" points="419.36 672.17 419.36 699.25 421.67 699.25 421.67 672.17 419.36 672.17 419.36 672.17"/><polygon class="cls-34" points="413.36 699.25 415.68 699.25 415.68 672.17 413.36 672.17 413.36 699.25 413.36 699.25"/><polygon class="cls-34" points="406.52 699.25 408.83 699.25 408.83 672.17 406.52 672.17 406.52 699.25 406.52 699.25"/><polygon class="cls-34" points="397.98 699.25 400.3 699.25 400.3 672.17 397.98 672.17 397.98 699.25 397.98 699.25"/><polygon class="cls-34" points="388.59 699.25 390.91 699.25 390.91 672.17 388.59 672.17 388.59 699.25 388.59 699.25"/><polygon class="cls-34" points="378.36 699.25 380.67 699.25 380.67 672.17 378.36 672.17 378.36 699.25 378.36 699.25"/></g><path class="cls-31" d="M422.74,676.85c0,4.1-21.86,7.42-48.83,7.42s-48.84-3.32-48.84-7.42,21.87-7.41,48.84-7.41,48.83,3.32,48.83,7.41Z"/><path class="cls-4" d="M415,676.36c0,1.9-17.38,3.44-38.82,3.44s-38.82-1.54-38.82-3.44,17.38-3.45,38.82-3.45S415,674.46,415,676.36Z"/><path class="cls-34" d="M339,677.36c4.84-1.41,19.64-2.44,37.15-2.44s32.31,1,37.15,2.44c1.08-.32,1.67-.66,1.67-1,0-1.9-17.38-3.45-38.82-3.45s-38.82,1.55-38.82,3.45c0,.34.59.68,1.67,1Z"/><path class="cls-4" d="M332,663.28v11.81c0,4.1,21.87,7.42,48.84,7.42s48.83-3.32,48.83-7.42V663.28Z"/><g class="cls-37"><path class="cls-34" d="M381.71,684.19H310.25a2,2,0,0,1-1.33-.57,6,6,0,0,1-1.54-4,1.62,1.62,0,0,0,0-.22V665.83c.08-2.64,1.35-4.77,2.88-4.77h62.68c1,6.63,3.21,15.72,8.34,22.56.14.2.29.38.44.57Z"/></g><path class="cls-4" d="M419.64,662.28c0,1.9-17.38,3.44-38.82,3.44S342,664.18,342,662.28s17.38-3.44,38.82-3.44,38.82,1.54,38.82,3.44Z"/><path class="cls-35" d="M343.67,663.28c4.84-1.41,19.64-2.44,37.15-2.44s32.31,1,37.15,2.44c1.08-.32,1.67-.65,1.67-1,0-1.9-17.38-3.44-38.82-3.44S342,660.38,342,662.28c0,.35.59.68,1.67,1Z"/><g class="cls-38"><polygon class="cls-34" points="426.27 658.38 426.27 685.45 428.58 685.45 428.58 658.38 426.27 658.38 426.27 658.38"/><polygon class="cls-34" points="420.28 685.45 422.59 685.45 422.59 658.38 420.28 658.38 420.28 685.45 420.28 685.45"/><polygon class="cls-34" points="413.43 685.45 415.75 685.45 415.75 658.38 413.43 658.38 413.43 685.45 413.43 685.45"/><polygon class="cls-34" points="404.89 685.45 407.21 685.45 407.21 658.38 404.89 658.38 404.89 685.45 404.89 685.45"/><polygon class="cls-34" points="395.51 685.45 397.82 685.45 397.82 658.38 395.51 658.38 395.51 685.45 395.51 685.45"/><polygon class="cls-34" points="385.27 685.45 387.58 685.45 387.58 658.38 385.27 658.38 385.27 685.45 385.27 685.45"/></g><path class="cls-31" d="M429.65,663.06c0,4.1-21.86,7.41-48.83,7.41S332,667.16,332,663.06s21.87-7.41,48.84-7.41,48.83,3.31,48.83,7.41Z"/><path class="cls-4" d="M421.89,662.56c0,1.9-17.38,3.44-38.82,3.44s-38.82-1.54-38.82-3.44,17.38-3.44,38.82-3.44,38.82,1.54,38.82,3.44Z"/><path class="cls-34" d="M345.92,663.56c4.84-1.41,19.64-2.44,37.15-2.44s32.32,1,37.15,2.44c1.09-.31,1.67-.65,1.67-1,0-1.9-17.38-3.44-38.82-3.44s-38.82,1.54-38.82,3.44c0,.35.59.69,1.67,1Z"/><path class="cls-4" d="M326.25,648.84v11.81c0,4.1,21.86,7.42,48.83,7.42s48.84-3.32,48.84-7.42V648.84Z"/><g class="cls-39"><path class="cls-34" d="M376,669.75H304.52a2,2,0,0,1-1.33-.57,5.89,5.89,0,0,1-1.54-4,1.77,1.77,0,0,1,0-.23c0-.08,0-.17,0-.25V651.66c0-.09,0-.18,0-.27.08-2.64,1.34-4.77,2.88-4.77H367.2c1,6.62,3.2,15.72,8.33,22.56l.44.57Z"/></g><path class="cls-4" d="M413.91,647.84c0,1.9-17.39,3.44-38.83,3.44s-38.82-1.54-38.82-3.44,17.38-3.44,38.82-3.44,38.83,1.54,38.83,3.44Z"/><path class="cls-35" d="M337.93,648.84c4.84-1.41,19.64-2.44,37.15-2.44s32.32,1,37.15,2.44c1.09-.32,1.68-.65,1.68-1,0-1.9-17.39-3.44-38.83-3.44s-38.82,1.54-38.82,3.44c0,.35.59.68,1.67,1Z"/><g class="cls-40"><polygon class="cls-34" points="420.54 643.93 420.54 671.01 422.85 671.01 422.85 643.93 420.54 643.93 420.54 643.93"/><polygon class="cls-34" points="414.54 671.01 416.85 671.01 416.85 643.93 414.54 643.93 414.54 671.01 414.54 671.01"/><polygon class="cls-34" points="407.7 671.01 410.01 671.01 410.01 643.93 407.7 643.93 407.7 671.01 407.7 671.01"/><polygon class="cls-34" points="399.16 671.01 401.47 671.01 401.47 643.93 399.16 643.93 399.16 671.01 399.16 671.01"/><polygon class="cls-34" points="389.77 671.01 392.08 671.01 392.08 643.93 389.77 643.93 389.77 671.01 389.77 671.01"/><polygon class="cls-34" points="379.54 671.01 381.85 671.01 381.85 643.93 379.54 643.93 379.54 671.01 379.54 671.01"/></g><path class="cls-31" d="M423.92,648.62c0,4.09-21.87,7.41-48.84,7.41s-48.83-3.32-48.83-7.41,21.86-7.42,48.83-7.42,48.84,3.32,48.84,7.42Z"/><path class="cls-4" d="M416.16,648.12c0,1.9-17.38,3.44-38.82,3.44s-38.82-1.54-38.82-3.44,17.38-3.44,38.82-3.44,38.82,1.54,38.82,3.44Z"/><path class="cls-34" d="M340.19,649.12c4.83-1.41,19.63-2.44,37.15-2.44s32.31,1,37.15,2.44c1.08-.31,1.67-.65,1.67-1,0-1.9-17.38-3.44-38.82-3.44s-38.82,1.54-38.82,3.44c0,.35.58.69,1.67,1Z"/><path class="cls-4" d="M330.65,635.28v11.81c0,4.1,21.87,7.42,48.84,7.42s48.83-3.32,48.83-7.42V635.28Z"/><g class="cls-41"><path class="cls-34" d="M380.38,656.19H308.92a2,2,0,0,1-1.33-.57,6,6,0,0,1-1.54-4c0-.08,0-.15,0-.23V637.83c.08-2.64,1.35-4.77,2.88-4.77H371.6c1,6.62,3.21,15.72,8.34,22.56l.44.57Z"/></g><path class="cls-4" d="M418.31,634.28c0,1.9-17.38,3.44-38.82,3.44s-38.83-1.54-38.83-3.44,17.39-3.44,38.83-3.44,38.82,1.54,38.82,3.44Z"/><path class="cls-35" d="M342.34,635.28c4.83-1.41,19.63-2.44,37.15-2.44s32.31,1,37.15,2.44c1.08-.32,1.67-.65,1.67-1,0-1.9-17.38-3.44-38.82-3.44s-38.83,1.54-38.83,3.44c0,.35.59.68,1.68,1Z"/><g class="cls-42"><polygon class="cls-34" points="424.94 630.38 424.94 657.45 427.25 657.45 427.25 630.38 424.94 630.38 424.94 630.38"/><polygon class="cls-34" points="418.94 657.45 421.26 657.45 421.26 630.38 418.94 630.38 418.94 657.45 418.94 657.45"/><polygon class="cls-34" points="412.1 657.45 414.41 657.45 414.41 630.38 412.1 630.38 412.1 657.45 412.1 657.45"/><polygon class="cls-34" points="403.56 657.45 405.88 657.45 405.88 630.38 403.56 630.38 403.56 657.45 403.56 657.45"/><polygon class="cls-34" points="394.17 657.45 396.49 657.45 396.49 630.38 394.17 630.38 394.17 657.45 394.17 657.45"/><polygon class="cls-34" points="383.94 657.45 386.25 657.45 386.25 630.38 383.94 630.38 383.94 657.45 383.94 657.45"/></g><path class="cls-31" d="M428.32,635.06c0,4.1-21.86,7.41-48.83,7.41s-48.84-3.31-48.84-7.41,21.87-7.41,48.84-7.41,48.83,3.31,48.83,7.41Z"/><path class="cls-4" d="M420.56,634.56c0,1.9-17.38,3.44-38.82,3.44s-38.82-1.54-38.82-3.44,17.38-3.44,38.82-3.44,38.82,1.54,38.82,3.44Z"/><path class="cls-34" d="M344.59,635.56c4.84-1.41,19.64-2.44,37.15-2.44s32.31,1,37.15,2.44c1.08-.31,1.67-.65,1.67-1,0-1.9-17.38-3.44-38.82-3.44s-38.82,1.54-38.82,3.44c0,.35.59.69,1.67,1Z"/><path class="cls-4" d="M337.56,621.49V633.3c0,4.09,21.87,7.41,48.84,7.41s48.83-3.32,48.83-7.41V621.49Z"/><g class="cls-43"><path class="cls-34" d="M387.29,642.4H315.83a2,2,0,0,1-1.33-.57,6,6,0,0,1-1.54-4c0-.08,0-.15,0-.23V624c.08-2.65,1.35-4.77,2.88-4.77h62.68c1,6.62,3.21,15.71,8.34,22.56l.44.57Z"/></g><path class="cls-4" d="M425.22,620.49c0,1.9-17.38,3.44-38.82,3.44s-38.82-1.54-38.82-3.44,17.38-3.44,38.82-3.44,38.82,1.53,38.82,3.44Z"/><path class="cls-35" d="M349.25,621.49c4.83-1.42,19.63-2.44,37.15-2.44s32.31,1,37.15,2.44c1.08-.32,1.67-.65,1.67-1,0-1.9-17.38-3.44-38.82-3.44s-38.82,1.54-38.82,3.44c0,.35.59.68,1.67,1Z"/><g class="cls-44"><polygon class="cls-34" points="431.85 616.58 431.85 643.66 434.16 643.66 434.16 616.58 431.85 616.58 431.85 616.58"/><polygon class="cls-34" points="425.86 643.66 428.17 643.66 428.17 616.58 425.86 616.58 425.86 643.66 425.86 643.66"/><polygon class="cls-34" points="419.01 643.66 421.32 643.66 421.32 616.58 419.01 616.58 419.01 643.66 419.01 643.66"/><polygon class="cls-34" points="410.47 643.66 412.79 643.66 412.79 616.58 410.47 616.58 410.47 643.66 410.47 643.66"/><polygon class="cls-34" points="401.09 643.66 403.4 643.66 403.4 616.58 401.09 616.58 401.09 643.66 401.09 643.66"/><polygon class="cls-34" points="390.85 643.66 393.16 643.66 393.16 616.58 390.85 616.58 390.85 643.66 390.85 643.66"/></g><path class="cls-31" d="M435.23,621.27c0,4.09-21.86,7.41-48.83,7.41s-48.84-3.32-48.84-7.41,21.87-7.42,48.84-7.42,48.83,3.32,48.83,7.42Z"/><path class="cls-4" d="M427.47,620.77c0,1.9-17.38,3.44-38.82,3.44s-38.82-1.54-38.82-3.44,17.38-3.44,38.82-3.44,38.82,1.54,38.82,3.44Z"/><path class="cls-34" d="M351.5,621.77c4.84-1.41,19.64-2.44,37.15-2.44s32.32,1,37.15,2.44c1.09-.32,1.67-.65,1.67-1,0-1.9-17.38-3.44-38.82-3.44s-38.82,1.54-38.82,3.44c0,.35.59.68,1.67,1Z"/><path class="cls-4" d="M331.83,607.05v11.81c0,4.09,21.86,7.41,48.83,7.41s48.84-3.32,48.84-7.41V607.05Z"/><g class="cls-45"><path class="cls-34" d="M381.55,628H310.1a2,2,0,0,1-1.33-.56,5.91,5.91,0,0,1-1.54-4,1.77,1.77,0,0,1,0-.23c0-.08,0-.17,0-.25V609.86c0-.08,0-.17,0-.26.08-2.65,1.34-4.77,2.88-4.77h62.68c1,6.62,3.2,15.71,8.33,22.56.15.19.29.38.44.56Z"/></g><path class="cls-4" d="M419.48,606c0,1.91-17.38,3.45-38.82,3.45S341.84,608,341.84,606s17.38-3.44,38.82-3.44,38.82,1.54,38.82,3.44Z"/><path class="cls-35" d="M343.51,607.05c4.84-1.42,19.64-2.44,37.15-2.44s32.32,1,37.15,2.44c1.09-.32,1.67-.66,1.67-1,0-1.89-17.38-3.44-38.82-3.44s-38.82,1.55-38.82,3.44c0,.35.59.69,1.67,1Z"/><g class="cls-46"><polygon class="cls-34" points="426.12 602.14 426.12 629.22 428.43 629.22 428.43 602.14 426.12 602.14 426.12 602.14"/><polygon class="cls-34" points="420.12 629.22 422.43 629.22 422.43 602.14 420.12 602.14 420.12 629.22 420.12 629.22"/><polygon class="cls-34" points="413.28 629.22 415.59 629.22 415.59 602.14 413.28 602.14 413.28 629.22 413.28 629.22"/><polygon class="cls-34" points="404.74 629.22 407.05 629.22 407.05 602.14 404.74 602.14 404.74 629.22 404.74 629.22"/><polygon class="cls-34" points="395.35 629.22 397.66 629.22 397.66 602.14 395.35 602.14 395.35 629.22 395.35 629.22"/><polygon class="cls-34" points="385.12 629.22 387.43 629.22 387.43 602.14 385.12 602.14 385.12 629.22 385.12 629.22"/></g><path class="cls-31" d="M429.5,606.82c0,4.1-21.87,7.42-48.84,7.42s-48.83-3.32-48.83-7.42,21.86-7.41,48.83-7.41,48.84,3.32,48.84,7.41Z"/><path class="cls-4" d="M421.74,606.33c0,1.9-17.38,3.44-38.82,3.44s-38.82-1.54-38.82-3.44,17.38-3.44,38.82-3.44,38.82,1.54,38.82,3.44Z"/><path class="cls-34" d="M345.77,607.33c4.83-1.41,19.63-2.44,37.15-2.44s32.31,1,37.15,2.44c1.08-.32,1.67-.65,1.67-1,0-1.9-17.38-3.44-38.82-3.44s-38.82,1.54-38.82,3.44c0,.35.58.68,1.67,1Z"/><path class="cls-4" d="M434.19,675v11.81c0,4.1,21.86,7.42,48.83,7.42s48.84-3.32,48.84-7.42V675Z"/><g class="cls-47"><path class="cls-34" d="M483.91,695.89H412.45a1.94,1.94,0,0,1-1.32-.57,5.89,5.89,0,0,1-1.54-4,1.62,1.62,0,0,1,0-.22c0-.09,0-.18,0-.26V677.8c0-.08,0-.17,0-.26.08-2.65,1.34-4.78,2.87-4.78h62.69c1,6.63,3.2,15.72,8.33,22.56l.44.57Z"/></g><path class="cls-4" d="M521.84,674c0,1.9-17.38,3.44-38.82,3.44S444.2,675.88,444.2,674s17.38-3.44,38.82-3.44,38.82,1.54,38.82,3.44Z"/><path class="cls-35" d="M445.87,675c4.84-1.41,19.64-2.44,37.15-2.44s32.32,1,37.15,2.44c1.09-.31,1.67-.65,1.67-1,0-1.9-17.38-3.44-38.82-3.44S444.2,672.08,444.2,674c0,.35.59.69,1.67,1Z"/><g class="cls-48"><polygon class="cls-34" points="528.48 670.08 528.48 697.15 530.79 697.15 530.79 670.08 528.48 670.08 528.48 670.08"/><polygon class="cls-34" points="522.48 697.15 524.79 697.15 524.79 670.08 522.48 670.08 522.48 697.15 522.48 697.15"/><polygon class="cls-34" points="515.64 697.15 517.95 697.15 517.95 670.08 515.64 670.08 515.64 697.15 515.64 697.15"/><polygon class="cls-34" points="507.1 697.15 509.41 697.15 509.41 670.08 507.1 670.08 507.1 697.15 507.1 697.15"/><polygon class="cls-34" points="497.71 697.15 500.02 697.15 500.02 670.08 497.71 670.08 497.71 697.15 497.71 697.15"/><polygon class="cls-34" points="487.47 697.15 489.79 697.15 489.79 670.08 487.47 670.08 487.47 697.15 487.47 697.15"/></g><path class="cls-31" d="M531.86,674.76c0,4.1-21.87,7.42-48.84,7.42s-48.83-3.32-48.83-7.42,21.86-7.41,48.83-7.41,48.84,3.32,48.84,7.41Z"/><path class="cls-4" d="M524.1,674.26c0,1.9-17.38,3.45-38.82,3.45s-38.83-1.55-38.83-3.45,17.39-3.44,38.83-3.44,38.82,1.54,38.82,3.44Z"/><path class="cls-34" d="M448.13,675.27c4.83-1.42,19.63-2.44,37.15-2.44s32.31,1,37.14,2.44c1.09-.32,1.68-.66,1.68-1,0-1.9-17.38-3.44-38.82-3.44s-38.83,1.54-38.83,3.44c0,.35.59.69,1.68,1Z"/><path class="cls-4" d="M441.1,661.19V673c0,4.1,21.86,7.41,48.83,7.41s48.84-3.31,48.84-7.41V661.19Z"/><g class="cls-49"><path class="cls-34" d="M490.82,682.1H419.37a2,2,0,0,1-1.33-.57,5.94,5.94,0,0,1-1.54-4,1.77,1.77,0,0,1,0-.23V663.74c.08-2.64,1.34-4.77,2.88-4.77h62.68c1,6.62,3.2,15.72,8.33,22.56l.44.57Z"/></g><path class="cls-4" d="M528.76,660.19c0,1.9-17.39,3.44-38.83,3.44s-38.82-1.54-38.82-3.44,17.38-3.44,38.82-3.44,38.83,1.54,38.83,3.44Z"/><path class="cls-35" d="M452.79,661.19c4.83-1.41,19.63-2.44,37.14-2.44s32.32,1,37.15,2.44c1.09-.32,1.68-.65,1.68-1,0-1.9-17.39-3.44-38.83-3.44s-38.82,1.54-38.82,3.44c0,.35.59.68,1.68,1Z"/><g class="cls-50"><polygon class="cls-34" points="535.39 656.28 535.39 683.36 537.7 683.36 537.7 656.28 535.39 656.28 535.39 656.28"/><polygon class="cls-34" points="529.39 683.36 531.7 683.36 531.7 656.28 529.39 656.28 529.39 683.36 529.39 683.36"/><polygon class="cls-34" points="522.55 683.36 524.86 683.36 524.86 656.28 522.55 656.28 522.55 683.36 522.55 683.36"/><polygon class="cls-34" points="514.01 683.36 516.32 683.36 516.32 656.28 514.01 656.28 514.01 683.36 514.01 683.36"/><polygon class="cls-34" points="504.62 683.36 506.93 683.36 506.93 656.28 504.62 656.28 504.62 683.36 504.62 683.36"/><polygon class="cls-34" points="494.39 683.36 496.7 683.36 496.7 656.28 494.39 656.28 494.39 683.36 494.39 683.36"/></g><path class="cls-31" d="M538.77,661c0,4.09-21.87,7.41-48.84,7.41S441.1,665.06,441.1,661s21.86-7.42,48.83-7.42,48.84,3.32,48.84,7.42Z"/><path class="cls-4" d="M531,660.47c0,1.9-17.38,3.44-38.82,3.44s-38.82-1.54-38.82-3.44S470.75,657,492.19,657,531,658.57,531,660.47Z"/><path class="cls-34" d="M455,661.47c4.83-1.41,19.63-2.44,37.15-2.44s32.31,1,37.15,2.44c1.08-.31,1.67-.65,1.67-1,0-1.9-17.38-3.44-38.82-3.44s-38.82,1.54-38.82,3.44c0,.35.58.69,1.67,1Z"/><path class="cls-4" d="M435.36,646.75v11.81c0,4.1,21.87,7.41,48.84,7.41S533,662.66,533,658.56V646.75Z"/><g class="cls-51"><path class="cls-34" d="M485.09,667.66H413.63a2,2,0,0,1-1.33-.57,6,6,0,0,1-1.54-4,1.77,1.77,0,0,0,0-.23V649.3c.08-2.64,1.35-4.77,2.88-4.77h62.68c1,6.62,3.21,15.71,8.34,22.56l.44.57Z"/></g><path class="cls-4" d="M523,645.75c0,1.9-17.38,3.44-38.82,3.44s-38.82-1.54-38.82-3.44,17.38-3.44,38.82-3.44S523,643.85,523,645.75Z"/><path class="cls-35" d="M447.05,646.75c4.84-1.41,19.64-2.44,37.15-2.44s32.31,1,37.15,2.44c1.08-.32,1.67-.65,1.67-1,0-1.9-17.38-3.44-38.82-3.44s-38.82,1.54-38.82,3.44c0,.35.59.68,1.67,1Z"/><g class="cls-52"><polygon class="cls-34" points="529.65 641.84 529.65 668.92 531.96 668.92 531.96 641.84 529.65 641.84 529.65 641.84"/><polygon class="cls-34" points="523.66 668.92 525.97 668.92 525.97 641.84 523.66 641.84 523.66 668.92 523.66 668.92"/><polygon class="cls-34" points="516.81 668.92 519.13 668.92 519.13 641.84 516.81 641.84 516.81 668.92 516.81 668.92"/><polygon class="cls-34" points="508.27 668.92 510.59 668.92 510.59 641.84 508.27 641.84 508.27 668.92 508.27 668.92"/><polygon class="cls-34" points="498.89 668.92 501.2 668.92 501.2 641.84 498.89 641.84 498.89 668.92 498.89 668.92"/><polygon class="cls-34" points="488.65 668.92 490.96 668.92 490.96 641.84 488.65 641.84 488.65 668.92 488.65 668.92"/></g><path class="cls-31" d="M533,646.53c0,4.09-21.86,7.41-48.83,7.41s-48.84-3.32-48.84-7.41,21.87-7.42,48.84-7.42S533,642.43,533,646.53Z"/><path class="cls-4" d="M525.27,646c0,1.9-17.38,3.44-38.82,3.44s-38.82-1.54-38.82-3.44,17.38-3.44,38.82-3.44,38.82,1.54,38.82,3.44Z"/><path class="cls-34" d="M449.3,647c4.84-1.41,19.64-2.44,37.15-2.44s32.32,1,37.15,2.44c1.09-.32,1.67-.65,1.67-1,0-1.9-17.38-3.44-38.82-3.44s-38.82,1.54-38.82,3.44c0,.35.59.68,1.67,1Z"/><path class="cls-4" d="M430.16,631.87v11.82c0,4.09,21.87,7.41,48.84,7.41s48.83-3.32,48.83-7.41V631.87Z"/><g class="cls-53"><path class="cls-34" d="M479.89,652.78H408.43a2,2,0,0,1-1.33-.57,6,6,0,0,1-1.54-4c0-.07,0-.15,0-.22V634.43c.08-2.65,1.35-4.78,2.88-4.78h62.68c1,6.63,3.21,15.72,8.34,22.56.14.2.29.39.44.57Z"/></g><path class="cls-4" d="M517.82,630.87c0,1.9-17.38,3.45-38.82,3.45s-38.83-1.55-38.83-3.45,17.39-3.44,38.83-3.44,38.82,1.54,38.82,3.44Z"/><path class="cls-35" d="M441.85,631.87c4.83-1.41,19.63-2.44,37.15-2.44s32.31,1,37.14,2.44c1.09-.31,1.68-.65,1.68-1,0-1.9-17.38-3.44-38.82-3.44s-38.83,1.54-38.83,3.44c0,.35.59.69,1.68,1Z"/><g class="cls-54"><polygon class="cls-34" points="524.45 626.97 524.45 654.04 526.76 654.04 526.76 626.97 524.45 626.97 524.45 626.97"/><polygon class="cls-34" points="518.45 654.04 520.77 654.04 520.77 626.97 518.45 626.97 518.45 654.04 518.45 654.04"/><polygon class="cls-34" points="511.61 654.04 513.92 654.04 513.92 626.97 511.61 626.97 511.61 654.04 511.61 654.04"/><polygon class="cls-34" points="503.07 654.04 505.38 654.04 505.38 626.97 503.07 626.97 503.07 654.04 503.07 654.04"/><polygon class="cls-34" points="493.68 654.04 496 654.04 496 626.97 493.68 626.97 493.68 654.04 493.68 654.04"/><polygon class="cls-34" points="483.45 654.04 485.76 654.04 485.76 626.97 483.45 626.97 483.45 654.04 483.45 654.04"/></g><path class="cls-31" d="M527.83,631.65c0,4.1-21.86,7.42-48.83,7.42s-48.84-3.32-48.84-7.42S452,624.24,479,624.24s48.83,3.32,48.83,7.41Z"/><path class="cls-4" d="M520.07,631.16c0,1.9-17.38,3.44-38.82,3.44s-38.82-1.54-38.82-3.44,17.38-3.45,38.82-3.45,38.82,1.55,38.82,3.45Z"/><path class="cls-34" d="M444.1,632.16c4.84-1.41,19.64-2.44,37.15-2.44s32.31,1,37.15,2.44c1.08-.32,1.67-.66,1.67-1,0-1.9-17.38-3.45-38.82-3.45s-38.82,1.55-38.82,3.45c0,.34.59.68,1.67,1Z"/><path class="cls-4" d="M437.07,618.08v11.81c0,4.1,21.87,7.42,48.84,7.42s48.83-3.32,48.83-7.42V618.08Z"/><g class="cls-55"><path class="cls-34" d="M486.8,639H415.34a2,2,0,0,1-1.33-.57,6,6,0,0,1-1.54-4c0-.07,0-.15,0-.22V620.63c.08-2.64,1.35-4.77,2.88-4.77H478c1,6.63,3.21,15.72,8.34,22.56l.44.57Z"/></g><path class="cls-4" d="M524.73,617.08c0,1.9-17.38,3.44-38.82,3.44s-38.82-1.54-38.82-3.44,17.38-3.44,38.82-3.44,38.82,1.54,38.82,3.44Z"/><path class="cls-35" d="M448.76,618.08c4.83-1.41,19.63-2.44,37.15-2.44s32.31,1,37.15,2.44c1.08-.32,1.67-.65,1.67-1,0-1.9-17.38-3.44-38.82-3.44s-38.82,1.54-38.82,3.44c0,.35.59.68,1.67,1Z"/><g class="cls-56"><polygon class="cls-34" points="531.36 613.18 531.36 640.25 533.67 640.25 533.67 613.18 531.36 613.18 531.36 613.18"/><polygon class="cls-34" points="525.37 640.25 527.68 640.25 527.68 613.18 525.37 613.18 525.37 640.25 525.37 640.25"/><polygon class="cls-34" points="518.52 640.25 520.84 640.25 520.84 613.18 518.52 613.18 518.52 640.25 518.52 640.25"/><polygon class="cls-34" points="509.98 640.25 512.3 640.25 512.3 613.18 509.98 613.18 509.98 640.25 509.98 640.25"/><polygon class="cls-34" points="500.6 640.25 502.91 640.25 502.91 613.18 500.6 613.18 500.6 640.25 500.6 640.25"/><polygon class="cls-34" points="490.36 640.25 492.67 640.25 492.67 613.18 490.36 613.18 490.36 640.25 490.36 640.25"/></g><path class="cls-31" d="M534.74,617.86c0,4.1-21.86,7.41-48.83,7.41s-48.84-3.31-48.84-7.41,21.87-7.41,48.84-7.41,48.83,3.31,48.83,7.41Z"/><path class="cls-4" d="M527,617.36c0,1.9-17.38,3.44-38.82,3.44s-38.82-1.54-38.82-3.44,17.38-3.44,38.82-3.44S527,615.46,527,617.36Z"/><path class="cls-34" d="M451,618.36c4.84-1.41,19.64-2.44,37.15-2.44s32.32,1,37.15,2.44c1.09-.31,1.67-.65,1.67-1,0-1.9-17.38-3.44-38.82-3.44s-38.82,1.54-38.82,3.44c0,.35.59.69,1.67,1Z"/><path class="cls-4" d="M431.34,603.64v11.81c0,4.1,21.86,7.42,48.83,7.42S529,619.55,529,615.45V603.64Z"/><g class="cls-57"><path class="cls-34" d="M481.06,624.55H409.61a2,2,0,0,1-1.33-.57,5.89,5.89,0,0,1-1.54-4,1.77,1.77,0,0,1,0-.23c0-.08,0-.17,0-.25V606.46c0-.09,0-.18,0-.27.08-2.64,1.34-4.77,2.88-4.77h62.68c1,6.62,3.2,15.72,8.33,22.56l.44.57Z"/></g><path class="cls-4" d="M519,602.64c0,1.9-17.38,3.44-38.82,3.44s-38.82-1.54-38.82-3.44,17.38-3.44,38.82-3.44S519,600.74,519,602.64Z"/><path class="cls-35" d="M443,603.64c4.84-1.41,19.64-2.44,37.15-2.44s32.32,1,37.15,2.44c1.09-.32,1.67-.65,1.67-1,0-1.9-17.38-3.44-38.82-3.44s-38.82,1.54-38.82,3.44c0,.35.59.68,1.67,1Z"/><g class="cls-58"><polygon class="cls-34" points="525.63 598.74 525.63 625.81 527.94 625.81 527.94 598.74 525.63 598.74 525.63 598.74"/><polygon class="cls-34" points="519.63 625.81 521.94 625.81 521.94 598.74 519.63 598.74 519.63 625.81 519.63 625.81"/><polygon class="cls-34" points="512.79 625.81 515.1 625.81 515.1 598.74 512.79 598.74 512.79 625.81 512.79 625.81"/><polygon class="cls-34" points="504.25 625.81 506.56 625.81 506.56 598.74 504.25 598.74 504.25 625.81 504.25 625.81"/><polygon class="cls-34" points="494.86 625.81 497.17 625.81 497.17 598.74 494.86 598.74 494.86 625.81 494.86 625.81"/><polygon class="cls-34" points="484.63 625.81 486.94 625.81 486.94 598.74 484.63 598.74 484.63 625.81 484.63 625.81"/></g><path class="cls-31" d="M529,603.42c0,4.09-21.87,7.41-48.84,7.41s-48.83-3.32-48.83-7.41S453.2,596,480.17,596,529,599.32,529,603.42Z"/><path class="cls-4" d="M521.25,602.92c0,1.9-17.38,3.44-38.82,3.44s-38.82-1.54-38.82-3.44,17.38-3.44,38.82-3.44,38.82,1.54,38.82,3.44Z"/><path class="cls-34" d="M445.28,603.92c4.83-1.41,19.63-2.44,37.15-2.44s32.31,1,37.15,2.44c1.08-.31,1.67-.65,1.67-1,0-1.9-17.38-3.44-38.82-3.44s-38.82,1.54-38.82,3.44c0,.35.58.69,1.67,1Z"/><path class="cls-4" d="M435.74,590.08v11.81c0,4.1,21.87,7.42,48.84,7.42s48.83-3.32,48.83-7.42V590.08Z"/><g class="cls-59"><path class="cls-34" d="M485.46,611H414a2,2,0,0,1-1.33-.57,6,6,0,0,1-1.54-4c0-.08,0-.15,0-.23V592.63c.08-2.64,1.34-4.77,2.88-4.77h62.68c1,6.62,3.21,15.72,8.34,22.56l.43.57Z"/></g><path class="cls-4" d="M523.4,589.08c0,1.9-17.38,3.44-38.82,3.44s-38.83-1.54-38.83-3.44,17.39-3.44,38.83-3.44,38.82,1.54,38.82,3.44Z"/><path class="cls-35" d="M447.43,590.08c4.83-1.41,19.63-2.44,37.15-2.44s32.31,1,37.14,2.44c1.09-.32,1.68-.65,1.68-1,0-1.9-17.38-3.44-38.82-3.44s-38.83,1.54-38.83,3.44c0,.35.59.68,1.68,1Z"/><g class="cls-60"><polygon class="cls-34" points="530.03 585.17 530.03 612.25 532.34 612.25 532.34 585.17 530.03 585.17 530.03 585.17"/><polygon class="cls-34" points="524.03 612.25 526.35 612.25 526.35 585.17 524.03 585.17 524.03 612.25 524.03 612.25"/><polygon class="cls-34" points="517.19 612.25 519.5 612.25 519.5 585.17 517.19 585.17 517.19 612.25 517.19 612.25"/><polygon class="cls-34" points="508.65 612.25 510.96 612.25 510.96 585.17 508.65 585.17 508.65 612.25 508.65 612.25"/><polygon class="cls-34" points="499.26 612.25 501.57 612.25 501.57 585.17 499.26 585.17 499.26 612.25 499.26 612.25"/><polygon class="cls-34" points="489.03 612.25 491.34 612.25 491.34 585.17 489.03 585.17 489.03 612.25 489.03 612.25"/></g><path class="cls-31" d="M533.41,589.86c0,4.09-21.86,7.41-48.83,7.41s-48.84-3.32-48.84-7.41,21.87-7.41,48.84-7.41,48.83,3.31,48.83,7.41Z"/><path class="cls-4" d="M525.65,589.36c0,1.9-17.38,3.44-38.82,3.44S448,591.26,448,589.36s17.38-3.44,38.82-3.44,38.82,1.54,38.82,3.44Z"/><path class="cls-34" d="M449.68,590.36c4.84-1.41,19.64-2.44,37.15-2.44s32.31,1,37.15,2.44c1.08-.31,1.67-.65,1.67-1,0-1.9-17.38-3.44-38.82-3.44S448,587.46,448,589.36c0,.35.59.69,1.67,1Z"/><path class="cls-4" d="M442.65,576.29V588.1c0,4.09,21.87,7.41,48.84,7.41s48.83-3.32,48.83-7.41V576.29Z"/><g class="cls-61"><path class="cls-34" d="M492.38,597.2H420.92a2,2,0,0,1-1.33-.57,6,6,0,0,1-1.54-4c0-.08,0-.15,0-.23V578.84c.08-2.65,1.35-4.77,2.88-4.77H483.6c1,6.62,3.21,15.71,8.34,22.56l.44.57Z"/></g><path class="cls-4" d="M530.31,575.29c0,1.9-17.38,3.44-38.82,3.44s-38.82-1.54-38.82-3.44,17.38-3.44,38.82-3.44,38.82,1.53,38.82,3.44Z"/><path class="cls-35" d="M454.34,576.29c4.83-1.42,19.63-2.44,37.15-2.44s32.31,1,37.15,2.44c1.08-.32,1.67-.66,1.67-1,0-1.9-17.38-3.44-38.82-3.44s-38.82,1.54-38.82,3.44c0,.34.58.68,1.67,1Z"/><g class="cls-62"><polygon class="cls-34" points="536.94 571.38 536.94 598.46 539.25 598.46 539.25 571.38 536.94 571.38 536.94 571.38"/><polygon class="cls-34" points="530.95 598.46 533.26 598.46 533.26 571.38 530.95 571.38 530.95 598.46 530.95 598.46"/><polygon class="cls-34" points="524.1 598.46 526.41 598.46 526.41 571.38 524.1 571.38 524.1 598.46 524.1 598.46"/><polygon class="cls-34" points="515.56 598.46 517.88 598.46 517.88 571.38 515.56 571.38 515.56 598.46 515.56 598.46"/><polygon class="cls-34" points="506.18 598.46 508.49 598.46 508.49 571.38 506.18 571.38 506.18 598.46 506.18 598.46"/><polygon class="cls-34" points="495.94 598.46 498.25 598.46 498.25 571.38 495.94 571.38 495.94 598.46 495.94 598.46"/></g><path class="cls-31" d="M540.32,576.07c0,4.09-21.86,7.41-48.83,7.41s-48.84-3.32-48.84-7.41,21.87-7.42,48.84-7.42,48.83,3.32,48.83,7.42Z"/><path class="cls-4" d="M532.56,575.57c0,1.9-17.38,3.44-38.82,3.44s-38.82-1.54-38.82-3.44,17.38-3.44,38.82-3.44,38.82,1.54,38.82,3.44Z"/><path class="cls-34" d="M456.59,576.57c4.84-1.41,19.64-2.44,37.15-2.44s32.32,1,37.15,2.44c1.08-.32,1.67-.65,1.67-1,0-1.9-17.38-3.44-38.82-3.44s-38.82,1.54-38.82,3.44c0,.35.59.68,1.67,1Z"/><path class="cls-4" d="M436.92,561.85v11.81c0,4.09,21.86,7.41,48.83,7.41s48.84-3.32,48.84-7.41V561.85Z"/><g class="cls-63"><path class="cls-34" d="M486.64,582.75H415.19a2,2,0,0,1-1.33-.56,5.91,5.91,0,0,1-1.54-4,1.77,1.77,0,0,1,0-.23c0-.08,0-.17,0-.25V564.66c0-.08,0-.17,0-.26.08-2.65,1.34-4.78,2.88-4.78h62.68c1,6.63,3.2,15.72,8.33,22.57.15.19.29.38.44.56Z"/></g><path class="cls-4" d="M524.57,560.84c0,1.91-17.38,3.45-38.82,3.45s-38.82-1.54-38.82-3.45,17.38-3.44,38.82-3.44,38.82,1.54,38.82,3.44Z"/><path class="cls-35" d="M448.6,561.85c4.84-1.42,19.64-2.44,37.15-2.44s32.32,1,37.15,2.44c1.09-.32,1.67-.66,1.67-1,0-1.89-17.38-3.44-38.82-3.44s-38.82,1.55-38.82,3.44c0,.35.59.69,1.67,1Z"/><g class="cls-64"><polygon class="cls-34" points="531.21 556.94 531.21 584.02 533.52 584.02 533.52 556.94 531.21 556.94 531.21 556.94"/><polygon class="cls-34" points="525.21 584.02 527.52 584.02 527.52 556.94 525.21 556.94 525.21 584.02 525.21 584.02"/><polygon class="cls-34" points="518.37 584.02 520.68 584.02 520.68 556.94 518.37 556.94 518.37 584.02 518.37 584.02"/><polygon class="cls-34" points="509.83 584.02 512.14 584.02 512.14 556.94 509.83 556.94 509.83 584.02 509.83 584.02"/><polygon class="cls-34" points="500.44 584.02 502.75 584.02 502.75 556.94 500.44 556.94 500.44 584.02 500.44 584.02"/><polygon class="cls-34" points="490.2 584.02 492.52 584.02 492.52 556.94 490.2 556.94 490.2 584.02 490.2 584.02"/></g><path class="cls-31" d="M534.59,561.62c0,4.1-21.87,7.42-48.84,7.42s-48.83-3.32-48.83-7.42,21.86-7.41,48.83-7.41,48.84,3.32,48.84,7.41Z"/><path class="cls-4" d="M526.83,561.13c0,1.9-17.38,3.44-38.82,3.44s-38.83-1.54-38.83-3.44,17.39-3.44,38.83-3.44,38.82,1.54,38.82,3.44Z"/><path class="cls-34" d="M450.86,562.13c4.83-1.41,19.63-2.44,37.15-2.44s32.31,1,37.15,2.44c1.08-.32,1.67-.65,1.67-1,0-1.9-17.38-3.44-38.82-3.44s-38.83,1.54-38.83,3.44c0,.35.59.68,1.68,1Z"/><path class="cls-4" d="M443.26,548.19V560c0,4.1,21.87,7.42,48.84,7.42s48.83-3.32,48.83-7.42V548.19Z"/><g class="cls-65"><path class="cls-34" d="M493,569.1H421.53a2,2,0,0,1-1.33-.57,6,6,0,0,1-1.54-4,1.62,1.62,0,0,0,0-.22V550.75c.08-2.65,1.35-4.78,2.88-4.78h62.68c1,6.63,3.21,15.72,8.34,22.56.14.2.29.38.44.57Z"/></g><path class="cls-4" d="M530.92,547.19c0,1.9-17.38,3.44-38.82,3.44s-38.82-1.54-38.82-3.44,17.38-3.44,38.82-3.44,38.82,1.54,38.82,3.44Z"/><path class="cls-35" d="M455,548.19c4.84-1.41,19.64-2.44,37.15-2.44s32.31,1,37.15,2.44c1.08-.31,1.67-.65,1.67-1,0-1.9-17.38-3.44-38.82-3.44s-38.82,1.54-38.82,3.44c0,.35.59.69,1.67,1Z"/><g class="cls-66"><polygon class="cls-34" points="537.55 543.29 537.55 570.36 539.86 570.36 539.86 543.29 537.55 543.29 537.55 543.29"/><polygon class="cls-34" points="531.56 570.36 533.87 570.36 533.87 543.29 531.56 543.29 531.56 570.36 531.56 570.36"/><polygon class="cls-34" points="524.71 570.36 527.03 570.36 527.03 543.29 524.71 543.29 524.71 570.36 524.71 570.36"/><polygon class="cls-34" points="516.17 570.36 518.49 570.36 518.49 543.29 516.17 543.29 516.17 570.36 516.17 570.36"/><polygon class="cls-34" points="506.79 570.36 509.1 570.36 509.1 543.29 506.79 543.29 506.79 570.36 506.79 570.36"/><polygon class="cls-34" points="496.55 570.36 498.86 570.36 498.86 543.29 496.55 543.29 496.55 570.36 496.55 570.36"/></g><path class="cls-31" d="M540.93,548c0,4.1-21.86,7.42-48.83,7.42s-48.84-3.32-48.84-7.42,21.87-7.41,48.84-7.41,48.83,3.32,48.83,7.41Z"/><path class="cls-4" d="M533.17,547.47c0,1.9-17.38,3.44-38.82,3.44s-38.82-1.54-38.82-3.44S472.91,544,494.35,544s38.82,1.54,38.82,3.44Z"/><path class="cls-34" d="M457.2,548.48c4.84-1.42,19.64-2.44,37.15-2.44s32.32,1,37.15,2.44c1.09-.32,1.67-.66,1.67-1,0-1.9-17.38-3.44-38.82-3.44s-38.82,1.54-38.82,3.44c0,.35.59.69,1.67,1Z"/><path class="cls-31" d="M261.06,649.84A47.15,47.15,0,1,1,308.21,697a47.15,47.15,0,0,1-47.15-47.16Z"/><path class="cls-32" d="M308.21,610a40.4,40.4,0,1,0,40.4,40.4,40.45,40.45,0,0,0-40.4-40.4Zm0,83.36a43,43,0,1,1,30.38-12.58,42.72,42.72,0,0,1-30.38,12.58Z"/><path class="cls-32" d="M314.12,662.87a7.05,7.05,0,0,0-.1-2.5,5.22,5.22,0,0,0-1-2.07,10.1,10.1,0,0,0-2.11-1.86,26,26,0,0,0-3.27-1.83,67.78,67.78,0,0,1-6-3.32,21.63,21.63,0,0,1-4.51-3.67,12.58,12.58,0,0,1-2.66-4.48,12.76,12.76,0,0,1-.46-5.72,13,13,0,0,1,1.6-5,12,12,0,0,1,3.33-3.7,14.84,14.84,0,0,1,4.77-2.27,19.82,19.82,0,0,1,5.95-.68l.84-7.09,5.7.68-.85,7.18a17.88,17.88,0,0,1,5.36,2.28,13.53,13.53,0,0,1,6,8.62,18.16,18.16,0,0,1,.23,6.08l-10.29-1.22q.46-4-1.06-6.15a6.07,6.07,0,0,0-4.49-2.53,7.54,7.54,0,0,0-2.81.12,5.11,5.11,0,0,0-2,1,4.82,4.82,0,0,0-1.32,1.7,6.83,6.83,0,0,0-.63,2.24,6.48,6.48,0,0,0,.09,2.26,5,5,0,0,0,1,2,10.06,10.06,0,0,0,2.13,1.86,32.54,32.54,0,0,0,3.4,2q3.3,1.71,6,3.4a21.27,21.27,0,0,1,4.49,3.7A12.18,12.18,0,0,1,324.43,664a12.93,12.93,0,0,1-1.64,5.11,11.74,11.74,0,0,1-3.34,3.67,14.71,14.71,0,0,1-4.79,2.18,21.54,21.54,0,0,1-6,.63l-.79,6.58-5.66-.67L303,675a24.12,24.12,0,0,1-5.57-2,15.07,15.07,0,0,1-4.55-3.44,13.56,13.56,0,0,1-2.86-5.12,16.68,16.68,0,0,1-.48-7l10.3,1.22a10.08,10.08,0,0,0,.19,4,6.34,6.34,0,0,0,3.82,4.35,11.46,11.46,0,0,0,2.82.72,9.46,9.46,0,0,0,3-.08,6,6,0,0,0,2.26-.95,4.75,4.75,0,0,0,1.5-1.65,5.73,5.73,0,0,0,.69-2.21Z"/><path class="cls-31" d="M445.38,501.9a47.15,47.15,0,1,1,47.15,47.16,47.15,47.15,0,0,1-47.15-47.16Z"/><path class="cls-32" d="M492.53,462.06a40.4,40.4,0,1,0,40.4,40.4,40.45,40.45,0,0,0-40.4-40.4Zm0,83.36a43,43,0,1,1,30.38-12.58,42.72,42.72,0,0,1-30.38,12.58Z"/><path class="cls-32" d="M498.45,514.93a7,7,0,0,0-.11-2.5,5.22,5.22,0,0,0-1-2.07,10.1,10.1,0,0,0-2.11-1.86,24.84,24.84,0,0,0-3.27-1.83,66.16,66.16,0,0,1-6-3.32,21.44,21.44,0,0,1-4.52-3.67,12.58,12.58,0,0,1-2.66-4.48,14.21,14.21,0,0,1,1.14-10.73,11.92,11.92,0,0,1,3.33-3.7,14.84,14.84,0,0,1,4.77-2.27,20.13,20.13,0,0,1,5.95-.69l.84-7.08,5.7.68-.85,7.18a17.88,17.88,0,0,1,5.36,2.28,13.76,13.76,0,0,1,3.87,3.68,13.94,13.94,0,0,1,2.14,4.94,18.15,18.15,0,0,1,.23,6.08l-10.29-1.22q.47-4-1.06-6.15a6.07,6.07,0,0,0-4.49-2.53,7.55,7.55,0,0,0-2.81.12,5.11,5.11,0,0,0-2,1,4.82,4.82,0,0,0-1.32,1.7,7.35,7.35,0,0,0-.63,2.24,6.48,6.48,0,0,0,.09,2.26,5,5,0,0,0,1,2,10.06,10.06,0,0,0,2.13,1.86,33.61,33.61,0,0,0,3.4,2c2.2,1.13,4.19,2.27,6,3.4a21.27,21.27,0,0,1,4.49,3.7,12.82,12.82,0,0,1,2.67,4.49,14.25,14.25,0,0,1-1.18,10.8,11.85,11.85,0,0,1-3.34,3.67A14.71,14.71,0,0,1,499,527a21.92,21.92,0,0,1-6,.63l-.78,6.58-5.67-.67.78-6.55a23.88,23.88,0,0,1-5.56-2,15,15,0,0,1-4.56-3.44,13.56,13.56,0,0,1-2.86-5.12,16.68,16.68,0,0,1-.48-7l10.3,1.22a10.27,10.27,0,0,0,.19,4,6.54,6.54,0,0,0,1.47,2.72,6.42,6.42,0,0,0,2.35,1.63,11.46,11.46,0,0,0,2.82.72,9.45,9.45,0,0,0,3-.08,6,6,0,0,0,2.26-1,4.75,4.75,0,0,0,1.5-1.65,6,6,0,0,0,.7-2.21Z"/></svg>