<svg id="Layer_1" data-name="Layer 1" xmlns="http://www.w3.org/2000/svg" xmlns:xlink="http://www.w3.org/1999/xlink" viewBox="0 0 1364.6 841.89"><defs><style>.cls-1{fill:#f99f1b;}.cls-2{fill:none;}.cls-3{fill:#17697a;}.cls-4{fill:#14697a;}.cls-5,.cls-6{fill:#479fb5;}.cls-5{opacity:0.15;}.cls-7,.cls-71{fill:#84c0cc;}.cls-7{opacity:0.53;}.cls-8{fill:#d1d3d4;}.cls-73,.cls-9{fill:#aad7dd;}.cls-9{opacity:0.61;}.cls-10,.cls-74{fill:#ede9e4;}.cls-11{fill:#efb68f;}.cls-12{clip-path:url(#clip-path);}.cls-13{fill:#f4901f;}.cls-14{fill:#e28725;}.cls-15{clip-path:url(#clip-path-2);}.cls-16{fill:#fdb83e;}.cls-17{clip-path:url(#clip-path-3);}.cls-18{clip-path:url(#clip-path-4);}.cls-19{clip-path:url(#clip-path-5);}.cls-20{clip-path:url(#clip-path-6);}.cls-21{clip-path:url(#clip-path-7);}.cls-22{clip-path:url(#clip-path-8);}.cls-23{clip-path:url(#clip-path-9);}.cls-24{clip-path:url(#clip-path-10);}.cls-25{clip-path:url(#clip-path-11);}.cls-26{clip-path:url(#clip-path-12);}.cls-27{clip-path:url(#clip-path-13);}.cls-28{clip-path:url(#clip-path-14);}.cls-29{clip-path:url(#clip-path-15);}.cls-30{clip-path:url(#clip-path-16);}.cls-31{clip-path:url(#clip-path-17);}.cls-32{clip-path:url(#clip-path-18);}.cls-33{clip-path:url(#clip-path-19);}.cls-34{clip-path:url(#clip-path-20);}.cls-35{clip-path:url(#clip-path-21);}.cls-36{clip-path:url(#clip-path-22);}.cls-37{clip-path:url(#clip-path-23);}.cls-38{clip-path:url(#clip-path-24);}.cls-39{clip-path:url(#clip-path-25);}.cls-40{clip-path:url(#clip-path-26);}.cls-41{clip-path:url(#clip-path-27);}.cls-42{clip-path:url(#clip-path-28);}.cls-43{clip-path:url(#clip-path-29);}.cls-44{clip-path:url(#clip-path-30);}.cls-45{clip-path:url(#clip-path-31);}.cls-46{clip-path:url(#clip-path-32);}.cls-47{clip-path:url(#clip-path-33);}.cls-48{clip-path:url(#clip-path-34);}.cls-49{clip-path:url(#clip-path-35);}.cls-50{clip-path:url(#clip-path-36);}.cls-51{clip-path:url(#clip-path-37);}.cls-52{clip-path:url(#clip-path-38);}.cls-53{clip-path:url(#clip-path-39);}.cls-54{clip-path:url(#clip-path-40);}.cls-55{clip-path:url(#clip-path-41);}.cls-56{clip-path:url(#clip-path-42);}.cls-57{fill:#faa31b;}.cls-58{fill:#bcbec0;}.cls-59{fill:#7b859e;}.cls-60{fill:#e7e7e6;}.cls-61{fill:#d78c2f;}.cls-62{fill:#faa52d;}.cls-63{clip-path:url(#clip-path-43);}.cls-64,.cls-69{fill:#47494c;}.cls-65,.cls-72{fill:#ece6e3;}.cls-66{clip-path:url(#clip-path-44);}.cls-67,.cls-70{fill:#f4ccb1;}.cls-68{fill:#ddd;}.cls-69{opacity:0.72;}.cls-70{opacity:0.6;}.cls-72{opacity:0.23;}.cls-73{opacity:0.31;}.cls-74{opacity:0.28;}</style><clipPath id="clip-path"><path class="cls-1" d="M482.15,584.19V589c0,1.67,8.93,3,19.94,3S522,590.69,522,589v-4.83Z"/></clipPath><clipPath id="clip-path-2"><path class="cls-2" d="M482.15,584.19V589c0,1.67,8.93,3,19.94,3S522,590.69,522,589v-4.83H482.15"/></clipPath><clipPath id="clip-path-3"><path class="cls-1" d="M485,578.56v4.82c0,1.68,8.93,3,19.95,3s19.95-1.35,19.95-3v-4.82Z"/></clipPath><clipPath id="clip-path-4"><path class="cls-2" d="M485,578.56v4.82c0,1.68,8.93,3,19.95,3s19.95-1.35,19.95-3v-4.82H485"/></clipPath><clipPath id="clip-path-5"><path class="cls-1" d="M482.63,572.66v4.82c0,1.68,8.93,3,19.94,3s19.95-1.35,19.95-3v-4.82Z"/></clipPath><clipPath id="clip-path-6"><path class="cls-2" d="M482.63,572.66v4.82c0,1.68,8.93,3,19.94,3s19.95-1.35,19.95-3v-4.82H482.63"/></clipPath><clipPath id="clip-path-7"><path class="cls-1" d="M481.85,566.15V571c0,1.67,8.93,3,19.95,3s19.95-1.36,19.95-3v-4.83Z"/></clipPath><clipPath id="clip-path-8"><path class="cls-2" d="M481.85,566.15V571c0,1.67,8.93,3,19.95,3s19.95-1.36,19.95-3v-4.83h-39.9"/></clipPath><clipPath id="clip-path-9"><path class="cls-1" d="M484.67,560.52v4.82c0,1.68,8.93,3,19.95,3s20-1.35,20-3v-4.82Z"/></clipPath><clipPath id="clip-path-10"><path class="cls-2" d="M484.67,560.52v4.82c0,1.68,8.93,3,19.95,3s20-1.35,20-3v-4.82h-39.9"/></clipPath><clipPath id="clip-path-11"><path class="cls-1" d="M482.33,554.62v4.82c0,1.68,8.93,3,19.95,3s20-1.35,20-3v-4.82Z"/></clipPath><clipPath id="clip-path-12"><path class="cls-2" d="M482.33,554.62v4.82c0,1.68,8.93,3,19.95,3s20-1.35,20-3v-4.82h-39.9"/></clipPath><clipPath id="clip-path-13"><path class="cls-1" d="M485.27,548.41v4.82c0,1.67,8.93,3,20,3s19.94-1.36,19.94-3v-4.82Z"/></clipPath><clipPath id="clip-path-14"><path class="cls-2" d="M485.27,548.41v4.82c0,1.67,8.93,3,20,3s19.94-1.36,19.94-3v-4.82H485.27"/></clipPath><clipPath id="clip-path-15"><path class="cls-1" d="M488.09,542.77v4.83c0,1.67,8.93,3,20,3s19.95-1.35,19.95-3v-4.83Z"/></clipPath><clipPath id="clip-path-16"><path class="cls-2" d="M488.09,542.77v4.83c0,1.67,8.93,3,20,3s19.95-1.35,19.95-3v-4.83h-39.9"/></clipPath><clipPath id="clip-path-17"><path class="cls-1" d="M485.75,536.87v4.83c0,1.67,8.93,3,19.95,3s19.95-1.36,19.95-3v-4.83Z"/></clipPath><clipPath id="clip-path-18"><path class="cls-2" d="M485.75,536.87v4.83c0,1.67,8.93,3,19.95,3s19.95-1.36,19.95-3v-4.83h-39.9"/></clipPath><clipPath id="clip-path-19"><path class="cls-1" d="M484.34,530.64v4.83c0,1.67,8.93,3,19.94,3s20-1.36,20-3v-4.83Z"/></clipPath><clipPath id="clip-path-20"><path class="cls-2" d="M484.34,530.64v4.83c0,1.67,8.93,3,19.94,3s20-1.36,20-3v-4.83H484.34"/></clipPath><clipPath id="clip-path-21"><path class="cls-1" d="M487.16,525v4.83c0,1.67,8.93,3,19.95,3s19.95-1.35,19.95-3V525Z"/></clipPath><clipPath id="clip-path-22"><path class="cls-2" d="M487.16,525v4.83c0,1.67,8.93,3,19.95,3s19.95-1.35,19.95-3V525h-39.9"/></clipPath><clipPath id="clip-path-23"><path class="cls-1" d="M484.82,519.11v4.83c0,1.67,8.93,3,19.94,3s20-1.35,20-3v-4.83Z"/></clipPath><clipPath id="clip-path-24"><path class="cls-2" d="M484.82,519.11v4.83c0,1.67,8.93,3,19.94,3s20-1.35,20-3v-4.83H484.82"/></clipPath><clipPath id="clip-path-25"><path class="cls-1" d="M482.42,513.5v4.82c0,1.67,8.93,3,19.95,3s20-1.36,20-3V513.5Z"/></clipPath><clipPath id="clip-path-26"><path class="cls-2" d="M482.42,513.5v4.82c0,1.67,8.93,3,19.95,3s20-1.36,20-3V513.5h-39.9"/></clipPath><clipPath id="clip-path-27"><path class="cls-1" d="M485.25,507.86v4.83c0,1.67,8.93,3,19.95,3s19.94-1.35,19.94-3v-4.83Z"/></clipPath><clipPath id="clip-path-28"><path class="cls-2" d="M485.25,507.86v4.83c0,1.67,8.93,3,19.95,3s19.94-1.35,19.94-3v-4.83H485.25"/></clipPath><clipPath id="clip-path-29"><path class="cls-1" d="M482.9,502v4.83c0,1.67,8.93,3,20,3s19.95-1.36,19.95-3V502Z"/></clipPath><clipPath id="clip-path-30"><path class="cls-2" d="M482.9,502v4.83c0,1.67,8.93,3,20,3s19.95-1.36,19.95-3V502H482.9"/></clipPath><clipPath id="clip-path-31"><path class="cls-1" d="M525.69,584.52v4.82c0,1.68,8.93,3,19.95,3s20-1.35,20-3v-4.82Z"/></clipPath><clipPath id="clip-path-32"><path class="cls-2" d="M525.69,584.52v4.82c0,1.68,8.93,3,19.95,3s20-1.35,20-3v-4.82h-39.9"/></clipPath><clipPath id="clip-path-33"><path class="cls-1" d="M528.51,578.88v4.83c0,1.67,8.94,3,20,3s19.95-1.36,19.95-3v-4.83Z"/></clipPath><clipPath id="clip-path-34"><path class="cls-2" d="M528.51,578.88v4.83c0,1.67,8.94,3,20,3s19.95-1.36,19.95-3v-4.83h-39.9"/></clipPath><clipPath id="clip-path-35"><path class="cls-1" d="M526.17,573v4.83c0,1.67,8.93,3,20,3s20-1.36,20-3V573Z"/></clipPath><clipPath id="clip-path-36"><path class="cls-2" d="M526.17,573v4.83c0,1.67,8.93,3,20,3s20-1.36,20-3V573h-39.9"/></clipPath><clipPath id="clip-path-37"><path class="cls-1" d="M525.69,567.27v4.83c0,1.67,8.93,3,19.95,3s20-1.36,20-3v-4.83Z"/></clipPath><clipPath id="clip-path-38"><path class="cls-2" d="M525.69,567.27v4.83c0,1.67,8.93,3,19.95,3s20-1.36,20-3v-4.83h-39.9"/></clipPath><clipPath id="clip-path-39"><path class="cls-1" d="M528.51,561.64v4.83c0,1.67,8.94,3,20,3s19.95-1.35,19.95-3v-4.83Z"/></clipPath><clipPath id="clip-path-40"><path class="cls-2" d="M528.51,561.64v4.83c0,1.67,8.94,3,20,3s19.95-1.35,19.95-3v-4.83h-39.9"/></clipPath><clipPath id="clip-path-41"><path class="cls-1" d="M526.17,555.74v4.83c0,1.67,8.93,3,20,3s20-1.35,20-3v-4.83Z"/></clipPath><clipPath id="clip-path-42"><path class="cls-2" d="M526.17,555.74v4.83c0,1.67,8.93,3,20,3s20-1.35,20-3v-4.83h-39.9"/></clipPath><clipPath id="clip-path-43"><path class="cls-3" d="M708.71,628.73a7.54,7.54,0,0,1,2-5.94,109.49,109.49,0,0,0,6.71-8.66l1.11-10,11.71.15c.18,2.28.23,9.2.15,9.85-.18,1.47-.8,2.66-.32,5.79s-1.66,9.07-2.26,10.21S725,633.4,717,633.06s-8.14-3.6-8.26-4.33"/></clipPath><clipPath id="clip-path-44"><path class="cls-4" d="M733.63,599.3s-3,6.55-3.07,8c0,.93.1,5.26.19,8.34.06,1.82.1,3.19.1,3.19s1.83,2.69,10.28,2.45,10.38.49,11.1-1,.24-5.65-4.35-7.36-2.33-7.45-2.33-7.45-4.43.49-11.92-6.21Z"/></clipPath></defs><path class="cls-5" d="M1159,634.64H231.56s-.8-9.57-1-25c-.14-9-.09-20,.43-32.29,0-1,.09-2,.14-3,.27-5.63.63-11.51,1.12-17.57.05-.54.09-1.08.14-1.62.54-6.34,1.2-12.92,2-19.68q1-8.25,2.37-16.83c.06-.4.13-.81.2-1.21.47-2.91,1-5.83,1.51-8.78.21-1.15.43-2.31.65-3.48.43-2.26.88-4.55,1.35-6.82q1.74-8.4,3.87-16.88c.15-.57.3-1.16.44-1.74.65-2.51,1.33-5,2-7.57q1.62-5.76,3.44-11.53c.76-2.4,1.56-4.8,2.38-7.21,7.78-22.74,18.2-45,32.11-64.93,31.86-45.66,82.05-79.09,160.8-78.12,15.83.2,30.54-.32,44.27-1.46h0q6.26-.51,12.25-1.2h0c91-10.45,136.55-49.45,178-87.49l4.45-4.09c14.49-13.35,28.66-26.44,44.29-38q6-4.44,12.32-8.56c25.91-16.79,56.57-29,99-31.62a86.72,86.72,0,0,1,12.08.1c1.51.12,3,.29,4.46.49,16.47,2.26,31,9.59,43.25,21.18,31.77,30.18,47.56,89.21,39.3,162.9-5.6,49.9,7,77,28.68,94.65,59.91,49,188.81,26.17,191.08,217.45Z"/><path class="cls-6" d="M452.6,546.54s46.49-63.47,22.63-75.4c0,0-4.24-6.8-21.6,17.29,0,0-10.65,3.43-11.18-8.91s17-31,6-41.76-16.94,8.45-24.81,12.05-3.86-45.55-14.71-50.89-13.94,14-20,16.27c-2.85,1-8.23-10.93-16.12-22.92-9-13.68-21.28-27.37-36.83-21.79C306.72,381,339.86,402.61,353.75,416s-14.9,5.79-18,22.74,48.45,3.6,43.68,20.08-19.45,7-22.28,19.3c-2.47,10.82,11.47,10.2,24.53,9.57,11-.53,21.35-1.06,20.79,5.21C401.47,503.81,383,496.5,381,505s29.81,39,71.6,41.59"/><path class="cls-3" d="M453.13,546.24h0l-.36,0a137.1,137.1,0,0,0-6.62-21.63,42.21,42.21,0,0,1-7,.55c-13.51,0-28.17-5.66-38.8-10.87a181.37,181.37,0,0,1-18.54-10.55,5.65,5.65,0,0,1,.38-.57h0l0-.05a180.08,180.08,0,0,0,18.45,10.49c10.56,5.18,25.09,10.8,38.45,10.8a42.23,42.23,0,0,0,6.69-.52c-6.75-17-16.7-34.23-27.76-50.5a66.71,66.71,0,0,0-9.11-.56c-17.49,0-40.1,5-52,7.92q0-.37,0-.78c12-3,34.49-7.89,52-7.89a69.09,69.09,0,0,1,8.51.47c-7.8-11.42-16.13-22.33-24.26-32.3a175,175,0,0,0-23.11-2.48c-2.48-.11-5.19-.18-8.09-.18a150.35,150.35,0,0,0-26.5,2.22c0-.2.05-.4.08-.61v-.05l0-.12a150.2,150.2,0,0,1,26.41-2.2c2.9,0,5.63.07,8.12.18a183.74,183.74,0,0,1,22.33,2.33c-3.68-4.48-7.3-8.78-10.81-12.83-20.89-24.11-40.95-43.63-51.3-53.34l.7-.38C341.5,382.54,361.47,402,382.26,426q11.17,12.9,20.78,25.35a185.27,185.27,0,0,1-1.34-23c.06-9.08.94-20.63,4.24-30.28l.74.15c-3.29,9.56-4.16,21.08-4.22,30.13a178.52,178.52,0,0,0,1.5,24.2c8.35,10.89,15.76,21.48,22.15,31.65l.07.12c4.46-24.62,13.19-38.45,19.76-45.73.55-.62,1.1-1.19,1.64-1.73.18.15.37.32.56.5-.55.56-1.11,1.15-1.68,1.78-6.56,7.3-15.3,21.22-19.68,46.14a264.25,264.25,0,0,1,15.59,28.59c16.49-8.46,25.76-23.23,30.62-34.16,1.33-3,2.41-5.84,3.28-8.46l.66.42c-.87,2.59-1.94,5.4-3.24,8.33a80.54,80.54,0,0,1-11.54,18.83,63.16,63.16,0,0,1-16.28,14c-1,.62-2.1,1.2-3.18,1.75a151.91,151.91,0,0,1,10.74,31.29l-.29.4h0"/><path class="cls-7" d="M448.69,587.79S408,542.09,331.92,545.2l13.19,18.21-21.26-16.69s-44.11,3.66-74.16,14.43c0,0,64.59,34,80.9,37l21.77-6.47L340.57,608s35.54,19.76,72.1,15.72,36-35.88,36-35.88Z"/><path class="cls-8" d="M671.65,620.7H435.85a7.89,7.89,0,0,1-7.88-7.89V364.39a7.88,7.88,0,0,1,7.88-7.88h235.8a7.88,7.88,0,0,1,7.89,7.88V612.81a7.89,7.89,0,0,1-7.89,7.89"/><path class="cls-6" d="M649.83,596.25H457.67a6.43,6.43,0,0,1-6.42-6.43V387.38a6.43,6.43,0,0,1,6.42-6.43H649.83a6.43,6.43,0,0,1,6.43,6.43V589.82a6.43,6.43,0,0,1-6.43,6.43"/><path class="cls-9" d="M457.67,592.3a2.49,2.49,0,0,1-2.48-2.48V387.38a2.49,2.49,0,0,1,2.48-2.48H649.83a2.49,2.49,0,0,1,2.49,2.48V589.82a2.49,2.49,0,0,1-2.49,2.48H457.67"/><path class="cls-10" d="M586.3,467.26s-5,8.52-9.63,8.64S565,472,565,472s-4.23-11.35-1.36-15.79a5.31,5.31,0,0,1,5.89,1.16,10.3,10.3,0,0,1,1.56,1.8,4.93,4.93,0,0,0,2.42,2c3.29,1.21,7.19-1.62,8.65,1.11a18.08,18.08,0,0,0,2.55,3.62,11.91,11.91,0,0,0,1.55,1.44Z"/><path class="cls-10" d="M514.17,591.83S501.83,483.51,570.51,475.9c0,0,53.3,12.69,40,115.93Z"/><path class="cls-11" d="M561.75,477.49s12.82,3.43,16.78,1.41c0,0,.6-6.45-4.8-5.55-3.7.62-6.11-1.52-7.52-2.38-2-1.23-5,3.82-4.46,6.52Z"/><path class="cls-8" d="M572.91,467.76c-.82.74-3.34-10.44-3.34-10.44a10.3,10.3,0,0,1,1.56,1.8,4.93,4.93,0,0,0,2.42,2c0,.33.15,6-.64,6.67Z"/><path class="cls-8" d="M584.75,465.82c-.18.13-6.12,4.41-6.92,4.41s4.37-8,4.37-8a18.08,18.08,0,0,0,2.55,3.62Z"/><path class="cls-8" d="M539.34,500.32S560.64,537,584,531.57s10.26,22.6,10.26,22.6-69.14-1.18-69.37-2,14.5-51.89,14.5-51.89Z"/><path class="cls-1" d="M482.15,584.19V589c0,1.67,8.93,3,19.94,3S522,590.69,522,589v-4.83Z"/><g class="cls-12"><path class="cls-13" d="M502.46,592.74H473.27a.83.83,0,0,1-.55-.24,2.39,2.39,0,0,1-.62-1.62.31.31,0,0,1,0-.1v-5.54c0-1.08.55-2,1.18-2h25.6a20.81,20.81,0,0,0,3.41,9.21l.18.24Z"/></g><path class="cls-1" d="M518,583.78c0,.78-7.1,1.41-15.86,1.41s-15.85-.63-15.85-1.41,7.1-1.4,15.85-1.4S518,583,518,583.78Z"/><path class="cls-14" d="M486.92,584.19c2-.57,8-1,15.17-1s13.2.42,15.18,1c.44-.13.68-.26.68-.41,0-.77-7.1-1.4-15.86-1.4s-15.85.63-15.85,1.4c0,.15.24.28.68.41Z"/><g class="cls-15"><polygon class="cls-13" points="520.66 582.19 520.66 593.25 521.61 593.25 521.61 582.19 520.66 582.19 520.66 582.19"/><polygon class="cls-13" points="518.21 593.25 519.16 593.25 519.16 582.19 518.21 582.19 518.21 593.25 518.21 593.25"/><polygon class="cls-13" points="515.42 593.25 516.36 593.25 516.36 582.19 515.42 582.19 515.42 593.25 515.42 593.25"/><polygon class="cls-13" points="511.93 593.25 512.87 593.25 512.87 582.19 511.93 582.19 511.93 593.25 511.93 593.25"/><polygon class="cls-13" points="508.09 593.25 509.04 593.25 509.04 582.19 508.09 582.19 508.09 593.25 508.09 593.25"/><polygon class="cls-13" points="503.91 593.25 504.86 593.25 504.86 582.19 503.91 582.19 503.91 593.25 503.91 593.25"/></g><path class="cls-16" d="M522,584.1c0,1.68-8.93,3-19.95,3s-19.94-1.35-19.94-3,8.93-3,19.94-3,19.95,1.36,19.95,3Z"/><path class="cls-1" d="M518.87,583.9c0,.78-7.1,1.41-15.86,1.41s-15.85-.63-15.85-1.41,7.1-1.41,15.85-1.41,15.86.63,15.86,1.41Z"/><path class="cls-13" d="M487.84,584.31c2-.58,8-1,15.17-1s13.21.42,15.18,1c.44-.13.68-.27.68-.41,0-.78-7.1-1.41-15.86-1.41s-15.85.63-15.85,1.41c0,.14.24.28.68.41Z"/><path class="cls-1" d="M485,578.56v4.82c0,1.68,8.93,3,19.95,3s19.95-1.35,19.95-3v-4.82Z"/><g class="cls-17"><path class="cls-13" d="M505.28,587.1H476.09a.78.78,0,0,1-.54-.23,2.42,2.42,0,0,1-.63-1.63.28.28,0,0,0,0-.09V579.6c0-1.08.55-2,1.18-2H501.7a20.82,20.82,0,0,0,3.4,9.22l.18.23Z"/></g><path class="cls-1" d="M520.78,578.15c0,.78-7.1,1.41-15.86,1.41s-15.86-.63-15.86-1.41,7.1-1.41,15.86-1.41,15.86.63,15.86,1.41Z"/><path class="cls-14" d="M489.74,578.56c2-.58,8-1,15.18-1s13.2.42,15.17,1c.45-.13.69-.27.69-.41,0-.78-7.1-1.41-15.86-1.41s-15.86.63-15.86,1.41c0,.14.24.28.68.41Z"/><g class="cls-18"><polygon class="cls-13" points="523.49 576.55 523.49 587.62 524.43 587.62 524.43 576.55 523.49 576.55 523.49 576.55"/><polygon class="cls-13" points="521.04 587.62 521.98 587.62 521.98 576.55 521.04 576.55 521.04 587.62 521.04 587.62"/><polygon class="cls-13" points="518.24 587.62 519.19 587.62 519.19 576.55 518.24 576.55 518.24 587.62 518.24 587.62"/><polygon class="cls-13" points="514.75 587.62 515.7 587.62 515.7 576.55 514.75 576.55 514.75 587.62 514.75 587.62"/><polygon class="cls-13" points="510.92 587.62 511.86 587.62 511.86 576.55 510.92 576.55 510.92 587.62 510.92 587.62"/><polygon class="cls-13" points="506.74 587.62 507.68 587.62 507.68 576.55 506.74 576.55 506.74 587.62 506.74 587.62"/></g><path class="cls-16" d="M524.87,578.47c0,1.67-8.93,3-19.95,3s-19.95-1.36-19.95-3,8.93-3,19.95-3,19.95,1.36,19.95,3Z"/><path class="cls-1" d="M521.7,578.27c0,.77-7.1,1.4-15.86,1.4S490,579,490,578.27s7.1-1.41,15.86-1.41,15.86.63,15.86,1.41Z"/><path class="cls-13" d="M490.66,578.67c2-.57,8-1,15.18-1s13.2.42,15.17,1c.45-.13.69-.26.69-.4,0-.78-7.1-1.41-15.86-1.41s-15.86.63-15.86,1.41c0,.14.24.27.68.4Z"/><path class="cls-1" d="M482.63,572.66v4.82c0,1.68,8.93,3,19.94,3s19.95-1.35,19.95-3v-4.82Z"/><g class="cls-19"><path class="cls-13" d="M502.94,581.2H473.75a.78.78,0,0,1-.54-.23,2.38,2.38,0,0,1-.63-1.63.28.28,0,0,1,0-.09V573.7c0-1.08.55-2,1.18-2h25.6a20.85,20.85,0,0,0,3.41,9.22l.18.23Z"/></g><path class="cls-1" d="M518.43,572.25c0,.78-7.1,1.41-15.86,1.41s-15.85-.63-15.85-1.41,7.1-1.4,15.85-1.4,15.86.62,15.86,1.4Z"/><path class="cls-14" d="M487.4,572.66c2-.58,8-1,15.17-1s13.21.42,15.18,1c.44-.13.68-.27.68-.41,0-.78-7.1-1.4-15.86-1.4s-15.85.62-15.85,1.4c0,.14.24.28.68.41Z"/><g class="cls-20"><polygon class="cls-13" points="521.14 570.66 521.14 581.72 522.09 581.72 522.09 570.66 521.14 570.66 521.14 570.66"/><polygon class="cls-13" points="518.69 581.72 519.64 581.72 519.64 570.66 518.69 570.66 518.69 581.72 518.69 581.72"/><polygon class="cls-13" points="515.9 581.72 516.84 581.72 516.84 570.66 515.9 570.66 515.9 581.72 515.9 581.72"/><polygon class="cls-13" points="512.41 581.72 513.36 581.72 513.36 570.66 512.41 570.66 512.41 581.72 512.41 581.72"/><polygon class="cls-13" points="508.57 581.72 509.52 581.72 509.52 570.66 508.57 570.66 508.57 581.72 508.57 581.72"/><polygon class="cls-13" points="504.39 581.72 505.34 581.72 505.34 570.66 504.39 570.66 504.39 581.72 504.39 581.72"/></g><path class="cls-16" d="M522.52,572.57c0,1.67-8.93,3-19.95,3s-19.94-1.36-19.94-3,8.93-3,19.94-3,19.95,1.36,19.95,3Z"/><path class="cls-1" d="M519.35,572.37c0,.77-7.1,1.4-15.85,1.4s-15.86-.63-15.86-1.4,7.1-1.41,15.86-1.41,15.85.63,15.85,1.41Z"/><path class="cls-13" d="M488.32,572.78c2-.58,8-1,15.18-1s13.2.42,15.17,1c.44-.13.68-.27.68-.41,0-.78-7.1-1.41-15.85-1.41s-15.86.63-15.86,1.41c0,.14.24.28.68.41Z"/><path class="cls-1" d="M481.85,566.15V571c0,1.67,8.93,3,19.95,3s19.95-1.36,19.95-3v-4.83Z"/><g class="cls-21"><path class="cls-13" d="M502.16,574.69H473a.78.78,0,0,1-.54-.23,2.4,2.4,0,0,1-.63-1.63s0-.06,0-.09V567.2c0-1.09.55-2,1.18-2h25.6a20.8,20.8,0,0,0,3.41,9.22l.18.23Z"/></g><path class="cls-1" d="M517.66,565.74c0,.78-7.1,1.41-15.86,1.41s-15.86-.63-15.86-1.41,7.1-1.4,15.86-1.4,15.86.63,15.86,1.4Z"/><path class="cls-14" d="M486.62,566.15c2-.57,8-1,15.18-1s13.2.42,15.17,1c.44-.13.69-.26.69-.41,0-.77-7.1-1.4-15.86-1.4s-15.86.63-15.86,1.4c0,.15.24.28.68.41Z"/><g class="cls-22"><polygon class="cls-13" points="520.36 564.15 520.36 575.21 521.31 575.21 521.31 564.15 520.36 564.15 520.36 564.15"/><polygon class="cls-13" points="517.91 575.21 518.86 575.21 518.86 564.15 517.91 564.15 517.91 575.21 517.91 575.21"/><polygon class="cls-13" points="515.12 575.21 516.06 575.21 516.06 564.15 515.12 564.15 515.12 575.21 515.12 575.21"/><polygon class="cls-13" points="511.63 575.21 512.58 575.21 512.58 564.15 511.63 564.15 511.63 575.21 511.63 575.21"/><polygon class="cls-13" points="507.8 575.21 508.74 575.21 508.74 564.15 507.8 564.15 507.8 575.21 507.8 575.21"/><polygon class="cls-13" points="503.62 575.21 504.56 575.21 504.56 564.15 503.62 564.15 503.62 575.21 503.62 575.21"/></g><path class="cls-16" d="M521.75,566.06c0,1.67-8.94,3-19.95,3s-19.95-1.36-19.95-3,8.93-3,19.95-3,19.95,1.36,19.95,3Z"/><path class="cls-1" d="M518.58,565.86c0,.77-7.1,1.4-15.86,1.4s-15.86-.63-15.86-1.4,7.1-1.41,15.86-1.41,15.86.63,15.86,1.41Z"/><path class="cls-13" d="M487.54,566.27c2-.58,8-1,15.18-1s13.2.42,15.17,1c.45-.13.69-.27.69-.41,0-.78-7.1-1.41-15.86-1.41s-15.86.63-15.86,1.41c0,.14.24.28.68.41Z"/><path class="cls-1" d="M484.67,560.52v4.82c0,1.68,8.93,3,19.95,3s20-1.35,20-3v-4.82Z"/><g class="cls-23"><path class="cls-13" d="M505,569.06H475.79a.79.79,0,0,1-.54-.23,2.47,2.47,0,0,1-.63-1.63v-5.64c0-1.08.55-1.95,1.17-1.95H501.4a21,21,0,0,0,3.4,9.22l.18.23Z"/></g><path class="cls-1" d="M520.48,560.11c0,.77-7.1,1.4-15.86,1.4s-15.86-.63-15.86-1.4,7.1-1.41,15.86-1.41,15.86.63,15.86,1.41Z"/><path class="cls-14" d="M489.44,560.52c2-.58,8-1,15.18-1s13.2.42,15.18,1c.44-.13.68-.27.68-.41,0-.78-7.1-1.41-15.86-1.41s-15.86.63-15.86,1.41c0,.14.24.28.68.41Z"/><g class="cls-24"><polygon class="cls-13" points="523.19 558.51 523.19 569.57 524.13 569.57 524.13 558.51 523.19 558.51 523.19 558.51"/><polygon class="cls-13" points="520.74 569.57 521.68 569.57 521.68 558.51 520.74 558.51 520.74 569.57 520.74 569.57"/><polygon class="cls-13" points="517.94 569.57 518.89 569.57 518.89 558.51 517.94 558.51 517.94 569.57 517.94 569.57"/><polygon class="cls-13" points="514.46 569.57 515.4 569.57 515.4 558.51 514.46 558.51 514.46 569.57 514.46 569.57"/><polygon class="cls-13" points="510.62 569.57 511.56 569.57 511.56 558.51 510.62 558.51 510.62 569.57 510.62 569.57"/><polygon class="cls-13" points="506.44 569.57 507.38 569.57 507.38 558.51 506.44 558.51 506.44 569.57 506.44 569.57"/></g><path class="cls-16" d="M524.57,560.43c0,1.67-8.93,3-20,3s-19.95-1.36-19.95-3,8.93-3,19.95-3,20,1.35,20,3Z"/><path class="cls-1" d="M521.4,560.22c0,.78-7.1,1.41-15.86,1.41s-15.86-.63-15.86-1.41,7.1-1.4,15.86-1.4,15.86.63,15.86,1.4Z"/><path class="cls-13" d="M490.36,560.63c2-.57,8-1,15.18-1s13.2.42,15.18,1c.44-.13.68-.26.68-.41,0-.77-7.1-1.4-15.86-1.4s-15.86.63-15.86,1.4c0,.15.24.28.68.41Z"/><path class="cls-1" d="M482.33,554.62v4.82c0,1.68,8.93,3,19.95,3s20-1.35,20-3v-4.82Z"/><g class="cls-25"><path class="cls-13" d="M502.64,563.16H473.45a.78.78,0,0,1-.54-.23,2.42,2.42,0,0,1-.63-1.63s0-.06,0-.09v-5.55c0-1.08.55-1.95,1.18-1.95h25.61a20.82,20.82,0,0,0,3.4,9.22l.18.23Z"/></g><path class="cls-1" d="M518.14,554.21c0,.78-7.1,1.41-15.86,1.41s-15.86-.63-15.86-1.41,7.1-1.41,15.86-1.41,15.86.63,15.86,1.41Z"/><path class="cls-14" d="M487.1,554.62c2-.58,8-1,15.18-1s13.2.42,15.17,1c.45-.13.69-.27.69-.41,0-.78-7.1-1.41-15.86-1.41s-15.86.63-15.86,1.41c0,.14.24.28.68.41Z"/><g class="cls-26"><polygon class="cls-13" points="520.85 552.61 520.85 563.67 521.79 563.67 521.79 552.61 520.85 552.61 520.85 552.61"/><polygon class="cls-13" points="518.4 563.67 519.34 563.67 519.34 552.61 518.4 552.61 518.4 563.67 518.4 563.67"/><polygon class="cls-13" points="515.6 563.67 516.54 563.67 516.54 552.61 515.6 552.61 515.6 563.67 515.6 563.67"/><polygon class="cls-13" points="512.11 563.67 513.06 563.67 513.06 552.61 512.11 552.61 512.11 563.67 512.11 563.67"/><polygon class="cls-13" points="508.28 563.67 509.22 563.67 509.22 552.61 508.28 552.61 508.28 563.67 508.28 563.67"/><polygon class="cls-13" points="504.1 563.67 505.04 563.67 505.04 552.61 504.1 552.61 504.1 563.67 504.1 563.67"/></g><path class="cls-16" d="M522.23,554.53c0,1.67-8.94,3-20,3s-19.95-1.36-19.95-3,8.93-3,19.95-3,20,1.35,20,3Z"/><path class="cls-1" d="M519.06,554.32c0,.78-7.1,1.41-15.86,1.41s-15.86-.63-15.86-1.41,7.1-1.4,15.86-1.4,15.86.63,15.86,1.4Z"/><path class="cls-13" d="M488,554.73c2-.57,8-1,15.18-1s13.2.42,15.17,1c.45-.13.69-.26.69-.41,0-.77-7.1-1.4-15.86-1.4s-15.86.63-15.86,1.4c0,.15.24.28.68.41Z"/><path class="cls-1" d="M485.27,548.41v4.82c0,1.67,8.93,3,20,3s19.94-1.36,19.94-3v-4.82Z"/><g class="cls-27"><path class="cls-13" d="M505.58,557H476.39a.79.79,0,0,1-.54-.24,2.38,2.38,0,0,1-.63-1.62.28.28,0,0,1,0-.09v-5.55c0-1.08.55-2,1.18-2H502a20.81,20.81,0,0,0,3.41,9.21l.18.24Z"/></g><path class="cls-1" d="M521.07,548c0,.77-7.1,1.4-15.85,1.4s-15.86-.63-15.86-1.4,7.1-1.41,15.86-1.41,15.85.63,15.85,1.41Z"/><path class="cls-14" d="M490,548.41c2-.58,8-1,15.18-1s13.2.42,15.17,1c.44-.13.68-.27.68-.41,0-.78-7.1-1.41-15.85-1.41s-15.86.63-15.86,1.41c0,.14.24.28.68.41Z"/><g class="cls-28"><polygon class="cls-13" points="523.78 546.4 523.78 557.46 524.73 557.46 524.73 546.4 523.78 546.4 523.78 546.4"/><polygon class="cls-13" points="521.33 557.46 522.28 557.46 522.28 546.4 521.33 546.4 521.33 557.46 521.33 557.46"/><polygon class="cls-13" points="518.54 557.46 519.48 557.46 519.48 546.4 518.54 546.4 518.54 557.46 518.54 557.46"/><polygon class="cls-13" points="515.05 557.46 516 557.46 516 546.4 515.05 546.4 515.05 557.46 515.05 557.46"/><polygon class="cls-13" points="511.21 557.46 512.16 557.46 512.16 546.4 511.21 546.4 511.21 557.46 511.21 557.46"/><polygon class="cls-13" points="507.03 557.46 507.98 557.46 507.98 546.4 507.03 546.4 507.03 557.46 507.03 557.46"/></g><path class="cls-16" d="M525.16,548.31c0,1.68-8.93,3-19.94,3s-20-1.35-20-3,8.93-3,20-3,19.94,1.35,19.94,3Z"/><path class="cls-1" d="M522,548.11c0,.78-7.11,1.41-15.86,1.41s-15.86-.63-15.86-1.41,7.1-1.4,15.86-1.4,15.86.63,15.86,1.4Z"/><path class="cls-13" d="M491,548.52c2-.58,8-1,15.18-1s13.2.42,15.17,1c.44-.13.69-.27.69-.41,0-.77-7.11-1.4-15.86-1.4s-15.86.63-15.86,1.4c0,.14.24.28.68.41Z"/><path class="cls-1" d="M488.09,542.77v4.83c0,1.67,8.93,3,20,3s19.95-1.35,19.95-3v-4.83Z"/><g class="cls-29"><path class="cls-13" d="M508.4,551.31H479.21a.79.79,0,0,1-.54-.23,2.42,2.42,0,0,1-.63-1.63v-.09s0-.07,0-.1v-5.34s0-.07,0-.11c0-1.08.54-1.95,1.17-1.95h25.61a21,21,0,0,0,3.4,9.22l.18.23Z"/></g><path class="cls-1" d="M523.9,542.36c0,.78-7.1,1.41-15.86,1.41s-15.86-.63-15.86-1.41,7.1-1.4,15.86-1.4,15.86.63,15.86,1.4Z"/><path class="cls-14" d="M492.86,542.77c2-.58,8-1,15.18-1s13.2.42,15.17,1c.45-.13.69-.27.69-.41,0-.77-7.1-1.4-15.86-1.4s-15.86.63-15.86,1.4c0,.14.24.28.68.41Z"/><g class="cls-30"><polygon class="cls-13" points="526.61 540.77 526.61 551.83 527.55 551.83 527.55 540.77 526.61 540.77 526.61 540.77"/><polygon class="cls-13" points="524.16 551.83 525.1 551.83 525.1 540.77 524.16 540.77 524.16 551.83 524.16 551.83"/><polygon class="cls-13" points="521.36 551.83 522.31 551.83 522.31 540.77 521.36 540.77 521.36 551.83 521.36 551.83"/><polygon class="cls-13" points="517.87 551.83 518.82 551.83 518.82 540.77 517.87 540.77 517.87 551.83 517.87 551.83"/><polygon class="cls-13" points="514.04 551.83 514.98 551.83 514.98 540.77 514.04 540.77 514.04 551.83 514.04 551.83"/><polygon class="cls-13" points="509.86 551.83 510.8 551.83 510.8 540.77 509.86 540.77 509.86 551.83 509.86 551.83"/></g><path class="cls-16" d="M528,542.68c0,1.67-8.93,3-19.95,3s-20-1.36-20-3,8.93-3,20-3S528,541,528,542.68Z"/><path class="cls-1" d="M524.82,542.48c0,.77-7.1,1.4-15.86,1.4s-15.86-.63-15.86-1.4,7.1-1.41,15.86-1.41,15.86.63,15.86,1.41Z"/><path class="cls-13" d="M493.78,542.89c2-.58,8-1,15.18-1s13.2.42,15.18,1c.44-.13.68-.27.68-.41,0-.78-7.1-1.41-15.86-1.41s-15.86.63-15.86,1.41c0,.14.24.28.68.41Z"/><path class="cls-1" d="M485.75,536.87v4.83c0,1.67,8.93,3,19.95,3s19.95-1.36,19.95-3v-4.83Z"/><g class="cls-31"><path class="cls-13" d="M506.06,545.41H476.87a.78.78,0,0,1-.54-.23,2.42,2.42,0,0,1-.63-1.63s0-.06,0-.09v-5.55c0-1.08.55-1.95,1.18-1.95h25.6a20.85,20.85,0,0,0,3.41,9.22l.18.23Z"/></g><path class="cls-1" d="M521.56,536.46c0,.78-7.11,1.41-15.86,1.41s-15.86-.63-15.86-1.41,7.1-1.4,15.86-1.4,15.86.63,15.86,1.4Z"/><path class="cls-14" d="M490.52,536.87c2-.58,8-1,15.18-1s13.2.42,15.17,1c.44-.13.69-.26.69-.41,0-.77-7.11-1.4-15.86-1.4s-15.86.63-15.86,1.4c0,.15.24.28.68.41Z"/><g class="cls-32"><polygon class="cls-13" points="524.26 534.87 524.26 545.93 525.21 545.93 525.21 534.87 524.26 534.87 524.26 534.87"/><polygon class="cls-13" points="521.82 545.93 522.76 545.93 522.76 534.87 521.82 534.87 521.82 545.93 521.82 545.93"/><polygon class="cls-13" points="519.02 545.93 519.96 545.93 519.96 534.87 519.02 534.87 519.02 545.93 519.02 545.93"/><polygon class="cls-13" points="515.53 545.93 516.48 545.93 516.48 534.87 515.53 534.87 515.53 545.93 515.53 545.93"/><polygon class="cls-13" points="511.7 545.93 512.64 545.93 512.64 534.87 511.7 534.87 511.7 545.93 511.7 545.93"/><polygon class="cls-13" points="507.51 545.93 508.46 545.93 508.46 534.87 507.51 534.87 507.51 545.93 507.51 545.93"/></g><path class="cls-16" d="M525.65,536.78c0,1.67-8.94,3-19.95,3s-19.95-1.36-19.95-3,8.93-3,19.95-3,19.95,1.36,19.95,3Z"/><path class="cls-1" d="M522.48,536.58c0,.77-7.1,1.4-15.86,1.4s-15.86-.63-15.86-1.4,7.1-1.41,15.86-1.41,15.86.63,15.86,1.41Z"/><path class="cls-13" d="M491.44,537c2-.58,8-1,15.18-1s13.2.42,15.17,1c.45-.13.69-.27.69-.41,0-.78-7.1-1.41-15.86-1.41s-15.86.63-15.86,1.41c0,.14.24.28.68.41Z"/><path class="cls-1" d="M484.34,530.64v4.83c0,1.67,8.93,3,19.94,3s20-1.36,20-3v-4.83Z"/><g class="cls-33"><path class="cls-13" d="M504.65,539.19H475.46a.83.83,0,0,1-.55-.24,2.37,2.37,0,0,1-.62-1.62.28.28,0,0,1,0-.09v-5.55c0-1.08.55-2,1.18-2h25.6a20.81,20.81,0,0,0,3.41,9.21l.18.24Z"/></g><path class="cls-1" d="M520.14,530.24c0,.77-7.1,1.4-15.86,1.4s-15.85-.63-15.85-1.4,7.1-1.41,15.85-1.41,15.86.63,15.86,1.41Z"/><path class="cls-14" d="M489.11,530.64c2-.57,8-1,15.17-1s13.2.42,15.18,1c.44-.12.68-.26.68-.4,0-.78-7.1-1.41-15.86-1.41s-15.85.63-15.85,1.41c0,.14.24.28.68.4Z"/><g class="cls-34"><polygon class="cls-13" points="522.85 528.64 522.85 539.7 523.8 539.7 523.8 528.64 522.85 528.64 522.85 528.64"/><polygon class="cls-13" points="520.4 539.7 521.35 539.7 521.35 528.64 520.4 528.64 520.4 539.7 520.4 539.7"/><polygon class="cls-13" points="517.61 539.7 518.55 539.7 518.55 528.64 517.61 528.64 517.61 539.7 517.61 539.7"/><polygon class="cls-13" points="514.12 539.7 515.06 539.7 515.06 528.64 514.12 528.64 514.12 539.7 514.12 539.7"/><polygon class="cls-13" points="510.28 539.7 511.23 539.7 511.23 528.64 510.28 528.64 510.28 539.7 510.28 539.7"/><polygon class="cls-13" points="506.1 539.7 507.05 539.7 507.05 528.64 506.1 528.64 506.1 539.7 506.1 539.7"/></g><path class="cls-16" d="M524.23,530.55c0,1.68-8.93,3-20,3s-19.94-1.35-19.94-3,8.93-3,19.94-3,20,1.35,20,3Z"/><path class="cls-1" d="M521.06,530.35c0,.78-7.1,1.41-15.86,1.41s-15.85-.63-15.85-1.41,7.1-1.4,15.85-1.4,15.86.63,15.86,1.4Z"/><path class="cls-13" d="M490,530.76c2-.58,8-1,15.17-1s13.21.42,15.18,1c.44-.13.68-.27.68-.41,0-.77-7.1-1.4-15.86-1.4s-15.85.63-15.85,1.4c0,.14.24.28.68.41Z"/><path class="cls-1" d="M487.16,525v4.83c0,1.67,8.93,3,19.95,3s19.95-1.35,19.95-3V525Z"/><g class="cls-35"><path class="cls-13" d="M507.47,533.55H478.28a.78.78,0,0,1-.54-.23,2.42,2.42,0,0,1-.63-1.63.28.28,0,0,0,0-.09v-5.55c0-1.08.55-1.95,1.18-1.95h25.61a20.82,20.82,0,0,0,3.4,9.22l.18.23Z"/></g><path class="cls-1" d="M523,524.6c0,.78-7.1,1.41-15.86,1.41s-15.86-.63-15.86-1.41,7.1-1.4,15.86-1.4,15.86.62,15.86,1.4Z"/><path class="cls-14" d="M491.93,525c2-.58,8-1,15.18-1s13.2.42,15.17,1c.45-.13.69-.27.69-.41,0-.77-7.1-1.4-15.86-1.4s-15.86.63-15.86,1.4c0,.14.24.28.68.41Z"/><g class="cls-36"><polygon class="cls-13" points="525.68 523.01 525.68 534.07 526.62 534.07 526.62 523.01 525.68 523.01 525.68 523.01"/><polygon class="cls-13" points="523.23 534.07 524.17 534.07 524.17 523.01 523.23 523.01 523.23 534.07 523.23 534.07"/><polygon class="cls-13" points="520.43 534.07 521.38 534.07 521.38 523.01 520.43 523.01 520.43 534.07 520.43 534.07"/><polygon class="cls-13" points="516.94 534.07 517.89 534.07 517.89 523.01 516.94 523.01 516.94 534.07 516.94 534.07"/><polygon class="cls-13" points="513.11 534.07 514.05 534.07 514.05 523.01 513.11 523.01 513.11 534.07 513.11 534.07"/><polygon class="cls-13" points="508.93 534.07 509.87 534.07 509.87 523.01 508.93 523.01 508.93 534.07 508.93 534.07"/></g><path class="cls-16" d="M527.06,524.92c0,1.67-8.93,3-19.95,3s-19.95-1.36-19.95-3,8.93-3,19.95-3,19.95,1.36,19.95,3Z"/><path class="cls-1" d="M523.89,524.72c0,.77-7.1,1.4-15.86,1.4s-15.86-.63-15.86-1.4,7.1-1.41,15.86-1.41,15.86.63,15.86,1.41Z"/><path class="cls-13" d="M492.85,525.13c2-.58,8-1,15.18-1s13.2.42,15.17,1c.45-.13.69-.27.69-.41,0-.78-7.1-1.41-15.86-1.41s-15.86.63-15.86,1.41c0,.14.24.28.68.41Z"/><path class="cls-1" d="M484.82,519.11v4.83c0,1.67,8.93,3,19.94,3s20-1.35,20-3v-4.83Z"/><g class="cls-37"><path class="cls-13" d="M505.13,527.65H475.94a.78.78,0,0,1-.54-.23,2.38,2.38,0,0,1-.63-1.63.28.28,0,0,1,0-.09v-5.55c0-1.08.55-1.95,1.18-1.95h25.6a20.85,20.85,0,0,0,3.41,9.22l.18.23Z"/></g><path class="cls-1" d="M520.62,518.7c0,.78-7.1,1.41-15.86,1.41s-15.85-.63-15.85-1.41,7.1-1.4,15.85-1.4,15.86.63,15.86,1.4Z"/><path class="cls-14" d="M489.59,519.11c2-.58,8-1,15.17-1s13.21.42,15.18,1c.44-.13.68-.27.68-.41,0-.77-7.1-1.4-15.86-1.4s-15.85.63-15.85,1.4c0,.14.24.28.68.41Z"/><g class="cls-38"><polygon class="cls-13" points="523.33 517.11 523.33 528.17 524.28 528.17 524.28 517.11 523.33 517.11 523.33 517.11"/><polygon class="cls-13" points="520.88 528.17 521.83 528.17 521.83 517.11 520.88 517.11 520.88 528.17 520.88 528.17"/><polygon class="cls-13" points="518.09 528.17 519.03 528.17 519.03 517.11 518.09 517.11 518.09 528.17 518.09 528.17"/><polygon class="cls-13" points="514.6 528.17 515.54 528.17 515.54 517.11 514.6 517.11 514.6 528.17 514.6 528.17"/><polygon class="cls-13" points="510.76 528.17 511.71 528.17 511.71 517.11 510.76 517.11 510.76 528.17 510.76 528.17"/><polygon class="cls-13" points="506.58 528.17 507.53 528.17 507.53 517.11 506.58 517.11 506.58 528.17 506.58 528.17"/></g><path class="cls-16" d="M524.71,519c0,1.67-8.93,3-20,3s-19.94-1.36-19.94-3,8.93-3,19.94-3,20,1.36,20,3Z"/><path class="cls-1" d="M521.54,518.82c0,.77-7.1,1.4-15.85,1.4s-15.86-.63-15.86-1.4,7.1-1.41,15.86-1.41,15.85.63,15.85,1.41Z"/><path class="cls-13" d="M490.51,519.23c2-.58,8-1,15.18-1s13.2.42,15.17,1c.44-.13.68-.27.68-.41,0-.78-7.1-1.41-15.85-1.41s-15.86.63-15.86,1.41c0,.14.24.28.68.41Z"/><path class="cls-1" d="M482.42,513.5v4.82c0,1.67,8.93,3,19.95,3s20-1.36,20-3V513.5Z"/><g class="cls-39"><path class="cls-13" d="M502.73,522H473.54a.81.81,0,0,1-.54-.24,2.42,2.42,0,0,1-.63-1.62v-5.64c0-1.08.55-1.95,1.17-1.95h25.61a20.77,20.77,0,0,0,3.41,9.21l.17.24Z"/></g><path class="cls-1" d="M518.23,513.09c0,.77-7.1,1.4-15.86,1.4s-15.86-.63-15.86-1.4,7.1-1.41,15.86-1.41,15.86.63,15.86,1.41Z"/><path class="cls-14" d="M487.2,513.5c2-.58,8-1,15.17-1s13.2.42,15.18,1c.44-.13.68-.27.68-.41,0-.78-7.1-1.41-15.86-1.41s-15.86.63-15.86,1.41c0,.14.24.28.69.41Z"/><g class="cls-40"><polygon class="cls-13" points="520.94 511.49 520.94 522.55 521.88 522.55 521.88 511.49 520.94 511.49 520.94 511.49"/><polygon class="cls-13" points="518.49 522.55 519.43 522.55 519.43 511.49 518.49 511.49 518.49 522.55 518.49 522.55"/><polygon class="cls-13" points="515.7 522.55 516.64 522.55 516.64 511.49 515.7 511.49 515.7 522.55 515.7 522.55"/><polygon class="cls-13" points="512.21 522.55 513.15 522.55 513.15 511.49 512.21 511.49 512.21 522.55 512.21 522.55"/><polygon class="cls-13" points="508.37 522.55 509.32 522.55 509.32 511.49 508.37 511.49 508.37 522.55 508.37 522.55"/><polygon class="cls-13" points="504.19 522.55 505.13 522.55 505.13 511.49 504.19 511.49 504.19 522.55 504.19 522.55"/></g><path class="cls-16" d="M522.32,513.41c0,1.67-8.93,3-20,3s-19.95-1.35-19.95-3,8.93-3,19.95-3,20,1.35,20,3Z"/><path class="cls-1" d="M519.15,513.2c0,.78-7.1,1.41-15.86,1.41s-15.86-.63-15.86-1.41,7.1-1.4,15.86-1.4,15.86.63,15.86,1.4Z"/><path class="cls-13" d="M488.12,513.61c2-.58,8-1,15.17-1s13.2.42,15.18,1c.44-.13.68-.27.68-.41,0-.77-7.1-1.4-15.86-1.4s-15.86.63-15.86,1.4c0,.14.24.28.69.41Z"/><path class="cls-1" d="M485.25,507.86v4.83c0,1.67,8.93,3,19.95,3s19.94-1.35,19.94-3v-4.83Z"/><g class="cls-41"><path class="cls-13" d="M505.56,516.4H476.37a.78.78,0,0,1-.54-.23,2.42,2.42,0,0,1-.63-1.63.28.28,0,0,1,0-.09V508.9c0-1.08.55-1.95,1.18-1.95H502a20.85,20.85,0,0,0,3.41,9.22l.18.23Z"/></g><path class="cls-1" d="M521.05,507.45c0,.78-7.1,1.41-15.85,1.41s-15.86-.63-15.86-1.41,7.1-1.4,15.86-1.4,15.85.63,15.85,1.4Z"/><path class="cls-14" d="M490,507.86c2-.58,8-1,15.18-1s13.2.42,15.17,1c.44-.13.68-.27.68-.41,0-.77-7.1-1.4-15.85-1.4s-15.86.63-15.86,1.4c0,.14.24.28.68.41Z"/><g class="cls-42"><polygon class="cls-13" points="523.76 505.86 523.76 516.92 524.71 516.92 524.71 505.86 523.76 505.86 523.76 505.86"/><polygon class="cls-13" points="521.31 516.92 522.26 516.92 522.26 505.86 521.31 505.86 521.31 516.92 521.31 516.92"/><polygon class="cls-13" points="518.52 516.92 519.46 516.92 519.46 505.86 518.52 505.86 518.52 516.92 518.52 516.92"/><polygon class="cls-13" points="515.03 516.92 515.98 516.92 515.98 505.86 515.03 505.86 515.03 516.92 515.03 516.92"/><polygon class="cls-13" points="511.19 516.92 512.14 516.92 512.14 505.86 511.19 505.86 511.19 516.92 511.19 516.92"/><polygon class="cls-13" points="507.01 516.92 507.96 516.92 507.96 505.86 507.01 505.86 507.01 516.92 507.01 516.92"/></g><path class="cls-16" d="M525.14,507.77c0,1.67-8.93,3-19.94,3s-19.95-1.36-19.95-3,8.93-3,19.95-3,19.94,1.36,19.94,3Z"/><path class="cls-1" d="M522,507.57c0,.77-7.1,1.4-15.85,1.4s-15.86-.63-15.86-1.4,7.1-1.41,15.86-1.41,15.85.63,15.85,1.41Z"/><path class="cls-13" d="M490.94,508c2-.58,8-1,15.18-1s13.2.42,15.17,1c.44-.13.68-.27.68-.41,0-.78-7.1-1.41-15.85-1.41s-15.86.63-15.86,1.41c0,.14.24.28.68.41Z"/><path class="cls-1" d="M482.9,502v4.83c0,1.67,8.93,3,20,3s19.95-1.36,19.95-3V502Z"/><g class="cls-43"><path class="cls-13" d="M503.22,510.5H474a.79.79,0,0,1-.54-.23,2.45,2.45,0,0,1-.63-1.63V503c0-1.08.55-1.95,1.17-1.95h25.61a20.8,20.8,0,0,0,3.41,9.22,1.3,1.3,0,0,0,.18.23Z"/></g><path class="cls-1" d="M518.71,501.55c0,.78-7.1,1.41-15.86,1.41S487,502.33,487,501.55s7.1-1.4,15.86-1.4,15.86.63,15.86,1.4Z"/><path class="cls-14" d="M487.68,502c2-.58,8-1,15.17-1s13.2.42,15.18,1c.44-.13.68-.26.68-.41,0-.77-7.1-1.4-15.86-1.4s-15.86.63-15.86,1.4c0,.15.24.28.69.41Z"/><g class="cls-44"><polygon class="cls-13" points="521.42 499.96 521.42 511.02 522.37 511.02 522.37 499.96 521.42 499.96 521.42 499.96"/><polygon class="cls-13" points="518.97 511.02 519.92 511.02 519.92 499.96 518.97 499.96 518.97 511.02 518.97 511.02"/><polygon class="cls-13" points="516.17 511.02 517.12 511.02 517.12 499.96 516.17 499.96 516.17 511.02 516.17 511.02"/><polygon class="cls-13" points="512.69 511.02 513.63 511.02 513.63 499.96 512.69 499.96 512.69 511.02 512.69 511.02"/><polygon class="cls-13" points="508.85 511.02 509.8 511.02 509.8 499.96 508.85 499.96 508.85 511.02 508.85 511.02"/><polygon class="cls-13" points="504.67 511.02 505.62 511.02 505.62 499.96 504.67 499.96 504.67 511.02 504.67 511.02"/></g><path class="cls-16" d="M522.8,501.87c0,1.67-8.93,3-19.95,3s-20-1.36-20-3,8.93-3,20-3,19.95,1.36,19.95,3Z"/><path class="cls-1" d="M519.63,501.67c0,.77-7.1,1.4-15.86,1.4s-15.86-.63-15.86-1.4,7.1-1.41,15.86-1.41,15.86.63,15.86,1.41Z"/><path class="cls-13" d="M488.6,502.08c2-.58,8-1,15.17-1s13.2.42,15.18,1c.44-.13.68-.27.68-.41,0-.78-7.1-1.41-15.86-1.41s-15.86.63-15.86,1.41c0,.14.24.28.69.41Z"/><path class="cls-1" d="M525.69,584.52v4.82c0,1.68,8.93,3,19.95,3s20-1.35,20-3v-4.82Z"/><g class="cls-45"><path class="cls-13" d="M546,593.06H516.81a.79.79,0,0,1-.54-.23,2.42,2.42,0,0,1-.63-1.63v-.09s0-.07,0-.11v-5.33s0-.07,0-.11c0-1.08.55-1.95,1.17-1.95h25.61a21,21,0,0,0,3.4,9.22l.18.23Z"/></g><path class="cls-1" d="M561.5,584.11c0,.78-7.1,1.4-15.86,1.4s-15.86-.62-15.86-1.4,7.1-1.41,15.86-1.41,15.86.63,15.86,1.41Z"/><path class="cls-14" d="M530.46,584.52c2-.58,8-1,15.18-1s13.2.42,15.17,1c.45-.13.69-.27.69-.41,0-.78-7.1-1.41-15.86-1.41s-15.86.63-15.86,1.41c0,.14.24.28.68.41Z"/><g class="cls-46"><polygon class="cls-13" points="564.21 582.51 564.21 593.58 565.15 593.58 565.15 582.51 564.21 582.51 564.21 582.51"/><polygon class="cls-13" points="561.76 593.58 562.7 593.58 562.7 582.51 561.76 582.51 561.76 593.58 561.76 593.58"/><polygon class="cls-13" points="558.96 593.58 559.91 593.58 559.91 582.51 558.96 582.51 558.96 593.58 558.96 593.58"/><polygon class="cls-13" points="555.47 593.58 556.42 593.58 556.42 582.51 555.47 582.51 555.47 593.58 555.47 593.58"/><polygon class="cls-13" points="551.64 593.58 552.58 593.58 552.58 582.51 551.64 582.51 551.64 593.58 551.64 593.58"/><polygon class="cls-13" points="547.46 593.58 548.4 593.58 548.4 582.51 547.46 582.51 547.46 593.58 547.46 593.58"/></g><path class="cls-16" d="M565.59,584.43c0,1.67-8.93,3-20,3s-19.95-1.36-19.95-3,8.93-3,19.95-3,20,1.35,20,3Z"/><path class="cls-1" d="M562.42,584.22c0,.78-7.1,1.41-15.86,1.41s-15.86-.63-15.86-1.41,7.1-1.4,15.86-1.4,15.86.63,15.86,1.4Z"/><path class="cls-13" d="M531.38,584.63c2-.57,8-1,15.18-1s13.2.42,15.18,1c.44-.13.68-.26.68-.41,0-.77-7.1-1.4-15.86-1.4s-15.86.63-15.86,1.4c0,.15.24.28.68.41Z"/><path class="cls-1" d="M528.51,578.88v4.83c0,1.67,8.94,3,20,3s19.95-1.36,19.95-3v-4.83Z"/><g class="cls-47"><path class="cls-13" d="M548.83,587.42H519.64a.82.82,0,0,1-.55-.23,2.44,2.44,0,0,1-.63-1.62v-5.64c0-1.08.55-1.95,1.18-1.95h25.6a20.81,20.81,0,0,0,3.41,9.21l.18.23Z"/></g><path class="cls-1" d="M564.32,578.47c0,.78-7.1,1.41-15.86,1.41s-15.86-.63-15.86-1.41,7.1-1.4,15.86-1.4,15.86.63,15.86,1.4Z"/><path class="cls-14" d="M533.29,578.88c2-.57,8-1,15.17-1s13.2.42,15.18,1c.44-.13.68-.26.68-.41,0-.77-7.1-1.4-15.86-1.4s-15.86.63-15.86,1.4c0,.15.24.28.69.41Z"/><g class="cls-48"><polygon class="cls-13" points="567.03 576.88 567.03 587.94 567.98 587.94 567.98 576.88 567.03 576.88 567.03 576.88"/><polygon class="cls-13" points="564.58 587.94 565.53 587.94 565.53 576.88 564.58 576.88 564.58 587.94 564.58 587.94"/><polygon class="cls-13" points="561.79 587.94 562.73 587.94 562.73 576.88 561.79 576.88 561.79 587.94 561.79 587.94"/><polygon class="cls-13" points="558.3 587.94 559.24 587.94 559.24 576.88 558.3 576.88 558.3 587.94 558.3 587.94"/><polygon class="cls-13" points="554.46 587.94 555.41 587.94 555.41 576.88 554.46 576.88 554.46 587.94 554.46 587.94"/><polygon class="cls-13" points="550.28 587.94 551.23 587.94 551.23 576.88 550.28 576.88 550.28 587.94 550.28 587.94"/></g><path class="cls-16" d="M568.41,578.79c0,1.68-8.93,3-19.95,3s-20-1.35-20-3,8.94-3,20-3,19.95,1.36,19.95,3Z"/><path class="cls-1" d="M565.24,578.59c0,.78-7.1,1.41-15.86,1.41s-15.86-.63-15.86-1.41,7.1-1.41,15.86-1.41,15.86.63,15.86,1.41Z"/><path class="cls-13" d="M534.21,579c2-.58,8-1,15.17-1s13.2.42,15.18,1c.44-.13.68-.27.68-.41,0-.78-7.1-1.41-15.86-1.41s-15.86.63-15.86,1.41c0,.14.24.28.69.41Z"/><path class="cls-1" d="M526.17,573v4.83c0,1.67,8.93,3,20,3s20-1.36,20-3V573Z"/><g class="cls-49"><path class="cls-13" d="M546.48,581.53H517.29a.81.81,0,0,1-.54-.24,2.44,2.44,0,0,1-.63-1.62V574c0-1.08.55-1.95,1.17-1.95H542.9a20.91,20.91,0,0,0,3.4,9.21l.18.24Z"/></g><path class="cls-1" d="M562,572.57c0,.78-7.1,1.41-15.86,1.41s-15.86-.63-15.86-1.41,7.1-1.4,15.86-1.4,15.86.63,15.86,1.4Z"/><path class="cls-14" d="M530.94,573c2-.57,8-1,15.18-1s13.2.42,15.18,1c.44-.13.68-.26.68-.41,0-.77-7.1-1.4-15.86-1.4s-15.86.63-15.86,1.4c0,.15.24.28.68.41Z"/><g class="cls-50"><polygon class="cls-13" points="564.69 570.98 564.69 582.04 565.63 582.04 565.63 570.98 564.69 570.98 564.69 570.98"/><polygon class="cls-13" points="562.24 582.04 563.18 582.04 563.18 570.98 562.24 570.98 562.24 582.04 562.24 582.04"/><polygon class="cls-13" points="559.44 582.04 560.39 582.04 560.39 570.98 559.44 570.98 559.44 582.04 559.44 582.04"/><polygon class="cls-13" points="555.96 582.04 556.9 582.04 556.9 570.98 555.96 570.98 555.96 582.04 555.96 582.04"/><polygon class="cls-13" points="552.12 582.04 553.06 582.04 553.06 570.98 552.12 570.98 552.12 582.04 552.12 582.04"/><polygon class="cls-13" points="547.94 582.04 548.88 582.04 548.88 570.98 547.94 570.98 547.94 582.04 547.94 582.04"/></g><path class="cls-16" d="M566.07,572.89c0,1.68-8.93,3-20,3s-20-1.35-20-3,8.93-3,20-3,20,1.36,20,3Z"/><path class="cls-1" d="M562.9,572.69c0,.78-7.1,1.41-15.86,1.41s-15.86-.63-15.86-1.41,7.1-1.41,15.86-1.41,15.86.63,15.86,1.41Z"/><path class="cls-13" d="M531.87,573.1c2-.58,8-1,15.17-1s13.2.42,15.18,1c.44-.13.68-.27.68-.41,0-.78-7.1-1.41-15.86-1.41s-15.86.63-15.86,1.41c0,.14.24.28.69.41Z"/><path class="cls-1" d="M525.69,567.27v4.83c0,1.67,8.93,3,19.95,3s20-1.36,20-3v-4.83Z"/><g class="cls-51"><path class="cls-13" d="M546,575.82H516.81a.81.81,0,0,1-.54-.24,2.38,2.38,0,0,1-.63-1.62v-.09s0-.07,0-.11v-5.33s0-.08,0-.11c0-1.08.55-2,1.17-2h25.61a20.91,20.91,0,0,0,3.4,9.21l.18.24Z"/></g><path class="cls-1" d="M561.5,566.87c0,.77-7.1,1.4-15.86,1.4s-15.86-.63-15.86-1.4,7.1-1.41,15.86-1.41,15.86.63,15.86,1.41Z"/><path class="cls-14" d="M530.46,567.27c2-.57,8-1,15.18-1s13.2.42,15.17,1c.45-.12.69-.26.69-.4,0-.78-7.1-1.41-15.86-1.41s-15.86.63-15.86,1.41c0,.14.24.28.68.4Z"/><g class="cls-52"><polygon class="cls-13" points="564.21 565.27 564.21 576.33 565.15 576.33 565.15 565.27 564.21 565.27 564.21 565.27"/><polygon class="cls-13" points="561.76 576.33 562.7 576.33 562.7 565.27 561.76 565.27 561.76 576.33 561.76 576.33"/><polygon class="cls-13" points="558.96 576.33 559.91 576.33 559.91 565.27 558.96 565.27 558.96 576.33 558.96 576.33"/><polygon class="cls-13" points="555.47 576.33 556.42 576.33 556.42 565.27 555.47 565.27 555.47 576.33 555.47 576.33"/><polygon class="cls-13" points="551.64 576.33 552.58 576.33 552.58 565.27 551.64 565.27 551.64 576.33 551.64 576.33"/><polygon class="cls-13" points="547.46 576.33 548.4 576.33 548.4 565.27 547.46 565.27 547.46 576.33 547.46 576.33"/></g><path class="cls-16" d="M565.59,567.18c0,1.68-8.93,3-20,3s-19.95-1.35-19.95-3,8.93-3,19.95-3,20,1.35,20,3Z"/><path class="cls-1" d="M562.42,567c0,.78-7.1,1.41-15.86,1.41s-15.86-.63-15.86-1.41,7.1-1.4,15.86-1.4,15.86.63,15.86,1.4Z"/><path class="cls-13" d="M531.38,567.39c2-.58,8-1,15.18-1s13.2.42,15.18,1c.44-.13.68-.27.68-.41,0-.77-7.1-1.4-15.86-1.4s-15.86.63-15.86,1.4c0,.14.24.28.68.41Z"/><path class="cls-1" d="M528.51,561.64v4.83c0,1.67,8.94,3,20,3s19.95-1.35,19.95-3v-4.83Z"/><g class="cls-53"><path class="cls-13" d="M548.83,570.18H519.64a.82.82,0,0,1-.55-.23,2.47,2.47,0,0,1-.63-1.63v-5.64c0-1.08.55-1.95,1.18-1.95h25.6a20.85,20.85,0,0,0,3.41,9.22l.18.23Z"/></g><path class="cls-1" d="M564.32,561.23c0,.78-7.1,1.41-15.86,1.41s-15.86-.63-15.86-1.41,7.1-1.4,15.86-1.4,15.86.62,15.86,1.4Z"/><path class="cls-14" d="M533.29,561.64c2-.58,8-1,15.17-1s13.2.42,15.18,1c.44-.13.68-.27.68-.41,0-.77-7.1-1.4-15.86-1.4s-15.86.63-15.86,1.4c0,.14.24.28.69.41Z"/><g class="cls-54"><polygon class="cls-13" points="567.03 559.64 567.03 570.7 567.98 570.7 567.98 559.64 567.03 559.64 567.03 559.64"/><polygon class="cls-13" points="564.58 570.7 565.53 570.7 565.53 559.64 564.58 559.64 564.58 570.7 564.58 570.7"/><polygon class="cls-13" points="561.79 570.7 562.73 570.7 562.73 559.64 561.79 559.64 561.79 570.7 561.79 570.7"/><polygon class="cls-13" points="558.3 570.7 559.24 570.7 559.24 559.64 558.3 559.64 558.3 570.7 558.3 570.7"/><polygon class="cls-13" points="554.46 570.7 555.41 570.7 555.41 559.64 554.46 559.64 554.46 570.7 554.46 570.7"/><polygon class="cls-13" points="550.28 570.7 551.23 570.7 551.23 559.64 550.28 559.64 550.28 570.7 550.28 570.7"/></g><path class="cls-16" d="M568.41,561.55c0,1.67-8.93,3-19.95,3s-20-1.36-20-3,8.94-3,20-3,19.95,1.36,19.95,3Z"/><path class="cls-1" d="M565.24,561.35c0,.77-7.1,1.4-15.86,1.4s-15.86-.63-15.86-1.4,7.1-1.41,15.86-1.41,15.86.63,15.86,1.41Z"/><path class="cls-13" d="M534.21,561.76c2-.58,8-1,15.17-1s13.2.42,15.18,1c.44-.13.68-.27.68-.41,0-.78-7.1-1.41-15.86-1.41s-15.86.63-15.86,1.41c0,.14.24.28.69.41Z"/><path class="cls-1" d="M526.17,555.74v4.83c0,1.67,8.93,3,20,3s20-1.35,20-3v-4.83Z"/><g class="cls-55"><path class="cls-13" d="M546.48,564.28H517.29a.79.79,0,0,1-.54-.23,2.47,2.47,0,0,1-.63-1.63v-5.64c0-1.08.55-1.95,1.17-1.95H542.9a21,21,0,0,0,3.4,9.22l.18.23Z"/></g><path class="cls-1" d="M562,555.33c0,.78-7.1,1.41-15.86,1.41s-15.86-.63-15.86-1.41,7.1-1.4,15.86-1.4,15.86.63,15.86,1.4Z"/><path class="cls-14" d="M530.94,555.74c2-.58,8-1,15.18-1s13.2.42,15.18,1c.44-.13.68-.27.68-.41,0-.77-7.1-1.4-15.86-1.4s-15.86.63-15.86,1.4c0,.14.24.28.68.41Z"/><g class="cls-56"><polygon class="cls-13" points="564.69 553.74 564.69 564.8 565.63 564.8 565.63 553.74 564.69 553.74 564.69 553.74"/><polygon class="cls-13" points="562.24 564.8 563.18 564.8 563.18 553.74 562.24 553.74 562.24 564.8 562.24 564.8"/><polygon class="cls-13" points="559.44 564.8 560.39 564.8 560.39 553.74 559.44 553.74 559.44 564.8 559.44 564.8"/><polygon class="cls-13" points="555.96 564.8 556.9 564.8 556.9 553.74 555.96 553.74 555.96 564.8 555.96 564.8"/><polygon class="cls-13" points="552.12 564.8 553.06 564.8 553.06 553.74 552.12 553.74 552.12 564.8 552.12 564.8"/><polygon class="cls-13" points="547.94 564.8 548.88 564.8 548.88 553.74 547.94 553.74 547.94 564.8 547.94 564.8"/></g><path class="cls-16" d="M566.07,555.65c0,1.67-8.93,3-20,3s-20-1.36-20-3,8.93-3,20-3,20,1.36,20,3Z"/><path class="cls-1" d="M562.9,555.45c0,.77-7.1,1.4-15.86,1.4s-15.86-.63-15.86-1.4S538.28,554,547,554s15.86.63,15.86,1.41Z"/><path class="cls-13" d="M531.87,555.86c2-.58,8-1,15.17-1s13.2.42,15.18,1c.44-.13.68-.27.68-.41,0-.78-7.1-1.41-15.86-1.41s-15.86.63-15.86,1.41c0,.14.24.28.69.41Z"/><path class="cls-16" d="M568.41,564.75a28.53,28.53,0,1,1,28.53,28.53,28.53,28.53,0,0,1-28.53-28.53Z"/><path class="cls-57" d="M596.94,540.65a24.44,24.44,0,1,0,24.44,24.44,24.46,24.46,0,0,0-24.44-24.44Zm0,50.43a26,26,0,1,1,18.38-7.62,25.83,25.83,0,0,1-18.38,7.62Z"/><path class="cls-57" d="M600.52,572.63a4.38,4.38,0,0,0-.07-1.51,3.15,3.15,0,0,0-.63-1.25,6,6,0,0,0-1.28-1.13,15.58,15.58,0,0,0-2-1.11c-1.35-.66-2.56-1.33-3.65-2a13.45,13.45,0,0,1-2.73-2.22,7.74,7.74,0,0,1-1.61-2.71,8.59,8.59,0,0,1,.69-6.5,7.3,7.3,0,0,1,2-2.23,9,9,0,0,1,2.88-1.38,11.8,11.8,0,0,1,3.6-.41l.51-4.29,3.45.41-.52,4.35a10.46,10.46,0,0,1,3.25,1.38,8.16,8.16,0,0,1,3.63,5.21,10.87,10.87,0,0,1,.14,3.68l-6.23-.74a5.27,5.27,0,0,0-.64-3.72,3.64,3.64,0,0,0-2.71-1.53,4.69,4.69,0,0,0-1.7.07,3.2,3.2,0,0,0-1.24.61,2.81,2.81,0,0,0-.8,1,4.22,4.22,0,0,0-.38,1.35,4.12,4.12,0,0,0,.05,1.37,3,3,0,0,0,.61,1.2,6.43,6.43,0,0,0,1.29,1.13,19.49,19.49,0,0,0,2.06,1.18c1.33.69,2.53,1.37,3.61,2.06a13.12,13.12,0,0,1,2.72,2.24,7.36,7.36,0,0,1,1.89,6.16,7.92,7.92,0,0,1-1,3.09,7.4,7.4,0,0,1-2,2.22,8.86,8.86,0,0,1-2.9,1.32,13.46,13.46,0,0,1-3.62.38l-.47,4-3.43-.4.47-4a14.67,14.67,0,0,1-3.37-1.19,9.13,9.13,0,0,1-2.75-2.08,8.17,8.17,0,0,1-1.73-3.1,10.08,10.08,0,0,1-.29-4.22l6.23.74a6.06,6.06,0,0,0,.12,2.42,3.79,3.79,0,0,0,2.31,2.63,6.55,6.55,0,0,0,1.7.44,5.65,5.65,0,0,0,1.81-.05,3.61,3.61,0,0,0,1.37-.57,3,3,0,0,0,.9-1,3.52,3.52,0,0,0,.43-1.34Z"/><path class="cls-58" d="M467.4,630.71H446.11a2.37,2.37,0,0,1-2.37-2.36V613h26v15.38a2.36,2.36,0,0,1-2.36,2.36Z"/><path class="cls-58" d="M661.4,630.71H640.11a2.37,2.37,0,0,1-2.37-2.36V613h26v15.38a2.37,2.37,0,0,1-2.37,2.36Z"/><path class="cls-59" d="M652.32,430.7V387.38h0V430.7m0-43.34h0m0,0h0m0,0h0"/><path class="cls-6" d="M633.89,444.42a17.21,17.21,0,1,0-17.2,17.21,17.2,17.2,0,0,0,17.2-17.21Z"/><path class="cls-3" d="M627.17,445.26a10.49,10.49,0,1,0-10.48,10.48,10.49,10.49,0,0,0,10.48-10.48Z"/><path class="cls-60" d="M616.69,486.12h0a6.83,6.83,0,0,1-6.84-6.83V446.43a6.84,6.84,0,1,1,13.67,0v32.86a6.83,6.83,0,0,1-6.83,6.83Z"/><path class="cls-3" d="M469.65,438h-18.4V423.28h18.4a7.35,7.35,0,0,1,7.36,7.35h0a7.36,7.36,0,0,1-7.36,7.36Z"/><polygon class="cls-3" points="459.66 438 451.25 438 451.25 400.67 459.66 400.67 459.66 438 459.66 438"/><path class="cls-3" d="M469.65,539.2h-18.4v14.73h18.4a7.36,7.36,0,0,0,7.36-7.36h0a7.36,7.36,0,0,0-7.36-7.36Z"/><polygon class="cls-3" points="459.66 539.21 451.25 539.21 451.25 576.53 459.66 576.53 459.66 539.21 459.66 539.21"/><path class="cls-6" d="M536.67,451.15a24.45,24.45,0,1,0-24.45,24.44,24.45,24.45,0,0,0,24.45-24.44Z"/><path class="cls-3" d="M529.72,451.15a17.5,17.5,0,1,0-17.5,17.49,17.49,17.49,0,0,0,17.5-17.49Z"/><path class="cls-60" d="M522.79,451.15a10.57,10.57,0,1,0-10.57,10.56,10.57,10.57,0,0,0,10.57-10.56Z"/><path class="cls-60" d="M512.22,436.56h0a.57.57,0,0,1-.57-.57v-2.85a.57.57,0,0,1,.57-.57.56.56,0,0,1,.57.57V436a.56.56,0,0,1-.57.57Z"/><path class="cls-60" d="M501.9,440.77h0a.57.57,0,0,1-.8,0l-2-2a.57.57,0,0,1,.81-.81l2,2a.56.56,0,0,1,0,.81Z"/><path class="cls-60" d="M497.58,451h0a.56.56,0,0,1-.57.57h-2.85a.56.56,0,0,1-.57-.57.57.57,0,0,1,.57-.57H497a.57.57,0,0,1,.57.57Z"/><path class="cls-60" d="M501.79,461.36h0a.58.58,0,0,1,0,.81l-2,2a.57.57,0,0,1-.8,0,.56.56,0,0,1,0-.81l2-2a.58.58,0,0,1,.81,0Z"/><path class="cls-60" d="M522.38,461.48h0a.56.56,0,0,1,.81,0l2,2a.57.57,0,1,1-.81.81l-2-2a.57.57,0,0,1,0-.8Z"/><path class="cls-60" d="M526.7,451.2h0a.58.58,0,0,1,.57-.57h2.86a.57.57,0,0,1,.57.57.56.56,0,0,1-.57.57h-2.86a.57.57,0,0,1-.57-.57Z"/><path class="cls-60" d="M512.36,470.05h0a.57.57,0,0,1-.57-.57v-2.85a.58.58,0,0,1,.57-.58.57.57,0,0,1,.57.58v2.85a.56.56,0,0,1-.57.57Z"/><path class="cls-61" d="M736.53,428.46a16,16,0,0,1,3.29-2.31,22.52,22.52,0,0,1,3.71-1.59,19.64,19.64,0,0,1,4-.88,15.11,15.11,0,0,1,4,0c-1.31.34-2.59.59-3.85.95s-2.51.69-3.74,1.11c-2.48.79-4.89,1.74-7.39,2.7Z"/><path class="cls-62" d="M742,389.08s5.91.24,9.48,3.69-3.47,3.72-3.47,3.72Z"/><path class="cls-62" d="M748,396.49l-6-7.41s2.66-1.4,9.48,3.69"/><path class="cls-62" d="M687.28,415s-.21-8.74,5.32-11.74l5.53-3Z"/><path class="cls-3" d="M708.71,628.73a7.54,7.54,0,0,1,2-5.94,109.49,109.49,0,0,0,6.71-8.66l1.11-10,11.71.15c.18,2.28.23,9.2.15,9.85-.18,1.47-.8,2.66-.32,5.79s-1.66,9.07-2.26,10.21S725,633.4,717,633.06s-8.14-3.6-8.26-4.33"/><g class="cls-63"><path class="cls-64" d="M726.63,617.91a21.37,21.37,0,0,0-.14-4.18l-.3-1.13.3,1.13,4.07-.53-.11,4.73s-2.71,1.33-3.82,0"/><path class="cls-3" d="M799,640a7.52,7.52,0,0,0-2-5.92,42.85,42.85,0,0,1-4.85-7.11l-3-11.49L777,615.6c-.18,2.27-.55,4.83-.47,5.48.18,1.46,1.6,7,1.12,10.1s1.66,9,2.25,10.18,2.84,3.25,10.83,2.92,8.12-3.59,8.23-4.32"/><path class="cls-64" d="M789.15,644.32c-6.69,0-8.67-1.91-9.22-3a27.63,27.63,0,0,1-2.31-9.17,6.53,6.53,0,0,1,.06-1,9.21,9.21,0,0,0,.1-1.44c0-.38,0-.78,0-1.19,1.11-.37,2.27-.69,3.42-1a13.06,13.06,0,0,1,0,2.95c-.47,3.12,1.66,9,2.25,10.17s2.53,3,9.22,3c.51,0,1,0,1.61,0s.88,0,1.28-.08a17.65,17.65,0,0,1-4.73.74h0c-.56,0-1.1,0-1.61,0"/><path class="cls-65" d="M790.47,640.17c-6.93.25-10.18-.84-11.69-1.89a23.76,23.76,0,0,0,1.15,3.08c.59,1.13,2.84,3.25,10.83,2.92s8.12-3.59,8.23-4.32a7,7,0,0,0-.06-1.94c-1.17,1-3.54,2-8.46,2.15Z"/></g><path class="cls-4" d="M733.63,599.3s-3,6.55-3.07,8c0,.93.1,5.26.19,8.34.06,1.82.1,3.19.1,3.19s1.83,2.69,10.28,2.45,10.38.49,11.1-1,.24-5.65-4.35-7.36-2.33-7.45-2.33-7.45-4.43.49-11.92-6.21Z"/><g class="cls-66"><path class="cls-64" d="M737.8,602.37s-2,13.62,1.74,16l3.08,5s-10.89-.57-11.77-4.51h0l-1.33-13.36,3.4-7.24,5.77,4.87"/><path class="cls-65" d="M730.75,615.66s7.07,2.15,10.78,2.1c0,0,8.9.23,11.52-1.31l1.19,6.4-9.09,2.24s-14.13-4-14.59-5.27l.19-4.16"/></g><path class="cls-64" d="M728.1,629.88c.25-.58.62-1.57,1-2.74a10.66,10.66,0,0,1-4.22,1.5c.83-2.09,2.26-6.67,1.86-9.28a9.35,9.35,0,0,1-.1-1.45,8.14,8.14,0,0,0,1.47.15,4,4,0,0,0,1.82-.46c0,.3.17.66.17.95a9.7,9.7,0,0,0,.1,1.47,6.07,6.07,0,0,1,.07,1,28,28,0,0,1-2.16,8.87"/><path class="cls-6" d="M756.82,461.6c-20.05,6.28-48.32,4.11-48.32,4.11s-1.61,57.46,0,74.85c0,0-1.31,2.54,4.82,74.54,0,0,11.29.64,17.09-1,0,0,1.29-57,1.77-71.51s4.35-56.05,4.35-56.05l15,51.54s-5.64,7.41-9.18,24.16-8.7,37.37-8.7,37.37,11.22,9,15.73,8.07c0,0,22-61.55,24.21-70.89s-16.75-75.22-16.75-75.22Z"/><path class="cls-62" d="M707.54,443v35.82s33.58,2.93,53.64-3.14l-9.67-44L711.9,434l-4.36,9Z"/><path class="cls-67" d="M720.33,381c-.81-1-2.77-6.73-2.77-6.73l-.72.87a9,9,0,0,1-5.92,3.19c-2.54.24-5.51-1.28-7.81-2.47l.14.43s2.19,6.47,2.27,7.43,0,3.35,0,3.35,7.8,6,10.22,5.19,6.47-9.1,6.47-9.1-1.09-1.19-1.89-2.16Z"/><path class="cls-11" d="M718.44,376.71c-.5-1.68-.88-3.3-.88-3.3h0c-1.51,1.89-4.18,4.26-6.64,4.52s-5.56-.9-7.86-2.22h0s.79,2.33,1.4,4.33c1,3.26,8.58,1.33,12.91-2.35Z"/><path class="cls-67" d="M690.87,353.92s4.43,14.31,5.7,15.7c0,0,7.47,9.93,15.16,8.85s8.09-11.73,8.21-14.4-1.45-17.59-1.45-17.59-10.28,2.64-14.37-2.25c0,0-3.91,9.61-12.88,9.3Z"/><path class="cls-65" d="M717.3,629c7,.25,10.26-.84,11.79-1.89a23.66,23.66,0,0,1-1.16,3.08c-.6,1.13-2.87,3.27-10.93,2.94s-8.18-3.61-8.29-4.34a6.58,6.58,0,0,1,.06-1.94c1.18,1,3.57,2,8.53,2.15"/><path class="cls-11" d="M694.39,364.46l-.84-1.5.29.27c.16.4.36.81.55,1.23m-1.09-3.69a7.4,7.4,0,0,1-.33-.88,9.08,9.08,0,0,1-.23-4.08,6.22,6.22,0,0,1,4.45-4.78h0c2.34-.57,4.94.73,6.91,1.81a3.36,3.36,0,0,0,1.65.56,2,2,0,0,0,.43,0A4.66,4.66,0,0,0,707,353a53,53,0,0,0,7.28-4.09,6.17,6.17,0,0,1,1.88-.89,3.31,3.31,0,0,1,.62-.09,2.46,2.46,0,0,1,2.37,1.55c.62,1.18-.39,1-.23,2.28-.12-.35.18.34,0,0-.61-1.15-1.16-1-2.09-1-.2,0,.21-.05,0,0a6,6,0,0,0-1.88.89,52.61,52.61,0,0,1-7.29,4.08,4.4,4.4,0,0,1-.85.33l-.42.06a3.48,3.48,0,0,1-1.65-.57c-2-1.07-4.58-2.38-6.91-1.81h0a6.22,6.22,0,0,0-4.44,4.78,8.13,8.13,0,0,0-.11,2.2"/><path class="cls-3" d="M716.21,348.07a5.76,5.76,0,0,0-2.47,1.24,53.11,53.11,0,0,1-7.08,4.12,2.53,2.53,0,0,1-2.91-.05c-2-.95-4.62-2.09-6.93-1.43a5.92,5.92,0,0,0-4.1,4.8,8.41,8.41,0,0,0,.51,3.87,15.53,15.53,0,0,1,1.12,3.66,15.66,15.66,0,0,1-1.83-1.6c-.78-1.07-1.64-2.09-2.45-3.15a23.06,23.06,0,0,1-4.16-7.7,17.75,17.75,0,0,1,2.06-13.5,19.7,19.7,0,0,1,7.28-7.25c8.67-4.87,20-.5,24.37,7.55a22.18,22.18,0,0,1,2.61,10.4,17.06,17.06,0,0,1-.56,4,8.64,8.64,0,0,1-.77,1.93,18,18,0,0,0-1.36,2.47c-.23-2.6-.2-5.36-1.52-7.6-.64-1.1-.89-1.83-1.81-1.75"/><path class="cls-61" d="M707.54,448.25s38.94.41,46.89-3.28l-2.92-13.33-44,4.38Z"/><path class="cls-62" d="M688.73,405.81c-1.69,3.95-5.13,31.63-2.11,36s9.6,11.7,39.56-10.53l2.9,8.7s29.47-1.45,35.75-10.39S755.89,397,753,391.64s-31.39-9.19-31.39-9.19-2.73,6.32-6.84,7.61-9.19-3-9.19-3S690.42,401.87,688.73,405.81Z"/><polygon class="cls-67" points="729.04 439.95 714.33 439.27 726.14 431.25 729.04 439.95 729.04 439.95"/><path class="cls-61" d="M696.52,429a5.23,5.23,0,0,0-.82,1,111.25,111.25,0,0,1,20.24-3.76c2.77-.05,5.53-.14,8.31-.34l-.56-.06a116.32,116.32,0,0,0-14.33-.78c-1.24,0-2.49,0-3.73.11,0,0-3.91-16.77-9.93-20.14,0,0,5.71,15.22,6.14,20.67A12,12,0,0,0,696.52,429Z"/><path class="cls-61" d="M747,421.42a2,2,0,0,0-.06-.3l.18,0s-1.17-5.42-2.24-11.41c-.6-3.59-1.2-7.49-1.62-11-.07-.75-.11-1.43-.13-2,0,0-.45,12.24-.13,20.09a17.72,17.72,0,0,1-1.28,5.9A30.41,30.41,0,0,0,731.64,428l-2.6,2s18.9-8.41,22.47-8.87A27.41,27.41,0,0,0,747,421.42Z"/><path class="cls-60" d="M524.6,438.23h0a.55.55,0,0,1,0,.8l-2,2a.57.57,0,0,1-.8-.8l2-2a.55.55,0,0,1,.8,0Z"/><polygon class="cls-8" points="815.19 538.35 814.85 542.82 825.85 542.81 815.19 538.35"/><path class="cls-3" d="M840.4,387.19c-4.26-2.24-11.22-1.09-12.26-.87-13.23,2.75-19.76,14.82-20.2,20.38-.83,10.24-13.25,8.27-13.87,18.21-.78,12.6,24.63,12.91,33,18.46,5,3.33-21.58,14.89-21.58,14.89s19.49-20.63,32.89-22.51c15.73-2.21,12.9-42.85,2-48.56Z"/><path class="cls-58" d="M811.67,520.21a346.46,346.46,0,0,0-3.43-39.32c-2.46-15.35-4.67-24.19-4.69-24.28-.33-1.35-5-6.81-15.41-6.64s-9.41,7.33-9.41,7.33h0a2.25,2.25,0,0,0,.08.63c.1.37,9.64,37.77,9.23,86,0,.68-.08,1.85,0,2.63,0,0,24.1.67,24.1,0,.84-4.22.43-15.91-.44-26.39Z"/><path class="cls-68" d="M814.7,543.74c0,.67-.33,1.21-.74,1.21h0c-.4,0-.72-.55-.72-1.21H792.57c0,.67-.33,1.21-.73,1.21h0c-.41,0-.73-.57-.73-1.25a364.82,364.82,0,0,0-1.71-38.11c-2.75-28.41-7.82-47.39-7.89-47.65a2.38,2.38,0,0,1-.08-.64s-1-7.16,9.41-7.33,15.08,5.29,15.41,6.64c0,.07,1.27,5.07,2.93,14.07.56,3,1.15,6.39,1.76,10.21a346.68,346.68,0,0,1,3.43,39.32c.87,10.48,1.18,19.31.34,23.53Z"/><path class="cls-8" d="M814.7,543.74c0,.67-.33,1.21-.74,1.21h0c-.4,0-.72-.55-.72-1.21H792.57c0,.67-.33,1.21-.73,1.21h0c-.41,0-.73-.57-.73-1.25a364.82,364.82,0,0,0-1.71-38.11c3.41-18,16.61-31.81,19.78-34.91.56,3,1.15,6.39,1.76,10.21a346.68,346.68,0,0,1,3.43,39.32c.87,10.48,1.18,19.31.34,23.53Z"/><path class="cls-58" d="M798.5,542c-2.31,0-3.94.11-4.51.75h0c0-.64,0-1.82-.1-4.07-.06-2.64-.18-6.76-.35-11.4-.29-8.14-.81-19.32-1.58-26.43-.89-8.29-6.23-41.87-6.26-42a1.88,1.88,0,0,1-.05-.43,4.56,4.56,0,0,1,.9-3.08c1.12-1.44,3.13-2.2,6-2.24,7.61-.11,11.08,3.78,11.34,4.84.06.24,6,26.18,7,40.89.1,1.36.31,3.68.58,6.61,1,11.5,3.23,35.42,1,35.84a61,61,0,0,1-12,.72c-.7,0-1.37,0-2,0Zm-4.62,1.56.06,0s0,0,0-.11h0a.69.69,0,0,1,.16-.47c.66-.73,3.15-.7,6.33-.66a60.65,60.65,0,0,0,12-.71c2.22-.42.73-18.87-.85-36.13-.27-2.92-.48-5.24-.57-6.6-1-14.68-7-40.74-7-40.94-.26-1.1-3.83-5.17-11.56-5-2.93.05-5,.83-6.16,2.34a4.63,4.63,0,0,0-1,3.26,1.61,1.61,0,0,0,.06.49c0,.14,5.38,33.84,6.25,41.92,1.44,13.34,2,40.92,2,42.47v.13l.12.09Z"/><path class="cls-58" d="M783,631.05c9.38-51.34,7-82.85,7-83.25,0-.79,1.32-1.51,2-1.53s4-.23,4.35.44c.49.89,2.38,39.7-11.61,84.34Z"/><path class="cls-8" d="M858.59,631.05c-9.39-51.34-7-82.85-7-83.25,0-.79-1.32-1.51-2-1.53s-4-.23-4.36.44c-.49.89-2.38,39.7,11.61,84.34Z"/><path class="cls-69" d="M873.57,631.05c-9.39-51.34-7-82.85-7-83.25,0-.79-1.33-1.51-2.05-1.53s-4-.23-4.36.44c-.49.89-2.38,39.7,11.62,84.34Z"/><path class="cls-69" d="M798.07,631.05c9.39-51.34,7-82.85,7-83.25,0-.79,1.33-1.51,2.05-1.53s4-.23,4.35.44c.49.89,2.38,39.7-11.61,84.34Z"/><path class="cls-58" d="M870.6,547.58h-81a1.73,1.73,0,0,1-1.64-1.8v-1.16a1.73,1.73,0,0,1,1.64-1.8h81a1.73,1.73,0,0,1,1.65,1.8v1.16a1.73,1.73,0,0,1-1.65,1.8Z"/><path class="cls-67" d="M853.9,488.88s14.8,18.52,17.83,18.21,5-1.37,7.68,0c1.94,1,8.05,6.38,6.41,6s-4.61-.78-5.4-.86c-1.08-.11-2.81-.14-4-.36-.75-.14-3.44-.23-4.33-.26-3.9-.14-22.32-11.93-22.32-11.93l4.12-10.83Z"/><path class="cls-62" d="M878.91,471.58c.32.89,1.73,1.37,2.42,1.55a7.3,7.3,0,0,1-.5-2.26,1.77,1.77,0,0,0-1.6-.92c-.45.09-.71.5-.32,1.63Zm-.65-2.47a3.71,3.71,0,0,1,2.56-.05v-1.32a8.11,8.11,0,0,1,0-.86h12.44a8.11,8.11,0,0,1,.05.86v2.67c0,3.78-2.82,6.87-6.27,6.87a6,6,0,0,1-4.7-2.34h0s-3-.8-3.89-2-1.23-3.16-.24-3.83Z"/><path class="cls-70" d="M892.34,467.74v2.67c0,3.78-2.82,6.87-6.27,6.87a5.83,5.83,0,0,1-.84-.06,6.73,6.73,0,0,0,5.43-6.81v-2.67a8.11,8.11,0,0,0,0-.86h1.68a8.11,8.11,0,0,1,.05.86Z"/><path class="cls-67" d="M910.77,623.64c-.26,3.11,3.69,3.86,8.27,4.11s3.2,1.28,9.47,2.53,8.79-.64,9.25-1.57-2.52-2.11-5.62-3.57l-1.18-.55c-3.5-1.69-5.46-5.13-8.19-8.32-2.58-3-5-12.68-5-12.68l-8.53-2s2.4,8.7,3.23,12.42c.49,2.18-.23,4.62-.88,6.48a13.33,13.33,0,0,0-.78,3.15Z"/><path class="cls-3" d="M919,627.75c4.58.25,3.2,1.28,9.47,2.53s8.79-.64,9.25-1.57-2.52-2.11-5.62-3.57l0,.06a16.4,16.4,0,0,1-9.51.12c-4.15-1.23-8.17-4-11-4.83a13.33,13.33,0,0,0-.78,3.15c-.26,3.11,3.69,3.86,8.27,4.11Z"/><path class="cls-3" d="M835.25,505.87s47.27,2.33,57.93,9.7S921,608.85,921,608.85a6.56,6.56,0,0,1-3.42,1.2c-2.2.27-7-1.15-7-1.15s-24.59-38.43-26.32-48.12-1.31-18.32-5.25-18.55-53.12,6.55-60.56-7.8,16.86-28.56,16.86-28.56Z"/><path class="cls-67" d="M891.27,624c-.26,3.12,3.69,3.87,8.27,4.12s3.2,1.28,9.47,2.52,8.8-.63,9.25-1.56-2.51-2.11-5.62-3.57l-1.18-.56c-3.5-1.68-5.46-5.12-8.19-8.31-2.59-3-5-12.68-5-12.68l-8.53-2s2.4,8.7,3.23,12.42c.49,2.18-.24,4.62-.88,6.48a13.37,13.37,0,0,0-.78,3.14Z"/><path class="cls-3" d="M899.54,628.1c4.58.25,3.2,1.28,9.47,2.52s8.8-.63,9.25-1.56-2.51-2.11-5.62-3.57l0,.06a16.39,16.39,0,0,1-9.51.12c-4.15-1.23-8.16-3.95-11-4.83a13.37,13.37,0,0,0-.78,3.14c-.26,3.12,3.69,3.87,8.27,4.12Z"/><path class="cls-6" d="M811.47,508.45s55.8,1.25,66.2,9.08,24.45,94.39,24.45,94.39a6.59,6.59,0,0,1-3.46,1.06c-2.2.17-7-1.45-7-1.45s-23.21-39.45-24.59-49.21-.66-18.36-4.59-18.76-51.88,4.42-58.8-10.24a26.12,26.12,0,0,1,4.8-22.43Z"/><path class="cls-67" d="M801.86,436.64a.21.21,0,0,1,.06-.08,8.54,8.54,0,0,1,1.4-1.35h0c4.11-3.15,11.46-3.82,11.46-3.82h0s.8-.09,2.07-.15a45.24,45.24,0,0,0,2.41-12.7l.72.22,12.25,3.59s-.54,4.26-.79,8.29c-.06.89-.1,1.75-.12,2.57.36.14,8,1.32,9.63,3.27s5,14.94,5.81,17.25l-47.16.84s-1.19-13.5,2.23-17.92Z"/><path class="cls-65" d="M830.11,511.88l1-.37c3-1.29,6.14-1.65,9.63-2.28,4.45-.8,3.36-.36,4.88-1.42,2.15-1.48-1-1.35-3.81-5.57-1.24-1.85-1.34-4.7-1.86-5.93-.4-1-.36-3.07-.1-5.77h0c0-.5.11-1,.17-1.57a18.28,18.28,0,0,0,1.13,2.12,30.07,30.07,0,0,0,4,5.12c1.78,1.85,3.55,3.22,4.65,3.51a3.33,3.33,0,0,0,2.21-.22c2-.84,3.85-3.2,5.35-5.47.36-.54.71-1.06,1-1.58a7.9,7.9,0,0,1,1-1.7c.84-1-3.26-4.3-5-5.8s-7.59-31.22-7.59-31.22c-.83-2.31-4.14-15.3-5.8-17.25,0,0-6.47,8.64-14.85,8.15s-22.57-9.29-22.79-9.42a5.36,5.36,0,0,0-1.49,1.44c-3.41,4.42-2.23,17.92-2.23,17.92s6.52,31.49,6.52,34.66c0,5.83-2.34,14.73-2.34,24.6C806.34,517.39,822.89,514.89,830.11,511.88Z"/><path class="cls-11" d="M832.26,422.34s-.54,4.26-.79,8.29c-6.94-.72-10.19-7.93-11.46-11.88l12.25,3.59Z"/><path class="cls-67" d="M834.35,426.33s-16.45-.91-15.78-12.12-1-18.88,9.53-18.78S840.42,400,841,403.76s-2.38,22.52-6.68,22.57Z"/><path class="cls-8" d="M840,485.37a48.32,48.32,0,0,0,5.09,10.83c1.78,1.85,3.55,3.22,4.65,3.51a3.33,3.33,0,0,0,2.21-.22c2-.84,3.85-3.2,5.35-5.47.36-.54.69-1.07,1-1.58-5.22-4.6-15.13-15.11-16.16-29.49-1.4-19.64-2.21,23.32-2.13,22.42Z"/><path class="cls-8" d="M808.5,461.69s2.26,44.43,20.44,50.64c.11-.07,0,0,.07,0,3.34-1.53,8.23-2.47,11.72-3.1,4.45-.8,6.16-1,7.58-2.62.19-.45-1.35-2.44-5.09-4.82-1.88-1.2-2.76-4.25-3.28-5.48-.4-1-.36-3.07-.1-5.77h0c-17.64-7.14-31.34-28.84-31.34-28.84Z"/><path class="cls-67" d="M803.87,448.3c1.91-9.4,10.55-4,10.55-4,3-.74,25,38.28,26.74,39.17,1.49.75,21.75-5.7,27.9-7.68,1.59-1.37,7.17-6.11,8.15-6.19,1.14-.1,8.76,2.05,8.72,3.38s-1.84,3.27-4.65,3.76c-2.13.37-5.75,1.91-8.06,2.29h0s-22.36,16.69-31.88,18.72c-8.57,1.83-39.37-40-37.47-49.44Z"/><path class="cls-65" d="M854.56,480.2s4,6.11,2,10.64c-.37.89-6.28,4.11-15.68,7.59-6.61-.85-14.62-5.88-21.64-17-14.33-22.64-20.66-34.62-13-38.19s13.92,2,17.83,10.75c4.06,9.07,14.34,24.8,18,29,5-.25,12.53-2.85,12.53-2.85Z"/><path class="cls-3" d="M841.88,396.12s-10.56,9.1-17.75,9.84-9.9-1.58-9.9-1.58a27.86,27.86,0,0,0,6.78-9.19,5,5,0,0,1,4.16-3c5.14-.44,14.86-.65,16.71,3.9Z"/><path class="cls-3" d="M835.28,395.31s3.53,3.41,4.64,5.95,1.4,8.29.54,10.61c0,0,5.51-10.7,2.39-15.9-3.3-5.52-7.57-.66-7.57-.66Z"/><path class="cls-65" d="M816.88,431.23s7.36,6.86,14.47,2c0,0,8.24,1.47,9.64,3.27,0,0-8.17,11.94-16,9.08S803.87,438,803.35,435.2C803.35,435.2,807.48,431.64,816.88,431.23Z"/><path class="cls-7" d="M1003.6,569.73s12.9-7.23,6.88-17c0,0-4.81-6-10-7.57,0,0,2.76,14.63,0,15s-1.89-16.51-1.89-16.51-13.59-6.54-18.93-6c0,0,8.43,14.28,5.68,13.94s-12.21-14.8-12.21-14.8-13.94-2.58-16.18,5.68,1.38,12.39,3.45,12.9,15.31.35,15,2.07-9.3,4.47-14.29,2.92c0,0,5.51,13.59,12.74,12.91s9.46-5.16,13.93-5.51,7.74.86,5.51,2.07-9.81.39-13.42,3.46-6.54,5,.17,6.34,18.75.52,21.16-4.64l2.41-5.16Z"/><path class="cls-71" d="M963.34,545s36.13,11.7,40.26,24.78a27.51,27.51,0,0,0,3.44,12.56v2.57s-3.78-8.77-5.85-10c0,0,8.09-11.36-37.85-29.94Z"/><path class="cls-71" d="M1007,582.29a23.82,23.82,0,0,1,2.4,18.75l-1.44-.38s1.39-11.35-1.52-17,.56-1.32.56-1.32Z"/><path class="cls-7" d="M1024.13,559.76s-17-9.53-9.07-22.45c0,0,6.35-7.94,13.15-10,0,0-3.63,19.28,0,19.73s2.5-21.77,2.5-21.77,17.91-8.62,24.94-7.94c0,0-11.11,18.83-7.48,18.37s16.1-19.5,16.1-19.5,18.37-3.4,21.32,7.48-1.82,16.33-4.54,17-20.18.45-19.73,2.72,12.25,5.9,18.83,3.86c0,0-7.26,17.91-16.79,17s-12.47-6.8-18.37-7.25-10.2,1.13-7.25,2.72,12.92.52,17.68,4.57,8.62,6.54-.22,8.36-24.72.68-27.9-6.12l-3.17-6.81Z"/><path class="cls-71" d="M1077.2,527.1s-47.63,15.42-53.07,32.66a36.23,36.23,0,0,1-4.54,16.55v3.41s5-11.57,7.71-13.15c0,0-10.66-15,49.9-39.47Z"/><path class="cls-71" d="M1019.59,576.31s-7.34,11.16-3.16,24.73l1.89-.5s-1.83-15,2-22.48-.74-1.75-.74-1.75Z"/><path class="cls-71" d="M1023.55,630.49a33.32,33.32,0,0,0,33.32-33.32H990.24a33.31,33.31,0,0,0,33.31,33.32Z"/><path class="cls-72" d="M1031.75,630.23a33.3,33.3,0,0,1-37.45-33.06h8.28a33.31,33.31,0,0,0,29.17,33.06Z"/><path class="cls-73" d="M457.67,592.3a2.49,2.49,0,0,1-2.48-2.48V387.38a2.49,2.49,0,0,1,2.48-2.48H649.83a2.49,2.49,0,0,1,2.49,2.48V589.82a2.49,2.49,0,0,1-2.49,2.48H457.67"/><path class="cls-74" d="M490.72,592.3H457.67a2.49,2.49,0,0,1-2.48-2.48V581.7L651.41,385.48a2.46,2.46,0,0,1,.91,1.85h0v0h0V430.7L490.72,592.3"/><polyline class="cls-74" points="455.19 471.75 455.19 421.56 491.86 384.9 542.04 384.9 455.19 471.75"/></svg>