<svg id="Layer_1" data-name="Layer 1" xmlns="http://www.w3.org/2000/svg" xmlns:xlink="http://www.w3.org/1999/xlink" viewBox="0 0 279.01 279.01"><defs><style>.cls-1{fill:#479fb5;}.cls-2{clip-path:url(#clip-path);}.cls-3,.cls-8{fill:#83c0cc;}.cls-3{opacity:0.47;}.cls-4{clip-path:url(#clip-path-2);}.cls-5{fill:#fdc371;}.cls-6{fill:#d4e9ed;}.cls-7{fill:#17697a;}.cls-9{fill:#ffeab4;}.cls-10{fill:#faa52d;}.cls-11{clip-path:url(#clip-path-3);}</style><clipPath id="clip-path"><path class="cls-1" d="M-20,139.47A139.47,139.47,0,0,1-159.47,278.94,139.47,139.47,0,0,1-298.93,139.47,139.46,139.46,0,0,1-159.47,0,139.47,139.47,0,0,1-20,139.47Z"/></clipPath><clipPath id="clip-path-2"><path class="cls-1" d="M278.93,139.47A139.47,139.47,0,1,1,139.47,0,139.47,139.47,0,0,1,278.93,139.47Z"/></clipPath><clipPath id="clip-path-3"><path class="cls-1" d="M578.34,139.49A139.49,139.49,0,1,1,438.85,0,139.49,139.49,0,0,1,578.34,139.49Z"/></clipPath></defs><path class="cls-1" d="M-20,139.47A139.47,139.47,0,0,1-159.47,278.94,139.47,139.47,0,0,1-298.93,139.47,139.46,139.46,0,0,1-159.47,0,139.47,139.47,0,0,1-20,139.47Z"/><g class="cls-2"><polygon class="cls-3" points="6.72 -20.82 -364.72 349.18 83.57 392.12 6.72 -20.82"/></g><path class="cls-1" d="M278.93,139.47A139.47,139.47,0,1,1,139.47,0,139.47,139.47,0,0,1,278.93,139.47Z"/><g class="cls-4"><polygon class="cls-3" points="305.66 -20.82 -65.78 349.18 382.51 392.12 305.66 -20.82"/></g><path class="cls-5" d="M145.25,159.21H60.49V155.7h84.76v3.51m74.07-54.3h-4V60.7h4v44.21"/><polyline class="cls-6" points="213.26 153.62 54.61 153.62 54.61 56.2 213.26 56.2 213.26 153.62"/><polyline class="cls-7" points="213.26 153.62 213.26 151.55 56.68 151.55 56.68 58.27 211.19 58.27 211.19 153.62 213.26 153.62 213.26 151.55 213.26 153.62 215.34 153.62 215.34 54.13 52.54 54.13 52.54 155.69 215.34 155.69 215.34 153.62 213.26 153.62"/><polygon class="cls-7" points="213.26 65.06 54.61 65.06 54.61 56.2 213.26 56.2 213.26 65.06 213.26 65.06"/><polyline class="cls-5" points="254.55 183.82 145.25 183.82 145.25 159.21 219.32 159.21 219.32 104.91 254.55 104.91 254.55 112.08 254.55 183.82"/><polygon class="cls-6" points="249.71 179.06 140.4 179.06 140.4 100.15 249.71 100.15 249.71 179.06 249.71 179.06"/><polygon class="cls-7" points="249.71 179.06 249.71 176.99 142.48 176.99 142.48 102.22 247.63 102.22 247.63 179.06 249.71 179.06 249.71 176.99 249.71 179.06 251.78 179.06 251.78 98.08 138.33 98.08 138.33 181.13 251.78 181.13 251.78 179.06 249.71 179.06 249.71 179.06"/><polygon class="cls-7" points="249.71 107.33 140.4 107.33 140.4 100.15 249.71 100.15 249.71 107.33 249.71 107.33"/><polygon class="cls-8" points="112.68 80.27 66.41 80.27 66.41 76.22 112.68 76.22 112.68 80.27 112.68 80.27"/><polygon class="cls-8" points="112.68 94.88 66.41 94.88 66.41 90.82 112.68 90.82 112.68 94.88 112.68 94.88"/><polygon class="cls-8" points="112.68 109.48 66.41 109.48 66.41 105.43 112.68 105.43 112.68 109.48 112.68 109.48"/><polygon class="cls-8" points="112.68 124.09 66.41 124.09 66.41 120.03 112.68 120.03 112.68 124.09 112.68 124.09"/><polygon class="cls-8" points="235.97 119.83 198.69 119.83 198.69 116.56 235.97 116.56 235.97 119.83 235.97 119.83"/><polygon class="cls-8" points="235.97 131.59 198.69 131.59 198.69 128.32 235.97 128.32 235.97 131.59 235.97 131.59"/><polygon class="cls-8" points="235.97 143.35 198.69 143.35 198.69 140.08 235.97 140.08 235.97 143.35 235.97 143.35"/><polygon class="cls-8" points="235.97 155.12 198.69 155.12 198.69 151.85 235.97 151.85 235.97 155.12 235.97 155.12"/><path class="cls-9" d="M101.54,191.63V145.57a5.72,5.72,0,0,1,5.71-5.72h0a5.72,5.72,0,0,1,5.71,5.72v34.84a6.93,6.93,0,0,1,13.11-.41A7.08,7.08,0,0,1,139,183a5.94,5.94,0,0,1,11.5,2.09v33.15a11.2,11.2,0,0,1-11.2,11.2H139v18.75H104.28V229.47h-1.6a11.21,11.21,0,0,1-11.2-11.2V182.83c5.76,0,9,3.68,10.06,8.8Z"/><polygon class="cls-8" points="101.75 237.75 142.46 237.75 142.46 258.18 101.75 258.18 101.75 237.75 101.75 237.75"/><polygon class="cls-7" points="101.75 250.59 142.46 250.59 142.46 254.59 101.75 254.59 101.75 250.59 101.75 250.59"/><polygon class="cls-8" points="99.79 237.75 144.42 237.75 144.42 252.78 99.79 252.78 99.79 237.75 99.79 237.75"/><path class="cls-7" d="M136.48,244.94a3,3,0,1,0,3-3,3,3,0,0,0-3,3Z"/><rect class="cls-10" x="66.41" y="120.03" width="46.27" height="14.55"/><rect class="cls-10" x="198.69" y="151.43" width="37.27" height="11.72"/><path class="cls-1" d="M578.34,139.49A139.49,139.49,0,1,1,438.85,0,139.49,139.49,0,0,1,578.34,139.49Z"/><g class="cls-11"><polygon class="cls-3" points="605.06 -20.82 233.56 349.24 681.93 392.18 605.06 -20.82"/></g></svg>