<svg id="Layer_1" data-name="Layer 1" xmlns="http://www.w3.org/2000/svg" xmlns:xlink="http://www.w3.org/1999/xlink" viewBox="0 0 279.01 279.01"><defs><style>.cls-1{fill:#479fb5;}.cls-2{clip-path:url(#clip-path);}.cls-3,.cls-9{fill:#83c0cc;}.cls-3{opacity:0.47;}.cls-4{fill:#b7dae1;}.cls-5{fill:#47494c;}.cls-6{fill:#faa52d;}.cls-7{fill:#17697a;}.cls-8{fill:#308a99;}</style><clipPath id="clip-path"><path class="cls-1" d="M279,139.5A139.51,139.51,0,1,1,139.5,0,139.51,139.51,0,0,1,279,139.5Z"/></clipPath></defs><path class="cls-1" d="M279,139.5A139.51,139.51,0,1,1,139.5,0,139.51,139.51,0,0,1,279,139.5Z"/><g class="cls-2"><polygon class="cls-3" points="305.74 -20.82 -65.8 349.27 382.61 392.22 305.74 -20.82"/></g><path class="cls-4" d="M240.73,118.53a6.6,6.6,0,0,1,6.59,6.61L247,185a6.6,6.6,0,0,1-6.67,6.53l-94.23-.52a6.59,6.59,0,0,1-6.59-6.6l.33-59.91A6.61,6.61,0,0,1,146.5,118l94.23.52Z"/><polygon class="cls-5" points="247.2 146.05 139.72 145.46 139.81 129.65 247.29 130.25 247.2 146.05 247.2 146.05"/><polygon class="cls-6" points="201.08 168.83 150.53 168.55 150.57 161.61 201.12 161.89 201.08 168.83 201.08 168.83"/><polygon class="cls-6" points="238.05 183.71 207.68 183.54 207.84 155.21 238.21 155.38 238.05 183.71 238.05 183.71"/><path class="cls-7" d="M175.13,133.86H72.46a6,6,0,0,0-6,6V194.4a6,6,0,0,0,6,6H175.13a6,6,0,0,0,6-6V139.82a6,6,0,0,0-6-6Z"/><path class="cls-8" d="M169.18,139.5H66.51a6,6,0,0,0-6,6v54.59a6,6,0,0,0,6,5.95H169.18a6,6,0,0,0,5.95-5.95V145.46a6,6,0,0,0-5.95-6Z"/><path class="cls-9" d="M169,205.27a6,6,0,0,1-6,6H60.35a6,6,0,0,1-6-6V150.69a6,6,0,0,1,6-6H163a6,6,0,0,1,6,6v54.58Z"/><polygon class="cls-4" points="163.23 205.28 60.14 205.28 60.14 150.68 163.23 150.68 163.23 205.28 163.23 205.28"/><path class="cls-9" d="M134.06,178a22.38,22.38,0,1,1-22.38-22.75A22.57,22.57,0,0,1,134.06,178Z"/><path class="cls-4" d="M104.35,172.7c0-4.24,2.63-5.62,5.89-5.72v-2.55h2.83V167a20.62,20.62,0,0,1,5.15.89v3.79c-1.79-.16-5-.29-6.45-.29-1.72,0-2.56.12-2.56,1.76v.73c0,1.28.53,1.79,2.1,1.79h2.39c4.4,0,5.32,3.61,5.32,6v1.24c0,5-3,6.2-6,6.2v2.43h-2.83v-2.47a15.41,15.41,0,0,1-5.21-.9v-3.77c1.18.09,4.11.29,6.86.29,1.26,0,2.27-.29,2.27-1.58v-.86c0-1.06-.33-1.7-1.79-1.7h-2.3c-5.32,0-5.72-4.36-5.72-6V172.7Z"/><path class="cls-9" d="M70.06,148.81H57.41V160.4a10.28,10.28,0,0,0,2.73.37,10.09,10.09,0,0,0,10.09-10.09,10.49,10.49,0,0,0-.17-1.87Z"/><path class="cls-9" d="M165.86,148.81H153.31a10.49,10.49,0,0,0-.17,1.87,10.09,10.09,0,0,0,10.09,10.09,9.93,9.93,0,0,0,2.63-.35V148.81Z"/><path class="cls-9" d="M69.42,209.25a10.1,10.1,0,0,0-9.28-14.06,10.28,10.28,0,0,0-2.73.37v13.69Z"/><path class="cls-9" d="M165.86,195.53a10.36,10.36,0,0,0-2.63-.34A10.1,10.1,0,0,0,154,209.25h11.91V195.53Z"/><path class="cls-9" d="M82.22,178a6.47,6.47,0,1,0-6.46,6.46A6.46,6.46,0,0,0,82.22,178Z"/><path class="cls-9" d="M154.07,178a6.46,6.46,0,1,0-6.46,6.46,6.46,6.46,0,0,0,6.46-6.46Z"/></svg>