<svg id="Layer_1" data-name="Layer 1" xmlns="http://www.w3.org/2000/svg" xmlns:xlink="http://www.w3.org/1999/xlink" viewBox="0 0 279.01 279.01"><defs><style>.cls-1{fill:#479fb5;}.cls-2{clip-path:url(#clip-path);}.cls-12,.cls-13,.cls-3{fill:#83c0cc;}.cls-3{opacity:0.47;}.cls-4{clip-path:url(#clip-path-2);}.cls-5{fill:#a2c4d9;}.cls-6{fill:#17697a;}.cls-7{fill:#899eaa;}.cls-8{fill:#7d98a7;}.cls-9{fill:#dce4e7;}.cls-10{fill:#b7dae1;opacity:0.81;}.cls-11{fill:#acbbc7;}.cls-12{opacity:0.53;}</style><clipPath id="clip-path"><path class="cls-1" d="M-20,139.5A139.51,139.51,0,0,1-159.5,279,139.51,139.51,0,0,1-299,139.5,139.51,139.51,0,0,1-159.5,0,139.5,139.5,0,0,1-20,139.5Z"/></clipPath><clipPath id="clip-path-2"><path class="cls-1" d="M279,139.49A139.51,139.51,0,1,1,139.5,0,139.5,139.5,0,0,1,279,139.49Z"/></clipPath></defs><path class="cls-1" d="M-20,139.5A139.51,139.51,0,0,1-159.5,279,139.51,139.51,0,0,1-299,139.5,139.51,139.51,0,0,1-159.5,0,139.5,139.5,0,0,1-20,139.5Z"/><g class="cls-2"><polygon class="cls-3" points="6.73 -20.82 -364.81 349.27 83.6 392.22 6.73 -20.82"/></g><path class="cls-1" d="M279,139.49A139.51,139.51,0,1,1,139.5,0,139.5,139.5,0,0,1,279,139.49Z"/><g class="cls-4"><polygon class="cls-3" points="305.74 -20.82 -65.8 349.24 382.61 392.18 305.74 -20.82"/></g><path class="cls-5" d="M82.48,186.19c-.06-.1-.13-.21-.19-.33a7.47,7.47,0,0,1,.19-7.66v8"/><path class="cls-6" d="M190.42,211.85h-72.8a12.52,12.52,0,0,0,4.14-4.92c10.21-2.19,15.3-6.25,15.3-13.18h-17a12.42,12.42,0,0,0-19.12,0h-14a4.46,4.46,0,0,1-4.46-4.45v-3.11a7.12,7.12,0,0,0,6.06,3.3,7.29,7.29,0,0,0,3.87-1.11,7.21,7.21,0,0,0,2.31-10.14,7.61,7.61,0,0,0-6.26-3.34A6.8,6.8,0,0,0,84.75,176a7.22,7.22,0,0,0-2.27,2.23V93.88a4.46,4.46,0,0,1,4.46-4.46h73.51a7.44,7.44,0,0,0,3.57,3,6.89,6.89,0,0,0,2.63.52,7.21,7.21,0,0,0,6.17-3.5h37.53a4.46,4.46,0,0,1,4.46,4.46v45.19a29.34,29.34,0,1,0,0,49v1.28a4.46,4.46,0,0,1-4.46,4.45H160.23c0,7.32,5.68,11.43,17.08,13.53h8.53a4.58,4.58,0,0,1,4.58,4.57M114,156.12a7.55,7.55,0,0,0-4.83,1.76,7.45,7.45,0,0,0-.73,10.2,7,7,0,0,0,5.46,2.62,7.47,7.47,0,0,0,4.91-1.88,7.16,7.16,0,0,0,.55-10.4,7.41,7.41,0,0,0-5.36-2.3m21.81-22.81a7.11,7.11,0,0,0-5.62,2.65,7.42,7.42,0,0,0,1,10.16,7.1,7.1,0,0,0,4.7,1.76,7.33,7.33,0,0,0,4.5-13.08,7.69,7.69,0,0,0-4.55-1.49m17.81-26.18a7.26,7.26,0,0,0-3.7,13.55,6.87,6.87,0,0,0,3.67,1.06,7.37,7.37,0,0,0,6.35-3.81,7.17,7.17,0,0,0-2.93-10,7.47,7.47,0,0,0-3.39-.81M190,96.78a7.46,7.46,0,1,0,7.46,7.45A7.45,7.45,0,0,0,190,96.78"/><path class="cls-6" d="M198.63,192.88a29.34,29.34,0,1,1,16.18-53.81v49a29.22,29.22,0,0,1-16.18,4.86"/><path class="cls-6" d="M117.62,211.85H106.87a4.58,4.58,0,0,1,4.57-4.57H120l1.78-.35a12.52,12.52,0,0,1-4.14,4.92m2.44-18.1H100.94a12.42,12.42,0,0,1,19.12,0"/><path class="cls-7" d="M190,111.69a7.46,7.46,0,1,1,7.46-7.46,7.45,7.45,0,0,1-7.46,7.46"/><path class="cls-8" d="M166.65,92.92A6.89,6.89,0,0,1,164,92.4a7.44,7.44,0,0,1-3.57-3h12.37a7.21,7.21,0,0,1-6.17,3.5"/><path class="cls-8" d="M153.57,121.74a6.87,6.87,0,0,1-3.67-1.06A7.29,7.29,0,0,1,157,107.94a7.17,7.17,0,0,1,2.93,10,7.37,7.37,0,0,1-6.35,3.81"/><path class="cls-8" d="M135.84,147.88a7.1,7.1,0,0,1-4.7-1.76,7.42,7.42,0,0,1-1-10.16,7.11,7.11,0,0,1,5.62-2.65,7.69,7.69,0,0,1,4.55,1.49,7.33,7.33,0,0,1-4.5,13.08"/><path class="cls-8" d="M113.88,170.7a7,7,0,0,1-5.46-2.62,7.45,7.45,0,0,1,.73-10.2,7.55,7.55,0,0,1,4.83-1.76,7.41,7.41,0,0,1,5.36,2.3,7.16,7.16,0,0,1-.55,10.4,7.47,7.47,0,0,1-4.91,1.88"/><path class="cls-6" d="M88.54,189.49a7.12,7.12,0,0,1-6.06-3.3v-8A7.22,7.22,0,0,1,84.75,176a6.8,6.8,0,0,1,3.71-1.07,7.61,7.61,0,0,1,6.26,3.34,7.21,7.21,0,0,1-2.31,10.14,7.29,7.29,0,0,1-3.87,1.11"/><path class="cls-9" d="M205.41,188.82H82a4.46,4.46,0,0,1-4.45-4.46V88.94A4.45,4.45,0,0,1,82,84.49H205.41a4.46,4.46,0,0,1,4.46,4.45v95.42a4.46,4.46,0,0,1-4.46,4.46Z"/><path class="cls-10" d="M199.24,174.41H88.17a1,1,0,0,1-1-1V93.24a1,1,0,0,1,1-1H199.24a1,1,0,0,1,1,1v80.2a1,1,0,0,1-1,1Z"/><path class="cls-11" d="M155.29,188.82H132.12c0,7.31-5.68,11.43-17.08,13.52h57.33c-11.4-2.09-17.08-6.21-17.08-13.52Z"/><path class="cls-9" d="M185.48,206.92a4.57,4.57,0,0,0-4.57-4.58h-74.4a4.58,4.58,0,0,0-4.58,4.58Z"/><path class="cls-1" d="M143,140.21l-6.06-5.28a1.19,1.19,0,0,1,1.57-1.79l4.28,3.73,6.11-6.81a1.19,1.19,0,0,1,1.78,1.59L143,140.21Z"/><path class="cls-12" d="M124.44,134.66a19.27,19.27,0,0,1,37.38-6.33h0a19.08,19.08,0,0,1,1.12,5.52c0,.43,0,.86,0,1.3a19.27,19.27,0,0,1-38.53-.5Zm11,24.59a25.7,25.7,0,0,0,33.93-24c0-.58,0-1.15,0-1.72a25.23,25.23,0,0,0-1.5-7.39,25.69,25.69,0,1,0-32.39,33.12Z"/><path class="cls-6" d="M158.94,146.7l5.08,3.94a25.71,25.71,0,0,1-28.55,8.61l2.06-6.09a19.29,19.29,0,0,0,21.41-6.46Z"/><path class="cls-1" d="M167.86,126.13l-6,2.2h0a19.28,19.28,0,0,1-2.88,18.36l5.08,3.94a25.71,25.71,0,0,0,3.84-24.51Z"/><path class="cls-13" d="M128.25,114.38a25.71,25.71,0,0,1,39.61,11.75l-6,2.21h0A19.27,19.27,0,0,0,132,119.6l-3.77-5.22Z"/></svg>