<svg id="Layer_1" data-name="Layer 1" xmlns="http://www.w3.org/2000/svg" xmlns:xlink="http://www.w3.org/1999/xlink" viewBox="0 0 279.01 279.01"><defs><style>.cls-1{fill:#479fb5;}.cls-2{clip-path:url(#clip-path);}.cls-3,.cls-6{fill:#83c0cc;}.cls-3{opacity:0.47;}.cls-4{clip-path:url(#clip-path-2);}.cls-5{clip-path:url(#clip-path-3);}.cls-7,.cls-9{fill:#17697a;}.cls-8{fill:#b7dae1;}.cls-9{opacity:0;}.cls-10{fill:#ffdc8c;}.cls-11{fill:#ffeab4;}.cls-12{fill:#fdc371;}.cls-13{fill:#fee55a;}.cls-14{fill:#f8f28f;}.cls-15{fill:#7abebd;}.cls-16{fill:#e18226;}.cls-17{fill:#49999d;}.cls-18{fill:#77af98;}.cls-19{fill:#15786a;}.cls-20{fill:#308a99;}.cls-21{fill:#d4e9ed;}.cls-22,.cls-23{fill:#faa52d;}.cls-22{opacity:0.34;}</style><clipPath id="clip-path"><path class="cls-1" d="M578,139.5A139.5,139.5,0,1,1,438.51,0,139.51,139.51,0,0,1,578,139.5Z"/></clipPath><clipPath id="clip-path-2"><path class="cls-1" d="M-20.07,139.47A139.47,139.47,0,0,1-159.54,278.94,139.48,139.48,0,0,1-299,139.47,139.47,139.47,0,0,1-159.54,0,139.47,139.47,0,0,1-20.07,139.47Z"/></clipPath><clipPath id="clip-path-3"><path class="cls-1" d="M279.33,139.49A139.49,139.49,0,1,1,139.84,0,139.49,139.49,0,0,1,279.33,139.49Z"/></clipPath></defs><path class="cls-1" d="M578,139.5A139.5,139.5,0,1,1,438.51,0,139.51,139.51,0,0,1,578,139.5Z"/><g class="cls-2"><polygon class="cls-3" points="604.74 -20.82 233.21 349.27 681.61 392.22 604.74 -20.82"/></g><path class="cls-1" d="M-20.07,139.47A139.47,139.47,0,0,1-159.54,278.94,139.48,139.48,0,0,1-299,139.47,139.47,139.47,0,0,1-159.54,0,139.47,139.47,0,0,1-20.07,139.47Z"/><g class="cls-4"><polygon class="cls-3" points="6.65 -20.82 -364.79 349.18 83.5 392.12 6.65 -20.82"/></g><path class="cls-1" d="M279.33,139.49A139.49,139.49,0,1,1,139.84,0,139.49,139.49,0,0,1,279.33,139.49Z"/><g class="cls-5"><polygon class="cls-3" points="306.06 -20.82 -65.44 349.24 382.92 392.18 306.06 -20.82"/></g><polygon class="cls-6" points="28.43 118.34 28.43 151.98 11.54 151.98 11.54 118.34 28.43 118.34 28.43 118.34"/><polygon class="cls-7" points="17.81 118.34 17.81 151.98 14.51 151.98 14.51 118.34 17.81 118.34 17.81 118.34"/><polygon class="cls-6" points="28.43 116.72 28.43 153.6 16.01 153.6 16.01 116.72 28.43 116.72 28.43 116.72"/><path class="cls-7" d="M22.49,147A2.47,2.47,0,1,0,25,149.51,2.46,2.46,0,0,0,22.49,147Z"/><path class="cls-8" d="M175.82,139.75a41,41,0,1,1-41-41,41,41,0,0,1,41,41"/><path class="cls-9" d="M143.16,200.51l-7.4-7.13a1.56,1.56,0,0,0-2.65,1.13,1.57,1.57,0,0,1-1.68,1.56,47.58,47.58,0,0,1-41.58-31.26,1.57,1.57,0,0,0-1.47-1.05H81.1a1.57,1.57,0,0,0-1.5,2,57.59,57.59,0,0,0,52,40.34,1.57,1.57,0,0,1,1.47,1.56v1.07a1.56,1.56,0,0,0,2.65,1.12l7.4-7.12a1.56,1.56,0,0,0,0-2.25Z"/><path class="cls-9" d="M130.31,84.81l7.4,7.12a1.56,1.56,0,0,0,2.65-1.12A1.57,1.57,0,0,1,142,89.24a47.55,47.55,0,0,1,41.58,31.26,1.6,1.6,0,0,0,1.48,1h7.28a1.57,1.57,0,0,0,1.5-2,57.63,57.63,0,0,0-52-40.34,1.56,1.56,0,0,1-1.47-1.56V76.55a1.56,1.56,0,0,0-2.65-1.12l-7.4,7.12a1.57,1.57,0,0,0,0,2.26Z"/><path class="cls-7" d="M143.16,197.64l-7.4-7.13a1.57,1.57,0,0,0-2.65,1.13,1.57,1.57,0,0,1-1.68,1.56A47.58,47.58,0,0,1,89.85,162a1.56,1.56,0,0,0-1.47-1H81.1a1.56,1.56,0,0,0-1.5,2,57.61,57.61,0,0,0,52,40.35,1.56,1.56,0,0,1,1.47,1.56v1.06a1.57,1.57,0,0,0,2.65,1.13l7.4-7.13a1.56,1.56,0,0,0,0-2.25Z"/><path class="cls-7" d="M130.31,81.94l7.4,7.12a1.56,1.56,0,0,0,2.65-1.12A1.58,1.58,0,0,1,142,86.37a47.55,47.55,0,0,1,41.58,31.26,1.58,1.58,0,0,0,1.48,1.05h7.28a1.57,1.57,0,0,0,1.5-2,57.63,57.63,0,0,0-52-40.34,1.56,1.56,0,0,1-1.47-1.56V73.69a1.56,1.56,0,0,0-2.65-1.13l-7.4,7.13a1.56,1.56,0,0,0,0,2.25Z"/><polygon class="cls-6" points="257.78 195.34 250.79 195.34 250.79 167.13 257.78 167.13 257.78 195.34 257.78 195.34"/><polygon class="cls-7" points="252.86 195.34 250.79 195.34 250.79 167.13 252.86 167.13 252.86 195.34 252.86 195.34"/><path class="cls-10" d="M207.62,185.46H152.41a5.56,5.56,0,0,1-5.55-5.55,4.89,4.89,0,0,1,4.9-4.89h55.86v10.44"/><path class="cls-11" d="M226.07,166.28l-15.55-12.22a5.66,5.66,0,0,0-7.94.95,6.41,6.41,0,0,0,1.08,9l15.84,12.45a45,45,0,0,0,6.57-10.17Z"/><polyline class="cls-11" points="231.81 180.48 196.25 180.48 196.25 169.75 231.81 169.75 231.81 180.48"/><path class="cls-12" d="M202.17,190.7H147a5.54,5.54,0,0,1-5.54-5.54,4.89,4.89,0,0,1,4.89-4.89h55.87V190.7Z"/><path class="cls-10" d="M208.88,193H153.67a5.55,5.55,0,0,1-5.55-5.55,4.89,4.89,0,0,1,4.89-4.89h55.87V193Z"/><polyline class="cls-13" points="178.66 155.56 174.85 155.56 174.85 163.49 178.66 163.49 178.66 155.56"/><path class="cls-14" d="M169.69,135.16V132a17.86,17.86,0,0,0-17.86,17.86H155a14.69,14.69,0,0,1,14.67-14.67"/><path class="cls-15" d="M151.83,149.83h0M169.74,132h0m0,0h0"/><path class="cls-16" d="M155,149.56a14.69,14.69,0,0,1,14.67-14.4h0a14.86,14.86,0,0,1,4,.54,16.74,16.74,0,0,1,.47,2.56,14.77,14.77,0,0,0-4.44-.67,15,15,0,0,0-14.67,12"/><path class="cls-12" d="M155,149.83h-3.19A17.86,17.86,0,0,1,169.69,132v3.19A14.69,14.69,0,0,0,155,149.56v.27"/><path class="cls-11" d="M217.89,194.31H162.67a5.56,5.56,0,0,1-5.55-5.55,4.89,4.89,0,0,1,4.9-4.89h55.87v10.44Z"/><polygon class="cls-11" points="231.99 194.36 191.06 194.36 191.06 178.64 231.99 178.64 231.99 194.36 231.99 194.36"/><polygon class="cls-10" points="211.49 183.74 191.06 183.74 191.06 178.64 222.7 178.64 211.49 183.74 211.49 183.74"/><path class="cls-11" d="M235.82,194.36h-13V165.13h3.67a9.36,9.36,0,0,1,9.35,9.36v19.87Z"/><path class="cls-17" d="M245,194c0,.66-1.57,1.19-3.5,1.19S238,194.62,238,194s1.57-1.18,3.49-1.18,3.5.53,3.5,1.18Z"/><path class="cls-10" d="M56.73,140.35h55.21a5.56,5.56,0,0,0,5.55-5.55,4.89,4.89,0,0,0-4.89-4.89H56.73v10.44Z"/><path class="cls-11" d="M38.28,121.17,53.84,109a5.65,5.65,0,0,1,7.93,1,6.41,6.41,0,0,1-1.08,9L44.85,131.34a44.75,44.75,0,0,1-6.57-10.17"/><polyline class="cls-11" points="32.53 135.38 68.09 135.38 68.09 124.64 32.53 124.64 32.53 135.38"/><path class="cls-12" d="M62.18,145.6H117.4a5.55,5.55,0,0,0,5.54-5.55,4.89,4.89,0,0,0-4.89-4.89H62.18V145.6Z"/><path class="cls-10" d="M55.47,147.89h55.22a5.54,5.54,0,0,0,5.54-5.55,4.89,4.89,0,0,0-4.89-4.89H55.47v10.44Z"/><path class="cls-11" d="M46.47,149.2h55.21a5.56,5.56,0,0,0,5.55-5.55,4.89,4.89,0,0,0-4.9-4.89H46.47V149.2Z"/><polygon class="cls-11" points="32.36 149.25 73.29 149.25 73.29 133.53 32.36 133.53 32.36 149.25 32.36 149.25"/><polygon class="cls-10" points="52.86 138.63 73.29 138.63 73.29 133.53 41.65 133.53 52.86 138.63 52.86 138.63"/><path class="cls-11" d="M28.53,149.25h13V120H37.88a9.36,9.36,0,0,0-9.35,9.36v19.87Z"/><path class="cls-18" d="M120.13,96.37l-.27-.23h.27v.23"/><path class="cls-19" d="M95.71,98h-1a.79.79,0,0,1,.5-.16.82.82,0,0,1,.49.16"/><path class="cls-18" d="M113.16,104.82l-.27-.23h.27v.23"/><path class="cls-7" d="M123.48,90.66H61.35a3.61,3.61,0,0,0-3.61,3.6v33a3.61,3.61,0,0,0,3.61,3.6h62.13a3.61,3.61,0,0,0,3.6-3.6v-33a3.61,3.61,0,0,0-3.6-3.6Z"/><path class="cls-20" d="M119.88,94.07H57.74a3.61,3.61,0,0,0-3.6,3.6v33a3.61,3.61,0,0,0,3.6,3.6h62.14a3.61,3.61,0,0,0,3.6-3.6v-33a3.61,3.61,0,0,0-3.6-3.6Z"/><path class="cls-6" d="M119.75,133.87a3.61,3.61,0,0,1-3.6,3.61H54a3.61,3.61,0,0,1-3.61-3.61v-33A3.61,3.61,0,0,1,54,97.24h62.13a3.61,3.61,0,0,1,3.6,3.6v33Z"/><polygon class="cls-8" points="116.28 133.88 53.89 133.88 53.89 100.84 116.28 100.84 116.28 133.88 116.28 133.88"/><path class="cls-6" d="M98.62,117.36a13.54,13.54,0,1,1-13.54-13.77,13.66,13.66,0,0,1,13.54,13.77Z"/><path class="cls-8" d="M80.64,114.16c0-2.57,1.59-3.4,3.57-3.46v-1.54h1.71v1.55a12.73,12.73,0,0,1,3.12.54v2.29c-1.09-.09-3-.17-3.9-.17-1,0-1.56.07-1.56,1.06v.45c0,.77.33,1.08,1.28,1.08H86.3c2.67,0,3.22,2.18,3.22,3.63v.75c0,3-1.81,3.74-3.6,3.74v1.48H84.21v-1.5a9,9,0,0,1-3.15-.55v-2.27c.71.05,2.48.17,4.15.17.76,0,1.37-.18,1.37-1v-.53c0-.64-.2-1-1.08-1H84.11a3.26,3.26,0,0,1-3.47-3.62v-1.12Z"/><path class="cls-6" d="M59.89,99.7H52.24v7a6.44,6.44,0,0,0,1.65.22,6.09,6.09,0,0,0,6-7.24Z"/><path class="cls-6" d="M117.87,99.7h-7.59a6.09,6.09,0,0,0,6,7.24,6,6,0,0,0,1.59-.21v-7Z"/><path class="cls-6" d="M59.5,136.28a6,6,0,0,0,.5-2.4,6.11,6.11,0,0,0-6.11-6.11,6,6,0,0,0-1.65.23v8.28Z"/><path class="cls-6" d="M117.87,128a6,6,0,0,0-1.59-.21,6.1,6.1,0,0,0-6.11,6.11,6.2,6.2,0,0,0,.49,2.4h7.21V128Z"/><path class="cls-6" d="M67.25,117.36a3.91,3.91,0,1,0-3.91,3.91,3.92,3.92,0,0,0,3.91-3.91Z"/><path class="cls-6" d="M110.74,117.36a3.92,3.92,0,1,0-3.91,3.91,3.92,3.92,0,0,0,3.91-3.91Z"/><rect class="cls-21" x="232.53" y="166.83" width="18.27" height="30.9"/><polygon class="cls-12" points="208.52 172.76 178.5 172.76 178.5 158.25 208.52 158.25 208.52 172.76 208.52 172.76"/><polygon class="cls-22" points="208.52 172.76 193.51 172.76 193.51 158.25 208.52 158.25 208.52 172.76 208.52 172.76"/><polygon class="cls-23" points="208.52 160.19 178.5 160.19 178.5 158.25 208.52 158.25 208.52 160.19 208.52 160.19"/><polygon class="cls-23" points="208.52 164.7 178.5 164.7 178.5 162.77 208.52 162.77 208.52 164.7 208.52 164.7"/><polygon class="cls-23" points="208.52 169.22 178.5 169.22 178.5 167.28 208.52 167.28 208.52 169.22 208.52 169.22"/><polygon class="cls-23" points="208.52 173.73 178.5 173.73 178.5 171.79 208.52 171.79 208.52 173.73 208.52 173.73"/><polygon class="cls-12" points="177.76 181.79 147.73 181.79 147.73 167.28 177.76 167.28 177.76 181.79 177.76 181.79"/><polygon class="cls-22" points="177.76 181.79 162.75 181.79 162.75 167.28 177.76 167.28 177.76 181.79 177.76 181.79"/><polygon class="cls-23" points="177.76 169.22 147.73 169.22 147.73 167.28 177.76 167.28 177.76 169.22 177.76 169.22"/><polygon class="cls-23" points="177.76 173.73 147.73 173.73 147.73 171.79 177.76 171.79 177.76 173.73 177.76 173.73"/><polygon class="cls-23" points="177.76 178.24 147.73 178.24 147.73 176.31 177.76 176.31 177.76 178.24 177.76 178.24"/><polygon class="cls-23" points="177.76 182.76 147.73 182.76 147.73 180.82 177.76 180.82 177.76 182.76 177.76 182.76"/><path class="cls-23" d="M187.55,149.83A17.86,17.86,0,1,1,169.69,132a17.86,17.86,0,0,1,17.86,17.86"/><path class="cls-16" d="M169.69,137.59A15,15,0,0,1,184.6,151.2c0-.45.07-.91.07-1.37a15,15,0,0,0-30,0c0,.46,0,.92.07,1.37a15,15,0,0,1,14.91-13.61"/><path class="cls-12" d="M169.69,132a17.87,17.87,0,1,0,17.86,17.86A17.86,17.86,0,0,0,169.69,132m0,3.19A14.68,14.68,0,1,1,155,149.83a14.69,14.69,0,0,1,14.68-14.67"/><path class="cls-16" d="M171.17,148.81c2.52.94,3.42,1.89,3.42,3.86a3.48,3.48,0,0,1-3.28,3.68v1.76a.22.22,0,0,1-.23.23h-2.43a.22.22,0,0,1-.24-.23v-1.72a12.07,12.07,0,0,1-2.15-.51l-1.2-.38c-.16-.06-.2-.15-.16-.29l.72-2c.06-.15.15-.2.29-.15l1.27.38a8.63,8.63,0,0,0,2.65.44c1,0,1.81-.24,1.81-1.2,0-.54-.64-1-1.63-1.34l-1.52-.58c-2.49-.92-3.39-1.83-3.39-3.81a3.5,3.5,0,0,1,3.11-3.57v-1.81a.22.22,0,0,1,.24-.23h2.41a.22.22,0,0,1,.23.23v1.76a10.46,10.46,0,0,1,1.56.38l1.2.4a.21.21,0,0,1,.16.29l-.74,2a.2.2,0,0,1-.29.14l-1.07-.32a7.27,7.27,0,0,0-2.16-.38c-1,0-1.7.43-1.7,1.08s.56.93,1.59,1.31l1.53.56Z"/><polygon class="cls-12" points="208.52 181.79 178.5 181.79 178.5 167.28 208.52 167.28 208.52 181.79 208.52 181.79"/><polygon class="cls-22" points="208.52 181.79 193.51 181.79 193.51 167.28 208.52 167.28 208.52 181.79 208.52 181.79"/><polygon class="cls-23" points="208.52 169.22 178.5 169.22 178.5 167.28 208.52 167.28 208.52 169.22 208.52 169.22"/><polygon class="cls-23" points="208.52 173.73 178.5 173.73 178.5 171.79 208.52 171.79 208.52 173.73 208.52 173.73"/><polygon class="cls-23" points="208.52 178.24 178.5 178.24 178.5 176.31 208.52 176.31 208.52 178.24 208.52 178.24"/><polygon class="cls-23" points="208.52 182.76 178.5 182.76 178.5 180.82 208.52 180.82 208.52 182.76 208.52 182.76"/></svg>