<svg id="Layer_1" data-name="Layer 1" xmlns="http://www.w3.org/2000/svg" xmlns:xlink="http://www.w3.org/1999/xlink" viewBox="0 0 279.01 279.01"><defs><style>.cls-1{fill:#479fb5;}.cls-2{clip-path:url(#clip-path);}.cls-3{fill:#83c0cc;opacity:0.47;}.cls-4{clip-path:url(#clip-path-2);}.cls-5{fill:#2b5779;}.cls-6{fill:#d18d6e;}.cls-7{fill:#17697a;}.cls-8{fill:#ebe6e3;}.cls-9{fill:#394855;}.cls-10{fill:#5e6264;}.cls-11{fill:#b7dae1;}.cls-12{fill:#acbbc7;}</style><clipPath id="clip-path"><path class="cls-1" d="M279,139.5A139.51,139.51,0,1,1,139.5,0,139.51,139.51,0,0,1,279,139.5Z"/></clipPath><clipPath id="clip-path-2"><path class="cls-1" d="M-19.68,139.49A139.49,139.49,0,0,1-159.17,279,139.49,139.49,0,0,1-298.66,139.49,139.49,139.49,0,0,1-159.17,0,139.49,139.49,0,0,1-19.68,139.49Z"/></clipPath></defs><path class="cls-1" d="M279,139.5A139.51,139.51,0,1,1,139.5,0,139.51,139.51,0,0,1,279,139.5Z"/><g class="cls-2"><polygon class="cls-3" points="305.74 -20.82 -65.8 349.27 382.61 392.22 305.74 -20.82"/></g><path class="cls-1" d="M-19.68,139.49A139.49,139.49,0,0,1-159.17,279,139.49,139.49,0,0,1-298.66,139.49,139.49,139.49,0,0,1-159.17,0,139.49,139.49,0,0,1-19.68,139.49Z"/><g class="cls-4"><polygon class="cls-3" points="7.05 -20.82 -364.45 349.24 83.92 392.18 7.05 -20.82"/></g><path class="cls-5" d="M162.24,144.87a17.95,17.95,0,1,1-17.94,17.94,17.94,17.94,0,0,1,17.94-17.94Z"/><path class="cls-6" d="M139.44,117.05a9.44,9.44,0,0,1-6.29-2.36,9.93,9.93,0,0,1-1.3-13.61,9.5,9.5,0,0,1,7.52-3.55,10.38,10.38,0,0,1,6.11,2,9.82,9.82,0,0,1-6,17.52"/><path class="cls-6" d="M110,147.62a9.32,9.32,0,0,1-7.32-3.51,10,10,0,0,1,1-13.67,10.15,10.15,0,0,1,6.48-2.35,9.93,9.93,0,0,1,7.18,3.09,9.59,9.59,0,0,1-.74,13.93,10,10,0,0,1-6.57,2.51"/><path class="cls-7" d="M125.16,206.47h-33a11.1,11.1,0,0,1-10.69-8.1,26.79,26.79,0,0,1,43.7,8.1"/><path class="cls-7" d="M201.5,206.47H125.16a26.79,26.79,0,0,0-43.7-8.1,11,11,0,0,1-.42-3V166.68a8.29,8.29,0,0,0,4.82,1.53,8.39,8.39,0,0,0,4.45-1.27A8.27,8.27,0,0,0,93,155.3a8.74,8.74,0,0,0-7.18-3.84,7.82,7.82,0,0,0-4.26,1.24L81,153V86A11.11,11.11,0,0,1,92.15,74.91h64a8.28,8.28,0,0,0,.15,14.32,8,8,0,0,0,4.21,1.21,8.47,8.47,0,0,0,7.3-4.36A8.24,8.24,0,0,0,165,74.91h40.26a7.36,7.36,0,0,1,7.37,7.36v3.81a18.34,18.34,0,1,0,0,35.69v69.78A15,15,0,0,0,206,204a14.52,14.52,0,0,0,.07,1.48,11.15,11.15,0,0,1-4.55,1m-86.43-76.56a8.68,8.68,0,0,0-5.55,2,8.56,8.56,0,0,0-.84,11.71,8,8,0,0,0,6.27,3,8.51,8.51,0,0,0,5.63-2.15,8.22,8.22,0,0,0,.64-11.94,8.5,8.5,0,0,0-6.15-2.64m25-26.18a8.13,8.13,0,0,0-6.44,3,8.51,8.51,0,0,0,1.11,11.66,8.09,8.09,0,0,0,5.39,2,8.4,8.4,0,0,0,5.17-15,8.78,8.78,0,0,0-5.23-1.72"/><path class="cls-7" d="M208.39,122.26a18.34,18.34,0,1,1,4.22-36.18v35.69a18.39,18.39,0,0,1-4.22.49"/><path class="cls-7" d="M206.05,205.5A14.52,14.52,0,0,1,206,204a15,15,0,0,1,6.63-12.47v3.81a11.11,11.11,0,0,1-6.56,10.14"/><path class="cls-8" d="M206.94,189.69a11.1,11.1,0,0,1-11.11,11.11H86.49a11.1,11.1,0,0,1-11.11-11.11V80.35A11.1,11.1,0,0,1,86.49,69.24H199.58a7.36,7.36,0,0,1,7.36,7.36V189.69Z"/><path class="cls-9" d="M190.62,186a1.47,1.47,0,0,0,1.47-1.48V85.56a1.47,1.47,0,0,0-1.47-1.47H91.7a1.47,1.47,0,0,0-1.47,1.47v98.92A1.47,1.47,0,0,0,91.7,186ZM91.7,187.14a2.66,2.66,0,0,1-2.65-2.66V85.56a2.65,2.65,0,0,1,2.65-2.65h98.92a2.65,2.65,0,0,1,2.65,2.65v98.92a2.66,2.66,0,0,1-2.65,2.66Z"/><polygon class="cls-10" points="198.18 120.64 187.19 120.64 187.19 99.02 198.18 99.02 198.18 120.64 198.18 120.64"/><path class="cls-10" d="M164.23,139.33a23.06,23.06,0,1,1-23.06-23.06,23.05,23.05,0,0,1,23.06,23.06Z"/><path class="cls-9" d="M158.49,139.69a17.33,17.33,0,1,1-17.33-17.34,17.33,17.33,0,0,1,17.33,17.34Z"/><path class="cls-11" d="M157.42,139.69a16.26,16.26,0,1,1-16.26-16.26,16.26,16.26,0,0,1,16.26,16.26Z"/><path class="cls-7" d="M152.83,139.69A11.67,11.67,0,1,1,141.16,128a11.67,11.67,0,0,1,11.67,11.67Z"/><path class="cls-7" d="M150,139.69a8.87,8.87,0,1,1-8.87-8.87,8.86,8.86,0,0,1,8.87,8.87Z"/><polygon class="cls-12" points="198.18 111.07 187.19 111.07 187.19 108.6 198.18 108.6 198.18 111.07 198.18 111.07"/><polygon class="cls-10" points="198.18 171.36 187.19 171.36 187.19 149.74 198.18 149.74 198.18 171.36 198.18 171.36"/><polygon class="cls-12" points="198.18 161.78 187.19 161.78 187.19 159.32 198.18 159.32 198.18 161.78 198.18 161.78"/></svg>