<svg id="Layer_1" data-name="Layer 1" xmlns="http://www.w3.org/2000/svg" xmlns:xlink="http://www.w3.org/1999/xlink" viewBox="0 0 279.01 279.01"><defs><style>.cls-1{fill:#479fb5;}.cls-2{clip-path:url(#clip-path);}.cls-3,.cls-8{fill:#83c0cc;}.cls-3{opacity:0.47;}.cls-4{clip-path:url(#clip-path-2);}.cls-5{fill:#ebe6e3;}.cls-6{clip-path:url(#clip-path-3);}.cls-7{fill:#17697a;}.cls-9{fill:#fdc371;}</style><clipPath id="clip-path"><path class="cls-1" d="M279,139.47A139.47,139.47,0,1,1,139.54,0,139.48,139.48,0,0,1,279,139.47Z"/></clipPath><clipPath id="clip-path-2"><path class="cls-1" d="M-20,139.5A139.51,139.51,0,0,1-159.5,279,139.51,139.51,0,0,1-299,139.5,139.51,139.51,0,0,1-159.5,0,139.5,139.5,0,0,1-20,139.5Z"/></clipPath><clipPath id="clip-path-3"><path class="cls-1" d="M577.94,139.47A139.47,139.47,0,1,1,438.47,0,139.47,139.47,0,0,1,577.94,139.47Z"/></clipPath></defs><path class="cls-1" d="M279,139.47A139.47,139.47,0,1,1,139.54,0,139.48,139.48,0,0,1,279,139.47Z"/><g class="cls-2"><polygon class="cls-3" points="305.73 -20.82 -65.71 349.18 382.58 392.12 305.73 -20.82"/></g><path class="cls-1" d="M-20,139.5A139.51,139.51,0,0,1-159.5,279,139.51,139.51,0,0,1-299,139.5,139.51,139.51,0,0,1-159.5,0,139.5,139.5,0,0,1-20,139.5Z"/><g class="cls-4"><polygon class="cls-3" points="6.73 -20.82 -364.81 349.27 83.6 392.22 6.73 -20.82"/></g><circle class="cls-5" cx="139.5" cy="109.52" r="33.84"/><path class="cls-1" d="M577.94,139.47A139.47,139.47,0,1,1,438.47,0,139.47,139.47,0,0,1,577.94,139.47Z"/><g class="cls-6"><polygon class="cls-3" points="604.66 -20.82 233.22 349.18 681.51 392.12 604.66 -20.82"/></g><path class="cls-7" d="M139.84,106.89c10.72,0,20,10.18,19,20.82a5,5,0,0,1-2,3.79c-9.24,7.45-24.62,7.65-34.23.41a5.65,5.65,0,0,1-2.37-4.72C119.68,116.34,128.74,106.91,139.84,106.89Z"/><circle class="cls-7" cx="139.5" cy="93.87" r="8.74"/><rect class="cls-8" x="86.35" y="153.52" width="106.31" height="11.33"/><rect class="cls-8" x="86.35" y="170.72" width="106.31" height="11.73"/><rect class="cls-9" x="108.63" y="189.48" width="60.97" height="14.85"/></svg>